%TF.GenerationSoftware,KiCad,Pcbnew,9.0.6-9.0.6~ubuntu24.04.1*%
%TF.CreationDate,2025-11-30T18:55:51-06:00*%
%TF.ProjectId,solar_power_supply,736f6c61-725f-4706-9f77-65725f737570,v1*%
%TF.SameCoordinates,Original*%
%TF.FileFunction,Copper,L2,Bot*%
%TF.FilePolarity,Positive*%
%FSLAX46Y46*%
G04 Gerber Fmt 4.6, Leading zero omitted, Abs format (unit mm)*
G04 Created by KiCad (PCBNEW 9.0.6-9.0.6~ubuntu24.04.1) date 2025-11-30 18:55:51*
%MOMM*%
%LPD*%
G01*
G04 APERTURE LIST*
G04 Aperture macros list*
%AMRoundRect*
0 Rectangle with rounded corners*
0 $1 Rounding radius*
0 $2 $3 $4 $5 $6 $7 $8 $9 X,Y pos of 4 corners*
0 Add a 4 corners polygon primitive as box body*
4,1,4,$2,$3,$4,$5,$6,$7,$8,$9,$2,$3,0*
0 Add four circle primitives for the rounded corners*
1,1,$1+$1,$2,$3*
1,1,$1+$1,$4,$5*
1,1,$1+$1,$6,$7*
1,1,$1+$1,$8,$9*
0 Add four rect primitives between the rounded corners*
20,1,$1+$1,$2,$3,$4,$5,0*
20,1,$1+$1,$4,$5,$6,$7,0*
20,1,$1+$1,$6,$7,$8,$9,0*
20,1,$1+$1,$8,$9,$2,$3,0*%
G04 Aperture macros list end*
%TA.AperFunction,ComponentPad*%
%ADD10RoundRect,0.250000X-0.550000X-0.550000X0.550000X-0.550000X0.550000X0.550000X-0.550000X0.550000X0*%
%TD*%
%TA.AperFunction,ComponentPad*%
%ADD11C,1.600000*%
%TD*%
%TA.AperFunction,ComponentPad*%
%ADD12R,1.700000X1.700000*%
%TD*%
%TA.AperFunction,ComponentPad*%
%ADD13C,1.700000*%
%TD*%
%TA.AperFunction,ViaPad*%
%ADD14C,0.600000*%
%TD*%
%TA.AperFunction,Conductor*%
%ADD15C,0.200000*%
%TD*%
G04 APERTURE END LIST*
D10*
%TO.P,J3,1,Pin_1*%
%TO.N,Net-(J3-Pin_1)*%
X124460000Y-88900000D03*
D11*
%TO.P,J3,2,Pin_2*%
%TO.N,Net-(D2-K)*%
X132080000Y-88900000D03*
%TD*%
D12*
%TO.P,J4,1,Pin_1*%
%TO.N,/SOLAR_P*%
X118745000Y-96520000D03*
D13*
%TO.P,J4,2,Pin_2*%
%TO.N,GNDD*%
X118745000Y-93980000D03*
%TD*%
D12*
%TO.P,J2,1,Pin_1*%
%TO.N,Net-(D2-K)*%
X124460000Y-93345000D03*
D13*
%TO.P,J2,2,Pin_2*%
%TO.N,GNDD*%
X124460000Y-95885000D03*
%TD*%
D12*
%TO.P,J1,1,Pin_1*%
%TO.N,GNDD*%
X158115000Y-88900000D03*
D13*
%TO.P,J1,2,Pin_2*%
%TO.N,/OUT_P*%
X158115000Y-91440000D03*
%TD*%
D14*
%TO.N,Net-(Q1-D)*%
X133885000Y-96200000D03*
X124963000Y-100645000D03*
%TO.N,Net-(D2-K)*%
X118745000Y-89209900D03*
%TO.N,Net-(D1-K)*%
X144595000Y-92847200D03*
X145219000Y-89538000D03*
%TO.N,Net-(U1-FB)*%
X141075000Y-98108500D03*
X148335000Y-87737600D03*
%TO.N,Net-(J3-Pin_1)*%
X133084000Y-90170000D03*
X136430000Y-95149100D03*
X133586000Y-98210100D03*
%TO.N,GNDD*%
X142500000Y-86609300D03*
X139066000Y-95932700D03*
X138464000Y-92554800D03*
%TD*%
D15*
%TO.N,Net-(Q1-D)*%
X129408000Y-96200000D02*
X124963000Y-100645000D01*
X133885000Y-96200000D02*
X129408000Y-96200000D01*
%TO.N,Net-(D2-K)*%
X127635000Y-93345000D02*
X124460000Y-93345000D01*
X132080000Y-88900000D02*
X127635000Y-93345000D01*
X122880000Y-93345000D02*
X118745000Y-89209900D01*
X124460000Y-93345000D02*
X122880000Y-93345000D01*
%TO.N,Net-(D1-K)*%
X144595000Y-90162500D02*
X145219000Y-89538000D01*
X144595000Y-92847200D02*
X144595000Y-90162500D01*
%TO.N,Net-(U1-FB)*%
X146108000Y-87737600D02*
X148335000Y-87737600D01*
X141075000Y-92770700D02*
X146108000Y-87737600D01*
X141075000Y-98108500D02*
X141075000Y-92770700D01*
%TO.N,Net-(J3-Pin_1)*%
X136430000Y-93516300D02*
X133084000Y-90170000D01*
X136430000Y-95149100D02*
X136430000Y-93516300D01*
X133586000Y-97992600D02*
X136430000Y-95149100D01*
X133586000Y-98210100D02*
X133586000Y-97992600D01*
%TO.N,GNDD*%
X139066000Y-92554800D02*
X138464000Y-92554800D01*
X139066000Y-90043400D02*
X139066000Y-92554800D01*
X142500000Y-86609300D02*
X139066000Y-90043400D01*
X139066000Y-92554800D02*
X139066000Y-95932700D01*
%TD*%
%TA.AperFunction,Conductor*%
%TO.N,GNDD*%
G36*
X159963039Y-85610185D02*
G01*
X160008794Y-85662989D01*
X160020000Y-85714500D01*
X160020000Y-93348000D01*
X160000315Y-93415039D01*
X159947511Y-93460794D01*
X159896000Y-93472000D01*
X145372263Y-93472000D01*
X145305224Y-93452315D01*
X145259469Y-93399511D01*
X145249525Y-93330353D01*
X145269161Y-93279109D01*
X145273773Y-93272205D01*
X145304394Y-93226379D01*
X145312827Y-93206021D01*
X145318067Y-93193366D01*
X145364737Y-93080697D01*
X145395500Y-92926042D01*
X145395500Y-92768358D01*
X145395500Y-92768355D01*
X145395499Y-92768353D01*
X145380340Y-92692143D01*
X145364737Y-92613703D01*
X145345749Y-92567861D01*
X145304397Y-92468027D01*
X145304390Y-92468014D01*
X145216398Y-92336325D01*
X145195520Y-92269647D01*
X145195500Y-92267434D01*
X145195500Y-91333713D01*
X156764500Y-91333713D01*
X156764500Y-91546286D01*
X156797753Y-91756239D01*
X156863444Y-91958414D01*
X156959951Y-92147820D01*
X157084890Y-92319786D01*
X157235213Y-92470109D01*
X157407179Y-92595048D01*
X157407181Y-92595049D01*
X157407184Y-92595051D01*
X157596588Y-92691557D01*
X157798757Y-92757246D01*
X158008713Y-92790500D01*
X158008714Y-92790500D01*
X158221286Y-92790500D01*
X158221287Y-92790500D01*
X158431243Y-92757246D01*
X158633412Y-92691557D01*
X158822816Y-92595051D01*
X158888324Y-92547457D01*
X158994786Y-92470109D01*
X158994788Y-92470106D01*
X158994792Y-92470104D01*
X159145104Y-92319792D01*
X159145106Y-92319788D01*
X159145109Y-92319786D01*
X159270048Y-92147820D01*
X159270047Y-92147820D01*
X159270051Y-92147816D01*
X159366557Y-91958412D01*
X159432246Y-91756243D01*
X159465500Y-91546287D01*
X159465500Y-91333713D01*
X159432246Y-91123757D01*
X159366557Y-90921588D01*
X159270051Y-90732184D01*
X159270049Y-90732181D01*
X159270048Y-90732179D01*
X159145109Y-90560213D01*
X159031181Y-90446285D01*
X158997696Y-90384962D01*
X159002680Y-90315270D01*
X159044552Y-90259337D01*
X159075529Y-90242422D01*
X159207086Y-90193354D01*
X159207093Y-90193350D01*
X159322187Y-90107190D01*
X159322190Y-90107187D01*
X159408350Y-89992093D01*
X159408354Y-89992086D01*
X159458596Y-89857379D01*
X159458598Y-89857372D01*
X159464999Y-89797844D01*
X159465000Y-89797827D01*
X159465000Y-89150000D01*
X158548012Y-89150000D01*
X158580925Y-89092993D01*
X158615000Y-88965826D01*
X158615000Y-88834174D01*
X158580925Y-88707007D01*
X158548012Y-88650000D01*
X159465000Y-88650000D01*
X159465000Y-88002172D01*
X159464999Y-88002155D01*
X159458598Y-87942627D01*
X159458596Y-87942620D01*
X159408354Y-87807913D01*
X159408350Y-87807906D01*
X159322190Y-87692812D01*
X159322187Y-87692809D01*
X159207093Y-87606649D01*
X159207086Y-87606645D01*
X159072379Y-87556403D01*
X159072372Y-87556401D01*
X159012844Y-87550000D01*
X158365000Y-87550000D01*
X158365000Y-88466988D01*
X158307993Y-88434075D01*
X158180826Y-88400000D01*
X158049174Y-88400000D01*
X157922007Y-88434075D01*
X157865000Y-88466988D01*
X157865000Y-87550000D01*
X157217155Y-87550000D01*
X157157627Y-87556401D01*
X157157620Y-87556403D01*
X157022913Y-87606645D01*
X157022906Y-87606649D01*
X156907812Y-87692809D01*
X156907809Y-87692812D01*
X156821649Y-87807906D01*
X156821645Y-87807913D01*
X156771403Y-87942620D01*
X156771401Y-87942627D01*
X156765000Y-88002155D01*
X156765000Y-88650000D01*
X157681988Y-88650000D01*
X157649075Y-88707007D01*
X157615000Y-88834174D01*
X157615000Y-88965826D01*
X157649075Y-89092993D01*
X157681988Y-89150000D01*
X156765000Y-89150000D01*
X156765000Y-89797844D01*
X156771401Y-89857372D01*
X156771403Y-89857379D01*
X156821645Y-89992086D01*
X156821649Y-89992093D01*
X156907809Y-90107187D01*
X156907812Y-90107190D01*
X157022906Y-90193350D01*
X157022913Y-90193354D01*
X157154470Y-90242422D01*
X157210404Y-90284293D01*
X157234821Y-90349758D01*
X157219969Y-90418031D01*
X157198819Y-90446285D01*
X157084889Y-90560215D01*
X156959951Y-90732179D01*
X156863444Y-90921585D01*
X156797753Y-91123760D01*
X156764500Y-91333713D01*
X145195500Y-91333713D01*
X145195500Y-90462426D01*
X145204136Y-90433015D01*
X145210641Y-90403047D01*
X145214418Y-90397995D01*
X145215185Y-90395387D01*
X145231775Y-90374789D01*
X145234033Y-90372529D01*
X145295339Y-90339019D01*
X145297560Y-90338556D01*
X145297842Y-90338500D01*
X145452497Y-90307737D01*
X145598179Y-90247394D01*
X145729289Y-90159789D01*
X145840789Y-90048289D01*
X145928394Y-89917179D01*
X145988737Y-89771497D01*
X146019500Y-89616842D01*
X146019500Y-89459158D01*
X146019500Y-89459155D01*
X146019499Y-89459153D01*
X146005421Y-89388380D01*
X145988737Y-89304503D01*
X145953258Y-89218848D01*
X145928397Y-89158827D01*
X145928390Y-89158814D01*
X145840789Y-89027711D01*
X145836924Y-89023001D01*
X145838085Y-89022047D01*
X145808159Y-88967242D01*
X145813143Y-88897550D01*
X145841638Y-88853209D01*
X146320421Y-88374418D01*
X146381743Y-88340934D01*
X146408102Y-88338100D01*
X147755234Y-88338100D01*
X147822273Y-88357785D01*
X147824125Y-88358998D01*
X147955814Y-88446990D01*
X147955827Y-88446997D01*
X148101498Y-88507335D01*
X148101503Y-88507337D01*
X148256153Y-88538099D01*
X148256156Y-88538100D01*
X148256158Y-88538100D01*
X148413844Y-88538100D01*
X148413845Y-88538099D01*
X148568497Y-88507337D01*
X148714179Y-88446994D01*
X148845289Y-88359389D01*
X148956789Y-88247889D01*
X149044394Y-88116779D01*
X149104737Y-87971097D01*
X149135500Y-87816442D01*
X149135500Y-87658758D01*
X149135500Y-87658755D01*
X149135499Y-87658753D01*
X149130082Y-87631522D01*
X149104737Y-87504103D01*
X149104735Y-87504098D01*
X149044397Y-87358427D01*
X149044390Y-87358414D01*
X148956789Y-87227311D01*
X148956786Y-87227307D01*
X148845292Y-87115813D01*
X148845288Y-87115810D01*
X148714185Y-87028209D01*
X148714172Y-87028202D01*
X148568501Y-86967864D01*
X148568489Y-86967861D01*
X148413845Y-86937100D01*
X148413842Y-86937100D01*
X148256158Y-86937100D01*
X148256155Y-86937100D01*
X148101510Y-86967861D01*
X148101498Y-86967864D01*
X147955827Y-87028202D01*
X147955814Y-87028209D01*
X147824125Y-87116202D01*
X147757447Y-87137080D01*
X147755234Y-87137100D01*
X146195706Y-87137100D01*
X146195677Y-87137098D01*
X146187052Y-87137098D01*
X146179275Y-87137098D01*
X146028939Y-87137099D01*
X146028933Y-87137100D01*
X145906168Y-87169997D01*
X145906164Y-87169998D01*
X145878041Y-87177533D01*
X145876330Y-87177964D01*
X145876228Y-87178015D01*
X145876214Y-87178023D01*
X145876210Y-87178025D01*
X145858317Y-87188355D01*
X145812661Y-87214714D01*
X145812661Y-87214715D01*
X145785803Y-87230221D01*
X145739284Y-87257079D01*
X145625053Y-87371311D01*
X145625036Y-87371328D01*
X140706285Y-92290179D01*
X140706284Y-92290180D01*
X140594481Y-92401982D01*
X140594477Y-92401987D01*
X140515432Y-92538898D01*
X140515422Y-92538917D01*
X140515420Y-92538922D01*
X140507698Y-92567741D01*
X140507667Y-92567861D01*
X140474500Y-92691643D01*
X140474500Y-92691645D01*
X140474499Y-92691649D01*
X140474499Y-92692142D01*
X140474499Y-92692143D01*
X140474500Y-92783131D01*
X140474500Y-97528734D01*
X140454815Y-97595773D01*
X140453602Y-97597625D01*
X140365609Y-97729314D01*
X140365602Y-97729327D01*
X140305264Y-97874998D01*
X140305261Y-97875010D01*
X140274500Y-98029653D01*
X140274500Y-98187346D01*
X140305261Y-98341989D01*
X140305264Y-98342001D01*
X140365602Y-98487672D01*
X140365609Y-98487685D01*
X140453210Y-98618788D01*
X140453213Y-98618792D01*
X140564707Y-98730286D01*
X140564711Y-98730289D01*
X140695814Y-98817890D01*
X140695827Y-98817897D01*
X140722485Y-98828939D01*
X140776889Y-98872779D01*
X140798954Y-98939074D01*
X140781675Y-99006773D01*
X140730538Y-99054384D01*
X140675033Y-99067500D01*
X134152446Y-99067500D01*
X134085407Y-99047815D01*
X134039652Y-98995011D01*
X134029708Y-98925853D01*
X134058733Y-98862297D01*
X134083555Y-98840398D01*
X134088350Y-98837193D01*
X134096289Y-98831889D01*
X134207789Y-98720389D01*
X134295394Y-98589279D01*
X134355737Y-98443597D01*
X134386500Y-98288942D01*
X134386500Y-98131258D01*
X134386500Y-98131255D01*
X134384524Y-98121324D01*
X134390748Y-98051733D01*
X134418463Y-98009442D01*
X136444581Y-95983681D01*
X136505906Y-95950203D01*
X136508062Y-95949755D01*
X136508841Y-95949600D01*
X136508842Y-95949600D01*
X136663497Y-95918837D01*
X136809179Y-95858494D01*
X136940289Y-95770889D01*
X137051789Y-95659389D01*
X137139394Y-95528279D01*
X137199737Y-95382597D01*
X137230500Y-95227942D01*
X137230500Y-95070258D01*
X137230500Y-95070255D01*
X137230499Y-95070253D01*
X137199738Y-94915610D01*
X137199738Y-94915608D01*
X137199737Y-94915603D01*
X137199735Y-94915598D01*
X137139397Y-94769927D01*
X137139390Y-94769914D01*
X137051398Y-94638225D01*
X137030520Y-94571547D01*
X137030500Y-94569334D01*
X137030500Y-93527620D01*
X137030504Y-93437270D01*
X137030500Y-93437255D01*
X137030500Y-93437243D01*
X137007787Y-93352476D01*
X136990371Y-93287469D01*
X136989720Y-93284763D01*
X136988292Y-93282290D01*
X136988291Y-93282289D01*
X136956014Y-93226384D01*
X136944258Y-93206021D01*
X136910536Y-93147606D01*
X136910533Y-93147603D01*
X136910531Y-93147599D01*
X136910518Y-93147582D01*
X136841916Y-93078980D01*
X133918579Y-90155380D01*
X133885097Y-90094056D01*
X133884647Y-90091894D01*
X133862317Y-89979637D01*
X133853737Y-89936503D01*
X133796296Y-89797827D01*
X133793397Y-89790827D01*
X133793390Y-89790814D01*
X133705789Y-89659711D01*
X133705786Y-89659707D01*
X133594292Y-89548213D01*
X133594288Y-89548210D01*
X133463185Y-89460609D01*
X133463173Y-89460602D01*
X133394649Y-89432220D01*
X133340245Y-89388380D01*
X133318180Y-89322086D01*
X133324169Y-89279343D01*
X133348477Y-89204534D01*
X133380500Y-89002352D01*
X133380500Y-88797648D01*
X133364972Y-88699607D01*
X133348477Y-88595465D01*
X133300236Y-88446997D01*
X133285220Y-88400781D01*
X133285218Y-88400778D01*
X133285218Y-88400776D01*
X133233865Y-88299991D01*
X133192287Y-88218390D01*
X133176892Y-88197200D01*
X133071971Y-88052786D01*
X132927213Y-87908028D01*
X132761613Y-87787715D01*
X132761612Y-87787714D01*
X132761610Y-87787713D01*
X132701898Y-87757288D01*
X132579223Y-87694781D01*
X132384534Y-87631522D01*
X132209995Y-87603878D01*
X132182352Y-87599500D01*
X131977648Y-87599500D01*
X131953329Y-87603351D01*
X131775465Y-87631522D01*
X131580776Y-87694781D01*
X131398386Y-87787715D01*
X131232786Y-87908028D01*
X131088028Y-88052786D01*
X130967715Y-88218386D01*
X130874781Y-88400776D01*
X130811522Y-88595465D01*
X130779500Y-88797648D01*
X130779500Y-89002351D01*
X130811522Y-89204534D01*
X130816173Y-89218848D01*
X130818165Y-89288690D01*
X130785921Y-89344842D01*
X127422584Y-92708181D01*
X127361261Y-92741666D01*
X127334903Y-92744500D01*
X125934499Y-92744500D01*
X125867460Y-92724815D01*
X125821705Y-92672011D01*
X125810499Y-92620500D01*
X125810499Y-92447129D01*
X125810498Y-92447123D01*
X125804091Y-92387516D01*
X125753797Y-92252671D01*
X125753793Y-92252664D01*
X125667547Y-92137455D01*
X125667544Y-92137452D01*
X125552335Y-92051206D01*
X125552328Y-92051202D01*
X125417482Y-92000908D01*
X125417483Y-92000908D01*
X125357883Y-91994501D01*
X125357881Y-91994500D01*
X125357873Y-91994500D01*
X125357864Y-91994500D01*
X123562129Y-91994500D01*
X123562123Y-91994501D01*
X123502516Y-92000908D01*
X123367671Y-92051202D01*
X123367664Y-92051206D01*
X123252455Y-92137452D01*
X123252452Y-92137455D01*
X123166206Y-92252664D01*
X123166202Y-92252671D01*
X123115908Y-92387516D01*
X123110205Y-92440565D01*
X123083467Y-92505116D01*
X123026074Y-92544964D01*
X122956249Y-92547457D01*
X122899234Y-92514989D01*
X122720574Y-92336325D01*
X119579574Y-89195248D01*
X119546090Y-89133926D01*
X119545640Y-89131760D01*
X119523816Y-89022047D01*
X119514737Y-88976403D01*
X119514735Y-88976398D01*
X119454397Y-88830727D01*
X119454390Y-88830714D01*
X119366789Y-88699611D01*
X119366786Y-88699607D01*
X119255292Y-88588113D01*
X119255288Y-88588110D01*
X119124185Y-88500509D01*
X119124172Y-88500502D01*
X118978501Y-88440164D01*
X118978489Y-88440161D01*
X118869347Y-88418451D01*
X118869346Y-88418451D01*
X118823844Y-88409400D01*
X118823842Y-88409400D01*
X118666158Y-88409400D01*
X118666155Y-88409400D01*
X118511510Y-88440161D01*
X118511498Y-88440164D01*
X118365827Y-88500502D01*
X118365814Y-88500509D01*
X118234711Y-88588110D01*
X118234707Y-88588113D01*
X118123213Y-88699607D01*
X118123210Y-88699611D01*
X118035609Y-88830714D01*
X118035602Y-88830727D01*
X117975264Y-88976398D01*
X117975261Y-88976410D01*
X117944500Y-89131053D01*
X117944500Y-89288746D01*
X117975261Y-89443389D01*
X117975264Y-89443401D01*
X118035602Y-89589072D01*
X118035609Y-89589085D01*
X118123210Y-89720188D01*
X118123213Y-89720192D01*
X118234707Y-89831686D01*
X118234711Y-89831689D01*
X118365814Y-89919290D01*
X118365827Y-89919297D01*
X118511498Y-89979635D01*
X118511503Y-89979637D01*
X118626747Y-90002560D01*
X118666836Y-90010535D01*
X118728747Y-90042920D01*
X118730327Y-90044472D01*
X122265267Y-93579498D01*
X122399477Y-93713711D01*
X122399480Y-93713716D01*
X122470046Y-93784282D01*
X122470048Y-93784284D01*
X122511410Y-93825648D01*
X122511730Y-93825886D01*
X122514479Y-93827365D01*
X122592879Y-93872629D01*
X122592880Y-93872630D01*
X122641778Y-93900862D01*
X122645443Y-93903281D01*
X122647541Y-93904395D01*
X122648213Y-93904575D01*
X122648216Y-93904577D01*
X122705449Y-93919912D01*
X122800936Y-93945500D01*
X122959050Y-93945502D01*
X122959053Y-93945500D01*
X122967675Y-93945501D01*
X122967704Y-93945500D01*
X122985501Y-93945500D01*
X123052540Y-93965185D01*
X123098295Y-94017989D01*
X123109501Y-94069500D01*
X123109501Y-94242876D01*
X123115908Y-94302483D01*
X123166202Y-94437328D01*
X123166206Y-94437335D01*
X123252452Y-94552544D01*
X123252455Y-94552547D01*
X123367664Y-94638793D01*
X123367671Y-94638797D01*
X123367709Y-94638811D01*
X123502517Y-94689091D01*
X123562127Y-94695500D01*
X123572685Y-94695499D01*
X123639723Y-94715179D01*
X123660372Y-94731818D01*
X124330591Y-95402037D01*
X124267007Y-95419075D01*
X124152993Y-95484901D01*
X124059901Y-95577993D01*
X123994075Y-95692007D01*
X123977037Y-95755591D01*
X123344728Y-95123282D01*
X123344727Y-95123282D01*
X123305380Y-95177439D01*
X123208904Y-95366782D01*
X123143242Y-95568869D01*
X123143242Y-95568872D01*
X123110000Y-95778753D01*
X123110000Y-95991246D01*
X123143242Y-96201127D01*
X123143242Y-96201130D01*
X123208904Y-96403217D01*
X123305375Y-96592550D01*
X123344728Y-96646716D01*
X123977037Y-96014408D01*
X123994075Y-96077993D01*
X124059901Y-96192007D01*
X124152993Y-96285099D01*
X124267007Y-96350925D01*
X124330590Y-96367962D01*
X123698282Y-97000269D01*
X123698282Y-97000270D01*
X123752449Y-97039624D01*
X123941782Y-97136095D01*
X124143870Y-97201757D01*
X124353754Y-97235000D01*
X124566246Y-97235000D01*
X124776127Y-97201757D01*
X124776130Y-97201757D01*
X124978217Y-97136095D01*
X125167554Y-97039622D01*
X125221716Y-97000270D01*
X125221717Y-97000270D01*
X124589408Y-96367962D01*
X124652993Y-96350925D01*
X124767007Y-96285099D01*
X124860099Y-96192007D01*
X124925925Y-96077993D01*
X124942962Y-96014409D01*
X125575270Y-96646717D01*
X125575270Y-96646716D01*
X125614622Y-96592554D01*
X125711095Y-96403217D01*
X125776757Y-96201130D01*
X125776757Y-96201127D01*
X125810000Y-95991246D01*
X125810000Y-95778753D01*
X125776757Y-95568872D01*
X125776757Y-95568869D01*
X125711095Y-95366782D01*
X125614624Y-95177449D01*
X125575270Y-95123282D01*
X125575269Y-95123282D01*
X124942962Y-95755590D01*
X124925925Y-95692007D01*
X124860099Y-95577993D01*
X124767007Y-95484901D01*
X124652993Y-95419075D01*
X124589409Y-95402037D01*
X125259627Y-94731818D01*
X125320950Y-94698333D01*
X125347307Y-94695499D01*
X125357872Y-94695499D01*
X125417483Y-94689091D01*
X125552331Y-94638796D01*
X125667546Y-94552546D01*
X125753796Y-94437331D01*
X125804091Y-94302483D01*
X125810500Y-94242873D01*
X125810500Y-94069500D01*
X125830185Y-94002461D01*
X125882989Y-93956706D01*
X125934500Y-93945500D01*
X127548331Y-93945500D01*
X127548347Y-93945501D01*
X127555943Y-93945501D01*
X127714054Y-93945501D01*
X127714057Y-93945501D01*
X127866785Y-93904577D01*
X127916904Y-93875639D01*
X128003716Y-93825520D01*
X128115520Y-93713716D01*
X128115520Y-93713714D01*
X128125728Y-93703507D01*
X128125730Y-93703504D01*
X131635158Y-90194075D01*
X131696479Y-90160592D01*
X131761151Y-90163825D01*
X131775466Y-90168477D01*
X131977648Y-90200500D01*
X131977649Y-90200500D01*
X132172120Y-90200500D01*
X132239159Y-90220185D01*
X132284914Y-90272989D01*
X132293737Y-90300309D01*
X132314261Y-90403489D01*
X132314264Y-90403501D01*
X132374602Y-90549172D01*
X132374609Y-90549185D01*
X132462210Y-90680288D01*
X132462213Y-90680292D01*
X132573707Y-90791786D01*
X132573711Y-90791789D01*
X132704814Y-90879390D01*
X132704827Y-90879397D01*
X132850498Y-90939735D01*
X132850503Y-90939737D01*
X133005158Y-90970500D01*
X133005159Y-90970500D01*
X133005802Y-90970628D01*
X133067713Y-91003013D01*
X133069293Y-91004565D01*
X135793185Y-93728701D01*
X135826667Y-93790024D01*
X135829500Y-93816377D01*
X135829500Y-94569334D01*
X135809815Y-94636373D01*
X135808602Y-94638225D01*
X135720609Y-94769914D01*
X135720602Y-94769927D01*
X135660264Y-94915598D01*
X135660261Y-94915608D01*
X135629379Y-95070859D01*
X135596994Y-95132770D01*
X135595436Y-95134355D01*
X134844659Y-95885001D01*
X134817708Y-95911947D01*
X134756381Y-95945427D01*
X134686690Y-95940436D01*
X134630760Y-95898560D01*
X134615473Y-95871710D01*
X134594397Y-95820826D01*
X134594390Y-95820814D01*
X134506789Y-95689711D01*
X134506786Y-95689707D01*
X134395292Y-95578213D01*
X134395288Y-95578210D01*
X134264185Y-95490609D01*
X134264172Y-95490602D01*
X134118501Y-95430264D01*
X134118489Y-95430261D01*
X133963845Y-95399500D01*
X133963842Y-95399500D01*
X133806158Y-95399500D01*
X133806155Y-95399500D01*
X133651510Y-95430261D01*
X133651498Y-95430264D01*
X133505827Y-95490602D01*
X133505814Y-95490609D01*
X133374125Y-95578602D01*
X133307447Y-95599480D01*
X133305234Y-95599500D01*
X129487057Y-95599500D01*
X129328942Y-95599500D01*
X129176215Y-95640423D01*
X129176214Y-95640423D01*
X129176212Y-95640424D01*
X129176209Y-95640425D01*
X129126096Y-95669359D01*
X129126095Y-95669360D01*
X129090853Y-95689707D01*
X129039285Y-95719479D01*
X129039282Y-95719481D01*
X124948339Y-99810425D01*
X124887016Y-99843910D01*
X124884850Y-99844361D01*
X124729508Y-99875261D01*
X124729498Y-99875264D01*
X124583827Y-99935602D01*
X124583814Y-99935609D01*
X124452711Y-100023210D01*
X124452707Y-100023213D01*
X124341213Y-100134707D01*
X124341210Y-100134711D01*
X124253609Y-100265814D01*
X124253602Y-100265827D01*
X124193264Y-100411498D01*
X124193261Y-100411510D01*
X124162500Y-100566153D01*
X124162500Y-100723846D01*
X124193261Y-100878489D01*
X124193264Y-100878501D01*
X124253602Y-101024172D01*
X124253609Y-101024185D01*
X124341210Y-101155288D01*
X124341213Y-101155292D01*
X124452707Y-101266786D01*
X124452711Y-101266789D01*
X124583814Y-101354390D01*
X124583827Y-101354397D01*
X124729498Y-101414735D01*
X124729503Y-101414737D01*
X124884153Y-101445499D01*
X124884156Y-101445500D01*
X124884158Y-101445500D01*
X125041844Y-101445500D01*
X125041845Y-101445499D01*
X125196497Y-101414737D01*
X125342179Y-101354394D01*
X125473289Y-101266789D01*
X125584789Y-101155289D01*
X125672394Y-101024179D01*
X125732737Y-100878497D01*
X125752113Y-100781085D01*
X125763638Y-100723150D01*
X125796023Y-100661239D01*
X125797518Y-100659716D01*
X129620416Y-96836819D01*
X129681739Y-96803334D01*
X129708097Y-96800500D01*
X133305234Y-96800500D01*
X133321121Y-96804843D01*
X133335685Y-96804297D01*
X133362082Y-96816040D01*
X133368317Y-96817745D01*
X133374061Y-96821139D01*
X133374711Y-96821789D01*
X133505821Y-96909394D01*
X133564652Y-96933762D01*
X133572189Y-96938216D01*
X133590304Y-96957603D01*
X133610962Y-96974250D01*
X133613785Y-96982734D01*
X133619891Y-96989268D01*
X133624648Y-97015370D01*
X133633027Y-97040544D01*
X133630815Y-97049208D01*
X133632419Y-97058006D01*
X133622309Y-97082536D01*
X133615748Y-97108244D01*
X133607157Y-97119302D01*
X133605796Y-97122605D01*
X133603169Y-97124435D01*
X133596780Y-97132660D01*
X133261563Y-97467818D01*
X133221347Y-97494688D01*
X133206825Y-97500703D01*
X133206814Y-97500709D01*
X133075711Y-97588310D01*
X133075707Y-97588313D01*
X132964213Y-97699807D01*
X132964210Y-97699811D01*
X132876609Y-97830914D01*
X132876602Y-97830927D01*
X132816264Y-97976598D01*
X132816261Y-97976610D01*
X132785500Y-98131253D01*
X132785500Y-98288946D01*
X132816261Y-98443589D01*
X132816264Y-98443601D01*
X132876602Y-98589272D01*
X132876609Y-98589285D01*
X132964210Y-98720388D01*
X132964213Y-98720392D01*
X133075707Y-98831886D01*
X133075711Y-98831889D01*
X133088445Y-98840398D01*
X133133250Y-98894010D01*
X133141957Y-98963335D01*
X133111802Y-99026363D01*
X133052359Y-99063082D01*
X133019554Y-99067500D01*
X129093108Y-99067500D01*
X128965812Y-99101608D01*
X128851686Y-99167500D01*
X128851683Y-99167502D01*
X128758502Y-99260683D01*
X128758500Y-99260686D01*
X128692608Y-99374812D01*
X128658500Y-99502108D01*
X128658500Y-102372500D01*
X128638815Y-102439539D01*
X128586011Y-102485294D01*
X128534500Y-102496500D01*
X115178500Y-102496500D01*
X115111461Y-102476815D01*
X115065706Y-102424011D01*
X115054500Y-102372500D01*
X115054500Y-95622135D01*
X117394500Y-95622135D01*
X117394500Y-97417870D01*
X117394501Y-97417876D01*
X117400908Y-97477483D01*
X117451202Y-97612328D01*
X117451206Y-97612335D01*
X117537452Y-97727544D01*
X117537455Y-97727547D01*
X117652664Y-97813793D01*
X117652671Y-97813797D01*
X117787517Y-97864091D01*
X117787516Y-97864091D01*
X117794444Y-97864835D01*
X117847127Y-97870500D01*
X119642872Y-97870499D01*
X119702483Y-97864091D01*
X119837331Y-97813796D01*
X119952546Y-97727546D01*
X120038796Y-97612331D01*
X120089091Y-97477483D01*
X120095500Y-97417873D01*
X120095499Y-96403217D01*
X120095499Y-95773881D01*
X120095499Y-95622129D01*
X120095498Y-95622123D01*
X120095497Y-95622116D01*
X120089091Y-95562517D01*
X120077502Y-95531446D01*
X120038797Y-95427671D01*
X120038793Y-95427664D01*
X119952547Y-95312455D01*
X119952544Y-95312452D01*
X119837335Y-95226206D01*
X119837328Y-95226202D01*
X119702482Y-95175908D01*
X119702483Y-95175908D01*
X119642883Y-95169501D01*
X119642881Y-95169500D01*
X119642873Y-95169500D01*
X119642865Y-95169500D01*
X119632309Y-95169500D01*
X119565270Y-95149815D01*
X119544628Y-95133181D01*
X118874408Y-94462962D01*
X118937993Y-94445925D01*
X119052007Y-94380099D01*
X119145099Y-94287007D01*
X119210925Y-94172993D01*
X119227962Y-94109409D01*
X119860270Y-94741717D01*
X119860270Y-94741716D01*
X119899622Y-94687554D01*
X119996095Y-94498217D01*
X120061757Y-94296130D01*
X120061757Y-94296127D01*
X120095000Y-94086246D01*
X120095000Y-93873753D01*
X120061757Y-93663872D01*
X120061757Y-93663869D01*
X119996095Y-93461782D01*
X119899624Y-93272449D01*
X119860270Y-93218282D01*
X119860269Y-93218282D01*
X119227962Y-93850590D01*
X119210925Y-93787007D01*
X119145099Y-93672993D01*
X119052007Y-93579901D01*
X118937993Y-93514075D01*
X118874409Y-93497037D01*
X119506716Y-92864728D01*
X119452550Y-92825375D01*
X119263217Y-92728904D01*
X119061129Y-92663242D01*
X118851246Y-92630000D01*
X118638754Y-92630000D01*
X118428872Y-92663242D01*
X118428869Y-92663242D01*
X118226782Y-92728904D01*
X118037439Y-92825380D01*
X117983282Y-92864727D01*
X117983282Y-92864728D01*
X118615591Y-93497037D01*
X118552007Y-93514075D01*
X118437993Y-93579901D01*
X118344901Y-93672993D01*
X118279075Y-93787007D01*
X118262037Y-93850591D01*
X117629728Y-93218282D01*
X117629727Y-93218282D01*
X117590380Y-93272439D01*
X117493904Y-93461782D01*
X117428242Y-93663869D01*
X117428242Y-93663872D01*
X117395000Y-93873753D01*
X117395000Y-94086246D01*
X117428242Y-94296127D01*
X117428242Y-94296130D01*
X117493904Y-94498217D01*
X117590375Y-94687550D01*
X117629728Y-94741716D01*
X118262037Y-94109408D01*
X118279075Y-94172993D01*
X118344901Y-94287007D01*
X118437993Y-94380099D01*
X118552007Y-94445925D01*
X118615590Y-94462962D01*
X117945370Y-95133181D01*
X117884047Y-95166666D01*
X117857698Y-95169500D01*
X117847134Y-95169500D01*
X117847123Y-95169501D01*
X117787516Y-95175908D01*
X117652671Y-95226202D01*
X117652664Y-95226206D01*
X117537455Y-95312452D01*
X117537452Y-95312455D01*
X117451206Y-95427664D01*
X117451202Y-95427671D01*
X117400908Y-95562517D01*
X117394501Y-95622116D01*
X117394501Y-95622123D01*
X117394500Y-95622135D01*
X115054500Y-95622135D01*
X115054500Y-88299983D01*
X123159500Y-88299983D01*
X123159500Y-89500001D01*
X123159501Y-89500018D01*
X123170000Y-89602796D01*
X123170001Y-89602799D01*
X123225185Y-89769331D01*
X123225187Y-89769336D01*
X123242771Y-89797844D01*
X123317288Y-89918656D01*
X123441344Y-90042712D01*
X123590666Y-90134814D01*
X123757203Y-90189999D01*
X123859991Y-90200500D01*
X125060008Y-90200499D01*
X125162797Y-90189999D01*
X125329334Y-90134814D01*
X125478656Y-90042712D01*
X125602712Y-89918656D01*
X125694814Y-89769334D01*
X125749999Y-89602797D01*
X125760500Y-89500009D01*
X125760499Y-88299992D01*
X125749999Y-88197203D01*
X125694814Y-88030666D01*
X125602712Y-87881344D01*
X125478656Y-87757288D01*
X125329334Y-87665186D01*
X125162797Y-87610001D01*
X125162795Y-87610000D01*
X125060010Y-87599500D01*
X123859998Y-87599500D01*
X123859981Y-87599501D01*
X123757203Y-87610000D01*
X123757200Y-87610001D01*
X123590668Y-87665185D01*
X123590663Y-87665187D01*
X123441342Y-87757289D01*
X123317289Y-87881342D01*
X123225187Y-88030663D01*
X123225186Y-88030666D01*
X123170001Y-88197203D01*
X123170001Y-88197204D01*
X123170000Y-88197204D01*
X123159500Y-88299983D01*
X115054500Y-88299983D01*
X115054500Y-85714500D01*
X115074185Y-85647461D01*
X115126989Y-85601706D01*
X115178500Y-85590500D01*
X159896000Y-85590500D01*
X159963039Y-85610185D01*
G37*
%TD.AperFunction*%
%TD*%
M02*
