%TF.GenerationSoftware,KiCad,Pcbnew,9.0.6-9.0.6~ubuntu24.04.1*%
%TF.CreationDate,2025-11-30T14:47:38-06:00*%
%TF.ProjectId,breadboard_power_supply,62726561-6462-46f6-9172-645f706f7765,Version 1*%
%TF.SameCoordinates,Original*%
%TF.FileFunction,Legend,Bot*%
%TF.FilePolarity,Positive*%
%FSLAX46Y46*%
G04 Gerber Fmt 4.6, Leading zero omitted, Abs format (unit mm)*
G04 Created by KiCad (PCBNEW 9.0.6-9.0.6~ubuntu24.04.1) date 2025-11-30 14:47:38*
%MOMM*%
%LPD*%
G01*
G04 APERTURE LIST*
%ADD10C,0.100000*%
G04 APERTURE END LIST*
D10*
X206827580Y-103210401D02*
X206113295Y-103210401D01*
X206113295Y-103210401D02*
X205970438Y-103258020D01*
X205970438Y-103258020D02*
X205875200Y-103353258D01*
X205875200Y-103353258D02*
X205827580Y-103496115D01*
X205827580Y-103496115D02*
X205827580Y-103591353D01*
X205827580Y-102591353D02*
X205875200Y-102686591D01*
X205875200Y-102686591D02*
X205922819Y-102734210D01*
X205922819Y-102734210D02*
X206018057Y-102781829D01*
X206018057Y-102781829D02*
X206303771Y-102781829D01*
X206303771Y-102781829D02*
X206399009Y-102734210D01*
X206399009Y-102734210D02*
X206446628Y-102686591D01*
X206446628Y-102686591D02*
X206494247Y-102591353D01*
X206494247Y-102591353D02*
X206494247Y-102448496D01*
X206494247Y-102448496D02*
X206446628Y-102353258D01*
X206446628Y-102353258D02*
X206399009Y-102305639D01*
X206399009Y-102305639D02*
X206303771Y-102258020D01*
X206303771Y-102258020D02*
X206018057Y-102258020D01*
X206018057Y-102258020D02*
X205922819Y-102305639D01*
X205922819Y-102305639D02*
X205875200Y-102353258D01*
X205875200Y-102353258D02*
X205827580Y-102448496D01*
X205827580Y-102448496D02*
X205827580Y-102591353D01*
X205875200Y-101877067D02*
X205827580Y-101781829D01*
X205827580Y-101781829D02*
X205827580Y-101591353D01*
X205827580Y-101591353D02*
X205875200Y-101496115D01*
X205875200Y-101496115D02*
X205970438Y-101448496D01*
X205970438Y-101448496D02*
X206018057Y-101448496D01*
X206018057Y-101448496D02*
X206113295Y-101496115D01*
X206113295Y-101496115D02*
X206160914Y-101591353D01*
X206160914Y-101591353D02*
X206160914Y-101734210D01*
X206160914Y-101734210D02*
X206208533Y-101829448D01*
X206208533Y-101829448D02*
X206303771Y-101877067D01*
X206303771Y-101877067D02*
X206351390Y-101877067D01*
X206351390Y-101877067D02*
X206446628Y-101829448D01*
X206446628Y-101829448D02*
X206494247Y-101734210D01*
X206494247Y-101734210D02*
X206494247Y-101591353D01*
X206494247Y-101591353D02*
X206446628Y-101496115D01*
X205875200Y-100638972D02*
X205827580Y-100734210D01*
X205827580Y-100734210D02*
X205827580Y-100924686D01*
X205827580Y-100924686D02*
X205875200Y-101019924D01*
X205875200Y-101019924D02*
X205970438Y-101067543D01*
X205970438Y-101067543D02*
X206351390Y-101067543D01*
X206351390Y-101067543D02*
X206446628Y-101019924D01*
X206446628Y-101019924D02*
X206494247Y-100924686D01*
X206494247Y-100924686D02*
X206494247Y-100734210D01*
X206494247Y-100734210D02*
X206446628Y-100638972D01*
X206446628Y-100638972D02*
X206351390Y-100591353D01*
X206351390Y-100591353D02*
X206256152Y-100591353D01*
X206256152Y-100591353D02*
X206160914Y-101067543D01*
X205827580Y-99400876D02*
X206827580Y-99400876D01*
X206827580Y-99400876D02*
X206827580Y-99019924D01*
X206827580Y-99019924D02*
X206779961Y-98924686D01*
X206779961Y-98924686D02*
X206732342Y-98877067D01*
X206732342Y-98877067D02*
X206637104Y-98829448D01*
X206637104Y-98829448D02*
X206494247Y-98829448D01*
X206494247Y-98829448D02*
X206399009Y-98877067D01*
X206399009Y-98877067D02*
X206351390Y-98924686D01*
X206351390Y-98924686D02*
X206303771Y-99019924D01*
X206303771Y-99019924D02*
X206303771Y-99400876D01*
X205827580Y-97972305D02*
X206351390Y-97972305D01*
X206351390Y-97972305D02*
X206446628Y-98019924D01*
X206446628Y-98019924D02*
X206494247Y-98115162D01*
X206494247Y-98115162D02*
X206494247Y-98305638D01*
X206494247Y-98305638D02*
X206446628Y-98400876D01*
X205875200Y-97972305D02*
X205827580Y-98067543D01*
X205827580Y-98067543D02*
X205827580Y-98305638D01*
X205827580Y-98305638D02*
X205875200Y-98400876D01*
X205875200Y-98400876D02*
X205970438Y-98448495D01*
X205970438Y-98448495D02*
X206065676Y-98448495D01*
X206065676Y-98448495D02*
X206160914Y-98400876D01*
X206160914Y-98400876D02*
X206208533Y-98305638D01*
X206208533Y-98305638D02*
X206208533Y-98067543D01*
X206208533Y-98067543D02*
X206256152Y-97972305D01*
X205827580Y-97067543D02*
X206827580Y-97067543D01*
X205875200Y-97067543D02*
X205827580Y-97162781D01*
X205827580Y-97162781D02*
X205827580Y-97353257D01*
X205827580Y-97353257D02*
X205875200Y-97448495D01*
X205875200Y-97448495D02*
X205922819Y-97496114D01*
X205922819Y-97496114D02*
X206018057Y-97543733D01*
X206018057Y-97543733D02*
X206303771Y-97543733D01*
X206303771Y-97543733D02*
X206399009Y-97496114D01*
X206399009Y-97496114D02*
X206446628Y-97448495D01*
X206446628Y-97448495D02*
X206494247Y-97353257D01*
X206494247Y-97353257D02*
X206494247Y-97162781D01*
X206494247Y-97162781D02*
X206446628Y-97067543D01*
X205827580Y-96591352D02*
X206494247Y-96591352D01*
X206827580Y-96591352D02*
X206779961Y-96638971D01*
X206779961Y-96638971D02*
X206732342Y-96591352D01*
X206732342Y-96591352D02*
X206779961Y-96543733D01*
X206779961Y-96543733D02*
X206827580Y-96591352D01*
X206827580Y-96591352D02*
X206732342Y-96591352D01*
X205827580Y-95972305D02*
X205875200Y-96067543D01*
X205875200Y-96067543D02*
X205970438Y-96115162D01*
X205970438Y-96115162D02*
X206827580Y-96115162D01*
X205827580Y-95448495D02*
X205875200Y-95543733D01*
X205875200Y-95543733D02*
X205970438Y-95591352D01*
X205970438Y-95591352D02*
X206827580Y-95591352D01*
X205827580Y-94638971D02*
X206351390Y-94638971D01*
X206351390Y-94638971D02*
X206446628Y-94686590D01*
X206446628Y-94686590D02*
X206494247Y-94781828D01*
X206494247Y-94781828D02*
X206494247Y-94972304D01*
X206494247Y-94972304D02*
X206446628Y-95067542D01*
X205875200Y-94638971D02*
X205827580Y-94734209D01*
X205827580Y-94734209D02*
X205827580Y-94972304D01*
X205827580Y-94972304D02*
X205875200Y-95067542D01*
X205875200Y-95067542D02*
X205970438Y-95115161D01*
X205970438Y-95115161D02*
X206065676Y-95115161D01*
X206065676Y-95115161D02*
X206160914Y-95067542D01*
X206160914Y-95067542D02*
X206208533Y-94972304D01*
X206208533Y-94972304D02*
X206208533Y-94734209D01*
X206208533Y-94734209D02*
X206256152Y-94638971D01*
X206827580Y-93258018D02*
X206589485Y-93258018D01*
X206684723Y-93496113D02*
X206589485Y-93258018D01*
X206589485Y-93258018D02*
X206684723Y-93019923D01*
X206399009Y-93400875D02*
X206589485Y-93258018D01*
X206589485Y-93258018D02*
X206399009Y-93115161D01*
X206732342Y-91924684D02*
X206779961Y-91877065D01*
X206779961Y-91877065D02*
X206827580Y-91781827D01*
X206827580Y-91781827D02*
X206827580Y-91543732D01*
X206827580Y-91543732D02*
X206779961Y-91448494D01*
X206779961Y-91448494D02*
X206732342Y-91400875D01*
X206732342Y-91400875D02*
X206637104Y-91353256D01*
X206637104Y-91353256D02*
X206541866Y-91353256D01*
X206541866Y-91353256D02*
X206399009Y-91400875D01*
X206399009Y-91400875D02*
X205827580Y-91972303D01*
X205827580Y-91972303D02*
X205827580Y-91353256D01*
X206827580Y-90734208D02*
X206827580Y-90638970D01*
X206827580Y-90638970D02*
X206779961Y-90543732D01*
X206779961Y-90543732D02*
X206732342Y-90496113D01*
X206732342Y-90496113D02*
X206637104Y-90448494D01*
X206637104Y-90448494D02*
X206446628Y-90400875D01*
X206446628Y-90400875D02*
X206208533Y-90400875D01*
X206208533Y-90400875D02*
X206018057Y-90448494D01*
X206018057Y-90448494D02*
X205922819Y-90496113D01*
X205922819Y-90496113D02*
X205875200Y-90543732D01*
X205875200Y-90543732D02*
X205827580Y-90638970D01*
X205827580Y-90638970D02*
X205827580Y-90734208D01*
X205827580Y-90734208D02*
X205875200Y-90829446D01*
X205875200Y-90829446D02*
X205922819Y-90877065D01*
X205922819Y-90877065D02*
X206018057Y-90924684D01*
X206018057Y-90924684D02*
X206208533Y-90972303D01*
X206208533Y-90972303D02*
X206446628Y-90972303D01*
X206446628Y-90972303D02*
X206637104Y-90924684D01*
X206637104Y-90924684D02*
X206732342Y-90877065D01*
X206732342Y-90877065D02*
X206779961Y-90829446D01*
X206779961Y-90829446D02*
X206827580Y-90734208D01*
X206732342Y-90019922D02*
X206779961Y-89972303D01*
X206779961Y-89972303D02*
X206827580Y-89877065D01*
X206827580Y-89877065D02*
X206827580Y-89638970D01*
X206827580Y-89638970D02*
X206779961Y-89543732D01*
X206779961Y-89543732D02*
X206732342Y-89496113D01*
X206732342Y-89496113D02*
X206637104Y-89448494D01*
X206637104Y-89448494D02*
X206541866Y-89448494D01*
X206541866Y-89448494D02*
X206399009Y-89496113D01*
X206399009Y-89496113D02*
X205827580Y-90067541D01*
X205827580Y-90067541D02*
X205827580Y-89448494D01*
X206827580Y-88543732D02*
X206827580Y-89019922D01*
X206827580Y-89019922D02*
X206351390Y-89067541D01*
X206351390Y-89067541D02*
X206399009Y-89019922D01*
X206399009Y-89019922D02*
X206446628Y-88924684D01*
X206446628Y-88924684D02*
X206446628Y-88686589D01*
X206446628Y-88686589D02*
X206399009Y-88591351D01*
X206399009Y-88591351D02*
X206351390Y-88543732D01*
X206351390Y-88543732D02*
X206256152Y-88496113D01*
X206256152Y-88496113D02*
X206018057Y-88496113D01*
X206018057Y-88496113D02*
X205922819Y-88543732D01*
X205922819Y-88543732D02*
X205875200Y-88591351D01*
X205875200Y-88591351D02*
X205827580Y-88686589D01*
X205827580Y-88686589D02*
X205827580Y-88924684D01*
X205827580Y-88924684D02*
X205875200Y-89019922D01*
X205875200Y-89019922D02*
X205922819Y-89067541D01*
X208394247Y-89791353D02*
X207727580Y-89553258D01*
X207727580Y-89553258D02*
X208394247Y-89315163D01*
X207727580Y-88410401D02*
X207727580Y-88981829D01*
X207727580Y-88696115D02*
X208727580Y-88696115D01*
X208727580Y-88696115D02*
X208584723Y-88791353D01*
X208584723Y-88791353D02*
X208489485Y-88886591D01*
X208489485Y-88886591D02*
X208441866Y-88981829D01*
M02*
