%TF.GenerationSoftware,KiCad,Pcbnew,9.0.6-9.0.6~ubuntu24.04.1*%
%TF.CreationDate,2025-11-30T14:47:38-06:00*%
%TF.ProjectId,breadboard_power_supply,62726561-6462-46f6-9172-645f706f7765,Version 1*%
%TF.SameCoordinates,Original*%
%TF.FileFunction,Legend,Top*%
%TF.FilePolarity,Positive*%
%FSLAX46Y46*%
G04 Gerber Fmt 4.6, Leading zero omitted, Abs format (unit mm)*
G04 Created by KiCad (PCBNEW 9.0.6-9.0.6~ubuntu24.04.1) date 2025-11-30 14:47:38*
%MOMM*%
%LPD*%
G01*
G04 APERTURE LIST*
%ADD10C,0.100000*%
%ADD11C,0.025000*%
%ADD12C,0.150000*%
%ADD13C,0.120000*%
%ADD14C,0.203200*%
G04 APERTURE END LIST*
D10*
X201194360Y-118872419D02*
X201384836Y-118872419D01*
X201384836Y-118872419D02*
X201480074Y-118920038D01*
X201480074Y-118920038D02*
X201575312Y-119015276D01*
X201575312Y-119015276D02*
X201622931Y-119205752D01*
X201622931Y-119205752D02*
X201622931Y-119539085D01*
X201622931Y-119539085D02*
X201575312Y-119729561D01*
X201575312Y-119729561D02*
X201480074Y-119824800D01*
X201480074Y-119824800D02*
X201384836Y-119872419D01*
X201384836Y-119872419D02*
X201194360Y-119872419D01*
X201194360Y-119872419D02*
X201099122Y-119824800D01*
X201099122Y-119824800D02*
X201003884Y-119729561D01*
X201003884Y-119729561D02*
X200956265Y-119539085D01*
X200956265Y-119539085D02*
X200956265Y-119205752D01*
X200956265Y-119205752D02*
X201003884Y-119015276D01*
X201003884Y-119015276D02*
X201099122Y-118920038D01*
X201099122Y-118920038D02*
X201194360Y-118872419D01*
X202384836Y-119348609D02*
X202051503Y-119348609D01*
X202051503Y-119872419D02*
X202051503Y-118872419D01*
X202051503Y-118872419D02*
X202527693Y-118872419D01*
X203241979Y-119348609D02*
X202908646Y-119348609D01*
X202908646Y-119872419D02*
X202908646Y-118872419D01*
X202908646Y-118872419D02*
X203384836Y-118872419D01*
X194194360Y-118872419D02*
X194384836Y-118872419D01*
X194384836Y-118872419D02*
X194480074Y-118920038D01*
X194480074Y-118920038D02*
X194575312Y-119015276D01*
X194575312Y-119015276D02*
X194622931Y-119205752D01*
X194622931Y-119205752D02*
X194622931Y-119539085D01*
X194622931Y-119539085D02*
X194575312Y-119729561D01*
X194575312Y-119729561D02*
X194480074Y-119824800D01*
X194480074Y-119824800D02*
X194384836Y-119872419D01*
X194384836Y-119872419D02*
X194194360Y-119872419D01*
X194194360Y-119872419D02*
X194099122Y-119824800D01*
X194099122Y-119824800D02*
X194003884Y-119729561D01*
X194003884Y-119729561D02*
X193956265Y-119539085D01*
X193956265Y-119539085D02*
X193956265Y-119205752D01*
X193956265Y-119205752D02*
X194003884Y-119015276D01*
X194003884Y-119015276D02*
X194099122Y-118920038D01*
X194099122Y-118920038D02*
X194194360Y-118872419D01*
X195051503Y-119872419D02*
X195051503Y-118872419D01*
X195051503Y-118872419D02*
X195622931Y-119872419D01*
X195622931Y-119872419D02*
X195622931Y-118872419D01*
X194503884Y-105591466D02*
X195265789Y-105591466D01*
X202803884Y-105391466D02*
X203565789Y-105391466D01*
X203184836Y-105772419D02*
X203184836Y-105010514D01*
X191972419Y-85991353D02*
X191972419Y-85372306D01*
X191972419Y-85372306D02*
X192353371Y-85705639D01*
X192353371Y-85705639D02*
X192353371Y-85562782D01*
X192353371Y-85562782D02*
X192400990Y-85467544D01*
X192400990Y-85467544D02*
X192448609Y-85419925D01*
X192448609Y-85419925D02*
X192543847Y-85372306D01*
X192543847Y-85372306D02*
X192781942Y-85372306D01*
X192781942Y-85372306D02*
X192877180Y-85419925D01*
X192877180Y-85419925D02*
X192924800Y-85467544D01*
X192924800Y-85467544D02*
X192972419Y-85562782D01*
X192972419Y-85562782D02*
X192972419Y-85848496D01*
X192972419Y-85848496D02*
X192924800Y-85943734D01*
X192924800Y-85943734D02*
X192877180Y-85991353D01*
X192877180Y-84943734D02*
X192924800Y-84896115D01*
X192924800Y-84896115D02*
X192972419Y-84943734D01*
X192972419Y-84943734D02*
X192924800Y-84991353D01*
X192924800Y-84991353D02*
X192877180Y-84943734D01*
X192877180Y-84943734D02*
X192972419Y-84943734D01*
X191972419Y-84562782D02*
X191972419Y-83943735D01*
X191972419Y-83943735D02*
X192353371Y-84277068D01*
X192353371Y-84277068D02*
X192353371Y-84134211D01*
X192353371Y-84134211D02*
X192400990Y-84038973D01*
X192400990Y-84038973D02*
X192448609Y-83991354D01*
X192448609Y-83991354D02*
X192543847Y-83943735D01*
X192543847Y-83943735D02*
X192781942Y-83943735D01*
X192781942Y-83943735D02*
X192877180Y-83991354D01*
X192877180Y-83991354D02*
X192924800Y-84038973D01*
X192924800Y-84038973D02*
X192972419Y-84134211D01*
X192972419Y-84134211D02*
X192972419Y-84419925D01*
X192972419Y-84419925D02*
X192924800Y-84515163D01*
X192924800Y-84515163D02*
X192877180Y-84562782D01*
X191972419Y-83658020D02*
X192972419Y-83324687D01*
X192972419Y-83324687D02*
X191972419Y-82991354D01*
X191372419Y-126891353D02*
X191372419Y-126272306D01*
X191372419Y-126272306D02*
X191753371Y-126605639D01*
X191753371Y-126605639D02*
X191753371Y-126462782D01*
X191753371Y-126462782D02*
X191800990Y-126367544D01*
X191800990Y-126367544D02*
X191848609Y-126319925D01*
X191848609Y-126319925D02*
X191943847Y-126272306D01*
X191943847Y-126272306D02*
X192181942Y-126272306D01*
X192181942Y-126272306D02*
X192277180Y-126319925D01*
X192277180Y-126319925D02*
X192324800Y-126367544D01*
X192324800Y-126367544D02*
X192372419Y-126462782D01*
X192372419Y-126462782D02*
X192372419Y-126748496D01*
X192372419Y-126748496D02*
X192324800Y-126843734D01*
X192324800Y-126843734D02*
X192277180Y-126891353D01*
X192277180Y-125843734D02*
X192324800Y-125796115D01*
X192324800Y-125796115D02*
X192372419Y-125843734D01*
X192372419Y-125843734D02*
X192324800Y-125891353D01*
X192324800Y-125891353D02*
X192277180Y-125843734D01*
X192277180Y-125843734D02*
X192372419Y-125843734D01*
X191372419Y-125462782D02*
X191372419Y-124843735D01*
X191372419Y-124843735D02*
X191753371Y-125177068D01*
X191753371Y-125177068D02*
X191753371Y-125034211D01*
X191753371Y-125034211D02*
X191800990Y-124938973D01*
X191800990Y-124938973D02*
X191848609Y-124891354D01*
X191848609Y-124891354D02*
X191943847Y-124843735D01*
X191943847Y-124843735D02*
X192181942Y-124843735D01*
X192181942Y-124843735D02*
X192277180Y-124891354D01*
X192277180Y-124891354D02*
X192324800Y-124938973D01*
X192324800Y-124938973D02*
X192372419Y-125034211D01*
X192372419Y-125034211D02*
X192372419Y-125319925D01*
X192372419Y-125319925D02*
X192324800Y-125415163D01*
X192324800Y-125415163D02*
X192277180Y-125462782D01*
X191372419Y-124558020D02*
X192372419Y-124224687D01*
X192372419Y-124224687D02*
X191372419Y-123891354D01*
X191372419Y-131319925D02*
X191372419Y-131796115D01*
X191372419Y-131796115D02*
X191848609Y-131843734D01*
X191848609Y-131843734D02*
X191800990Y-131796115D01*
X191800990Y-131796115D02*
X191753371Y-131700877D01*
X191753371Y-131700877D02*
X191753371Y-131462782D01*
X191753371Y-131462782D02*
X191800990Y-131367544D01*
X191800990Y-131367544D02*
X191848609Y-131319925D01*
X191848609Y-131319925D02*
X191943847Y-131272306D01*
X191943847Y-131272306D02*
X192181942Y-131272306D01*
X192181942Y-131272306D02*
X192277180Y-131319925D01*
X192277180Y-131319925D02*
X192324800Y-131367544D01*
X192324800Y-131367544D02*
X192372419Y-131462782D01*
X192372419Y-131462782D02*
X192372419Y-131700877D01*
X192372419Y-131700877D02*
X192324800Y-131796115D01*
X192324800Y-131796115D02*
X192277180Y-131843734D01*
X191372419Y-130986591D02*
X192372419Y-130653258D01*
X192372419Y-130653258D02*
X191372419Y-130319925D01*
X192072419Y-79809925D02*
X192072419Y-80286115D01*
X192072419Y-80286115D02*
X192548609Y-80333734D01*
X192548609Y-80333734D02*
X192500990Y-80286115D01*
X192500990Y-80286115D02*
X192453371Y-80190877D01*
X192453371Y-80190877D02*
X192453371Y-79952782D01*
X192453371Y-79952782D02*
X192500990Y-79857544D01*
X192500990Y-79857544D02*
X192548609Y-79809925D01*
X192548609Y-79809925D02*
X192643847Y-79762306D01*
X192643847Y-79762306D02*
X192881942Y-79762306D01*
X192881942Y-79762306D02*
X192977180Y-79809925D01*
X192977180Y-79809925D02*
X193024800Y-79857544D01*
X193024800Y-79857544D02*
X193072419Y-79952782D01*
X193072419Y-79952782D02*
X193072419Y-80190877D01*
X193072419Y-80190877D02*
X193024800Y-80286115D01*
X193024800Y-80286115D02*
X192977180Y-80333734D01*
X192072419Y-79476591D02*
X193072419Y-79143258D01*
X193072419Y-79143258D02*
X192072419Y-78809925D01*
X181483095Y-97430038D02*
X181387857Y-97382419D01*
X181387857Y-97382419D02*
X181245000Y-97382419D01*
X181245000Y-97382419D02*
X181102143Y-97430038D01*
X181102143Y-97430038D02*
X181006905Y-97525276D01*
X181006905Y-97525276D02*
X180959286Y-97620514D01*
X180959286Y-97620514D02*
X180911667Y-97810990D01*
X180911667Y-97810990D02*
X180911667Y-97953847D01*
X180911667Y-97953847D02*
X180959286Y-98144323D01*
X180959286Y-98144323D02*
X181006905Y-98239561D01*
X181006905Y-98239561D02*
X181102143Y-98334800D01*
X181102143Y-98334800D02*
X181245000Y-98382419D01*
X181245000Y-98382419D02*
X181340238Y-98382419D01*
X181340238Y-98382419D02*
X181483095Y-98334800D01*
X181483095Y-98334800D02*
X181530714Y-98287180D01*
X181530714Y-98287180D02*
X181530714Y-97953847D01*
X181530714Y-97953847D02*
X181340238Y-97953847D01*
X181959286Y-98382419D02*
X181959286Y-97382419D01*
X181959286Y-97382419D02*
X182530714Y-98382419D01*
X182530714Y-98382419D02*
X182530714Y-97382419D01*
X183006905Y-98382419D02*
X183006905Y-97382419D01*
X183006905Y-97382419D02*
X183245000Y-97382419D01*
X183245000Y-97382419D02*
X183387857Y-97430038D01*
X183387857Y-97430038D02*
X183483095Y-97525276D01*
X183483095Y-97525276D02*
X183530714Y-97620514D01*
X183530714Y-97620514D02*
X183578333Y-97810990D01*
X183578333Y-97810990D02*
X183578333Y-97953847D01*
X183578333Y-97953847D02*
X183530714Y-98144323D01*
X183530714Y-98144323D02*
X183483095Y-98239561D01*
X183483095Y-98239561D02*
X183387857Y-98334800D01*
X183387857Y-98334800D02*
X183245000Y-98382419D01*
X183245000Y-98382419D02*
X183006905Y-98382419D01*
X186438095Y-105420038D02*
X186342857Y-105372419D01*
X186342857Y-105372419D02*
X186200000Y-105372419D01*
X186200000Y-105372419D02*
X186057143Y-105420038D01*
X186057143Y-105420038D02*
X185961905Y-105515276D01*
X185961905Y-105515276D02*
X185914286Y-105610514D01*
X185914286Y-105610514D02*
X185866667Y-105800990D01*
X185866667Y-105800990D02*
X185866667Y-105943847D01*
X185866667Y-105943847D02*
X185914286Y-106134323D01*
X185914286Y-106134323D02*
X185961905Y-106229561D01*
X185961905Y-106229561D02*
X186057143Y-106324800D01*
X186057143Y-106324800D02*
X186200000Y-106372419D01*
X186200000Y-106372419D02*
X186295238Y-106372419D01*
X186295238Y-106372419D02*
X186438095Y-106324800D01*
X186438095Y-106324800D02*
X186485714Y-106277180D01*
X186485714Y-106277180D02*
X186485714Y-105943847D01*
X186485714Y-105943847D02*
X186295238Y-105943847D01*
X186914286Y-106372419D02*
X186914286Y-105372419D01*
X186914286Y-105372419D02*
X187485714Y-106372419D01*
X187485714Y-106372419D02*
X187485714Y-105372419D01*
X187961905Y-106372419D02*
X187961905Y-105372419D01*
X187961905Y-105372419D02*
X188200000Y-105372419D01*
X188200000Y-105372419D02*
X188342857Y-105420038D01*
X188342857Y-105420038D02*
X188438095Y-105515276D01*
X188438095Y-105515276D02*
X188485714Y-105610514D01*
X188485714Y-105610514D02*
X188533333Y-105800990D01*
X188533333Y-105800990D02*
X188533333Y-105943847D01*
X188533333Y-105943847D02*
X188485714Y-106134323D01*
X188485714Y-106134323D02*
X188438095Y-106229561D01*
X188438095Y-106229561D02*
X188342857Y-106324800D01*
X188342857Y-106324800D02*
X188200000Y-106372419D01*
X188200000Y-106372419D02*
X187961905Y-106372419D01*
X180620038Y-104561904D02*
X180572419Y-104657142D01*
X180572419Y-104657142D02*
X180572419Y-104799999D01*
X180572419Y-104799999D02*
X180620038Y-104942856D01*
X180620038Y-104942856D02*
X180715276Y-105038094D01*
X180715276Y-105038094D02*
X180810514Y-105085713D01*
X180810514Y-105085713D02*
X181000990Y-105133332D01*
X181000990Y-105133332D02*
X181143847Y-105133332D01*
X181143847Y-105133332D02*
X181334323Y-105085713D01*
X181334323Y-105085713D02*
X181429561Y-105038094D01*
X181429561Y-105038094D02*
X181524800Y-104942856D01*
X181524800Y-104942856D02*
X181572419Y-104799999D01*
X181572419Y-104799999D02*
X181572419Y-104704761D01*
X181572419Y-104704761D02*
X181524800Y-104561904D01*
X181524800Y-104561904D02*
X181477180Y-104514285D01*
X181477180Y-104514285D02*
X181143847Y-104514285D01*
X181143847Y-104514285D02*
X181143847Y-104704761D01*
X181572419Y-104085713D02*
X180572419Y-104085713D01*
X180572419Y-104085713D02*
X181572419Y-103514285D01*
X181572419Y-103514285D02*
X180572419Y-103514285D01*
X181572419Y-103038094D02*
X180572419Y-103038094D01*
X180572419Y-103038094D02*
X180572419Y-102799999D01*
X180572419Y-102799999D02*
X180620038Y-102657142D01*
X180620038Y-102657142D02*
X180715276Y-102561904D01*
X180715276Y-102561904D02*
X180810514Y-102514285D01*
X180810514Y-102514285D02*
X181000990Y-102466666D01*
X181000990Y-102466666D02*
X181143847Y-102466666D01*
X181143847Y-102466666D02*
X181334323Y-102514285D01*
X181334323Y-102514285D02*
X181429561Y-102561904D01*
X181429561Y-102561904D02*
X181524800Y-102657142D01*
X181524800Y-102657142D02*
X181572419Y-102799999D01*
X181572419Y-102799999D02*
X181572419Y-103038094D01*
X196138095Y-125220038D02*
X196042857Y-125172419D01*
X196042857Y-125172419D02*
X195900000Y-125172419D01*
X195900000Y-125172419D02*
X195757143Y-125220038D01*
X195757143Y-125220038D02*
X195661905Y-125315276D01*
X195661905Y-125315276D02*
X195614286Y-125410514D01*
X195614286Y-125410514D02*
X195566667Y-125600990D01*
X195566667Y-125600990D02*
X195566667Y-125743847D01*
X195566667Y-125743847D02*
X195614286Y-125934323D01*
X195614286Y-125934323D02*
X195661905Y-126029561D01*
X195661905Y-126029561D02*
X195757143Y-126124800D01*
X195757143Y-126124800D02*
X195900000Y-126172419D01*
X195900000Y-126172419D02*
X195995238Y-126172419D01*
X195995238Y-126172419D02*
X196138095Y-126124800D01*
X196138095Y-126124800D02*
X196185714Y-126077180D01*
X196185714Y-126077180D02*
X196185714Y-125743847D01*
X196185714Y-125743847D02*
X195995238Y-125743847D01*
X196614286Y-126172419D02*
X196614286Y-125172419D01*
X196614286Y-125172419D02*
X197185714Y-126172419D01*
X197185714Y-126172419D02*
X197185714Y-125172419D01*
X197661905Y-126172419D02*
X197661905Y-125172419D01*
X197661905Y-125172419D02*
X197900000Y-125172419D01*
X197900000Y-125172419D02*
X198042857Y-125220038D01*
X198042857Y-125220038D02*
X198138095Y-125315276D01*
X198138095Y-125315276D02*
X198185714Y-125410514D01*
X198185714Y-125410514D02*
X198233333Y-125600990D01*
X198233333Y-125600990D02*
X198233333Y-125743847D01*
X198233333Y-125743847D02*
X198185714Y-125934323D01*
X198185714Y-125934323D02*
X198138095Y-126029561D01*
X198138095Y-126029561D02*
X198042857Y-126124800D01*
X198042857Y-126124800D02*
X197900000Y-126172419D01*
X197900000Y-126172419D02*
X197661905Y-126172419D01*
X196238095Y-78820038D02*
X196142857Y-78772419D01*
X196142857Y-78772419D02*
X196000000Y-78772419D01*
X196000000Y-78772419D02*
X195857143Y-78820038D01*
X195857143Y-78820038D02*
X195761905Y-78915276D01*
X195761905Y-78915276D02*
X195714286Y-79010514D01*
X195714286Y-79010514D02*
X195666667Y-79200990D01*
X195666667Y-79200990D02*
X195666667Y-79343847D01*
X195666667Y-79343847D02*
X195714286Y-79534323D01*
X195714286Y-79534323D02*
X195761905Y-79629561D01*
X195761905Y-79629561D02*
X195857143Y-79724800D01*
X195857143Y-79724800D02*
X196000000Y-79772419D01*
X196000000Y-79772419D02*
X196095238Y-79772419D01*
X196095238Y-79772419D02*
X196238095Y-79724800D01*
X196238095Y-79724800D02*
X196285714Y-79677180D01*
X196285714Y-79677180D02*
X196285714Y-79343847D01*
X196285714Y-79343847D02*
X196095238Y-79343847D01*
X196714286Y-79772419D02*
X196714286Y-78772419D01*
X196714286Y-78772419D02*
X197285714Y-79772419D01*
X197285714Y-79772419D02*
X197285714Y-78772419D01*
X197761905Y-79772419D02*
X197761905Y-78772419D01*
X197761905Y-78772419D02*
X198000000Y-78772419D01*
X198000000Y-78772419D02*
X198142857Y-78820038D01*
X198142857Y-78820038D02*
X198238095Y-78915276D01*
X198238095Y-78915276D02*
X198285714Y-79010514D01*
X198285714Y-79010514D02*
X198333333Y-79200990D01*
X198333333Y-79200990D02*
X198333333Y-79343847D01*
X198333333Y-79343847D02*
X198285714Y-79534323D01*
X198285714Y-79534323D02*
X198238095Y-79629561D01*
X198238095Y-79629561D02*
X198142857Y-79724800D01*
X198142857Y-79724800D02*
X198000000Y-79772419D01*
X198000000Y-79772419D02*
X197761905Y-79772419D01*
D11*
X198191223Y-104376190D02*
X198186461Y-104385714D01*
X198186461Y-104385714D02*
X198186461Y-104400000D01*
X198186461Y-104400000D02*
X198191223Y-104414285D01*
X198191223Y-104414285D02*
X198200747Y-104423809D01*
X198200747Y-104423809D02*
X198210271Y-104428571D01*
X198210271Y-104428571D02*
X198229319Y-104433333D01*
X198229319Y-104433333D02*
X198243604Y-104433333D01*
X198243604Y-104433333D02*
X198262652Y-104428571D01*
X198262652Y-104428571D02*
X198272176Y-104423809D01*
X198272176Y-104423809D02*
X198281700Y-104414285D01*
X198281700Y-104414285D02*
X198286461Y-104400000D01*
X198286461Y-104400000D02*
X198286461Y-104390476D01*
X198286461Y-104390476D02*
X198281700Y-104376190D01*
X198281700Y-104376190D02*
X198276938Y-104371428D01*
X198276938Y-104371428D02*
X198243604Y-104371428D01*
X198243604Y-104371428D02*
X198243604Y-104390476D01*
X198286461Y-104328571D02*
X198186461Y-104328571D01*
X198186461Y-104328571D02*
X198286461Y-104271428D01*
X198286461Y-104271428D02*
X198186461Y-104271428D01*
X198286461Y-104223809D02*
X198186461Y-104223809D01*
X198186461Y-104223809D02*
X198186461Y-104199999D01*
X198186461Y-104199999D02*
X198191223Y-104185714D01*
X198191223Y-104185714D02*
X198200747Y-104176190D01*
X198200747Y-104176190D02*
X198210271Y-104171428D01*
X198210271Y-104171428D02*
X198229319Y-104166666D01*
X198229319Y-104166666D02*
X198243604Y-104166666D01*
X198243604Y-104166666D02*
X198262652Y-104171428D01*
X198262652Y-104171428D02*
X198272176Y-104176190D01*
X198272176Y-104176190D02*
X198281700Y-104185714D01*
X198281700Y-104185714D02*
X198286461Y-104199999D01*
X198286461Y-104199999D02*
X198286461Y-104223809D01*
D12*
X188631666Y-132989819D02*
X188631666Y-133704104D01*
X188631666Y-133704104D02*
X188584047Y-133846961D01*
X188584047Y-133846961D02*
X188488809Y-133942200D01*
X188488809Y-133942200D02*
X188345952Y-133989819D01*
X188345952Y-133989819D02*
X188250714Y-133989819D01*
X189012619Y-132989819D02*
X189631666Y-132989819D01*
X189631666Y-132989819D02*
X189298333Y-133370771D01*
X189298333Y-133370771D02*
X189441190Y-133370771D01*
X189441190Y-133370771D02*
X189536428Y-133418390D01*
X189536428Y-133418390D02*
X189584047Y-133466009D01*
X189584047Y-133466009D02*
X189631666Y-133561247D01*
X189631666Y-133561247D02*
X189631666Y-133799342D01*
X189631666Y-133799342D02*
X189584047Y-133894580D01*
X189584047Y-133894580D02*
X189536428Y-133942200D01*
X189536428Y-133942200D02*
X189441190Y-133989819D01*
X189441190Y-133989819D02*
X189155476Y-133989819D01*
X189155476Y-133989819D02*
X189060238Y-133942200D01*
X189060238Y-133942200D02*
X189012619Y-133894580D01*
X178288333Y-127969580D02*
X178240714Y-128017200D01*
X178240714Y-128017200D02*
X178097857Y-128064819D01*
X178097857Y-128064819D02*
X178002619Y-128064819D01*
X178002619Y-128064819D02*
X177859762Y-128017200D01*
X177859762Y-128017200D02*
X177764524Y-127921961D01*
X177764524Y-127921961D02*
X177716905Y-127826723D01*
X177716905Y-127826723D02*
X177669286Y-127636247D01*
X177669286Y-127636247D02*
X177669286Y-127493390D01*
X177669286Y-127493390D02*
X177716905Y-127302914D01*
X177716905Y-127302914D02*
X177764524Y-127207676D01*
X177764524Y-127207676D02*
X177859762Y-127112438D01*
X177859762Y-127112438D02*
X178002619Y-127064819D01*
X178002619Y-127064819D02*
X178097857Y-127064819D01*
X178097857Y-127064819D02*
X178240714Y-127112438D01*
X178240714Y-127112438D02*
X178288333Y-127160057D01*
X178621667Y-127064819D02*
X179240714Y-127064819D01*
X179240714Y-127064819D02*
X178907381Y-127445771D01*
X178907381Y-127445771D02*
X179050238Y-127445771D01*
X179050238Y-127445771D02*
X179145476Y-127493390D01*
X179145476Y-127493390D02*
X179193095Y-127541009D01*
X179193095Y-127541009D02*
X179240714Y-127636247D01*
X179240714Y-127636247D02*
X179240714Y-127874342D01*
X179240714Y-127874342D02*
X179193095Y-127969580D01*
X179193095Y-127969580D02*
X179145476Y-128017200D01*
X179145476Y-128017200D02*
X179050238Y-128064819D01*
X179050238Y-128064819D02*
X178764524Y-128064819D01*
X178764524Y-128064819D02*
X178669286Y-128017200D01*
X178669286Y-128017200D02*
X178621667Y-127969580D01*
X187159819Y-82081666D02*
X186683628Y-82414999D01*
X187159819Y-82653094D02*
X186159819Y-82653094D01*
X186159819Y-82653094D02*
X186159819Y-82272142D01*
X186159819Y-82272142D02*
X186207438Y-82176904D01*
X186207438Y-82176904D02*
X186255057Y-82129285D01*
X186255057Y-82129285D02*
X186350295Y-82081666D01*
X186350295Y-82081666D02*
X186493152Y-82081666D01*
X186493152Y-82081666D02*
X186588390Y-82129285D01*
X186588390Y-82129285D02*
X186636009Y-82176904D01*
X186636009Y-82176904D02*
X186683628Y-82272142D01*
X186683628Y-82272142D02*
X186683628Y-82653094D01*
X186255057Y-81700713D02*
X186207438Y-81653094D01*
X186207438Y-81653094D02*
X186159819Y-81557856D01*
X186159819Y-81557856D02*
X186159819Y-81319761D01*
X186159819Y-81319761D02*
X186207438Y-81224523D01*
X186207438Y-81224523D02*
X186255057Y-81176904D01*
X186255057Y-81176904D02*
X186350295Y-81129285D01*
X186350295Y-81129285D02*
X186445533Y-81129285D01*
X186445533Y-81129285D02*
X186588390Y-81176904D01*
X186588390Y-81176904D02*
X187159819Y-81748332D01*
X187159819Y-81748332D02*
X187159819Y-81129285D01*
X198023095Y-113592200D02*
X198165952Y-113639819D01*
X198165952Y-113639819D02*
X198404047Y-113639819D01*
X198404047Y-113639819D02*
X198499285Y-113592200D01*
X198499285Y-113592200D02*
X198546904Y-113544580D01*
X198546904Y-113544580D02*
X198594523Y-113449342D01*
X198594523Y-113449342D02*
X198594523Y-113354104D01*
X198594523Y-113354104D02*
X198546904Y-113258866D01*
X198546904Y-113258866D02*
X198499285Y-113211247D01*
X198499285Y-113211247D02*
X198404047Y-113163628D01*
X198404047Y-113163628D02*
X198213571Y-113116009D01*
X198213571Y-113116009D02*
X198118333Y-113068390D01*
X198118333Y-113068390D02*
X198070714Y-113020771D01*
X198070714Y-113020771D02*
X198023095Y-112925533D01*
X198023095Y-112925533D02*
X198023095Y-112830295D01*
X198023095Y-112830295D02*
X198070714Y-112735057D01*
X198070714Y-112735057D02*
X198118333Y-112687438D01*
X198118333Y-112687438D02*
X198213571Y-112639819D01*
X198213571Y-112639819D02*
X198451666Y-112639819D01*
X198451666Y-112639819D02*
X198594523Y-112687438D01*
X199546904Y-113639819D02*
X198975476Y-113639819D01*
X199261190Y-113639819D02*
X199261190Y-112639819D01*
X199261190Y-112639819D02*
X199165952Y-112782676D01*
X199165952Y-112782676D02*
X199070714Y-112877914D01*
X199070714Y-112877914D02*
X198975476Y-112925533D01*
X207311666Y-77084819D02*
X207311666Y-77799104D01*
X207311666Y-77799104D02*
X207264047Y-77941961D01*
X207264047Y-77941961D02*
X207168809Y-78037200D01*
X207168809Y-78037200D02*
X207025952Y-78084819D01*
X207025952Y-78084819D02*
X206930714Y-78084819D01*
X208311666Y-78084819D02*
X207740238Y-78084819D01*
X208025952Y-78084819D02*
X208025952Y-77084819D01*
X208025952Y-77084819D02*
X207930714Y-77227676D01*
X207930714Y-77227676D02*
X207835476Y-77322914D01*
X207835476Y-77322914D02*
X207740238Y-77370533D01*
X198016905Y-101904819D02*
X198016905Y-100904819D01*
X198016905Y-100904819D02*
X198255000Y-100904819D01*
X198255000Y-100904819D02*
X198397857Y-100952438D01*
X198397857Y-100952438D02*
X198493095Y-101047676D01*
X198493095Y-101047676D02*
X198540714Y-101142914D01*
X198540714Y-101142914D02*
X198588333Y-101333390D01*
X198588333Y-101333390D02*
X198588333Y-101476247D01*
X198588333Y-101476247D02*
X198540714Y-101666723D01*
X198540714Y-101666723D02*
X198493095Y-101761961D01*
X198493095Y-101761961D02*
X198397857Y-101857200D01*
X198397857Y-101857200D02*
X198255000Y-101904819D01*
X198255000Y-101904819D02*
X198016905Y-101904819D01*
X199540714Y-101904819D02*
X198969286Y-101904819D01*
X199255000Y-101904819D02*
X199255000Y-100904819D01*
X199255000Y-100904819D02*
X199159762Y-101047676D01*
X199159762Y-101047676D02*
X199064524Y-101142914D01*
X199064524Y-101142914D02*
X198969286Y-101190533D01*
X175854819Y-96761904D02*
X176664342Y-96761904D01*
X176664342Y-96761904D02*
X176759580Y-96714285D01*
X176759580Y-96714285D02*
X176807200Y-96666666D01*
X176807200Y-96666666D02*
X176854819Y-96571428D01*
X176854819Y-96571428D02*
X176854819Y-96380952D01*
X176854819Y-96380952D02*
X176807200Y-96285714D01*
X176807200Y-96285714D02*
X176759580Y-96238095D01*
X176759580Y-96238095D02*
X176664342Y-96190476D01*
X176664342Y-96190476D02*
X175854819Y-96190476D01*
X175854819Y-95809523D02*
X175854819Y-95190476D01*
X175854819Y-95190476D02*
X176235771Y-95523809D01*
X176235771Y-95523809D02*
X176235771Y-95380952D01*
X176235771Y-95380952D02*
X176283390Y-95285714D01*
X176283390Y-95285714D02*
X176331009Y-95238095D01*
X176331009Y-95238095D02*
X176426247Y-95190476D01*
X176426247Y-95190476D02*
X176664342Y-95190476D01*
X176664342Y-95190476D02*
X176759580Y-95238095D01*
X176759580Y-95238095D02*
X176807200Y-95285714D01*
X176807200Y-95285714D02*
X176854819Y-95380952D01*
X176854819Y-95380952D02*
X176854819Y-95666666D01*
X176854819Y-95666666D02*
X176807200Y-95761904D01*
X176807200Y-95761904D02*
X176759580Y-95809523D01*
X178268333Y-121499580D02*
X178220714Y-121547200D01*
X178220714Y-121547200D02*
X178077857Y-121594819D01*
X178077857Y-121594819D02*
X177982619Y-121594819D01*
X177982619Y-121594819D02*
X177839762Y-121547200D01*
X177839762Y-121547200D02*
X177744524Y-121451961D01*
X177744524Y-121451961D02*
X177696905Y-121356723D01*
X177696905Y-121356723D02*
X177649286Y-121166247D01*
X177649286Y-121166247D02*
X177649286Y-121023390D01*
X177649286Y-121023390D02*
X177696905Y-120832914D01*
X177696905Y-120832914D02*
X177744524Y-120737676D01*
X177744524Y-120737676D02*
X177839762Y-120642438D01*
X177839762Y-120642438D02*
X177982619Y-120594819D01*
X177982619Y-120594819D02*
X178077857Y-120594819D01*
X178077857Y-120594819D02*
X178220714Y-120642438D01*
X178220714Y-120642438D02*
X178268333Y-120690057D01*
X179220714Y-121594819D02*
X178649286Y-121594819D01*
X178935000Y-121594819D02*
X178935000Y-120594819D01*
X178935000Y-120594819D02*
X178839762Y-120737676D01*
X178839762Y-120737676D02*
X178744524Y-120832914D01*
X178744524Y-120832914D02*
X178649286Y-120880533D01*
X207311666Y-123439819D02*
X207311666Y-124154104D01*
X207311666Y-124154104D02*
X207264047Y-124296961D01*
X207264047Y-124296961D02*
X207168809Y-124392200D01*
X207168809Y-124392200D02*
X207025952Y-124439819D01*
X207025952Y-124439819D02*
X206930714Y-124439819D01*
X207740238Y-123535057D02*
X207787857Y-123487438D01*
X207787857Y-123487438D02*
X207883095Y-123439819D01*
X207883095Y-123439819D02*
X208121190Y-123439819D01*
X208121190Y-123439819D02*
X208216428Y-123487438D01*
X208216428Y-123487438D02*
X208264047Y-123535057D01*
X208264047Y-123535057D02*
X208311666Y-123630295D01*
X208311666Y-123630295D02*
X208311666Y-123725533D01*
X208311666Y-123725533D02*
X208264047Y-123868390D01*
X208264047Y-123868390D02*
X207692619Y-124439819D01*
X207692619Y-124439819D02*
X208311666Y-124439819D01*
X189601666Y-76189819D02*
X189601666Y-76904104D01*
X189601666Y-76904104D02*
X189554047Y-77046961D01*
X189554047Y-77046961D02*
X189458809Y-77142200D01*
X189458809Y-77142200D02*
X189315952Y-77189819D01*
X189315952Y-77189819D02*
X189220714Y-77189819D01*
X190506428Y-76523152D02*
X190506428Y-77189819D01*
X190268333Y-76142200D02*
X190030238Y-76856485D01*
X190030238Y-76856485D02*
X190649285Y-76856485D01*
X176969819Y-82081666D02*
X176493628Y-82414999D01*
X176969819Y-82653094D02*
X175969819Y-82653094D01*
X175969819Y-82653094D02*
X175969819Y-82272142D01*
X175969819Y-82272142D02*
X176017438Y-82176904D01*
X176017438Y-82176904D02*
X176065057Y-82129285D01*
X176065057Y-82129285D02*
X176160295Y-82081666D01*
X176160295Y-82081666D02*
X176303152Y-82081666D01*
X176303152Y-82081666D02*
X176398390Y-82129285D01*
X176398390Y-82129285D02*
X176446009Y-82176904D01*
X176446009Y-82176904D02*
X176493628Y-82272142D01*
X176493628Y-82272142D02*
X176493628Y-82653094D01*
X175969819Y-81748332D02*
X175969819Y-81129285D01*
X175969819Y-81129285D02*
X176350771Y-81462618D01*
X176350771Y-81462618D02*
X176350771Y-81319761D01*
X176350771Y-81319761D02*
X176398390Y-81224523D01*
X176398390Y-81224523D02*
X176446009Y-81176904D01*
X176446009Y-81176904D02*
X176541247Y-81129285D01*
X176541247Y-81129285D02*
X176779342Y-81129285D01*
X176779342Y-81129285D02*
X176874580Y-81176904D01*
X176874580Y-81176904D02*
X176922200Y-81224523D01*
X176922200Y-81224523D02*
X176969819Y-81319761D01*
X176969819Y-81319761D02*
X176969819Y-81605475D01*
X176969819Y-81605475D02*
X176922200Y-81700713D01*
X176922200Y-81700713D02*
X176874580Y-81748332D01*
X198566666Y-132989819D02*
X198566666Y-133704104D01*
X198566666Y-133704104D02*
X198519047Y-133846961D01*
X198519047Y-133846961D02*
X198423809Y-133942200D01*
X198423809Y-133942200D02*
X198280952Y-133989819D01*
X198280952Y-133989819D02*
X198185714Y-133989819D01*
X198947619Y-132989819D02*
X199614285Y-132989819D01*
X199614285Y-132989819D02*
X199185714Y-133989819D01*
X188854580Y-93556666D02*
X188902200Y-93604285D01*
X188902200Y-93604285D02*
X188949819Y-93747142D01*
X188949819Y-93747142D02*
X188949819Y-93842380D01*
X188949819Y-93842380D02*
X188902200Y-93985237D01*
X188902200Y-93985237D02*
X188806961Y-94080475D01*
X188806961Y-94080475D02*
X188711723Y-94128094D01*
X188711723Y-94128094D02*
X188521247Y-94175713D01*
X188521247Y-94175713D02*
X188378390Y-94175713D01*
X188378390Y-94175713D02*
X188187914Y-94128094D01*
X188187914Y-94128094D02*
X188092676Y-94080475D01*
X188092676Y-94080475D02*
X187997438Y-93985237D01*
X187997438Y-93985237D02*
X187949819Y-93842380D01*
X187949819Y-93842380D02*
X187949819Y-93747142D01*
X187949819Y-93747142D02*
X187997438Y-93604285D01*
X187997438Y-93604285D02*
X188045057Y-93556666D01*
X188045057Y-93175713D02*
X187997438Y-93128094D01*
X187997438Y-93128094D02*
X187949819Y-93032856D01*
X187949819Y-93032856D02*
X187949819Y-92794761D01*
X187949819Y-92794761D02*
X187997438Y-92699523D01*
X187997438Y-92699523D02*
X188045057Y-92651904D01*
X188045057Y-92651904D02*
X188140295Y-92604285D01*
X188140295Y-92604285D02*
X188235533Y-92604285D01*
X188235533Y-92604285D02*
X188378390Y-92651904D01*
X188378390Y-92651904D02*
X188949819Y-93223332D01*
X188949819Y-93223332D02*
X188949819Y-92604285D01*
X180848095Y-110289819D02*
X180848095Y-111099342D01*
X180848095Y-111099342D02*
X180895714Y-111194580D01*
X180895714Y-111194580D02*
X180943333Y-111242200D01*
X180943333Y-111242200D02*
X181038571Y-111289819D01*
X181038571Y-111289819D02*
X181229047Y-111289819D01*
X181229047Y-111289819D02*
X181324285Y-111242200D01*
X181324285Y-111242200D02*
X181371904Y-111194580D01*
X181371904Y-111194580D02*
X181419523Y-111099342D01*
X181419523Y-111099342D02*
X181419523Y-110289819D01*
X181848095Y-110385057D02*
X181895714Y-110337438D01*
X181895714Y-110337438D02*
X181990952Y-110289819D01*
X181990952Y-110289819D02*
X182229047Y-110289819D01*
X182229047Y-110289819D02*
X182324285Y-110337438D01*
X182324285Y-110337438D02*
X182371904Y-110385057D01*
X182371904Y-110385057D02*
X182419523Y-110480295D01*
X182419523Y-110480295D02*
X182419523Y-110575533D01*
X182419523Y-110575533D02*
X182371904Y-110718390D01*
X182371904Y-110718390D02*
X181800476Y-111289819D01*
X181800476Y-111289819D02*
X182419523Y-111289819D01*
X199056666Y-76217319D02*
X199056666Y-76931604D01*
X199056666Y-76931604D02*
X199009047Y-77074461D01*
X199009047Y-77074461D02*
X198913809Y-77169700D01*
X198913809Y-77169700D02*
X198770952Y-77217319D01*
X198770952Y-77217319D02*
X198675714Y-77217319D01*
X200009047Y-76217319D02*
X199532857Y-76217319D01*
X199532857Y-76217319D02*
X199485238Y-76693509D01*
X199485238Y-76693509D02*
X199532857Y-76645890D01*
X199532857Y-76645890D02*
X199628095Y-76598271D01*
X199628095Y-76598271D02*
X199866190Y-76598271D01*
X199866190Y-76598271D02*
X199961428Y-76645890D01*
X199961428Y-76645890D02*
X200009047Y-76693509D01*
X200009047Y-76693509D02*
X200056666Y-76788747D01*
X200056666Y-76788747D02*
X200056666Y-77026842D01*
X200056666Y-77026842D02*
X200009047Y-77122080D01*
X200009047Y-77122080D02*
X199961428Y-77169700D01*
X199961428Y-77169700D02*
X199866190Y-77217319D01*
X199866190Y-77217319D02*
X199628095Y-77217319D01*
X199628095Y-77217319D02*
X199532857Y-77169700D01*
X199532857Y-77169700D02*
X199485238Y-77122080D01*
X201129819Y-94146666D02*
X200653628Y-94479999D01*
X201129819Y-94718094D02*
X200129819Y-94718094D01*
X200129819Y-94718094D02*
X200129819Y-94337142D01*
X200129819Y-94337142D02*
X200177438Y-94241904D01*
X200177438Y-94241904D02*
X200225057Y-94194285D01*
X200225057Y-94194285D02*
X200320295Y-94146666D01*
X200320295Y-94146666D02*
X200463152Y-94146666D01*
X200463152Y-94146666D02*
X200558390Y-94194285D01*
X200558390Y-94194285D02*
X200606009Y-94241904D01*
X200606009Y-94241904D02*
X200653628Y-94337142D01*
X200653628Y-94337142D02*
X200653628Y-94718094D01*
X201129819Y-93194285D02*
X201129819Y-93765713D01*
X201129819Y-93479999D02*
X200129819Y-93479999D01*
X200129819Y-93479999D02*
X200272676Y-93575237D01*
X200272676Y-93575237D02*
X200367914Y-93670475D01*
X200367914Y-93670475D02*
X200415533Y-93765713D01*
D13*
%TO.C,J3*%
X187850000Y-124350000D02*
X189230000Y-124350000D01*
X187850000Y-125730000D02*
X187850000Y-124350000D01*
X187850000Y-127000000D02*
X187850000Y-132190000D01*
X187850000Y-127000000D02*
X190610000Y-127000000D01*
X187850000Y-132190000D02*
X190610000Y-132190000D01*
X190610000Y-127000000D02*
X190610000Y-132190000D01*
%TO.C,C3*%
X177670000Y-128620000D02*
X179200000Y-128620000D01*
X179200000Y-130460000D02*
X177670000Y-130460000D01*
%TO.C,R2*%
X184785000Y-79045000D02*
X184785000Y-79995000D01*
X184785000Y-84785000D02*
X184785000Y-83835000D01*
X185705000Y-79995000D02*
X183865000Y-79995000D01*
X183865000Y-83835000D01*
X185705000Y-83835000D01*
X185705000Y-79995000D01*
D10*
%TO.C,S1*%
X192695000Y-114105000D02*
X192695000Y-114605000D01*
X192695000Y-114105000D02*
X193195000Y-114105000D01*
X192695000Y-118305000D02*
X192695000Y-117805000D01*
X192695000Y-118305000D02*
X193195000Y-118305000D01*
X204595000Y-114105000D02*
X204095000Y-114105000D01*
X204595000Y-114105000D02*
X204595000Y-114605000D01*
X204595000Y-118305000D02*
X204095000Y-118305000D01*
X204595000Y-118305000D02*
X204595000Y-117805000D01*
D13*
%TO.C,J1*%
X206265000Y-78630000D02*
X207645000Y-78630000D01*
X206265000Y-80010000D02*
X206265000Y-78630000D01*
X206265000Y-81280000D02*
X206265000Y-83930000D01*
X206265000Y-81280000D02*
X209025000Y-81280000D01*
X206265000Y-83930000D02*
X209025000Y-83930000D01*
X209025000Y-81280000D02*
X209025000Y-83930000D01*
%TO.C,D1*%
X196195000Y-103865000D02*
X196195000Y-106955000D01*
X196195000Y-103865170D02*
G75*
G02*
X201745000Y-105410000I2560000J-1544830D01*
G01*
X201745000Y-105410000D02*
G75*
G02*
X196195000Y-106954830I-2990000J0D01*
G01*
X201255000Y-105410000D02*
G75*
G02*
X196255000Y-105410000I-2500000J0D01*
G01*
X196255000Y-105410000D02*
G75*
G02*
X201255000Y-105410000I2500000J0D01*
G01*
%TO.C,U3*%
X177135000Y-93890000D02*
X187355000Y-93890000D01*
X177135000Y-98510000D02*
X177135000Y-93890000D01*
X180395000Y-98510000D02*
X180395000Y-97130000D01*
X184095000Y-98510000D02*
X184095000Y-97130000D01*
X187355000Y-93890000D02*
X187355000Y-98510000D01*
X187355000Y-97130000D02*
X177135000Y-97130000D01*
X187355000Y-98510000D02*
X177135000Y-98510000D01*
%TO.C,C1*%
X177670000Y-122270000D02*
X179200000Y-122270000D01*
X179200000Y-124110000D02*
X177670000Y-124110000D01*
%TO.C,J2*%
X206265000Y-124985000D02*
X207645000Y-124985000D01*
X206265000Y-126365000D02*
X206265000Y-124985000D01*
X206265000Y-127635000D02*
X206265000Y-130285000D01*
X206265000Y-127635000D02*
X209025000Y-127635000D01*
X206265000Y-130285000D02*
X209025000Y-130285000D01*
X209025000Y-127635000D02*
X209025000Y-130285000D01*
%TO.C,J4*%
X188485000Y-83185000D02*
X188485000Y-77995000D01*
X191245000Y-77995000D02*
X188485000Y-77995000D01*
X191245000Y-83185000D02*
X188485000Y-83185000D01*
X191245000Y-83185000D02*
X191245000Y-77995000D01*
X191245000Y-84455000D02*
X191245000Y-85835000D01*
X191245000Y-85835000D02*
X189865000Y-85835000D01*
%TO.C,R3*%
X178435000Y-79045000D02*
X178435000Y-79995000D01*
X178435000Y-84785000D02*
X178435000Y-83835000D01*
X177515000Y-83835000D02*
X179355000Y-83835000D01*
X179355000Y-79995000D01*
X177515000Y-79995000D01*
X177515000Y-83835000D01*
%TO.C,J7*%
X193810000Y-124150000D02*
X204550000Y-124150000D01*
X193810000Y-127770000D02*
X195050000Y-127770000D01*
X193810000Y-128770000D02*
X195050000Y-128770000D01*
X193810000Y-130070000D02*
X195050000Y-130070000D01*
X193810000Y-132190000D02*
X193810000Y-124150000D01*
X196630000Y-132190000D02*
X193810000Y-132190000D01*
X198810000Y-127770000D02*
X200118000Y-127770000D01*
X198810000Y-128770000D02*
X200118000Y-128770000D01*
X198810000Y-130070000D02*
X201387000Y-130070000D01*
X202473000Y-130070000D02*
X204550000Y-130070000D01*
X203742000Y-127770000D02*
X204550000Y-127770000D01*
X203742000Y-128770000D02*
X204550000Y-128770000D01*
X204550000Y-124150000D02*
X204550000Y-132190000D01*
X204550000Y-132190000D02*
X197230000Y-132190000D01*
X197370000Y-132800000D02*
X196490000Y-132800000D01*
X196930000Y-132190000D01*
X197370000Y-132800000D01*
G36*
X197370000Y-132800000D02*
G01*
X196490000Y-132800000D01*
X196930000Y-132190000D01*
X197370000Y-132800000D01*
G37*
%TO.C,C2*%
X189580000Y-94110000D02*
X189580000Y-92580000D01*
X191420000Y-92580000D02*
X191420000Y-94110000D01*
%TO.C,U2*%
X176500000Y-111675000D02*
X186720000Y-111675000D01*
X176500000Y-113055000D02*
X186720000Y-113055000D01*
X176500000Y-116295000D02*
X176500000Y-111675000D01*
X179760000Y-111675000D02*
X179760000Y-113055000D01*
X183460000Y-111675000D02*
X183460000Y-113055000D01*
X186720000Y-111675000D02*
X186720000Y-116295000D01*
X186720000Y-116295000D02*
X176500000Y-116295000D01*
%TO.C,J5*%
X194020000Y-77762500D02*
X204760000Y-77762500D01*
X194020000Y-81382500D02*
X195260000Y-81382500D01*
X194020000Y-82382500D02*
X195260000Y-82382500D01*
X194020000Y-83682500D02*
X195260000Y-83682500D01*
X194020000Y-85802500D02*
X194020000Y-77762500D01*
X196840000Y-85802500D02*
X194020000Y-85802500D01*
X199020000Y-81382500D02*
X200328000Y-81382500D01*
X199020000Y-82382500D02*
X200328000Y-82382500D01*
X199020000Y-83682500D02*
X201597000Y-83682500D01*
X202683000Y-83682500D02*
X204760000Y-83682500D01*
X203952000Y-81382500D02*
X204760000Y-81382500D01*
X203952000Y-82382500D02*
X204760000Y-82382500D01*
X204760000Y-77762500D02*
X204760000Y-85802500D01*
X204760000Y-85802500D02*
X197440000Y-85802500D01*
X197580000Y-86412500D02*
X196700000Y-86412500D01*
X197140000Y-85802500D01*
X197580000Y-86412500D01*
G36*
X197580000Y-86412500D02*
G01*
X196700000Y-86412500D01*
X197140000Y-85802500D01*
X197580000Y-86412500D01*
G37*
%TO.C,R1*%
X198755000Y-91110000D02*
X198755000Y-92060000D01*
X198755000Y-96850000D02*
X198755000Y-95900000D01*
X199675000Y-92060000D02*
X197835000Y-92060000D01*
X197835000Y-95900000D01*
X199675000Y-95900000D01*
X199675000Y-92060000D01*
D14*
%TO.C,J6*%
X176450000Y-108640000D02*
X176450000Y-99640000D01*
X176450000Y-108640000D02*
X184950000Y-108640000D01*
X188450000Y-99640000D02*
X176450000Y-99640000D01*
X188450000Y-99640000D02*
X188450000Y-100290000D01*
X188450000Y-100290000D02*
X190750000Y-100290000D01*
X190750000Y-100290000D02*
X190750000Y-101890000D01*
X190750000Y-107990000D02*
X188900000Y-107990000D01*
X190750000Y-107990000D02*
X190750000Y-106390000D01*
%TD*%
M02*
