%TF.GenerationSoftware,KiCad,Pcbnew,9.0.6-9.0.6~ubuntu24.04.1*%
%TF.CreationDate,2025-11-30T14:47:38-06:00*%
%TF.ProjectId,breadboard_power_supply,62726561-6462-46f6-9172-645f706f7765,Version 1*%
%TF.SameCoordinates,Original*%
%TF.FileFunction,Copper,L2,Bot*%
%TF.FilePolarity,Positive*%
%FSLAX46Y46*%
G04 Gerber Fmt 4.6, Leading zero omitted, Abs format (unit mm)*
G04 Created by KiCad (PCBNEW 9.0.6-9.0.6~ubuntu24.04.1) date 2025-11-30 14:47:38*
%MOMM*%
%LPD*%
G01*
G04 APERTURE LIST*
G04 Aperture macros list*
%AMRoundRect*
0 Rectangle with rounded corners*
0 $1 Rounding radius*
0 $2 $3 $4 $5 $6 $7 $8 $9 X,Y pos of 4 corners*
0 Add a 4 corners polygon primitive as box body*
4,1,4,$2,$3,$4,$5,$6,$7,$8,$9,$2,$3,0*
0 Add four circle primitives for the rounded corners*
1,1,$1+$1,$2,$3*
1,1,$1+$1,$4,$5*
1,1,$1+$1,$6,$7*
1,1,$1+$1,$8,$9*
0 Add four rect primitives between the rounded corners*
20,1,$1+$1,$2,$3,$4,$5,0*
20,1,$1+$1,$4,$5,$6,$7,0*
20,1,$1+$1,$6,$7,$8,$9,0*
20,1,$1+$1,$8,$9,$2,$3,0*%
G04 Aperture macros list end*
%TA.AperFunction,ComponentPad*%
%ADD10R,1.700000X1.700000*%
%TD*%
%TA.AperFunction,ComponentPad*%
%ADD11C,1.700000*%
%TD*%
%TA.AperFunction,ComponentPad*%
%ADD12C,1.600000*%
%TD*%
%TA.AperFunction,ComponentPad*%
%ADD13C,1.400000*%
%TD*%
%TA.AperFunction,ComponentPad*%
%ADD14R,1.900000X1.900000*%
%TD*%
%TA.AperFunction,ComponentPad*%
%ADD15C,1.900000*%
%TD*%
%TA.AperFunction,ComponentPad*%
%ADD16R,1.800000X1.800000*%
%TD*%
%TA.AperFunction,ComponentPad*%
%ADD17C,1.800000*%
%TD*%
%TA.AperFunction,ComponentPad*%
%ADD18R,1.905000X2.000000*%
%TD*%
%TA.AperFunction,ComponentPad*%
%ADD19O,1.905000X2.000000*%
%TD*%
%TA.AperFunction,ComponentPad*%
%ADD20RoundRect,0.250001X-1.149999X-1.149999X1.149999X-1.149999X1.149999X1.149999X-1.149999X1.149999X0*%
%TD*%
%TA.AperFunction,ComponentPad*%
%ADD21C,2.800000*%
%TD*%
%TA.AperFunction,ComponentPad*%
%ADD22C,4.318000*%
%TD*%
%TA.AperFunction,Conductor*%
%ADD23C,0.250000*%
%TD*%
%TA.AperFunction,Conductor*%
%ADD24C,0.200000*%
%TD*%
%TA.AperFunction,Conductor*%
%ADD25C,0.350000*%
%TD*%
G04 APERTURE END LIST*
D10*
%TO.P,J3,1,Pin_1*%
%TO.N,/3.3V*%
X189230000Y-125730000D03*
D11*
%TO.P,J3,2,Pin_2*%
%TO.N,/POWER_OUT_BOTTOM*%
X189230000Y-128270000D03*
%TO.P,J3,3,Pin_3*%
%TO.N,/5V*%
X189230000Y-130810000D03*
%TD*%
D12*
%TO.P,C3,1*%
%TO.N,/3.3V*%
X177185000Y-129540000D03*
%TO.P,C3,2*%
%TO.N,GND*%
X179685000Y-129540000D03*
%TD*%
D13*
%TO.P,R2,1*%
%TO.N,Net-(U2-ADJ)*%
X184785000Y-78105000D03*
%TO.P,R2,2*%
%TO.N,/3.3V*%
X184785000Y-85725000D03*
%TD*%
D14*
%TO.P,S1,1*%
%TO.N,/12V*%
X196295000Y-116205000D03*
D15*
%TO.P,S1,2*%
%TO.N,/PWR_INPUT*%
X198795000Y-116205000D03*
%TO.P,S1,3*%
%TO.N,unconnected-(S1-Pad3)*%
X201295000Y-116205000D03*
%TD*%
D10*
%TO.P,J1,1,Pin_1*%
%TO.N,GND*%
X207645000Y-80010000D03*
D11*
%TO.P,J1,2,Pin_2*%
%TO.N,/POWER_OUT_TOP*%
X207645000Y-82550000D03*
%TD*%
D16*
%TO.P,D1,1*%
%TO.N,GND*%
X197485000Y-105410000D03*
D17*
%TO.P,D1,2*%
%TO.N,Net-(D1-Pad2)*%
X200025000Y-105410000D03*
%TD*%
D18*
%TO.P,U3,1,VI*%
%TO.N,/12V*%
X184785000Y-95250000D03*
D19*
%TO.P,U3,2,GND*%
%TO.N,GND*%
X182245000Y-95250000D03*
%TO.P,U3,3,VO*%
%TO.N,/5V*%
X179705000Y-95250000D03*
%TD*%
D12*
%TO.P,C1,1*%
%TO.N,/12V*%
X177185000Y-123190000D03*
%TO.P,C1,2*%
%TO.N,GND*%
X179685000Y-123190000D03*
%TD*%
D10*
%TO.P,J2,1,Pin_1*%
%TO.N,GND*%
X207645000Y-126365000D03*
D11*
%TO.P,J2,2,Pin_2*%
%TO.N,/POWER_OUT_BOTTOM*%
X207645000Y-128905000D03*
%TD*%
D10*
%TO.P,J4,1,Pin_1*%
%TO.N,/3.3V*%
X189865000Y-84455000D03*
D11*
%TO.P,J4,2,Pin_2*%
%TO.N,/POWER_OUT_TOP*%
X189865000Y-81915000D03*
%TO.P,J4,3,Pin_3*%
%TO.N,/5V*%
X189865000Y-79375000D03*
%TD*%
D13*
%TO.P,R3,1*%
%TO.N,GND*%
X178435000Y-85725000D03*
%TO.P,R3,2*%
%TO.N,Net-(U2-ADJ)*%
X178435000Y-78105000D03*
%TD*%
D20*
%TO.P,J7,1,Pin_1*%
%TO.N,GND*%
X196930000Y-128270000D03*
D21*
%TO.P,J7,2,Pin_2*%
%TO.N,/POWER_OUT_BOTTOM*%
X201930000Y-128270000D03*
%TD*%
D12*
%TO.P,C2,1*%
%TO.N,/5V*%
X190500000Y-94595000D03*
%TO.P,C2,2*%
%TO.N,GND*%
X190500000Y-92095000D03*
%TD*%
D18*
%TO.P,U2,1,ADJ*%
%TO.N,Net-(U2-ADJ)*%
X179070000Y-114935000D03*
D19*
%TO.P,U2,2,VO*%
%TO.N,/3.3V*%
X181610000Y-114935000D03*
%TO.P,U2,3,VI*%
%TO.N,/12V*%
X184150000Y-114935000D03*
%TD*%
D20*
%TO.P,J5,1,Pin_1*%
%TO.N,GND*%
X197140000Y-81882500D03*
D21*
%TO.P,J5,2,Pin_2*%
%TO.N,/POWER_OUT_TOP*%
X202140000Y-81882500D03*
%TD*%
D13*
%TO.P,R1,1*%
%TO.N,Net-(D1-Pad2)*%
X198755000Y-90170000D03*
%TO.P,R1,2*%
%TO.N,/12V*%
X198755000Y-97790000D03*
%TD*%
D22*
%TO.P,J6,1,PWR*%
%TO.N,/PWR_INPUT*%
X190150000Y-104140000D03*
%TO.P,J6,2,GND*%
%TO.N,GND*%
X184150000Y-104140000D03*
%TO.P,J6,3,GNDBREAK*%
X187150000Y-108840000D03*
%TD*%
D23*
%TO.N,/POWER_OUT_BOTTOM*%
X207645000Y-128905000D02*
X202860000Y-128905000D01*
X202860000Y-128905000D02*
X202808300Y-128905000D01*
X202808300Y-128905000D02*
X202565000Y-128905000D01*
X202565000Y-128905000D02*
X201930000Y-128270000D01*
X191032400Y-130072400D02*
X189230000Y-128270000D01*
X200127600Y-130072400D02*
X191032400Y-130072400D01*
X201930000Y-128270000D02*
X200127600Y-130072400D01*
D24*
%TO.N,Net-(U2-ADJ)*%
X184785000Y-78105000D02*
X178435000Y-78105000D01*
D25*
%TO.N,/PWR_INPUT*%
X198795000Y-112785000D02*
X198795000Y-116205000D01*
X190150000Y-104140000D02*
X198795000Y-112785000D01*
D23*
%TO.N,/POWER_OUT_TOP*%
X206977500Y-81882500D02*
X207645000Y-82550000D01*
X202140000Y-81882500D02*
X206977500Y-81882500D01*
X200346700Y-80089200D02*
X202140000Y-81882500D01*
X191690800Y-80089200D02*
X200346700Y-80089200D01*
X189865000Y-81915000D02*
X191690800Y-80089200D01*
D24*
%TO.N,/3.3V*%
X189230000Y-125730000D02*
X180995000Y-125730000D01*
X187443000Y-85725000D02*
X188713000Y-84455000D01*
X184785000Y-85725000D02*
X187443000Y-85725000D01*
X189865000Y-84455000D02*
X188713000Y-84455000D01*
X180995000Y-125730000D02*
X177185000Y-129540000D01*
D23*
%TO.N,/5V*%
X179705000Y-93872200D02*
X179124000Y-93291100D01*
X179705000Y-95250000D02*
X179705000Y-93872200D01*
X180462000Y-91952700D02*
X179124000Y-93291100D01*
X187858000Y-91952700D02*
X180462000Y-91952700D01*
X190500000Y-94595000D02*
X187858000Y-91952700D01*
X179124000Y-93291100D02*
X179070000Y-93345000D01*
%TO.N,/12V*%
X184150000Y-117582000D02*
X182793000Y-117582000D01*
X184150000Y-116205000D02*
X184150000Y-117582000D01*
X187325000Y-97790000D02*
X198755000Y-97790000D01*
X184785000Y-95250000D02*
X187325000Y-97790000D01*
X182793000Y-117582000D02*
X177185000Y-123190000D01*
X190222000Y-116205000D02*
X190171000Y-116205000D01*
X196295000Y-116205000D02*
X190222000Y-116205000D01*
X185420000Y-116205000D02*
X184150000Y-116205000D01*
X185479000Y-116146000D02*
X185479000Y-114935000D01*
X185420000Y-116205000D02*
X185479000Y-116146000D01*
X190171000Y-116205000D02*
X185420000Y-116205000D01*
X184150000Y-114935000D02*
X185479000Y-114935000D01*
%TD*%
%TA.AperFunction,Conductor*%
%TO.N,GND*%
G36*
X209246539Y-76426685D02*
G01*
X209292294Y-76479489D01*
X209303500Y-76531000D01*
X209303500Y-133777500D01*
X209283815Y-133844539D01*
X209231011Y-133890294D01*
X209179500Y-133901500D01*
X176265500Y-133901500D01*
X176198461Y-133881815D01*
X176152706Y-133829011D01*
X176141500Y-133777500D01*
X176141500Y-130632723D01*
X176161185Y-130565684D01*
X176213989Y-130519929D01*
X176283147Y-130509985D01*
X176338385Y-130532405D01*
X176503390Y-130652287D01*
X176604319Y-130703713D01*
X176685776Y-130745218D01*
X176685778Y-130745218D01*
X176685781Y-130745220D01*
X176790137Y-130779127D01*
X176880465Y-130808477D01*
X176981557Y-130824488D01*
X177082648Y-130840500D01*
X177082649Y-130840500D01*
X177287351Y-130840500D01*
X177287352Y-130840500D01*
X177489534Y-130808477D01*
X177684219Y-130745220D01*
X177866610Y-130652287D01*
X177996031Y-130558258D01*
X178032213Y-130531971D01*
X178032215Y-130531968D01*
X178032219Y-130531966D01*
X178176966Y-130387219D01*
X178246446Y-130291588D01*
X178254670Y-130280266D01*
X178297287Y-130221610D01*
X178390220Y-130039219D01*
X178422478Y-129939938D01*
X178461916Y-129882263D01*
X178526274Y-129855065D01*
X178595121Y-129866980D01*
X178646596Y-129914224D01*
X178658340Y-129939939D01*
X178665591Y-129962255D01*
X178744198Y-130116528D01*
X178808219Y-130204646D01*
X178808220Y-130204647D01*
X179314533Y-129698333D01*
X179364920Y-129785606D01*
X179439394Y-129860080D01*
X179526665Y-129910465D01*
X179020351Y-130416778D01*
X179020352Y-130416780D01*
X179108471Y-130480801D01*
X179262742Y-130559408D01*
X179427415Y-130612914D01*
X179598429Y-130640000D01*
X179771571Y-130640000D01*
X179942584Y-130612914D01*
X180107257Y-130559408D01*
X180261525Y-130480803D01*
X180349646Y-130416778D01*
X180349647Y-130416778D01*
X179843334Y-129910465D01*
X179930606Y-129860080D01*
X180005080Y-129785606D01*
X180055466Y-129698334D01*
X180561778Y-130204647D01*
X180561778Y-130204646D01*
X180625803Y-130116525D01*
X180704408Y-129962257D01*
X180757914Y-129797584D01*
X180785000Y-129626571D01*
X180785000Y-129453428D01*
X180757914Y-129282415D01*
X180704408Y-129117742D01*
X180625801Y-128963471D01*
X180561780Y-128875352D01*
X180561778Y-128875351D01*
X180055465Y-129381664D01*
X180005080Y-129294394D01*
X179930606Y-129219920D01*
X179843333Y-129169533D01*
X180349647Y-128663220D01*
X180349646Y-128663219D01*
X180261528Y-128599198D01*
X180107257Y-128520591D01*
X179942584Y-128467085D01*
X179771571Y-128440000D01*
X179598428Y-128440000D01*
X179423809Y-128467656D01*
X179354516Y-128458701D01*
X179301064Y-128413705D01*
X179280425Y-128346953D01*
X179299150Y-128279639D01*
X179316724Y-128257509D01*
X181207417Y-126366819D01*
X181268740Y-126333334D01*
X181295098Y-126330500D01*
X187755501Y-126330500D01*
X187822540Y-126350185D01*
X187868295Y-126402989D01*
X187879501Y-126454500D01*
X187879501Y-126627876D01*
X187885908Y-126687483D01*
X187936202Y-126822328D01*
X187936206Y-126822335D01*
X188022452Y-126937544D01*
X188022455Y-126937547D01*
X188137664Y-127023793D01*
X188137671Y-127023797D01*
X188269082Y-127072810D01*
X188325016Y-127114681D01*
X188349433Y-127180145D01*
X188334582Y-127248418D01*
X188313431Y-127276673D01*
X188199889Y-127390215D01*
X188074951Y-127562179D01*
X187978444Y-127751585D01*
X187912753Y-127953760D01*
X187882397Y-128145424D01*
X187879500Y-128163713D01*
X187879500Y-128376287D01*
X187886424Y-128420000D01*
X187906632Y-128547595D01*
X187912754Y-128586243D01*
X187970417Y-128763712D01*
X187978444Y-128788414D01*
X188074951Y-128977820D01*
X188199890Y-129149786D01*
X188350213Y-129300109D01*
X188522182Y-129425050D01*
X188530946Y-129429516D01*
X188581742Y-129477491D01*
X188598536Y-129545312D01*
X188575998Y-129611447D01*
X188530946Y-129650484D01*
X188522182Y-129654949D01*
X188350213Y-129779890D01*
X188199890Y-129930213D01*
X188074951Y-130102179D01*
X187978444Y-130291585D01*
X187912753Y-130493760D01*
X187879500Y-130703713D01*
X187879500Y-130916286D01*
X187912753Y-131126239D01*
X187978444Y-131328414D01*
X188074951Y-131517820D01*
X188199890Y-131689786D01*
X188350213Y-131840109D01*
X188522179Y-131965048D01*
X188522181Y-131965049D01*
X188522184Y-131965051D01*
X188711588Y-132061557D01*
X188913757Y-132127246D01*
X189123713Y-132160500D01*
X189123714Y-132160500D01*
X189336286Y-132160500D01*
X189336287Y-132160500D01*
X189546243Y-132127246D01*
X189748412Y-132061557D01*
X189937816Y-131965051D01*
X189959789Y-131949086D01*
X190109786Y-131840109D01*
X190109788Y-131840106D01*
X190109792Y-131840104D01*
X190260104Y-131689792D01*
X190260106Y-131689788D01*
X190260109Y-131689786D01*
X190385048Y-131517820D01*
X190385047Y-131517820D01*
X190385051Y-131517816D01*
X190481557Y-131328412D01*
X190547246Y-131126243D01*
X190580500Y-130916287D01*
X190580500Y-130747833D01*
X190589740Y-130716363D01*
X190597857Y-130684561D01*
X190599538Y-130682995D01*
X190600185Y-130680794D01*
X190624967Y-130659319D01*
X190648994Y-130636950D01*
X190651254Y-130636542D01*
X190652989Y-130635039D01*
X190685457Y-130630370D01*
X190717753Y-130624543D01*
X190720719Y-130625300D01*
X190722147Y-130625095D01*
X190751947Y-130633270D01*
X190797859Y-130652287D01*
X190797860Y-130652287D01*
X190797861Y-130652288D01*
X190849943Y-130673861D01*
X190849948Y-130673863D01*
X190869997Y-130677851D01*
X190903596Y-130684534D01*
X190970792Y-130697901D01*
X190970794Y-130697901D01*
X191100121Y-130697901D01*
X191100141Y-130697900D01*
X200189207Y-130697900D01*
X200249629Y-130685881D01*
X200310052Y-130673863D01*
X200362141Y-130652287D01*
X200423886Y-130626712D01*
X200475109Y-130592484D01*
X200526333Y-130558258D01*
X200613458Y-130471133D01*
X200613458Y-130471131D01*
X200623666Y-130460924D01*
X200623667Y-130460921D01*
X201042334Y-130042254D01*
X201103656Y-130008771D01*
X201173348Y-130013755D01*
X201177423Y-130015358D01*
X201317793Y-130073502D01*
X201558435Y-130137982D01*
X201805435Y-130170500D01*
X201805442Y-130170500D01*
X202054558Y-130170500D01*
X202054565Y-130170500D01*
X202301565Y-130137982D01*
X202542207Y-130073502D01*
X202772373Y-129978164D01*
X202988127Y-129853599D01*
X203185776Y-129701938D01*
X203320896Y-129566817D01*
X203382217Y-129533334D01*
X203408576Y-129530500D01*
X206372019Y-129530500D01*
X206439058Y-129550185D01*
X206482503Y-129598203D01*
X206489950Y-129612819D01*
X206614890Y-129784786D01*
X206765213Y-129935109D01*
X206937179Y-130060048D01*
X206937181Y-130060049D01*
X206937184Y-130060051D01*
X207126588Y-130156557D01*
X207328757Y-130222246D01*
X207538713Y-130255500D01*
X207538714Y-130255500D01*
X207751286Y-130255500D01*
X207751287Y-130255500D01*
X207961243Y-130222246D01*
X208163412Y-130156557D01*
X208352816Y-130060051D01*
X208381489Y-130039219D01*
X208524786Y-129935109D01*
X208524788Y-129935106D01*
X208524792Y-129935104D01*
X208675104Y-129784792D01*
X208675106Y-129784788D01*
X208675109Y-129784786D01*
X208800048Y-129612820D01*
X208800049Y-129612819D01*
X208800051Y-129612816D01*
X208896557Y-129423412D01*
X208962246Y-129221243D01*
X208995500Y-129011287D01*
X208995500Y-128798713D01*
X208962246Y-128588757D01*
X208896557Y-128386588D01*
X208800051Y-128197184D01*
X208800049Y-128197181D01*
X208800048Y-128197179D01*
X208675109Y-128025213D01*
X208524786Y-127874890D01*
X208352817Y-127749949D01*
X208351904Y-127749484D01*
X208351618Y-127749214D01*
X208348664Y-127747404D01*
X208349044Y-127746783D01*
X208301108Y-127701510D01*
X208284312Y-127633689D01*
X208306849Y-127567554D01*
X208361564Y-127524102D01*
X208408198Y-127514999D01*
X208539786Y-127514999D01*
X208539808Y-127514997D01*
X208564869Y-127512091D01*
X208564873Y-127512090D01*
X208667474Y-127466788D01*
X208667479Y-127466785D01*
X208746785Y-127387479D01*
X208746788Y-127387474D01*
X208792089Y-127284877D01*
X208792089Y-127284875D01*
X208794999Y-127259794D01*
X208795000Y-127259791D01*
X208795000Y-126515000D01*
X208122445Y-126515000D01*
X208145000Y-126430826D01*
X208145000Y-126299174D01*
X208122445Y-126215000D01*
X208794999Y-126215000D01*
X208794999Y-125470214D01*
X208794997Y-125470191D01*
X208792091Y-125445130D01*
X208792090Y-125445126D01*
X208746788Y-125342525D01*
X208746785Y-125342520D01*
X208667479Y-125263214D01*
X208667474Y-125263211D01*
X208564876Y-125217910D01*
X208539794Y-125215000D01*
X207795000Y-125215000D01*
X207795000Y-125887554D01*
X207710826Y-125865000D01*
X207579174Y-125865000D01*
X207495000Y-125887554D01*
X207495000Y-125215000D01*
X206750214Y-125215000D01*
X206750191Y-125215002D01*
X206725130Y-125217908D01*
X206725126Y-125217909D01*
X206622525Y-125263211D01*
X206622520Y-125263214D01*
X206543214Y-125342520D01*
X206543211Y-125342525D01*
X206497910Y-125445122D01*
X206497910Y-125445124D01*
X206495000Y-125470205D01*
X206495000Y-126215000D01*
X207167555Y-126215000D01*
X207145000Y-126299174D01*
X207145000Y-126430826D01*
X207167555Y-126515000D01*
X206495001Y-126515000D01*
X206495001Y-127259785D01*
X206495002Y-127259808D01*
X206497908Y-127284869D01*
X206497909Y-127284873D01*
X206543211Y-127387474D01*
X206543214Y-127387479D01*
X206622520Y-127466785D01*
X206622525Y-127466788D01*
X206725123Y-127512089D01*
X206750206Y-127514999D01*
X206881799Y-127514999D01*
X206948839Y-127534683D01*
X206994594Y-127587487D01*
X207004538Y-127656645D01*
X206975514Y-127720201D01*
X206941148Y-127747098D01*
X206941336Y-127747404D01*
X206938674Y-127749034D01*
X206938111Y-127749476D01*
X206937182Y-127749949D01*
X206765213Y-127874890D01*
X206614890Y-128025213D01*
X206489950Y-128197180D01*
X206482503Y-128211797D01*
X206434527Y-128262592D01*
X206372019Y-128279500D01*
X203954500Y-128279500D01*
X203887461Y-128259815D01*
X203841706Y-128207011D01*
X203830500Y-128155500D01*
X203830500Y-128145441D01*
X203830500Y-128145435D01*
X203797982Y-127898435D01*
X203733502Y-127657793D01*
X203638164Y-127427627D01*
X203616564Y-127390215D01*
X203513599Y-127211873D01*
X203361939Y-127014225D01*
X203361933Y-127014218D01*
X203185781Y-126838066D01*
X203185774Y-126838060D01*
X202988126Y-126686400D01*
X202772376Y-126561837D01*
X202772361Y-126561830D01*
X202542207Y-126466498D01*
X202497430Y-126454500D01*
X202301565Y-126402018D01*
X202301564Y-126402017D01*
X202301561Y-126402017D01*
X202054575Y-126369501D01*
X202054570Y-126369500D01*
X202054565Y-126369500D01*
X201805435Y-126369500D01*
X201805429Y-126369500D01*
X201805424Y-126369501D01*
X201558438Y-126402017D01*
X201317792Y-126466498D01*
X201087638Y-126561830D01*
X201087623Y-126561837D01*
X200871873Y-126686400D01*
X200674225Y-126838060D01*
X200674218Y-126838066D01*
X200498066Y-127014218D01*
X200498060Y-127014225D01*
X200346400Y-127211873D01*
X200221837Y-127427623D01*
X200221830Y-127427638D01*
X200126498Y-127657792D01*
X200062017Y-127898438D01*
X200029501Y-128145424D01*
X200029500Y-128145441D01*
X200029500Y-128394558D01*
X200029501Y-128394575D01*
X200055065Y-128588757D01*
X200062018Y-128641565D01*
X200068703Y-128666514D01*
X200126499Y-128882211D01*
X200184622Y-129022532D01*
X200192091Y-129092002D01*
X200160816Y-129154481D01*
X200157761Y-129157647D01*
X199904827Y-129410582D01*
X199843507Y-129444066D01*
X199817148Y-129446900D01*
X198754000Y-129446900D01*
X198686961Y-129427215D01*
X198641206Y-129374411D01*
X198630000Y-129322900D01*
X198630000Y-128420000D01*
X197562897Y-128420000D01*
X197580000Y-128334019D01*
X197580000Y-128205981D01*
X197562897Y-128120000D01*
X198629999Y-128120000D01*
X198629999Y-127076947D01*
X198619386Y-126988556D01*
X198619384Y-126988552D01*
X198563921Y-126847908D01*
X198563920Y-126847906D01*
X198472564Y-126727435D01*
X198352093Y-126636079D01*
X198352091Y-126636078D01*
X198211445Y-126580614D01*
X198123053Y-126570000D01*
X197080000Y-126570000D01*
X197080000Y-127637102D01*
X196994019Y-127620000D01*
X196865981Y-127620000D01*
X196780000Y-127637102D01*
X196780000Y-126570000D01*
X195736947Y-126570000D01*
X195648556Y-126580613D01*
X195648552Y-126580615D01*
X195507908Y-126636078D01*
X195507906Y-126636079D01*
X195387435Y-126727435D01*
X195296079Y-126847906D01*
X195296078Y-126847908D01*
X195240614Y-126988554D01*
X195230000Y-127076947D01*
X195230000Y-128120000D01*
X196297103Y-128120000D01*
X196280000Y-128205981D01*
X196280000Y-128334019D01*
X196297103Y-128420000D01*
X195230001Y-128420000D01*
X195230001Y-129322900D01*
X195210316Y-129389939D01*
X195157512Y-129435694D01*
X195106001Y-129446900D01*
X191342853Y-129446900D01*
X191275814Y-129427215D01*
X191255172Y-129410581D01*
X190572428Y-128727837D01*
X190538943Y-128666514D01*
X190542178Y-128601837D01*
X190547246Y-128586243D01*
X190580500Y-128376287D01*
X190580500Y-128163713D01*
X190547246Y-127953757D01*
X190481557Y-127751588D01*
X190385051Y-127562184D01*
X190385049Y-127562181D01*
X190385048Y-127562179D01*
X190260109Y-127390213D01*
X190146569Y-127276673D01*
X190113084Y-127215350D01*
X190118068Y-127145658D01*
X190159940Y-127089725D01*
X190190915Y-127072810D01*
X190322331Y-127023796D01*
X190369406Y-126988556D01*
X190388892Y-126973969D01*
X190415377Y-126954141D01*
X190437546Y-126937546D01*
X190523796Y-126822331D01*
X190574091Y-126687483D01*
X190580500Y-126627873D01*
X190580499Y-124832128D01*
X190574091Y-124772517D01*
X190523796Y-124637669D01*
X190523795Y-124637668D01*
X190523793Y-124637664D01*
X190437547Y-124522455D01*
X190437544Y-124522452D01*
X190322335Y-124436206D01*
X190322328Y-124436202D01*
X190187482Y-124385908D01*
X190187483Y-124385908D01*
X190127883Y-124379501D01*
X190127881Y-124379500D01*
X190127873Y-124379500D01*
X190127864Y-124379500D01*
X188332129Y-124379500D01*
X188332123Y-124379501D01*
X188272516Y-124385908D01*
X188137671Y-124436202D01*
X188137664Y-124436206D01*
X188022455Y-124522452D01*
X188022452Y-124522455D01*
X187936206Y-124637664D01*
X187936202Y-124637671D01*
X187885908Y-124772517D01*
X187879501Y-124832116D01*
X187879501Y-124832123D01*
X187879500Y-124832135D01*
X187879500Y-125005500D01*
X187859815Y-125072539D01*
X187807011Y-125118294D01*
X187755500Y-125129500D01*
X181081670Y-125129500D01*
X181081654Y-125129499D01*
X181074058Y-125129499D01*
X180915943Y-125129499D01*
X180839579Y-125149961D01*
X180763214Y-125170423D01*
X180763209Y-125170426D01*
X180626290Y-125249475D01*
X180626282Y-125249481D01*
X177629842Y-128245921D01*
X177568519Y-128279406D01*
X177503848Y-128276173D01*
X177489534Y-128271522D01*
X177314995Y-128243878D01*
X177287352Y-128239500D01*
X177082648Y-128239500D01*
X177058329Y-128243351D01*
X176880465Y-128271522D01*
X176685776Y-128334781D01*
X176503390Y-128427712D01*
X176338385Y-128547595D01*
X176272578Y-128571074D01*
X176204525Y-128555248D01*
X176155830Y-128505142D01*
X176141500Y-128447276D01*
X176141500Y-124282723D01*
X176161185Y-124215684D01*
X176213989Y-124169929D01*
X176283147Y-124159985D01*
X176338385Y-124182405D01*
X176503390Y-124302287D01*
X176619607Y-124361503D01*
X176685776Y-124395218D01*
X176685778Y-124395218D01*
X176685781Y-124395220D01*
X176790137Y-124429127D01*
X176880465Y-124458477D01*
X176981557Y-124474488D01*
X177082648Y-124490500D01*
X177082649Y-124490500D01*
X177287351Y-124490500D01*
X177287352Y-124490500D01*
X177489534Y-124458477D01*
X177684219Y-124395220D01*
X177866610Y-124302287D01*
X177994448Y-124209408D01*
X178032213Y-124181971D01*
X178032215Y-124181968D01*
X178032219Y-124181966D01*
X178176966Y-124037219D01*
X178297287Y-123871610D01*
X178390220Y-123689219D01*
X178422478Y-123589938D01*
X178461916Y-123532263D01*
X178526274Y-123505065D01*
X178595121Y-123516980D01*
X178646596Y-123564224D01*
X178658340Y-123589939D01*
X178665591Y-123612255D01*
X178744198Y-123766528D01*
X178808219Y-123854646D01*
X178808220Y-123854647D01*
X179314533Y-123348333D01*
X179364920Y-123435606D01*
X179439394Y-123510080D01*
X179526665Y-123560465D01*
X179020351Y-124066778D01*
X179020352Y-124066780D01*
X179108471Y-124130801D01*
X179262742Y-124209408D01*
X179427415Y-124262914D01*
X179598429Y-124290000D01*
X179771571Y-124290000D01*
X179942584Y-124262914D01*
X180107257Y-124209408D01*
X180261525Y-124130803D01*
X180349646Y-124066778D01*
X180349647Y-124066778D01*
X179843334Y-123560465D01*
X179930606Y-123510080D01*
X180005080Y-123435606D01*
X180055466Y-123348334D01*
X180561778Y-123854647D01*
X180561778Y-123854646D01*
X180625803Y-123766525D01*
X180704408Y-123612257D01*
X180757914Y-123447584D01*
X180785000Y-123276571D01*
X180785000Y-123103428D01*
X180757914Y-122932415D01*
X180704408Y-122767742D01*
X180625801Y-122613471D01*
X180561780Y-122525352D01*
X180561778Y-122525351D01*
X180055465Y-123031664D01*
X180005080Y-122944394D01*
X179930606Y-122869920D01*
X179843333Y-122819533D01*
X180349647Y-122313220D01*
X180349646Y-122313219D01*
X180261528Y-122249198D01*
X180107257Y-122170591D01*
X179942584Y-122117085D01*
X179771571Y-122090000D01*
X179598429Y-122090000D01*
X179465819Y-122111003D01*
X179396525Y-122102048D01*
X179343073Y-122057052D01*
X179322434Y-121990300D01*
X179341159Y-121922987D01*
X179358740Y-121900849D01*
X183015772Y-118243819D01*
X183077095Y-118210334D01*
X183103453Y-118207500D01*
X184211607Y-118207500D01*
X184211608Y-118207499D01*
X184332452Y-118183463D01*
X184446286Y-118136311D01*
X184548733Y-118067858D01*
X184635858Y-117980733D01*
X184704311Y-117878286D01*
X184751463Y-117764452D01*
X184775500Y-117643606D01*
X184775500Y-116954500D01*
X184795185Y-116887461D01*
X184847989Y-116841706D01*
X184899500Y-116830500D01*
X185358393Y-116830500D01*
X185358394Y-116830500D01*
X190109394Y-116830500D01*
X190160394Y-116830500D01*
X194720501Y-116830500D01*
X194787540Y-116850185D01*
X194833295Y-116902989D01*
X194844501Y-116954500D01*
X194844501Y-117202876D01*
X194850908Y-117262483D01*
X194901202Y-117397328D01*
X194901206Y-117397335D01*
X194987452Y-117512544D01*
X194987455Y-117512547D01*
X195102664Y-117598793D01*
X195102671Y-117598797D01*
X195237517Y-117649091D01*
X195237516Y-117649091D01*
X195244444Y-117649835D01*
X195297127Y-117655500D01*
X197292872Y-117655499D01*
X197352483Y-117649091D01*
X197487331Y-117598796D01*
X197602546Y-117512546D01*
X197688796Y-117397331D01*
X197691368Y-117390436D01*
X197733237Y-117334501D01*
X197798700Y-117310081D01*
X197866974Y-117324931D01*
X197880435Y-117333445D01*
X198034772Y-117445579D01*
X198130884Y-117494550D01*
X198238196Y-117549229D01*
X198238198Y-117549229D01*
X198238201Y-117549231D01*
X198354592Y-117587049D01*
X198455339Y-117619784D01*
X198680838Y-117655500D01*
X198680843Y-117655500D01*
X198909162Y-117655500D01*
X199134660Y-117619784D01*
X199351799Y-117549231D01*
X199555228Y-117445579D01*
X199739937Y-117311379D01*
X199901379Y-117149937D01*
X199944683Y-117090333D01*
X200000012Y-117047670D01*
X200069626Y-117041691D01*
X200131421Y-117074297D01*
X200145313Y-117090329D01*
X200188621Y-117149937D01*
X200350063Y-117311379D01*
X200534772Y-117445579D01*
X200630884Y-117494550D01*
X200738196Y-117549229D01*
X200738198Y-117549229D01*
X200738201Y-117549231D01*
X200854592Y-117587049D01*
X200955339Y-117619784D01*
X201180838Y-117655500D01*
X201180843Y-117655500D01*
X201409162Y-117655500D01*
X201634660Y-117619784D01*
X201851799Y-117549231D01*
X202055228Y-117445579D01*
X202239937Y-117311379D01*
X202401379Y-117149937D01*
X202535579Y-116965228D01*
X202639231Y-116761799D01*
X202709784Y-116544660D01*
X202745500Y-116319162D01*
X202745500Y-116090837D01*
X202709784Y-115865339D01*
X202639229Y-115648196D01*
X202567291Y-115507011D01*
X202535579Y-115444772D01*
X202401379Y-115260063D01*
X202239937Y-115098621D01*
X202055228Y-114964421D01*
X202038202Y-114955746D01*
X201851803Y-114860770D01*
X201634660Y-114790215D01*
X201409162Y-114754500D01*
X201409157Y-114754500D01*
X201180843Y-114754500D01*
X201180838Y-114754500D01*
X200955339Y-114790215D01*
X200738196Y-114860770D01*
X200534771Y-114964421D01*
X200350061Y-115098622D01*
X200188623Y-115260060D01*
X200188616Y-115260069D01*
X200145317Y-115319664D01*
X200089987Y-115362330D01*
X200020373Y-115368308D01*
X199958579Y-115335701D01*
X199944683Y-115319664D01*
X199901383Y-115260069D01*
X199901379Y-115260063D01*
X199739937Y-115098621D01*
X199555228Y-114964421D01*
X199538203Y-114955746D01*
X199487408Y-114907770D01*
X199470500Y-114845262D01*
X199470500Y-112718466D01*
X199444541Y-112587969D01*
X199444540Y-112587968D01*
X199444540Y-112587964D01*
X199393620Y-112465031D01*
X199319695Y-112354394D01*
X199225606Y-112260305D01*
X192515080Y-105549779D01*
X192481595Y-105488456D01*
X192486579Y-105418764D01*
X192491028Y-105408326D01*
X192610929Y-105159350D01*
X192709586Y-104877404D01*
X192776055Y-104586185D01*
X192776056Y-104586173D01*
X192776057Y-104586170D01*
X192789686Y-104465205D01*
X196285000Y-104465205D01*
X196285000Y-105260000D01*
X197059318Y-105260000D01*
X197035000Y-105350756D01*
X197035000Y-105469244D01*
X197059318Y-105560000D01*
X196285001Y-105560000D01*
X196285001Y-106354785D01*
X196285002Y-106354808D01*
X196287908Y-106379869D01*
X196287909Y-106379873D01*
X196333211Y-106482474D01*
X196333214Y-106482479D01*
X196412520Y-106561785D01*
X196412525Y-106561788D01*
X196515123Y-106607089D01*
X196540206Y-106609999D01*
X197334999Y-106609999D01*
X197335000Y-106609998D01*
X197335000Y-105835681D01*
X197425756Y-105860000D01*
X197544244Y-105860000D01*
X197635000Y-105835681D01*
X197635000Y-106609999D01*
X198429786Y-106609999D01*
X198429808Y-106609997D01*
X198454869Y-106607091D01*
X198454873Y-106607090D01*
X198557474Y-106561788D01*
X198557479Y-106561785D01*
X198636785Y-106482479D01*
X198636788Y-106482474D01*
X198682089Y-106379877D01*
X198682089Y-106379875D01*
X198684999Y-106354794D01*
X198684999Y-106329959D01*
X198704681Y-106262919D01*
X198757484Y-106217162D01*
X198826642Y-106207217D01*
X198890198Y-106236239D01*
X198909317Y-106257069D01*
X198956756Y-106322363D01*
X199112636Y-106478243D01*
X199112641Y-106478247D01*
X199236286Y-106568079D01*
X199290978Y-106607815D01*
X199419375Y-106673237D01*
X199487393Y-106707895D01*
X199487396Y-106707896D01*
X199592221Y-106741955D01*
X199697049Y-106776015D01*
X199914778Y-106810500D01*
X199914779Y-106810500D01*
X200135221Y-106810500D01*
X200135222Y-106810500D01*
X200352951Y-106776015D01*
X200562606Y-106707895D01*
X200759022Y-106607815D01*
X200937365Y-106478242D01*
X201093242Y-106322365D01*
X201222815Y-106144022D01*
X201322895Y-105947606D01*
X201391015Y-105737951D01*
X201425500Y-105520222D01*
X201425500Y-105299778D01*
X201391015Y-105082049D01*
X201356955Y-104977221D01*
X201322896Y-104872396D01*
X201322895Y-104872393D01*
X201288237Y-104804375D01*
X201222815Y-104675978D01*
X201206260Y-104653192D01*
X201093247Y-104497641D01*
X201093243Y-104497636D01*
X200937363Y-104341756D01*
X200937358Y-104341752D01*
X200759025Y-104212187D01*
X200759024Y-104212186D01*
X200759022Y-104212185D01*
X200696096Y-104180122D01*
X200562606Y-104112104D01*
X200562603Y-104112103D01*
X200352952Y-104043985D01*
X200214510Y-104022058D01*
X200135222Y-104009500D01*
X199914778Y-104009500D01*
X199842201Y-104020995D01*
X199697047Y-104043985D01*
X199487396Y-104112103D01*
X199487393Y-104112104D01*
X199290974Y-104212187D01*
X199112641Y-104341752D01*
X199112636Y-104341756D01*
X198956756Y-104497636D01*
X198956752Y-104497641D01*
X198909317Y-104562931D01*
X198853988Y-104605597D01*
X198784374Y-104611576D01*
X198722579Y-104578971D01*
X198688222Y-104518132D01*
X198684999Y-104490046D01*
X198684999Y-104465214D01*
X198684997Y-104465191D01*
X198682091Y-104440130D01*
X198682090Y-104440126D01*
X198636788Y-104337525D01*
X198636785Y-104337520D01*
X198557479Y-104258214D01*
X198557474Y-104258211D01*
X198454876Y-104212910D01*
X198429794Y-104210000D01*
X197635000Y-104210000D01*
X197635000Y-104984318D01*
X197544244Y-104960000D01*
X197425756Y-104960000D01*
X197335000Y-104984318D01*
X197335000Y-104210000D01*
X196540214Y-104210000D01*
X196540191Y-104210002D01*
X196515130Y-104212908D01*
X196515126Y-104212909D01*
X196412525Y-104258211D01*
X196412520Y-104258214D01*
X196333214Y-104337520D01*
X196333211Y-104337525D01*
X196287910Y-104440122D01*
X196287910Y-104440124D01*
X196285000Y-104465205D01*
X192789686Y-104465205D01*
X192791654Y-104447742D01*
X192791654Y-104447741D01*
X192792512Y-104440122D01*
X192809500Y-104289354D01*
X192809500Y-103990646D01*
X192776055Y-103693815D01*
X192709586Y-103402596D01*
X192610929Y-103120650D01*
X192481324Y-102851523D01*
X192322401Y-102598599D01*
X192322399Y-102598596D01*
X192322398Y-102598594D01*
X192136166Y-102365065D01*
X191924934Y-102153833D01*
X191691405Y-101967601D01*
X191691403Y-101967600D01*
X191438474Y-101808674D01*
X191169353Y-101679072D01*
X190887415Y-101580417D01*
X190887403Y-101580413D01*
X190662653Y-101529115D01*
X190596185Y-101513945D01*
X190596181Y-101513944D01*
X190596172Y-101513943D01*
X190299358Y-101480500D01*
X190299354Y-101480500D01*
X190000646Y-101480500D01*
X190000641Y-101480500D01*
X189703827Y-101513943D01*
X189703815Y-101513945D01*
X189412596Y-101580413D01*
X189412584Y-101580417D01*
X189130646Y-101679072D01*
X188861525Y-101808674D01*
X188608596Y-101967600D01*
X188608594Y-101967601D01*
X188375065Y-102153833D01*
X188163833Y-102365065D01*
X187977601Y-102598594D01*
X187977600Y-102598596D01*
X187818674Y-102851525D01*
X187689072Y-103120646D01*
X187590417Y-103402584D01*
X187590413Y-103402596D01*
X187523945Y-103693815D01*
X187523943Y-103693827D01*
X187490500Y-103990641D01*
X187490500Y-104289358D01*
X187523943Y-104586172D01*
X187523945Y-104586184D01*
X187590413Y-104877403D01*
X187590417Y-104877415D01*
X187689072Y-105159353D01*
X187818674Y-105428474D01*
X187977600Y-105681403D01*
X187977601Y-105681405D01*
X188163833Y-105914934D01*
X188375065Y-106126166D01*
X188608594Y-106312398D01*
X188608597Y-106312399D01*
X188608599Y-106312401D01*
X188766982Y-106411920D01*
X188861525Y-106471325D01*
X188915693Y-106497411D01*
X189130650Y-106600929D01*
X189342400Y-106675023D01*
X189412584Y-106699582D01*
X189412596Y-106699586D01*
X189703815Y-106766055D01*
X190000642Y-106799499D01*
X190000643Y-106799500D01*
X190000646Y-106799500D01*
X190299357Y-106799500D01*
X190299357Y-106799499D01*
X190596185Y-106766055D01*
X190887404Y-106699586D01*
X191169350Y-106600929D01*
X191418301Y-106481040D01*
X191487237Y-106469689D01*
X191551372Y-106497411D01*
X191559779Y-106505080D01*
X198083181Y-113028482D01*
X198116666Y-113089805D01*
X198119500Y-113116163D01*
X198119500Y-114845262D01*
X198117608Y-114851702D01*
X198118812Y-114858306D01*
X198107889Y-114884803D01*
X198099815Y-114912301D01*
X198094115Y-114918218D01*
X198092184Y-114922903D01*
X198080270Y-114932591D01*
X198066394Y-114946997D01*
X198059391Y-114951876D01*
X198034772Y-114964421D01*
X197879492Y-115077239D01*
X197878445Y-115077969D01*
X197846435Y-115088683D01*
X197814630Y-115100032D01*
X197813392Y-115099744D01*
X197812189Y-115100147D01*
X197779482Y-115091858D01*
X197746576Y-115084207D01*
X197745690Y-115083295D01*
X197744460Y-115082984D01*
X197721422Y-115058325D01*
X197697881Y-115034101D01*
X197697041Y-115032227D01*
X197696762Y-115031928D01*
X197696662Y-115031380D01*
X197691369Y-115019566D01*
X197688798Y-115012673D01*
X197688793Y-115012664D01*
X197602547Y-114897455D01*
X197602544Y-114897452D01*
X197487335Y-114811206D01*
X197487328Y-114811202D01*
X197352482Y-114760908D01*
X197352483Y-114760908D01*
X197292883Y-114754501D01*
X197292881Y-114754500D01*
X197292873Y-114754500D01*
X197292864Y-114754500D01*
X195297129Y-114754500D01*
X195297123Y-114754501D01*
X195237516Y-114760908D01*
X195102671Y-114811202D01*
X195102664Y-114811206D01*
X194987455Y-114897452D01*
X194987452Y-114897455D01*
X194901206Y-115012664D01*
X194901202Y-115012671D01*
X194850908Y-115147517D01*
X194844501Y-115207116D01*
X194844500Y-115207135D01*
X194844500Y-115455500D01*
X194824815Y-115522539D01*
X194772011Y-115568294D01*
X194720500Y-115579500D01*
X186228500Y-115579500D01*
X186161461Y-115559815D01*
X186115706Y-115507011D01*
X186104500Y-115455500D01*
X186104500Y-114873393D01*
X186104499Y-114873389D01*
X186092130Y-114811204D01*
X186080463Y-114752548D01*
X186033311Y-114638714D01*
X186033310Y-114638713D01*
X186033307Y-114638707D01*
X185964858Y-114536267D01*
X185964855Y-114536263D01*
X185877736Y-114449144D01*
X185877732Y-114449141D01*
X185775292Y-114380692D01*
X185775283Y-114380687D01*
X185661454Y-114333538D01*
X185661455Y-114333538D01*
X185661452Y-114333537D01*
X185661448Y-114333536D01*
X185661444Y-114333535D01*
X185539091Y-114309198D01*
X185477180Y-114276814D01*
X185452797Y-114243876D01*
X185392716Y-114125961D01*
X185258286Y-113940934D01*
X185096566Y-113779214D01*
X184911538Y-113644783D01*
X184707755Y-113540950D01*
X184490248Y-113470278D01*
X184304812Y-113440908D01*
X184264354Y-113434500D01*
X184035646Y-113434500D01*
X183995188Y-113440908D01*
X183809753Y-113470278D01*
X183809750Y-113470278D01*
X183592244Y-113540950D01*
X183388461Y-113644783D01*
X183322550Y-113692671D01*
X183203434Y-113779214D01*
X183203432Y-113779216D01*
X183203431Y-113779216D01*
X183041715Y-113940932D01*
X182980318Y-114025438D01*
X182924987Y-114068103D01*
X182855374Y-114074082D01*
X182793579Y-114041476D01*
X182779682Y-114025438D01*
X182768773Y-114010423D01*
X182718286Y-113940934D01*
X182556566Y-113779214D01*
X182371538Y-113644783D01*
X182167755Y-113540950D01*
X181950248Y-113470278D01*
X181764812Y-113440908D01*
X181724354Y-113434500D01*
X181495646Y-113434500D01*
X181455188Y-113440908D01*
X181269753Y-113470278D01*
X181269750Y-113470278D01*
X181052244Y-113540950D01*
X180848461Y-113644783D01*
X180665759Y-113777525D01*
X180599952Y-113801005D01*
X180531898Y-113785180D01*
X180483203Y-113735074D01*
X180476690Y-113720538D01*
X180466296Y-113692669D01*
X180466293Y-113692664D01*
X180380047Y-113577455D01*
X180380044Y-113577452D01*
X180264835Y-113491206D01*
X180264828Y-113491202D01*
X180129982Y-113440908D01*
X180129983Y-113440908D01*
X180070383Y-113434501D01*
X180070381Y-113434500D01*
X180070373Y-113434500D01*
X180070364Y-113434500D01*
X178069629Y-113434500D01*
X178069623Y-113434501D01*
X178010016Y-113440908D01*
X177875171Y-113491202D01*
X177875164Y-113491206D01*
X177759955Y-113577452D01*
X177759952Y-113577455D01*
X177673706Y-113692664D01*
X177673702Y-113692671D01*
X177623408Y-113827517D01*
X177617001Y-113887116D01*
X177617000Y-113887135D01*
X177617000Y-115982870D01*
X177617001Y-115982876D01*
X177623408Y-116042483D01*
X177673702Y-116177328D01*
X177673706Y-116177335D01*
X177759952Y-116292544D01*
X177759955Y-116292547D01*
X177875164Y-116378793D01*
X177875171Y-116378797D01*
X178010017Y-116429091D01*
X178010016Y-116429091D01*
X178016944Y-116429835D01*
X178069627Y-116435500D01*
X180070372Y-116435499D01*
X180129983Y-116429091D01*
X180264831Y-116378796D01*
X180380046Y-116292546D01*
X180466296Y-116177331D01*
X180476690Y-116149460D01*
X180518560Y-116093527D01*
X180584023Y-116069108D01*
X180652297Y-116083958D01*
X180665746Y-116092465D01*
X180848462Y-116225217D01*
X180980599Y-116292544D01*
X181052244Y-116329049D01*
X181269751Y-116399721D01*
X181269752Y-116399721D01*
X181269755Y-116399722D01*
X181495646Y-116435500D01*
X181495647Y-116435500D01*
X181724353Y-116435500D01*
X181724354Y-116435500D01*
X181950245Y-116399722D01*
X181950248Y-116399721D01*
X181950249Y-116399721D01*
X182167755Y-116329049D01*
X182167755Y-116329048D01*
X182167758Y-116329048D01*
X182371538Y-116225217D01*
X182556566Y-116090786D01*
X182718286Y-115929066D01*
X182779683Y-115844559D01*
X182835012Y-115801896D01*
X182904625Y-115795917D01*
X182966420Y-115828523D01*
X182980314Y-115844556D01*
X183041714Y-115929066D01*
X183203434Y-116090786D01*
X183388462Y-116225217D01*
X183456795Y-116260034D01*
X183507590Y-116308007D01*
X183524500Y-116370518D01*
X183524500Y-116832500D01*
X183504815Y-116899539D01*
X183452011Y-116945294D01*
X183400500Y-116956500D01*
X182860741Y-116956500D01*
X182860721Y-116956499D01*
X182854607Y-116956499D01*
X182731394Y-116956499D01*
X182630597Y-116976548D01*
X182630592Y-116976548D01*
X182610549Y-116980536D01*
X182610547Y-116980536D01*
X182563397Y-117000067D01*
X182496719Y-117027685D01*
X182496717Y-117027686D01*
X182394266Y-117096141D01*
X182394263Y-117096144D01*
X177602627Y-121887781D01*
X177541304Y-121921266D01*
X177494584Y-121920776D01*
X177494346Y-121922285D01*
X177390898Y-121905900D01*
X177287352Y-121889500D01*
X177082648Y-121889500D01*
X177058329Y-121893351D01*
X176880465Y-121921522D01*
X176685776Y-121984781D01*
X176503390Y-122077712D01*
X176338385Y-122197595D01*
X176272578Y-122221074D01*
X176204525Y-122205248D01*
X176155830Y-122155142D01*
X176141500Y-122097276D01*
X176141500Y-108701898D01*
X184691000Y-108701898D01*
X184691000Y-108978101D01*
X184721920Y-109252532D01*
X184721923Y-109252546D01*
X184783380Y-109521810D01*
X184783381Y-109521812D01*
X184874600Y-109782502D01*
X184994432Y-110031336D01*
X185141375Y-110265193D01*
X185306106Y-110471760D01*
X185987853Y-109790012D01*
X186006932Y-109816272D01*
X186173728Y-109983068D01*
X186199985Y-110002145D01*
X185518238Y-110683891D01*
X185518238Y-110683892D01*
X185724806Y-110848624D01*
X185958663Y-110995567D01*
X186207497Y-111115399D01*
X186468187Y-111206618D01*
X186468189Y-111206619D01*
X186737453Y-111268076D01*
X186737467Y-111268079D01*
X187011898Y-111298999D01*
X187011902Y-111299000D01*
X187288098Y-111299000D01*
X187288101Y-111298999D01*
X187562532Y-111268079D01*
X187562546Y-111268076D01*
X187831810Y-111206619D01*
X187831812Y-111206618D01*
X188092502Y-111115399D01*
X188341336Y-110995567D01*
X188575193Y-110848625D01*
X188781760Y-110683891D01*
X188100014Y-110002145D01*
X188126272Y-109983068D01*
X188293068Y-109816272D01*
X188312145Y-109790014D01*
X188993891Y-110471760D01*
X189158625Y-110265193D01*
X189305567Y-110031336D01*
X189425399Y-109782502D01*
X189516618Y-109521812D01*
X189516619Y-109521810D01*
X189578076Y-109252546D01*
X189578079Y-109252532D01*
X189608999Y-108978101D01*
X189609000Y-108978097D01*
X189609000Y-108701902D01*
X189608999Y-108701898D01*
X189578079Y-108427467D01*
X189578076Y-108427453D01*
X189516619Y-108158189D01*
X189516618Y-108158187D01*
X189425399Y-107897497D01*
X189305567Y-107648663D01*
X189158624Y-107414806D01*
X188993891Y-107208238D01*
X188312144Y-107889984D01*
X188293068Y-107863728D01*
X188126272Y-107696932D01*
X188100013Y-107677853D01*
X188781760Y-106996106D01*
X188575193Y-106831375D01*
X188341336Y-106684432D01*
X188092502Y-106564600D01*
X187831812Y-106473381D01*
X187831810Y-106473380D01*
X187562546Y-106411923D01*
X187562532Y-106411920D01*
X187288101Y-106381000D01*
X187011898Y-106381000D01*
X186737467Y-106411920D01*
X186737453Y-106411923D01*
X186468189Y-106473380D01*
X186468187Y-106473381D01*
X186207497Y-106564600D01*
X185958663Y-106684432D01*
X185724806Y-106831375D01*
X185518238Y-106996106D01*
X186199986Y-107677854D01*
X186173728Y-107696932D01*
X186006932Y-107863728D01*
X185987854Y-107889986D01*
X185306106Y-107208238D01*
X185141375Y-107414806D01*
X184994432Y-107648663D01*
X184874600Y-107897497D01*
X184783381Y-108158187D01*
X184783380Y-108158189D01*
X184721923Y-108427453D01*
X184721920Y-108427467D01*
X184691000Y-108701898D01*
X176141500Y-108701898D01*
X176141500Y-104001898D01*
X181691000Y-104001898D01*
X181691000Y-104278101D01*
X181721920Y-104552532D01*
X181721923Y-104552546D01*
X181783380Y-104821810D01*
X181783381Y-104821812D01*
X181874600Y-105082502D01*
X181994432Y-105331336D01*
X182141375Y-105565193D01*
X182306106Y-105771760D01*
X182987853Y-105090013D01*
X183006932Y-105116272D01*
X183173728Y-105283068D01*
X183199985Y-105302145D01*
X182518238Y-105983891D01*
X182518238Y-105983892D01*
X182724806Y-106148624D01*
X182958663Y-106295567D01*
X183207497Y-106415399D01*
X183468187Y-106506618D01*
X183468189Y-106506619D01*
X183737453Y-106568076D01*
X183737467Y-106568079D01*
X184011898Y-106598999D01*
X184011902Y-106599000D01*
X184288098Y-106599000D01*
X184288101Y-106598999D01*
X184562532Y-106568079D01*
X184562546Y-106568076D01*
X184831810Y-106506619D01*
X184831812Y-106506618D01*
X185092502Y-106415399D01*
X185341336Y-106295567D01*
X185575193Y-106148625D01*
X185781760Y-105983891D01*
X185100014Y-105302145D01*
X185126272Y-105283068D01*
X185293068Y-105116272D01*
X185312145Y-105090014D01*
X185993891Y-105771760D01*
X186158625Y-105565193D01*
X186305567Y-105331336D01*
X186425399Y-105082502D01*
X186516618Y-104821812D01*
X186516619Y-104821810D01*
X186578076Y-104552546D01*
X186578079Y-104552532D01*
X186608999Y-104278101D01*
X186609000Y-104278097D01*
X186609000Y-104001902D01*
X186608999Y-104001898D01*
X186578079Y-103727467D01*
X186578076Y-103727453D01*
X186516619Y-103458189D01*
X186516618Y-103458187D01*
X186425399Y-103197497D01*
X186305567Y-102948663D01*
X186158624Y-102714806D01*
X185993891Y-102508238D01*
X185312144Y-103189984D01*
X185293068Y-103163728D01*
X185126272Y-102996932D01*
X185100013Y-102977853D01*
X185781760Y-102296106D01*
X185575193Y-102131375D01*
X185341336Y-101984432D01*
X185092502Y-101864600D01*
X184831812Y-101773381D01*
X184831810Y-101773380D01*
X184562546Y-101711923D01*
X184562532Y-101711920D01*
X184288101Y-101681000D01*
X184011898Y-101681000D01*
X183737467Y-101711920D01*
X183737453Y-101711923D01*
X183468189Y-101773380D01*
X183468187Y-101773381D01*
X183207497Y-101864600D01*
X182958663Y-101984432D01*
X182724806Y-102131375D01*
X182518238Y-102296106D01*
X183199986Y-102977854D01*
X183173728Y-102996932D01*
X183006932Y-103163728D01*
X182987854Y-103189986D01*
X182306106Y-102508238D01*
X182141375Y-102714806D01*
X181994432Y-102948663D01*
X181874600Y-103197497D01*
X181783381Y-103458187D01*
X181783380Y-103458189D01*
X181721923Y-103727453D01*
X181721920Y-103727467D01*
X181691000Y-104001898D01*
X176141500Y-104001898D01*
X176141500Y-95088146D01*
X178252000Y-95088146D01*
X178252000Y-95411854D01*
X178259989Y-95462292D01*
X178287778Y-95637746D01*
X178287778Y-95637749D01*
X178358450Y-95855255D01*
X178462282Y-96059036D01*
X178462283Y-96059038D01*
X178596714Y-96244066D01*
X178758434Y-96405786D01*
X178943462Y-96540217D01*
X179147242Y-96644048D01*
X179147244Y-96644049D01*
X179364751Y-96714721D01*
X179364752Y-96714721D01*
X179364755Y-96714722D01*
X179590646Y-96750500D01*
X179590647Y-96750500D01*
X179819353Y-96750500D01*
X179819354Y-96750500D01*
X180045245Y-96714722D01*
X180045248Y-96714721D01*
X180045249Y-96714721D01*
X180262755Y-96644049D01*
X180262755Y-96644048D01*
X180262758Y-96644048D01*
X180466538Y-96540217D01*
X180651566Y-96405786D01*
X180813286Y-96244066D01*
X180947717Y-96059038D01*
X180980504Y-95994688D01*
X181028478Y-95943893D01*
X181096298Y-95927097D01*
X181162433Y-95949634D01*
X181191307Y-95978098D01*
X181289640Y-96113442D01*
X181289644Y-96113447D01*
X181429052Y-96252855D01*
X181429057Y-96252859D01*
X181588543Y-96368731D01*
X181764209Y-96458238D01*
X181951704Y-96519158D01*
X182095000Y-96541854D01*
X182095000Y-95779209D01*
X182172591Y-95800000D01*
X182317409Y-95800000D01*
X182395000Y-95779209D01*
X182395000Y-96541853D01*
X182538295Y-96519158D01*
X182725790Y-96458238D01*
X182901456Y-96368731D01*
X183060941Y-96252860D01*
X183120318Y-96193483D01*
X183181641Y-96159998D01*
X183251333Y-96164982D01*
X183307267Y-96206853D01*
X183331684Y-96272317D01*
X183332000Y-96281158D01*
X183332000Y-96297867D01*
X183332001Y-96297876D01*
X183338408Y-96357483D01*
X183388702Y-96492328D01*
X183388706Y-96492335D01*
X183474952Y-96607544D01*
X183474955Y-96607547D01*
X183590164Y-96693793D01*
X183590171Y-96693797D01*
X183725017Y-96744091D01*
X183725016Y-96744091D01*
X183731944Y-96744835D01*
X183784627Y-96750500D01*
X185349546Y-96750499D01*
X185416585Y-96770184D01*
X185437227Y-96786818D01*
X186926262Y-98275854D01*
X186926265Y-98275857D01*
X186994411Y-98321390D01*
X187028714Y-98344311D01*
X187142548Y-98391463D01*
X187263388Y-98415499D01*
X187263392Y-98415500D01*
X187263393Y-98415500D01*
X187263394Y-98415500D01*
X197662372Y-98415500D01*
X197729411Y-98435185D01*
X197762687Y-98466611D01*
X197839310Y-98572073D01*
X197972927Y-98705690D01*
X198125801Y-98816760D01*
X198205347Y-98857290D01*
X198294163Y-98902545D01*
X198294165Y-98902545D01*
X198294168Y-98902547D01*
X198390497Y-98933846D01*
X198473881Y-98960940D01*
X198660514Y-98990500D01*
X198660519Y-98990500D01*
X198849486Y-98990500D01*
X199036118Y-98960940D01*
X199215832Y-98902547D01*
X199384199Y-98816760D01*
X199537073Y-98705690D01*
X199670690Y-98572073D01*
X199781760Y-98419199D01*
X199867547Y-98250832D01*
X199925940Y-98071118D01*
X199955500Y-97884486D01*
X199955500Y-97695513D01*
X199925940Y-97508881D01*
X199867545Y-97329163D01*
X199822290Y-97240347D01*
X199781760Y-97160801D01*
X199670690Y-97007927D01*
X199537073Y-96874310D01*
X199384199Y-96763240D01*
X199215836Y-96677454D01*
X199036118Y-96619059D01*
X198849486Y-96589500D01*
X198849481Y-96589500D01*
X198660519Y-96589500D01*
X198660514Y-96589500D01*
X198473881Y-96619059D01*
X198294163Y-96677454D01*
X198125800Y-96763240D01*
X198038579Y-96826610D01*
X197972927Y-96874310D01*
X197972925Y-96874312D01*
X197972924Y-96874312D01*
X197839312Y-97007924D01*
X197839310Y-97007927D01*
X197762688Y-97113387D01*
X197707360Y-97156051D01*
X197662372Y-97164500D01*
X187635453Y-97164500D01*
X187568414Y-97144815D01*
X187547772Y-97128181D01*
X186274318Y-95854727D01*
X186240833Y-95793404D01*
X186237999Y-95767046D01*
X186237999Y-94202129D01*
X186237998Y-94202123D01*
X186237997Y-94202116D01*
X186231591Y-94142517D01*
X186227395Y-94131268D01*
X186181297Y-94007671D01*
X186181293Y-94007664D01*
X186095047Y-93892455D01*
X186095044Y-93892452D01*
X185979835Y-93806206D01*
X185979828Y-93806202D01*
X185844982Y-93755908D01*
X185844983Y-93755908D01*
X185785383Y-93749501D01*
X185785381Y-93749500D01*
X185785373Y-93749500D01*
X185785364Y-93749500D01*
X183784629Y-93749500D01*
X183784623Y-93749501D01*
X183725016Y-93755908D01*
X183590171Y-93806202D01*
X183590164Y-93806206D01*
X183474955Y-93892452D01*
X183474952Y-93892455D01*
X183388706Y-94007664D01*
X183388702Y-94007671D01*
X183338408Y-94142517D01*
X183332001Y-94202116D01*
X183332001Y-94202123D01*
X183332000Y-94202135D01*
X183332000Y-94218835D01*
X183312315Y-94285874D01*
X183259511Y-94331629D01*
X183190353Y-94341573D01*
X183126797Y-94312548D01*
X183120319Y-94306516D01*
X183060947Y-94247144D01*
X183060942Y-94247140D01*
X182901456Y-94131268D01*
X182725790Y-94041761D01*
X182538296Y-93980841D01*
X182395000Y-93958144D01*
X182395000Y-94720790D01*
X182317409Y-94700000D01*
X182172591Y-94700000D01*
X182095000Y-94720790D01*
X182095000Y-93958144D01*
X181951704Y-93980841D01*
X181951701Y-93980841D01*
X181764209Y-94041761D01*
X181588543Y-94131268D01*
X181429057Y-94247140D01*
X181429052Y-94247144D01*
X181289644Y-94386552D01*
X181191307Y-94521902D01*
X181135977Y-94564567D01*
X181066364Y-94570546D01*
X181004569Y-94537940D01*
X180980504Y-94505310D01*
X180947718Y-94440963D01*
X180927523Y-94413167D01*
X180813286Y-94255934D01*
X180651566Y-94094214D01*
X180466538Y-93959783D01*
X180466537Y-93959782D01*
X180466535Y-93959781D01*
X180398210Y-93924967D01*
X180387173Y-93914543D01*
X180373360Y-93908245D01*
X180362288Y-93891040D01*
X180347415Y-93876993D01*
X180343175Y-93861339D01*
X180335550Y-93849490D01*
X180330533Y-93814660D01*
X180330506Y-93814559D01*
X180330505Y-93814149D01*
X180330506Y-93810647D01*
X180330503Y-93810629D01*
X180330500Y-93810594D01*
X180319592Y-93755759D01*
X180319592Y-93755758D01*
X180306479Y-93689801D01*
X180306477Y-93689796D01*
X180306473Y-93689776D01*
X180306464Y-93689754D01*
X180306463Y-93689748D01*
X180283228Y-93633655D01*
X180259337Y-93575962D01*
X180259334Y-93575958D01*
X180259326Y-93575938D01*
X180259312Y-93575917D01*
X180259311Y-93575914D01*
X180224726Y-93524154D01*
X180190892Y-93473509D01*
X180190887Y-93473504D01*
X180190883Y-93473498D01*
X180190855Y-93473463D01*
X180144422Y-93427031D01*
X180144405Y-93427014D01*
X180096137Y-93378738D01*
X180062659Y-93317413D01*
X180062658Y-93317412D01*
X180067649Y-93247721D01*
X180067653Y-93247714D01*
X180096129Y-93203402D01*
X180684824Y-92614532D01*
X180746142Y-92581038D01*
X180772518Y-92578200D01*
X187547522Y-92578200D01*
X187614561Y-92597885D01*
X187635207Y-92614523D01*
X188154027Y-93133402D01*
X189197805Y-94177298D01*
X189231287Y-94238623D01*
X189230798Y-94285418D01*
X189232285Y-94285654D01*
X189231523Y-94290465D01*
X189231523Y-94290466D01*
X189199500Y-94492648D01*
X189199500Y-94697352D01*
X189203878Y-94724995D01*
X189231522Y-94899534D01*
X189294781Y-95094223D01*
X189387715Y-95276613D01*
X189508028Y-95442213D01*
X189652786Y-95586971D01*
X189794748Y-95690110D01*
X189818390Y-95707287D01*
X189926787Y-95762518D01*
X190000776Y-95800218D01*
X190000778Y-95800218D01*
X190000781Y-95800220D01*
X190105137Y-95834127D01*
X190195465Y-95863477D01*
X190296557Y-95879488D01*
X190397648Y-95895500D01*
X190397649Y-95895500D01*
X190602351Y-95895500D01*
X190602352Y-95895500D01*
X190804534Y-95863477D01*
X190999219Y-95800220D01*
X191181610Y-95707287D01*
X191277327Y-95637745D01*
X191347213Y-95586971D01*
X191347215Y-95586968D01*
X191347219Y-95586966D01*
X191491966Y-95442219D01*
X191491968Y-95442215D01*
X191491971Y-95442213D01*
X191579012Y-95322409D01*
X191612287Y-95276610D01*
X191705220Y-95094219D01*
X191768477Y-94899534D01*
X191800500Y-94697352D01*
X191800500Y-94492648D01*
X191768477Y-94290466D01*
X191766913Y-94285654D01*
X191705218Y-94095776D01*
X191662326Y-94011597D01*
X191612287Y-93913390D01*
X191595633Y-93890468D01*
X191491971Y-93747786D01*
X191347213Y-93603028D01*
X191181613Y-93482715D01*
X191181612Y-93482714D01*
X191181610Y-93482713D01*
X191072328Y-93427031D01*
X190999222Y-93389781D01*
X190899938Y-93357521D01*
X190842263Y-93318082D01*
X190815065Y-93253724D01*
X190826980Y-93184877D01*
X190874225Y-93133402D01*
X190899943Y-93121658D01*
X190922254Y-93114409D01*
X191076525Y-93035803D01*
X191164646Y-92971778D01*
X191164647Y-92971778D01*
X190658334Y-92465466D01*
X190745606Y-92415080D01*
X190820080Y-92340606D01*
X190870465Y-92253334D01*
X191376778Y-92759647D01*
X191376778Y-92759646D01*
X191440803Y-92671525D01*
X191519408Y-92517257D01*
X191572914Y-92352584D01*
X191600000Y-92181571D01*
X191600000Y-92008428D01*
X191572914Y-91837415D01*
X191519408Y-91672742D01*
X191440801Y-91518471D01*
X191376780Y-91430352D01*
X191376778Y-91430351D01*
X190870465Y-91936664D01*
X190820080Y-91849394D01*
X190745606Y-91774920D01*
X190658334Y-91724534D01*
X191164647Y-91218220D01*
X191164646Y-91218219D01*
X191076528Y-91154198D01*
X190922257Y-91075591D01*
X190757584Y-91022085D01*
X190586571Y-90995000D01*
X190413429Y-90995000D01*
X190242415Y-91022085D01*
X190077742Y-91075591D01*
X189923478Y-91154194D01*
X189835352Y-91218220D01*
X190341665Y-91724533D01*
X190254394Y-91774920D01*
X190179920Y-91849394D01*
X190129533Y-91936665D01*
X189623220Y-91430352D01*
X189559194Y-91518478D01*
X189480591Y-91672742D01*
X189427085Y-91837415D01*
X189400000Y-92008428D01*
X189400000Y-92181571D01*
X189420966Y-92313945D01*
X189412011Y-92383239D01*
X189367015Y-92436690D01*
X189300264Y-92457330D01*
X189232950Y-92438605D01*
X189210807Y-92421019D01*
X188832170Y-92042339D01*
X188343867Y-91553981D01*
X188343858Y-91553967D01*
X188300779Y-91510888D01*
X188256761Y-91466865D01*
X188256757Y-91466862D01*
X188256752Y-91466857D01*
X188256739Y-91466846D01*
X188207943Y-91434242D01*
X188207936Y-91434237D01*
X188154314Y-91398403D01*
X188154292Y-91398392D01*
X188154288Y-91398390D01*
X188154286Y-91398389D01*
X188109988Y-91380039D01*
X188101656Y-91376588D01*
X188101651Y-91376584D01*
X188101651Y-91376586D01*
X188040481Y-91351245D01*
X188040454Y-91351236D01*
X187985827Y-91340371D01*
X187985821Y-91340370D01*
X187919638Y-91327202D01*
X187919622Y-91327200D01*
X187919606Y-91327200D01*
X187866837Y-91327200D01*
X187866824Y-91327199D01*
X187796429Y-91327196D01*
X187796427Y-91327196D01*
X187790350Y-91327196D01*
X187790270Y-91327200D01*
X180523563Y-91327200D01*
X180523513Y-91327190D01*
X180458664Y-91327200D01*
X180400374Y-91327200D01*
X180400309Y-91327207D01*
X180367604Y-91333717D01*
X180338607Y-91339489D01*
X180279537Y-91351239D01*
X180279469Y-91351258D01*
X180220221Y-91375810D01*
X180220046Y-91375882D01*
X180220044Y-91375884D01*
X180219847Y-91375965D01*
X180219424Y-91376140D01*
X180165714Y-91398389D01*
X180165678Y-91398412D01*
X180165632Y-91398432D01*
X180165277Y-91398668D01*
X180165275Y-91398670D01*
X180131419Y-91421299D01*
X180113149Y-91433511D01*
X180063267Y-91466842D01*
X180063233Y-91466875D01*
X180063194Y-91466902D01*
X180062898Y-91467197D01*
X180062892Y-91467202D01*
X180019784Y-91510323D01*
X180019704Y-91510404D01*
X179976142Y-91553967D01*
X179976119Y-91553999D01*
X179972142Y-91557978D01*
X179972142Y-91557979D01*
X178681942Y-92848565D01*
X178681848Y-92848659D01*
X178584515Y-92945812D01*
X178515963Y-93048201D01*
X178515960Y-93048206D01*
X178468707Y-93161986D01*
X178468705Y-93161991D01*
X178444557Y-93282811D01*
X178444442Y-93406025D01*
X178468368Y-93526894D01*
X178515412Y-93640769D01*
X178515413Y-93640771D01*
X178515414Y-93640772D01*
X178583773Y-93743283D01*
X178670817Y-93830488D01*
X178670820Y-93830490D01*
X178670822Y-93830492D01*
X178757627Y-93888610D01*
X178802383Y-93942264D01*
X178811026Y-94011597D01*
X178780813Y-94074596D01*
X178761540Y-94091956D01*
X178758442Y-94094206D01*
X178758431Y-94094216D01*
X178596716Y-94255931D01*
X178596716Y-94255932D01*
X178596714Y-94255934D01*
X178541718Y-94331629D01*
X178462283Y-94440961D01*
X178358450Y-94644744D01*
X178287778Y-94862250D01*
X178287778Y-94862253D01*
X178279853Y-94912292D01*
X178252000Y-95088146D01*
X176141500Y-95088146D01*
X176141500Y-90075513D01*
X197554500Y-90075513D01*
X197554500Y-90264486D01*
X197584059Y-90451118D01*
X197642454Y-90630836D01*
X197728240Y-90799199D01*
X197839310Y-90952073D01*
X197972927Y-91085690D01*
X198125801Y-91196760D01*
X198167917Y-91218219D01*
X198294163Y-91282545D01*
X198294165Y-91282545D01*
X198294168Y-91282547D01*
X198390497Y-91313846D01*
X198473881Y-91340940D01*
X198660514Y-91370500D01*
X198660519Y-91370500D01*
X198849486Y-91370500D01*
X199036118Y-91340940D01*
X199078380Y-91327208D01*
X199215832Y-91282547D01*
X199384199Y-91196760D01*
X199537073Y-91085690D01*
X199670690Y-90952073D01*
X199781760Y-90799199D01*
X199867547Y-90630832D01*
X199925940Y-90451118D01*
X199955500Y-90264486D01*
X199955500Y-90075513D01*
X199925940Y-89888881D01*
X199867545Y-89709163D01*
X199781759Y-89540800D01*
X199670690Y-89387927D01*
X199537073Y-89254310D01*
X199384199Y-89143240D01*
X199215836Y-89057454D01*
X199036118Y-88999059D01*
X198849486Y-88969500D01*
X198849481Y-88969500D01*
X198660519Y-88969500D01*
X198660514Y-88969500D01*
X198473881Y-88999059D01*
X198294163Y-89057454D01*
X198125800Y-89143240D01*
X198038579Y-89206610D01*
X197972927Y-89254310D01*
X197972925Y-89254312D01*
X197972924Y-89254312D01*
X197839312Y-89387924D01*
X197839312Y-89387925D01*
X197839310Y-89387927D01*
X197791610Y-89453579D01*
X197728240Y-89540800D01*
X197642454Y-89709163D01*
X197584059Y-89888881D01*
X197554500Y-90075513D01*
X176141500Y-90075513D01*
X176141500Y-85626504D01*
X177435000Y-85626504D01*
X177435000Y-85823495D01*
X177473427Y-86016681D01*
X177473430Y-86016693D01*
X177548809Y-86198676D01*
X177548811Y-86198679D01*
X177629069Y-86318795D01*
X177629071Y-86318795D01*
X178104397Y-85843470D01*
X178108852Y-85860095D01*
X178154930Y-85939905D01*
X178220095Y-86005070D01*
X178299905Y-86051148D01*
X178316529Y-86055602D01*
X177841203Y-86530927D01*
X177841203Y-86530928D01*
X177961316Y-86611185D01*
X177961328Y-86611192D01*
X178143306Y-86686569D01*
X178143318Y-86686572D01*
X178336504Y-86724999D01*
X178336508Y-86725000D01*
X178533492Y-86725000D01*
X178533495Y-86724999D01*
X178726681Y-86686572D01*
X178726693Y-86686569D01*
X178908673Y-86611191D01*
X178908675Y-86611190D01*
X179028796Y-86530928D01*
X178553471Y-86055602D01*
X178570095Y-86051148D01*
X178649905Y-86005070D01*
X178715070Y-85939905D01*
X178761148Y-85860095D01*
X178765602Y-85843470D01*
X179240928Y-86318796D01*
X179321190Y-86198675D01*
X179321191Y-86198673D01*
X179396569Y-86016693D01*
X179396572Y-86016681D01*
X179434999Y-85823495D01*
X179435000Y-85823492D01*
X179435000Y-85630513D01*
X183584500Y-85630513D01*
X183584500Y-85819486D01*
X183614059Y-86006118D01*
X183672454Y-86185836D01*
X183722765Y-86284576D01*
X183758240Y-86354199D01*
X183869310Y-86507073D01*
X184002927Y-86640690D01*
X184155801Y-86751760D01*
X184235347Y-86792290D01*
X184324163Y-86837545D01*
X184324165Y-86837545D01*
X184324168Y-86837547D01*
X184420497Y-86868846D01*
X184503881Y-86895940D01*
X184690514Y-86925500D01*
X184690519Y-86925500D01*
X184879486Y-86925500D01*
X185066118Y-86895940D01*
X185245832Y-86837547D01*
X185414199Y-86751760D01*
X185567073Y-86640690D01*
X185700690Y-86507073D01*
X185795475Y-86376613D01*
X185850804Y-86333949D01*
X185895792Y-86325500D01*
X187356331Y-86325500D01*
X187356347Y-86325501D01*
X187363943Y-86325501D01*
X187522054Y-86325501D01*
X187522057Y-86325501D01*
X187674785Y-86284577D01*
X187724904Y-86255639D01*
X187811716Y-86205520D01*
X187923520Y-86093716D01*
X187923520Y-86093714D01*
X187933728Y-86083507D01*
X187933730Y-86083504D01*
X188426648Y-85590585D01*
X188487969Y-85557102D01*
X188557661Y-85562086D01*
X188613593Y-85603956D01*
X188657455Y-85662547D01*
X188772664Y-85748793D01*
X188772671Y-85748797D01*
X188907517Y-85799091D01*
X188907516Y-85799091D01*
X188914444Y-85799835D01*
X188967127Y-85805500D01*
X190762872Y-85805499D01*
X190822483Y-85799091D01*
X190957331Y-85748796D01*
X191072546Y-85662546D01*
X191158796Y-85547331D01*
X191209091Y-85412483D01*
X191215500Y-85352873D01*
X191215499Y-83557128D01*
X191209091Y-83497517D01*
X191183831Y-83429792D01*
X191158797Y-83362671D01*
X191158793Y-83362664D01*
X191072547Y-83247455D01*
X191072544Y-83247452D01*
X190957335Y-83161206D01*
X190957328Y-83161202D01*
X190825917Y-83112189D01*
X190769983Y-83070318D01*
X190745566Y-83004853D01*
X190760418Y-82936580D01*
X190781563Y-82908332D01*
X190895104Y-82794792D01*
X190945912Y-82724861D01*
X191020048Y-82622820D01*
X191020047Y-82622820D01*
X191020051Y-82622816D01*
X191116557Y-82433412D01*
X191182246Y-82231243D01*
X191215500Y-82021287D01*
X191215500Y-81808713D01*
X191182246Y-81598757D01*
X191177179Y-81583162D01*
X191175182Y-81513321D01*
X191207426Y-81457162D01*
X191913571Y-80751019D01*
X191974894Y-80717534D01*
X192001252Y-80714700D01*
X195316000Y-80714700D01*
X195383039Y-80734385D01*
X195428794Y-80787189D01*
X195440000Y-80838700D01*
X195440000Y-81732500D01*
X196507103Y-81732500D01*
X196490000Y-81818481D01*
X196490000Y-81946519D01*
X196507103Y-82032500D01*
X195440001Y-82032500D01*
X195440001Y-83075552D01*
X195450613Y-83163943D01*
X195450615Y-83163947D01*
X195506078Y-83304591D01*
X195506079Y-83304593D01*
X195597435Y-83425064D01*
X195717906Y-83516420D01*
X195717908Y-83516421D01*
X195858554Y-83571885D01*
X195946947Y-83582499D01*
X196989999Y-83582499D01*
X196990000Y-83582498D01*
X196990000Y-82515397D01*
X197075981Y-82532500D01*
X197204019Y-82532500D01*
X197290000Y-82515397D01*
X197290000Y-83582499D01*
X198333053Y-83582499D01*
X198421443Y-83571886D01*
X198421447Y-83571884D01*
X198562091Y-83516421D01*
X198562093Y-83516420D01*
X198682564Y-83425064D01*
X198773920Y-83304593D01*
X198773921Y-83304591D01*
X198829385Y-83163945D01*
X198840000Y-83075552D01*
X198840000Y-82032500D01*
X197772897Y-82032500D01*
X197790000Y-81946519D01*
X197790000Y-81818481D01*
X197772897Y-81732500D01*
X198839999Y-81732500D01*
X198839999Y-80838700D01*
X198859684Y-80771661D01*
X198912488Y-80725906D01*
X198963999Y-80714700D01*
X200036248Y-80714700D01*
X200103287Y-80734385D01*
X200123929Y-80751019D01*
X200367742Y-80994832D01*
X200401227Y-81056155D01*
X200396243Y-81125847D01*
X200394622Y-81129965D01*
X200336500Y-81270285D01*
X200272017Y-81510938D01*
X200239501Y-81757924D01*
X200239500Y-81757941D01*
X200239500Y-82007058D01*
X200239501Y-82007075D01*
X200272017Y-82254061D01*
X200336498Y-82494707D01*
X200431830Y-82724861D01*
X200431837Y-82724876D01*
X200556400Y-82940626D01*
X200708060Y-83138274D01*
X200708066Y-83138281D01*
X200884218Y-83314433D01*
X200884225Y-83314439D01*
X201081873Y-83466099D01*
X201297623Y-83590662D01*
X201297638Y-83590669D01*
X201396825Y-83631753D01*
X201527793Y-83686002D01*
X201768435Y-83750482D01*
X202015435Y-83783000D01*
X202015442Y-83783000D01*
X202264558Y-83783000D01*
X202264565Y-83783000D01*
X202511565Y-83750482D01*
X202752207Y-83686002D01*
X202982373Y-83590664D01*
X203198127Y-83466099D01*
X203395776Y-83314438D01*
X203571938Y-83138276D01*
X203723599Y-82940627D01*
X203848164Y-82724873D01*
X203906289Y-82584546D01*
X203950130Y-82530144D01*
X204016424Y-82508079D01*
X204020850Y-82508000D01*
X206170500Y-82508000D01*
X206237539Y-82527685D01*
X206283294Y-82580489D01*
X206294500Y-82632000D01*
X206294500Y-82656286D01*
X206305363Y-82724876D01*
X206327754Y-82866243D01*
X206383997Y-83039341D01*
X206393444Y-83068414D01*
X206489951Y-83257820D01*
X206614890Y-83429786D01*
X206765213Y-83580109D01*
X206937179Y-83705048D01*
X206937181Y-83705049D01*
X206937184Y-83705051D01*
X207126588Y-83801557D01*
X207328757Y-83867246D01*
X207538713Y-83900500D01*
X207538714Y-83900500D01*
X207751286Y-83900500D01*
X207751287Y-83900500D01*
X207961243Y-83867246D01*
X208163412Y-83801557D01*
X208352816Y-83705051D01*
X208379036Y-83686001D01*
X208524786Y-83580109D01*
X208524788Y-83580106D01*
X208524792Y-83580104D01*
X208675104Y-83429792D01*
X208675106Y-83429788D01*
X208675109Y-83429786D01*
X208800048Y-83257820D01*
X208800047Y-83257820D01*
X208800051Y-83257816D01*
X208896557Y-83068412D01*
X208962246Y-82866243D01*
X208995500Y-82656287D01*
X208995500Y-82443713D01*
X208962246Y-82233757D01*
X208896557Y-82031588D01*
X208800051Y-81842184D01*
X208800049Y-81842181D01*
X208800048Y-81842179D01*
X208675109Y-81670213D01*
X208524786Y-81519890D01*
X208352817Y-81394949D01*
X208351904Y-81394484D01*
X208351618Y-81394214D01*
X208348664Y-81392404D01*
X208349044Y-81391783D01*
X208301108Y-81346510D01*
X208284312Y-81278689D01*
X208306849Y-81212554D01*
X208361564Y-81169102D01*
X208408198Y-81159999D01*
X208539786Y-81159999D01*
X208539808Y-81159997D01*
X208564869Y-81157091D01*
X208564873Y-81157090D01*
X208667474Y-81111788D01*
X208667479Y-81111785D01*
X208746785Y-81032479D01*
X208746788Y-81032474D01*
X208792089Y-80929877D01*
X208792089Y-80929875D01*
X208794999Y-80904794D01*
X208795000Y-80904791D01*
X208795000Y-80160000D01*
X208122445Y-80160000D01*
X208145000Y-80075826D01*
X208145000Y-79944174D01*
X208122445Y-79860000D01*
X208794999Y-79860000D01*
X208794999Y-79115214D01*
X208794997Y-79115191D01*
X208792091Y-79090130D01*
X208792090Y-79090126D01*
X208746788Y-78987525D01*
X208746785Y-78987520D01*
X208667479Y-78908214D01*
X208667474Y-78908211D01*
X208564876Y-78862910D01*
X208539794Y-78860000D01*
X207795000Y-78860000D01*
X207795000Y-79532554D01*
X207710826Y-79510000D01*
X207579174Y-79510000D01*
X207495000Y-79532554D01*
X207495000Y-78860000D01*
X206750214Y-78860000D01*
X206750191Y-78860002D01*
X206725130Y-78862908D01*
X206725126Y-78862909D01*
X206622525Y-78908211D01*
X206622520Y-78908214D01*
X206543214Y-78987520D01*
X206543211Y-78987525D01*
X206497910Y-79090122D01*
X206497910Y-79090124D01*
X206495000Y-79115205D01*
X206495000Y-79860000D01*
X207167555Y-79860000D01*
X207145000Y-79944174D01*
X207145000Y-80075826D01*
X207167555Y-80160000D01*
X206495001Y-80160000D01*
X206495001Y-80904785D01*
X206495002Y-80904808D01*
X206497908Y-80929869D01*
X206497909Y-80929873D01*
X206543211Y-81032474D01*
X206543214Y-81032479D01*
X206556054Y-81045319D01*
X206589539Y-81106642D01*
X206584555Y-81176334D01*
X206542683Y-81232267D01*
X206477219Y-81256684D01*
X206468373Y-81257000D01*
X204020850Y-81257000D01*
X203953811Y-81237315D01*
X203908056Y-81184511D01*
X203906289Y-81180453D01*
X203854803Y-81056155D01*
X203848164Y-81040127D01*
X203843748Y-81032479D01*
X203723599Y-80824373D01*
X203571939Y-80626725D01*
X203571933Y-80626718D01*
X203395781Y-80450566D01*
X203395774Y-80450560D01*
X203198126Y-80298900D01*
X202982376Y-80174337D01*
X202982361Y-80174330D01*
X202752207Y-80078998D01*
X202511561Y-80014517D01*
X202264575Y-79982001D01*
X202264570Y-79982000D01*
X202264565Y-79982000D01*
X202015435Y-79982000D01*
X202015429Y-79982000D01*
X202015424Y-79982001D01*
X201768438Y-80014517D01*
X201527785Y-80079000D01*
X201387465Y-80137122D01*
X201317996Y-80144591D01*
X201255517Y-80113315D01*
X201252332Y-80110242D01*
X200839850Y-79697760D01*
X200832560Y-79690470D01*
X200832558Y-79690467D01*
X200745433Y-79603342D01*
X200694209Y-79569115D01*
X200642986Y-79534888D01*
X200642983Y-79534886D01*
X200642980Y-79534885D01*
X200569675Y-79504522D01*
X200569673Y-79504521D01*
X200562492Y-79501547D01*
X200529152Y-79487737D01*
X200457782Y-79473541D01*
X200426872Y-79467392D01*
X200408308Y-79463700D01*
X200408307Y-79463700D01*
X200408306Y-79463700D01*
X191752407Y-79463700D01*
X191629193Y-79463700D01*
X191629192Y-79463700D01*
X191584050Y-79472679D01*
X191584045Y-79472680D01*
X191579718Y-79473541D01*
X191508348Y-79487737D01*
X191475007Y-79501547D01*
X191467820Y-79504523D01*
X191467816Y-79504525D01*
X191388885Y-79537219D01*
X191388015Y-79535120D01*
X191329540Y-79547290D01*
X191264298Y-79522285D01*
X191222933Y-79465976D01*
X191215500Y-79423691D01*
X191215500Y-79268713D01*
X191193692Y-79131023D01*
X191182246Y-79058760D01*
X191182246Y-79058757D01*
X191116557Y-78856588D01*
X191020051Y-78667184D01*
X191020049Y-78667181D01*
X191020048Y-78667179D01*
X190895109Y-78495213D01*
X190744786Y-78344890D01*
X190572820Y-78219951D01*
X190383414Y-78123444D01*
X190383413Y-78123443D01*
X190383412Y-78123443D01*
X190181243Y-78057754D01*
X190181241Y-78057753D01*
X190181240Y-78057753D01*
X190019957Y-78032208D01*
X189971287Y-78024500D01*
X189758713Y-78024500D01*
X189710042Y-78032208D01*
X189548760Y-78057753D01*
X189346585Y-78123444D01*
X189157179Y-78219951D01*
X188985213Y-78344890D01*
X188834890Y-78495213D01*
X188709951Y-78667179D01*
X188613444Y-78856585D01*
X188613443Y-78856587D01*
X188613443Y-78856588D01*
X188611389Y-78862909D01*
X188547753Y-79058760D01*
X188536191Y-79131760D01*
X188514500Y-79268713D01*
X188514500Y-79481287D01*
X188522989Y-79534885D01*
X188547631Y-79690470D01*
X188547754Y-79691243D01*
X188588617Y-79817007D01*
X188613444Y-79893414D01*
X188709951Y-80082820D01*
X188834890Y-80254786D01*
X188985213Y-80405109D01*
X189157182Y-80530050D01*
X189165946Y-80534516D01*
X189216742Y-80582491D01*
X189233536Y-80650312D01*
X189210998Y-80716447D01*
X189165946Y-80755484D01*
X189157182Y-80759949D01*
X188985213Y-80884890D01*
X188834890Y-81035213D01*
X188709951Y-81207179D01*
X188613444Y-81396585D01*
X188547753Y-81598760D01*
X188514500Y-81808713D01*
X188514500Y-82021287D01*
X188547754Y-82231243D01*
X188569071Y-82296851D01*
X188613444Y-82433414D01*
X188709951Y-82622820D01*
X188834890Y-82794786D01*
X188948430Y-82908326D01*
X188981915Y-82969649D01*
X188976931Y-83039341D01*
X188935059Y-83095274D01*
X188904083Y-83112189D01*
X188772669Y-83161203D01*
X188772664Y-83161206D01*
X188657455Y-83247452D01*
X188657452Y-83247455D01*
X188571206Y-83362664D01*
X188571202Y-83362671D01*
X188520908Y-83497517D01*
X188514501Y-83557116D01*
X188514501Y-83557123D01*
X188514500Y-83557135D01*
X188514500Y-83804614D01*
X188511118Y-83816129D01*
X188512260Y-83828078D01*
X188501456Y-83849034D01*
X188494815Y-83871653D01*
X188484944Y-83881064D01*
X188480245Y-83890181D01*
X188452503Y-83911999D01*
X188431098Y-83924358D01*
X188431095Y-83924360D01*
X188387689Y-83949420D01*
X188344285Y-83974479D01*
X188344282Y-83974481D01*
X188232478Y-84086286D01*
X187230584Y-85088181D01*
X187169261Y-85121666D01*
X187142903Y-85124500D01*
X185895792Y-85124500D01*
X185828753Y-85104815D01*
X185795474Y-85073386D01*
X185700690Y-84942927D01*
X185567073Y-84809310D01*
X185414199Y-84698240D01*
X185245836Y-84612454D01*
X185066118Y-84554059D01*
X184879486Y-84524500D01*
X184879481Y-84524500D01*
X184690519Y-84524500D01*
X184690514Y-84524500D01*
X184503881Y-84554059D01*
X184324163Y-84612454D01*
X184155800Y-84698240D01*
X184118969Y-84725000D01*
X184002927Y-84809310D01*
X184002925Y-84809312D01*
X184002924Y-84809312D01*
X183869312Y-84942924D01*
X183869312Y-84942925D01*
X183869310Y-84942927D01*
X183821610Y-85008579D01*
X183758240Y-85095800D01*
X183672454Y-85264163D01*
X183614059Y-85443881D01*
X183584500Y-85630513D01*
X179435000Y-85630513D01*
X179435000Y-85626508D01*
X179434999Y-85626504D01*
X179396572Y-85433318D01*
X179396569Y-85433306D01*
X179321192Y-85251328D01*
X179321185Y-85251316D01*
X179240927Y-85131203D01*
X178765602Y-85606528D01*
X178761148Y-85589905D01*
X178715070Y-85510095D01*
X178649905Y-85444930D01*
X178570095Y-85398852D01*
X178553470Y-85394397D01*
X179028795Y-84919071D01*
X179028795Y-84919069D01*
X178908679Y-84838811D01*
X178908676Y-84838809D01*
X178726693Y-84763430D01*
X178726681Y-84763427D01*
X178533495Y-84725000D01*
X178336504Y-84725000D01*
X178143318Y-84763427D01*
X178143310Y-84763429D01*
X177961325Y-84838809D01*
X177961318Y-84838813D01*
X177841203Y-84919071D01*
X177841202Y-84919071D01*
X178316529Y-85394397D01*
X178299905Y-85398852D01*
X178220095Y-85444930D01*
X178154930Y-85510095D01*
X178108852Y-85589905D01*
X178104397Y-85606528D01*
X177629071Y-85131202D01*
X177629071Y-85131203D01*
X177548813Y-85251318D01*
X177548809Y-85251325D01*
X177473429Y-85433310D01*
X177473427Y-85433318D01*
X177435000Y-85626504D01*
X176141500Y-85626504D01*
X176141500Y-78010513D01*
X177234500Y-78010513D01*
X177234500Y-78199486D01*
X177264059Y-78386118D01*
X177322454Y-78565836D01*
X177374094Y-78667184D01*
X177408240Y-78734199D01*
X177519310Y-78887073D01*
X177652927Y-79020690D01*
X177805801Y-79131760D01*
X177885347Y-79172290D01*
X177974163Y-79217545D01*
X177974165Y-79217545D01*
X177974168Y-79217547D01*
X178070497Y-79248846D01*
X178153881Y-79275940D01*
X178340514Y-79305500D01*
X178340519Y-79305500D01*
X178529486Y-79305500D01*
X178716118Y-79275940D01*
X178738360Y-79268713D01*
X178895832Y-79217547D01*
X179064199Y-79131760D01*
X179217073Y-79020690D01*
X179350690Y-78887073D01*
X179445475Y-78756613D01*
X179500804Y-78713949D01*
X179545792Y-78705500D01*
X183674208Y-78705500D01*
X183741247Y-78725185D01*
X183774524Y-78756612D01*
X183869310Y-78887073D01*
X184002927Y-79020690D01*
X184155801Y-79131760D01*
X184235347Y-79172290D01*
X184324163Y-79217545D01*
X184324165Y-79217545D01*
X184324168Y-79217547D01*
X184420497Y-79248846D01*
X184503881Y-79275940D01*
X184690514Y-79305500D01*
X184690519Y-79305500D01*
X184879486Y-79305500D01*
X185066118Y-79275940D01*
X185088360Y-79268713D01*
X185245832Y-79217547D01*
X185414199Y-79131760D01*
X185567073Y-79020690D01*
X185700690Y-78887073D01*
X185811760Y-78734199D01*
X185897547Y-78565832D01*
X185955940Y-78386118D01*
X185962470Y-78344890D01*
X185985500Y-78199486D01*
X185985500Y-78010513D01*
X185955940Y-77823881D01*
X185897545Y-77644163D01*
X185826383Y-77504500D01*
X185811760Y-77475801D01*
X185700690Y-77322927D01*
X185567073Y-77189310D01*
X185414199Y-77078240D01*
X185245836Y-76992454D01*
X185066118Y-76934059D01*
X184879486Y-76904500D01*
X184879481Y-76904500D01*
X184690519Y-76904500D01*
X184690514Y-76904500D01*
X184503881Y-76934059D01*
X184324163Y-76992454D01*
X184155800Y-77078240D01*
X184068579Y-77141610D01*
X184002927Y-77189310D01*
X184002925Y-77189312D01*
X184002924Y-77189312D01*
X183869312Y-77322924D01*
X183869312Y-77322925D01*
X183869310Y-77322927D01*
X183774526Y-77453386D01*
X183719196Y-77496051D01*
X183674208Y-77504500D01*
X179545792Y-77504500D01*
X179478753Y-77484815D01*
X179445474Y-77453386D01*
X179350690Y-77322927D01*
X179217073Y-77189310D01*
X179064199Y-77078240D01*
X178895836Y-76992454D01*
X178716118Y-76934059D01*
X178529486Y-76904500D01*
X178529481Y-76904500D01*
X178340519Y-76904500D01*
X178340514Y-76904500D01*
X178153881Y-76934059D01*
X177974163Y-76992454D01*
X177805800Y-77078240D01*
X177718579Y-77141610D01*
X177652927Y-77189310D01*
X177652925Y-77189312D01*
X177652924Y-77189312D01*
X177519312Y-77322924D01*
X177519312Y-77322925D01*
X177519310Y-77322927D01*
X177471610Y-77388579D01*
X177408240Y-77475800D01*
X177322454Y-77644163D01*
X177264059Y-77823881D01*
X177234500Y-78010513D01*
X176141500Y-78010513D01*
X176141500Y-76531000D01*
X176161185Y-76463961D01*
X176213989Y-76418206D01*
X176265500Y-76407000D01*
X209179500Y-76407000D01*
X209246539Y-76426685D01*
G37*
%TD.AperFunction*%
%TD*%
M02*
