%TF.GenerationSoftware,KiCad,Pcbnew,9.0.6-9.0.6~ubuntu24.04.1*%
%TF.CreationDate,2025-11-30T14:47:37-06:00*%
%TF.ProjectId,breadboard_power_supply,62726561-6462-46f6-9172-645f706f7765,Version 1*%
%TF.SameCoordinates,Original*%
%TF.FileFunction,Copper,L1,Top*%
%TF.FilePolarity,Positive*%
%FSLAX46Y46*%
G04 Gerber Fmt 4.6, Leading zero omitted, Abs format (unit mm)*
G04 Created by KiCad (PCBNEW 9.0.6-9.0.6~ubuntu24.04.1) date 2025-11-30 14:47:37*
%MOMM*%
%LPD*%
G01*
G04 APERTURE LIST*
G04 Aperture macros list*
%AMRoundRect*
0 Rectangle with rounded corners*
0 $1 Rounding radius*
0 $2 $3 $4 $5 $6 $7 $8 $9 X,Y pos of 4 corners*
0 Add a 4 corners polygon primitive as box body*
4,1,4,$2,$3,$4,$5,$6,$7,$8,$9,$2,$3,0*
0 Add four circle primitives for the rounded corners*
1,1,$1+$1,$2,$3*
1,1,$1+$1,$4,$5*
1,1,$1+$1,$6,$7*
1,1,$1+$1,$8,$9*
0 Add four rect primitives between the rounded corners*
20,1,$1+$1,$2,$3,$4,$5,0*
20,1,$1+$1,$4,$5,$6,$7,0*
20,1,$1+$1,$6,$7,$8,$9,0*
20,1,$1+$1,$8,$9,$2,$3,0*%
G04 Aperture macros list end*
%TA.AperFunction,ComponentPad*%
%ADD10R,1.700000X1.700000*%
%TD*%
%TA.AperFunction,ComponentPad*%
%ADD11C,1.700000*%
%TD*%
%TA.AperFunction,ComponentPad*%
%ADD12C,1.600000*%
%TD*%
%TA.AperFunction,ComponentPad*%
%ADD13C,1.400000*%
%TD*%
%TA.AperFunction,ComponentPad*%
%ADD14R,1.900000X1.900000*%
%TD*%
%TA.AperFunction,ComponentPad*%
%ADD15C,1.900000*%
%TD*%
%TA.AperFunction,ComponentPad*%
%ADD16R,1.800000X1.800000*%
%TD*%
%TA.AperFunction,ComponentPad*%
%ADD17C,1.800000*%
%TD*%
%TA.AperFunction,ComponentPad*%
%ADD18R,1.905000X2.000000*%
%TD*%
%TA.AperFunction,ComponentPad*%
%ADD19O,1.905000X2.000000*%
%TD*%
%TA.AperFunction,ComponentPad*%
%ADD20RoundRect,0.250001X-1.149999X-1.149999X1.149999X-1.149999X1.149999X1.149999X-1.149999X1.149999X0*%
%TD*%
%TA.AperFunction,ComponentPad*%
%ADD21C,2.800000*%
%TD*%
%TA.AperFunction,ComponentPad*%
%ADD22C,4.318000*%
%TD*%
%TA.AperFunction,Conductor*%
%ADD23C,0.200000*%
%TD*%
%TA.AperFunction,Conductor*%
%ADD24C,0.250000*%
%TD*%
G04 APERTURE END LIST*
D10*
%TO.P,J3,1,Pin_1*%
%TO.N,/3.3V*%
X189230000Y-125730000D03*
D11*
%TO.P,J3,2,Pin_2*%
%TO.N,/POWER_OUT_BOTTOM*%
X189230000Y-128270000D03*
%TO.P,J3,3,Pin_3*%
%TO.N,/5V*%
X189230000Y-130810000D03*
%TD*%
D12*
%TO.P,C3,1*%
%TO.N,/3.3V*%
X177185000Y-129540000D03*
%TO.P,C3,2*%
%TO.N,GND*%
X179685000Y-129540000D03*
%TD*%
D13*
%TO.P,R2,1*%
%TO.N,Net-(U2-ADJ)*%
X184785000Y-78105000D03*
%TO.P,R2,2*%
%TO.N,/3.3V*%
X184785000Y-85725000D03*
%TD*%
D14*
%TO.P,S1,1*%
%TO.N,/12V*%
X196295000Y-116205000D03*
D15*
%TO.P,S1,2*%
%TO.N,/PWR_INPUT*%
X198795000Y-116205000D03*
%TO.P,S1,3*%
%TO.N,unconnected-(S1-Pad3)*%
X201295000Y-116205000D03*
%TD*%
D10*
%TO.P,J1,1,Pin_1*%
%TO.N,GND*%
X207645000Y-80010000D03*
D11*
%TO.P,J1,2,Pin_2*%
%TO.N,/POWER_OUT_TOP*%
X207645000Y-82550000D03*
%TD*%
D16*
%TO.P,D1,1*%
%TO.N,GND*%
X197485000Y-105410000D03*
D17*
%TO.P,D1,2*%
%TO.N,Net-(D1-Pad2)*%
X200025000Y-105410000D03*
%TD*%
D18*
%TO.P,U3,1,VI*%
%TO.N,/12V*%
X184785000Y-95250000D03*
D19*
%TO.P,U3,2,GND*%
%TO.N,GND*%
X182245000Y-95250000D03*
%TO.P,U3,3,VO*%
%TO.N,/5V*%
X179705000Y-95250000D03*
%TD*%
D12*
%TO.P,C1,1*%
%TO.N,/12V*%
X177185000Y-123190000D03*
%TO.P,C1,2*%
%TO.N,GND*%
X179685000Y-123190000D03*
%TD*%
D10*
%TO.P,J2,1,Pin_1*%
%TO.N,GND*%
X207645000Y-126365000D03*
D11*
%TO.P,J2,2,Pin_2*%
%TO.N,/POWER_OUT_BOTTOM*%
X207645000Y-128905000D03*
%TD*%
D10*
%TO.P,J4,1,Pin_1*%
%TO.N,/3.3V*%
X189865000Y-84455000D03*
D11*
%TO.P,J4,2,Pin_2*%
%TO.N,/POWER_OUT_TOP*%
X189865000Y-81915000D03*
%TO.P,J4,3,Pin_3*%
%TO.N,/5V*%
X189865000Y-79375000D03*
%TD*%
D13*
%TO.P,R3,1*%
%TO.N,GND*%
X178435000Y-85725000D03*
%TO.P,R3,2*%
%TO.N,Net-(U2-ADJ)*%
X178435000Y-78105000D03*
%TD*%
D20*
%TO.P,J7,1,Pin_1*%
%TO.N,GND*%
X196930000Y-128270000D03*
D21*
%TO.P,J7,2,Pin_2*%
%TO.N,/POWER_OUT_BOTTOM*%
X201930000Y-128270000D03*
%TD*%
D12*
%TO.P,C2,1*%
%TO.N,/5V*%
X190500000Y-94595000D03*
%TO.P,C2,2*%
%TO.N,GND*%
X190500000Y-92095000D03*
%TD*%
D18*
%TO.P,U2,1,ADJ*%
%TO.N,Net-(U2-ADJ)*%
X179070000Y-114935000D03*
D19*
%TO.P,U2,2,VO*%
%TO.N,/3.3V*%
X181610000Y-114935000D03*
%TO.P,U2,3,VI*%
%TO.N,/12V*%
X184150000Y-114935000D03*
%TD*%
D20*
%TO.P,J5,1,Pin_1*%
%TO.N,GND*%
X197140000Y-81882500D03*
D21*
%TO.P,J5,2,Pin_2*%
%TO.N,/POWER_OUT_TOP*%
X202140000Y-81882500D03*
%TD*%
D13*
%TO.P,R1,1*%
%TO.N,Net-(D1-Pad2)*%
X198755000Y-90170000D03*
%TO.P,R1,2*%
%TO.N,/12V*%
X198755000Y-97790000D03*
%TD*%
D22*
%TO.P,J6,1,PWR*%
%TO.N,/PWR_INPUT*%
X190150000Y-104140000D03*
%TO.P,J6,2,GND*%
%TO.N,GND*%
X184150000Y-104140000D03*
%TO.P,J6,3,GNDBREAK*%
X187150000Y-108840000D03*
%TD*%
D23*
%TO.N,Net-(U2-ADJ)*%
X177417000Y-79122900D02*
X177417000Y-115806000D01*
X178435000Y-78105000D02*
X177417000Y-79122900D01*
X177417000Y-115806000D02*
X177816000Y-116205000D01*
X179070000Y-115578000D02*
X179070000Y-114935000D01*
X178443000Y-116205000D02*
X179070000Y-115578000D01*
X179070000Y-116205000D02*
X177816000Y-116205000D01*
%TO.N,Net-(D1-Pad2)*%
X200025000Y-91440000D02*
X200025000Y-105410000D01*
X198755000Y-90170000D02*
X200025000Y-91440000D01*
%TO.N,/3.3V*%
X181610000Y-125115000D02*
X181610000Y-114935000D01*
X177185000Y-129540000D02*
X181610000Y-125115000D01*
X187477000Y-88417400D02*
X184785000Y-85725000D01*
X187477000Y-96951800D02*
X187477000Y-88417400D01*
X181610000Y-102819000D02*
X187477000Y-96951800D01*
X181610000Y-114935000D02*
X181610000Y-102819000D01*
D24*
%TO.N,/5V*%
X192720000Y-96814700D02*
X190500000Y-94595000D01*
X192720000Y-127320000D02*
X192720000Y-96814700D01*
X189230000Y-130810000D02*
X192720000Y-127320000D01*
X191698000Y-93397500D02*
X190500000Y-94595000D01*
X191698000Y-81207500D02*
X191698000Y-93397500D01*
X189865000Y-79375000D02*
X191698000Y-81207500D01*
%TO.N,/12V*%
X196295000Y-114878000D02*
X196295000Y-116205000D01*
X194945000Y-113528000D02*
X196295000Y-114878000D01*
X194945000Y-101600000D02*
X194945000Y-113528000D01*
X198755000Y-97790000D02*
X194945000Y-101600000D01*
%TD*%
%TA.AperFunction,Conductor*%
%TO.N,GND*%
G36*
X209246539Y-76426685D02*
G01*
X209292294Y-76479489D01*
X209303500Y-76531000D01*
X209303500Y-133777500D01*
X209283815Y-133844539D01*
X209231011Y-133890294D01*
X209179500Y-133901500D01*
X176265500Y-133901500D01*
X176198461Y-133881815D01*
X176152706Y-133829011D01*
X176141500Y-133777500D01*
X176141500Y-130632723D01*
X176161185Y-130565684D01*
X176213989Y-130519929D01*
X176283147Y-130509985D01*
X176338385Y-130532405D01*
X176503390Y-130652287D01*
X176604319Y-130703713D01*
X176685776Y-130745218D01*
X176685778Y-130745218D01*
X176685781Y-130745220D01*
X176790137Y-130779127D01*
X176880465Y-130808477D01*
X176981557Y-130824488D01*
X177082648Y-130840500D01*
X177082649Y-130840500D01*
X177287351Y-130840500D01*
X177287352Y-130840500D01*
X177489534Y-130808477D01*
X177684219Y-130745220D01*
X177866610Y-130652287D01*
X177985810Y-130565684D01*
X178032213Y-130531971D01*
X178032215Y-130531968D01*
X178032219Y-130531966D01*
X178176966Y-130387219D01*
X178176968Y-130387215D01*
X178176971Y-130387213D01*
X178297286Y-130221611D01*
X178297415Y-130221359D01*
X178324795Y-130167621D01*
X178372769Y-130116826D01*
X178440589Y-130100030D01*
X178506725Y-130122567D01*
X178545765Y-130167621D01*
X178573141Y-130221350D01*
X178573147Y-130221359D01*
X178605523Y-130265921D01*
X178605524Y-130265922D01*
X179285000Y-129586446D01*
X179285000Y-129592661D01*
X179312259Y-129694394D01*
X179364920Y-129785606D01*
X179439394Y-129860080D01*
X179530606Y-129912741D01*
X179632339Y-129940000D01*
X179638553Y-129940000D01*
X178959076Y-130619474D01*
X179003650Y-130651859D01*
X179185968Y-130744755D01*
X179380582Y-130807990D01*
X179582683Y-130840000D01*
X179787317Y-130840000D01*
X179989417Y-130807990D01*
X180184031Y-130744755D01*
X180366349Y-130651859D01*
X180410921Y-130619474D01*
X179731447Y-129940000D01*
X179737661Y-129940000D01*
X179839394Y-129912741D01*
X179930606Y-129860080D01*
X180005080Y-129785606D01*
X180057741Y-129694394D01*
X180085000Y-129592661D01*
X180085000Y-129586447D01*
X180764474Y-130265921D01*
X180796859Y-130221349D01*
X180889755Y-130039031D01*
X180952990Y-129844417D01*
X180985000Y-129642317D01*
X180985000Y-129437682D01*
X180952990Y-129235582D01*
X180889755Y-129040968D01*
X180796859Y-128858650D01*
X180764474Y-128814077D01*
X180764474Y-128814076D01*
X180085000Y-129493551D01*
X180085000Y-129487339D01*
X180057741Y-129385606D01*
X180005080Y-129294394D01*
X179930606Y-129219920D01*
X179839394Y-129167259D01*
X179737661Y-129140000D01*
X179731446Y-129140000D01*
X180410922Y-128460524D01*
X180410921Y-128460523D01*
X180366359Y-128428147D01*
X180366350Y-128428141D01*
X180184031Y-128335244D01*
X179989417Y-128272009D01*
X179787317Y-128240000D01*
X179633595Y-128240000D01*
X179566556Y-128220315D01*
X179520801Y-128167511D01*
X179510857Y-128098353D01*
X179539882Y-128034797D01*
X179545900Y-128028333D01*
X181978713Y-125595521D01*
X181978716Y-125595520D01*
X182090520Y-125483716D01*
X182140639Y-125396904D01*
X182169577Y-125346785D01*
X182210501Y-125194057D01*
X182210501Y-125035943D01*
X182210501Y-125028348D01*
X182210500Y-125028330D01*
X182210500Y-116383256D01*
X182230185Y-116316217D01*
X182278204Y-116272772D01*
X182371538Y-116225217D01*
X182556566Y-116090786D01*
X182718286Y-115929066D01*
X182779683Y-115844559D01*
X182835012Y-115801896D01*
X182904625Y-115795917D01*
X182966420Y-115828523D01*
X182980314Y-115844556D01*
X183041714Y-115929066D01*
X183203434Y-116090786D01*
X183388462Y-116225217D01*
X183592242Y-116329048D01*
X183592244Y-116329049D01*
X183809751Y-116399721D01*
X183809752Y-116399721D01*
X183809755Y-116399722D01*
X184035646Y-116435500D01*
X184035647Y-116435500D01*
X184264353Y-116435500D01*
X184264354Y-116435500D01*
X184490245Y-116399722D01*
X184490248Y-116399721D01*
X184490249Y-116399721D01*
X184707755Y-116329049D01*
X184707755Y-116329048D01*
X184707758Y-116329048D01*
X184911538Y-116225217D01*
X185096566Y-116090786D01*
X185258286Y-115929066D01*
X185392717Y-115744038D01*
X185496548Y-115540258D01*
X185527573Y-115444772D01*
X185567221Y-115322749D01*
X185567221Y-115322748D01*
X185567222Y-115322745D01*
X185603000Y-115096854D01*
X185603000Y-114773146D01*
X185567222Y-114547255D01*
X185567221Y-114547251D01*
X185567221Y-114547250D01*
X185496549Y-114329744D01*
X185496548Y-114329742D01*
X185392717Y-114125962D01*
X185258286Y-113940934D01*
X185096566Y-113779214D01*
X184911538Y-113644783D01*
X184803249Y-113589607D01*
X184707755Y-113540950D01*
X184490248Y-113470278D01*
X184299736Y-113440104D01*
X184264354Y-113434500D01*
X184035646Y-113434500D01*
X183995188Y-113440908D01*
X183809753Y-113470278D01*
X183809750Y-113470278D01*
X183592244Y-113540950D01*
X183388461Y-113644783D01*
X183298078Y-113710451D01*
X183203434Y-113779214D01*
X183203432Y-113779216D01*
X183203431Y-113779216D01*
X183041715Y-113940932D01*
X182980318Y-114025438D01*
X182924987Y-114068103D01*
X182855374Y-114074082D01*
X182793579Y-114041476D01*
X182779682Y-114025438D01*
X182768773Y-114010423D01*
X182718286Y-113940934D01*
X182556566Y-113779214D01*
X182371538Y-113644783D01*
X182278205Y-113597227D01*
X182227409Y-113549252D01*
X182210500Y-113486742D01*
X182210500Y-108690667D01*
X184491000Y-108690667D01*
X184491000Y-108989332D01*
X184524435Y-109286086D01*
X184524438Y-109286100D01*
X184590894Y-109577265D01*
X184590898Y-109577277D01*
X184689534Y-109859162D01*
X184819112Y-110128232D01*
X184978005Y-110381110D01*
X185101045Y-110535399D01*
X185928342Y-109708102D01*
X186006932Y-109816272D01*
X186173728Y-109983068D01*
X186281895Y-110061657D01*
X185454599Y-110888953D01*
X185608889Y-111011994D01*
X185861767Y-111170887D01*
X186130837Y-111300465D01*
X186412722Y-111399101D01*
X186412734Y-111399105D01*
X186703899Y-111465561D01*
X186703913Y-111465564D01*
X187000667Y-111498999D01*
X187000671Y-111499000D01*
X187299329Y-111499000D01*
X187299332Y-111498999D01*
X187596086Y-111465564D01*
X187596100Y-111465561D01*
X187887265Y-111399105D01*
X187887277Y-111399101D01*
X188169162Y-111300465D01*
X188438232Y-111170887D01*
X188691110Y-111011994D01*
X188845399Y-110888952D01*
X188018103Y-110061657D01*
X188126272Y-109983068D01*
X188293068Y-109816272D01*
X188371657Y-109708104D01*
X189198952Y-110535399D01*
X189321994Y-110381110D01*
X189480887Y-110128232D01*
X189610465Y-109859162D01*
X189709101Y-109577277D01*
X189709105Y-109577265D01*
X189775561Y-109286100D01*
X189775564Y-109286086D01*
X189808999Y-108989332D01*
X189809000Y-108989328D01*
X189809000Y-108690671D01*
X189808999Y-108690667D01*
X189775564Y-108393913D01*
X189775561Y-108393899D01*
X189709105Y-108102734D01*
X189709101Y-108102722D01*
X189610465Y-107820837D01*
X189480887Y-107551767D01*
X189321994Y-107298889D01*
X189198953Y-107144599D01*
X188371656Y-107971895D01*
X188293068Y-107863728D01*
X188126272Y-107696932D01*
X188018103Y-107618342D01*
X188845399Y-106791045D01*
X188691110Y-106668005D01*
X188438232Y-106509112D01*
X188169162Y-106379534D01*
X187887277Y-106280898D01*
X187887265Y-106280894D01*
X187596100Y-106214438D01*
X187596086Y-106214435D01*
X187299332Y-106181000D01*
X187000667Y-106181000D01*
X186703913Y-106214435D01*
X186703899Y-106214438D01*
X186412734Y-106280894D01*
X186412722Y-106280898D01*
X186130837Y-106379534D01*
X185861767Y-106509112D01*
X185608894Y-106668001D01*
X185454600Y-106791046D01*
X186281896Y-107618342D01*
X186173728Y-107696932D01*
X186006932Y-107863728D01*
X185928342Y-107971896D01*
X185101046Y-107144600D01*
X184978001Y-107298894D01*
X184819112Y-107551767D01*
X184689534Y-107820837D01*
X184590898Y-108102722D01*
X184590894Y-108102734D01*
X184524438Y-108393899D01*
X184524435Y-108393913D01*
X184491000Y-108690667D01*
X182210500Y-108690667D01*
X182210500Y-106251778D01*
X182230185Y-106184739D01*
X182282989Y-106138984D01*
X182352147Y-106129040D01*
X182411813Y-106154831D01*
X182608889Y-106311994D01*
X182861767Y-106470887D01*
X183130837Y-106600465D01*
X183412722Y-106699101D01*
X183412734Y-106699105D01*
X183703899Y-106765561D01*
X183703913Y-106765564D01*
X184000667Y-106798999D01*
X184000671Y-106799000D01*
X184299329Y-106799000D01*
X184299332Y-106798999D01*
X184596086Y-106765564D01*
X184596100Y-106765561D01*
X184801849Y-106718601D01*
X184801850Y-106718600D01*
X184887261Y-106699106D01*
X184887277Y-106699101D01*
X185169162Y-106600465D01*
X185438232Y-106470887D01*
X185691110Y-106311994D01*
X185845399Y-106188952D01*
X185018104Y-105361657D01*
X185126272Y-105283068D01*
X185293068Y-105116272D01*
X185371657Y-105008103D01*
X186198952Y-105835399D01*
X186321994Y-105681110D01*
X186480887Y-105428232D01*
X186610465Y-105159162D01*
X186709101Y-104877277D01*
X186709105Y-104877265D01*
X186775561Y-104586100D01*
X186775564Y-104586086D01*
X186808999Y-104289332D01*
X186809000Y-104289328D01*
X186809000Y-103990669D01*
X186808997Y-103990641D01*
X187490500Y-103990641D01*
X187490500Y-104289358D01*
X187523943Y-104586172D01*
X187523945Y-104586184D01*
X187590413Y-104877403D01*
X187590417Y-104877415D01*
X187689072Y-105159353D01*
X187818674Y-105428474D01*
X187977600Y-105681403D01*
X187977601Y-105681405D01*
X188163833Y-105914934D01*
X188375065Y-106126166D01*
X188608594Y-106312398D01*
X188608597Y-106312399D01*
X188608599Y-106312401D01*
X188861523Y-106471324D01*
X189130650Y-106600929D01*
X189322331Y-106668001D01*
X189412584Y-106699582D01*
X189412596Y-106699586D01*
X189703815Y-106766055D01*
X190000642Y-106799499D01*
X190000643Y-106799500D01*
X190000646Y-106799500D01*
X190299357Y-106799500D01*
X190299357Y-106799499D01*
X190596185Y-106766055D01*
X190887404Y-106699586D01*
X191169350Y-106600929D01*
X191438477Y-106471324D01*
X191691401Y-106312401D01*
X191893189Y-106151481D01*
X191957874Y-106125073D01*
X192026569Y-106137830D01*
X192077463Y-106185700D01*
X192094500Y-106248429D01*
X192094500Y-127009547D01*
X192074815Y-127076586D01*
X192058181Y-127097228D01*
X190792181Y-128363228D01*
X190730858Y-128396713D01*
X190661166Y-128391729D01*
X190605233Y-128349857D01*
X190580816Y-128284393D01*
X190580500Y-128275547D01*
X190580500Y-128163713D01*
X190567305Y-128080402D01*
X190547246Y-127953757D01*
X190481557Y-127751588D01*
X190385051Y-127562184D01*
X190385049Y-127562181D01*
X190385048Y-127562179D01*
X190260109Y-127390213D01*
X190146569Y-127276673D01*
X190113084Y-127215350D01*
X190118068Y-127145658D01*
X190159940Y-127089725D01*
X190190915Y-127072810D01*
X190322331Y-127023796D01*
X190437546Y-126937546D01*
X190523796Y-126822331D01*
X190574091Y-126687483D01*
X190580500Y-126627873D01*
X190580499Y-124832128D01*
X190574091Y-124772517D01*
X190523796Y-124637669D01*
X190523795Y-124637668D01*
X190523793Y-124637664D01*
X190437547Y-124522455D01*
X190437544Y-124522452D01*
X190322335Y-124436206D01*
X190322328Y-124436202D01*
X190187482Y-124385908D01*
X190187483Y-124385908D01*
X190127883Y-124379501D01*
X190127881Y-124379500D01*
X190127873Y-124379500D01*
X190127864Y-124379500D01*
X188332129Y-124379500D01*
X188332123Y-124379501D01*
X188272516Y-124385908D01*
X188137671Y-124436202D01*
X188137664Y-124436206D01*
X188022455Y-124522452D01*
X188022452Y-124522455D01*
X187936206Y-124637664D01*
X187936202Y-124637671D01*
X187885908Y-124772517D01*
X187881352Y-124814902D01*
X187879501Y-124832123D01*
X187879500Y-124832135D01*
X187879500Y-126627870D01*
X187879501Y-126627876D01*
X187885908Y-126687483D01*
X187936202Y-126822328D01*
X187936206Y-126822335D01*
X188022452Y-126937544D01*
X188022455Y-126937547D01*
X188137664Y-127023793D01*
X188137671Y-127023797D01*
X188269082Y-127072810D01*
X188325016Y-127114681D01*
X188349433Y-127180145D01*
X188334582Y-127248418D01*
X188313431Y-127276673D01*
X188199889Y-127390215D01*
X188074951Y-127562179D01*
X187978444Y-127751585D01*
X187912753Y-127953760D01*
X187879500Y-128163713D01*
X187879500Y-128376286D01*
X187906632Y-128547595D01*
X187912754Y-128586243D01*
X187970417Y-128763712D01*
X187978444Y-128788414D01*
X188074951Y-128977820D01*
X188199890Y-129149786D01*
X188350213Y-129300109D01*
X188522182Y-129425050D01*
X188530946Y-129429516D01*
X188581742Y-129477491D01*
X188598536Y-129545312D01*
X188575998Y-129611447D01*
X188530946Y-129650484D01*
X188522182Y-129654949D01*
X188350213Y-129779890D01*
X188199890Y-129930213D01*
X188074951Y-130102179D01*
X187978444Y-130291585D01*
X187912753Y-130493760D01*
X187879500Y-130703713D01*
X187879500Y-130916286D01*
X187912753Y-131126239D01*
X187978444Y-131328414D01*
X188074951Y-131517820D01*
X188199890Y-131689786D01*
X188350213Y-131840109D01*
X188522179Y-131965048D01*
X188522181Y-131965049D01*
X188522184Y-131965051D01*
X188711588Y-132061557D01*
X188913757Y-132127246D01*
X189123713Y-132160500D01*
X189123714Y-132160500D01*
X189336286Y-132160500D01*
X189336287Y-132160500D01*
X189546243Y-132127246D01*
X189748412Y-132061557D01*
X189937816Y-131965051D01*
X189959789Y-131949086D01*
X190109786Y-131840109D01*
X190109788Y-131840106D01*
X190109792Y-131840104D01*
X190260104Y-131689792D01*
X190260106Y-131689788D01*
X190260109Y-131689786D01*
X190385048Y-131517820D01*
X190385047Y-131517820D01*
X190385051Y-131517816D01*
X190481557Y-131328412D01*
X190547246Y-131126243D01*
X190580500Y-130916287D01*
X190580500Y-130703713D01*
X190547246Y-130493757D01*
X190542178Y-130478159D01*
X190540183Y-130408318D01*
X190572426Y-130352163D01*
X193205857Y-127718734D01*
X193274311Y-127616286D01*
X193299904Y-127554500D01*
X193321463Y-127502452D01*
X193345500Y-127381606D01*
X193345500Y-127070014D01*
X195030000Y-127070014D01*
X195030000Y-128020000D01*
X196329999Y-128020000D01*
X196304979Y-128080402D01*
X196280000Y-128205981D01*
X196280000Y-128334019D01*
X196304979Y-128459598D01*
X196329999Y-128520000D01*
X195030000Y-128520000D01*
X195030000Y-129469985D01*
X195040493Y-129572689D01*
X195040494Y-129572696D01*
X195095641Y-129739118D01*
X195095643Y-129739123D01*
X195187684Y-129888344D01*
X195311655Y-130012315D01*
X195460876Y-130104356D01*
X195460881Y-130104358D01*
X195627303Y-130159505D01*
X195627310Y-130159506D01*
X195730014Y-130169999D01*
X195730027Y-130170000D01*
X196680000Y-130170000D01*
X196680000Y-128870001D01*
X196740402Y-128895021D01*
X196865981Y-128920000D01*
X196994019Y-128920000D01*
X197119598Y-128895021D01*
X197180000Y-128870001D01*
X197180000Y-130170000D01*
X198129973Y-130170000D01*
X198129985Y-130169999D01*
X198232689Y-130159506D01*
X198232696Y-130159505D01*
X198399118Y-130104358D01*
X198399123Y-130104356D01*
X198548344Y-130012315D01*
X198672315Y-129888344D01*
X198764356Y-129739123D01*
X198764358Y-129739118D01*
X198819505Y-129572696D01*
X198819506Y-129572689D01*
X198829999Y-129469985D01*
X198830000Y-129469972D01*
X198830000Y-128520000D01*
X197530001Y-128520000D01*
X197555021Y-128459598D01*
X197580000Y-128334019D01*
X197580000Y-128205981D01*
X197567958Y-128145441D01*
X200029500Y-128145441D01*
X200029500Y-128394558D01*
X200029501Y-128394575D01*
X200059009Y-128618714D01*
X200062018Y-128641565D01*
X200094221Y-128761747D01*
X200126498Y-128882207D01*
X200221830Y-129112361D01*
X200221837Y-129112376D01*
X200346400Y-129328126D01*
X200498060Y-129525774D01*
X200498066Y-129525781D01*
X200674218Y-129701933D01*
X200674225Y-129701939D01*
X200871873Y-129853599D01*
X201087623Y-129978162D01*
X201087638Y-129978169D01*
X201170075Y-130012315D01*
X201317793Y-130073502D01*
X201558435Y-130137982D01*
X201805435Y-130170500D01*
X201805442Y-130170500D01*
X202054558Y-130170500D01*
X202054565Y-130170500D01*
X202301565Y-130137982D01*
X202542207Y-130073502D01*
X202772373Y-129978164D01*
X202988127Y-129853599D01*
X203185776Y-129701938D01*
X203361938Y-129525776D01*
X203513599Y-129328127D01*
X203638164Y-129112373D01*
X203733502Y-128882207D01*
X203755874Y-128798713D01*
X206294500Y-128798713D01*
X206294500Y-129011286D01*
X206319203Y-129167259D01*
X206327754Y-129221243D01*
X206353379Y-129300109D01*
X206393444Y-129423414D01*
X206489951Y-129612820D01*
X206614890Y-129784786D01*
X206765213Y-129935109D01*
X206937179Y-130060048D01*
X206937181Y-130060049D01*
X206937184Y-130060051D01*
X207126588Y-130156557D01*
X207328757Y-130222246D01*
X207538713Y-130255500D01*
X207538714Y-130255500D01*
X207751286Y-130255500D01*
X207751287Y-130255500D01*
X207961243Y-130222246D01*
X208163412Y-130156557D01*
X208352816Y-130060051D01*
X208381748Y-130039031D01*
X208524786Y-129935109D01*
X208524788Y-129935106D01*
X208524792Y-129935104D01*
X208675104Y-129784792D01*
X208675106Y-129784788D01*
X208675109Y-129784786D01*
X208800048Y-129612820D01*
X208800047Y-129612820D01*
X208800051Y-129612816D01*
X208896557Y-129423412D01*
X208962246Y-129221243D01*
X208995500Y-129011287D01*
X208995500Y-128798713D01*
X208962246Y-128588757D01*
X208896557Y-128386588D01*
X208800051Y-128197184D01*
X208800049Y-128197181D01*
X208800048Y-128197179D01*
X208675109Y-128025213D01*
X208561181Y-127911285D01*
X208527696Y-127849962D01*
X208532680Y-127780270D01*
X208574552Y-127724337D01*
X208605529Y-127707422D01*
X208737086Y-127658354D01*
X208737093Y-127658350D01*
X208852187Y-127572190D01*
X208852190Y-127572187D01*
X208938350Y-127457093D01*
X208938354Y-127457086D01*
X208988596Y-127322379D01*
X208988598Y-127322372D01*
X208994999Y-127262844D01*
X208995000Y-127262827D01*
X208995000Y-126615000D01*
X208078012Y-126615000D01*
X208110925Y-126557993D01*
X208145000Y-126430826D01*
X208145000Y-126299174D01*
X208110925Y-126172007D01*
X208078012Y-126115000D01*
X208995000Y-126115000D01*
X208995000Y-125467172D01*
X208994999Y-125467155D01*
X208988598Y-125407627D01*
X208988596Y-125407620D01*
X208938354Y-125272913D01*
X208938350Y-125272906D01*
X208852190Y-125157812D01*
X208852187Y-125157809D01*
X208737093Y-125071649D01*
X208737086Y-125071645D01*
X208602379Y-125021403D01*
X208602372Y-125021401D01*
X208542844Y-125015000D01*
X207895000Y-125015000D01*
X207895000Y-125931988D01*
X207837993Y-125899075D01*
X207710826Y-125865000D01*
X207579174Y-125865000D01*
X207452007Y-125899075D01*
X207395000Y-125931988D01*
X207395000Y-125015000D01*
X206747155Y-125015000D01*
X206687627Y-125021401D01*
X206687620Y-125021403D01*
X206552913Y-125071645D01*
X206552906Y-125071649D01*
X206437812Y-125157809D01*
X206437809Y-125157812D01*
X206351649Y-125272906D01*
X206351645Y-125272913D01*
X206301403Y-125407620D01*
X206301401Y-125407627D01*
X206295000Y-125467155D01*
X206295000Y-126115000D01*
X207211988Y-126115000D01*
X207179075Y-126172007D01*
X207145000Y-126299174D01*
X207145000Y-126430826D01*
X207179075Y-126557993D01*
X207211988Y-126615000D01*
X206295000Y-126615000D01*
X206295000Y-127262844D01*
X206301401Y-127322372D01*
X206301403Y-127322379D01*
X206351645Y-127457086D01*
X206351649Y-127457093D01*
X206437809Y-127572187D01*
X206437812Y-127572190D01*
X206552906Y-127658350D01*
X206552913Y-127658354D01*
X206684470Y-127707422D01*
X206740404Y-127749293D01*
X206764821Y-127814758D01*
X206749969Y-127883031D01*
X206728819Y-127911285D01*
X206614889Y-128025215D01*
X206489951Y-128197179D01*
X206393444Y-128386585D01*
X206327753Y-128588760D01*
X206294500Y-128798713D01*
X203755874Y-128798713D01*
X203797982Y-128641565D01*
X203830500Y-128394565D01*
X203830500Y-128145435D01*
X203797982Y-127898435D01*
X203733502Y-127657793D01*
X203669154Y-127502444D01*
X203638169Y-127427638D01*
X203638162Y-127427623D01*
X203513599Y-127211873D01*
X203361939Y-127014225D01*
X203361933Y-127014218D01*
X203185781Y-126838066D01*
X203185774Y-126838060D01*
X202988126Y-126686400D01*
X202772376Y-126561837D01*
X202772361Y-126561830D01*
X202542207Y-126466498D01*
X202427047Y-126435641D01*
X202301565Y-126402018D01*
X202301564Y-126402017D01*
X202301561Y-126402017D01*
X202054575Y-126369501D01*
X202054570Y-126369500D01*
X202054565Y-126369500D01*
X201805435Y-126369500D01*
X201805429Y-126369500D01*
X201805424Y-126369501D01*
X201558438Y-126402017D01*
X201317792Y-126466498D01*
X201087638Y-126561830D01*
X201087623Y-126561837D01*
X200871873Y-126686400D01*
X200674225Y-126838060D01*
X200674218Y-126838066D01*
X200498066Y-127014218D01*
X200498060Y-127014225D01*
X200346400Y-127211873D01*
X200221837Y-127427623D01*
X200221830Y-127427638D01*
X200126498Y-127657792D01*
X200062017Y-127898438D01*
X200029501Y-128145424D01*
X200029500Y-128145441D01*
X197567958Y-128145441D01*
X197555021Y-128080402D01*
X197530001Y-128020000D01*
X198830000Y-128020000D01*
X198830000Y-127070027D01*
X198829999Y-127070014D01*
X198819506Y-126967310D01*
X198819505Y-126967303D01*
X198764358Y-126800881D01*
X198764356Y-126800876D01*
X198672315Y-126651655D01*
X198548344Y-126527684D01*
X198399123Y-126435643D01*
X198399118Y-126435641D01*
X198232696Y-126380494D01*
X198232689Y-126380493D01*
X198129985Y-126370000D01*
X197180000Y-126370000D01*
X197180000Y-127669998D01*
X197119598Y-127644979D01*
X196994019Y-127620000D01*
X196865981Y-127620000D01*
X196740402Y-127644979D01*
X196680000Y-127669998D01*
X196680000Y-126370000D01*
X195730014Y-126370000D01*
X195627310Y-126380493D01*
X195627303Y-126380494D01*
X195460881Y-126435641D01*
X195460876Y-126435643D01*
X195311655Y-126527684D01*
X195187684Y-126651655D01*
X195095643Y-126800876D01*
X195095641Y-126800881D01*
X195040494Y-126967303D01*
X195040493Y-126967310D01*
X195030000Y-127070014D01*
X193345500Y-127070014D01*
X193345500Y-101538394D01*
X194319500Y-101538394D01*
X194319500Y-101547080D01*
X194319500Y-113589611D01*
X194343535Y-113710444D01*
X194343540Y-113710461D01*
X194390685Y-113824280D01*
X194390687Y-113824283D01*
X194390688Y-113824286D01*
X194424915Y-113875509D01*
X194459142Y-113926733D01*
X194546267Y-114013858D01*
X194546270Y-114013860D01*
X194553554Y-114021144D01*
X195141724Y-114609314D01*
X195175209Y-114670637D01*
X195170225Y-114740329D01*
X195128353Y-114796262D01*
X195110069Y-114806248D01*
X195110454Y-114806953D01*
X195102664Y-114811206D01*
X194987455Y-114897452D01*
X194987452Y-114897455D01*
X194901206Y-115012664D01*
X194901202Y-115012671D01*
X194850908Y-115147517D01*
X194844501Y-115207116D01*
X194844500Y-115207135D01*
X194844500Y-117202870D01*
X194844501Y-117202876D01*
X194850908Y-117262483D01*
X194901202Y-117397328D01*
X194901206Y-117397335D01*
X194987452Y-117512544D01*
X194987455Y-117512547D01*
X195102664Y-117598793D01*
X195102671Y-117598797D01*
X195237517Y-117649091D01*
X195237516Y-117649091D01*
X195244444Y-117649835D01*
X195297127Y-117655500D01*
X197292872Y-117655499D01*
X197352483Y-117649091D01*
X197487331Y-117598796D01*
X197602546Y-117512546D01*
X197688796Y-117397331D01*
X197691368Y-117390436D01*
X197733237Y-117334501D01*
X197798700Y-117310081D01*
X197866974Y-117324931D01*
X197880435Y-117333445D01*
X198034772Y-117445579D01*
X198130884Y-117494550D01*
X198238196Y-117549229D01*
X198238198Y-117549229D01*
X198238201Y-117549231D01*
X198354592Y-117587049D01*
X198455339Y-117619784D01*
X198680838Y-117655500D01*
X198680843Y-117655500D01*
X198909162Y-117655500D01*
X199134660Y-117619784D01*
X199351799Y-117549231D01*
X199555228Y-117445579D01*
X199739937Y-117311379D01*
X199901379Y-117149937D01*
X199944683Y-117090333D01*
X200000012Y-117047670D01*
X200069626Y-117041691D01*
X200131421Y-117074297D01*
X200145313Y-117090329D01*
X200188621Y-117149937D01*
X200350063Y-117311379D01*
X200534772Y-117445579D01*
X200630884Y-117494550D01*
X200738196Y-117549229D01*
X200738198Y-117549229D01*
X200738201Y-117549231D01*
X200854592Y-117587049D01*
X200955339Y-117619784D01*
X201180838Y-117655500D01*
X201180843Y-117655500D01*
X201409162Y-117655500D01*
X201634660Y-117619784D01*
X201851799Y-117549231D01*
X202055228Y-117445579D01*
X202239937Y-117311379D01*
X202401379Y-117149937D01*
X202535579Y-116965228D01*
X202639231Y-116761799D01*
X202709784Y-116544660D01*
X202726870Y-116436784D01*
X202745500Y-116319162D01*
X202745500Y-116090837D01*
X202709784Y-115865339D01*
X202639229Y-115648196D01*
X202584230Y-115540255D01*
X202535579Y-115444772D01*
X202401379Y-115260063D01*
X202239937Y-115098621D01*
X202055228Y-114964421D01*
X201851803Y-114860770D01*
X201634660Y-114790215D01*
X201409162Y-114754500D01*
X201409157Y-114754500D01*
X201180843Y-114754500D01*
X201180838Y-114754500D01*
X200955339Y-114790215D01*
X200738196Y-114860770D01*
X200534771Y-114964421D01*
X200350061Y-115098622D01*
X200188623Y-115260060D01*
X200188616Y-115260069D01*
X200145317Y-115319664D01*
X200089987Y-115362330D01*
X200020373Y-115368308D01*
X199958579Y-115335701D01*
X199944683Y-115319664D01*
X199901383Y-115260069D01*
X199901379Y-115260063D01*
X199739937Y-115098621D01*
X199555228Y-114964421D01*
X199351803Y-114860770D01*
X199134660Y-114790215D01*
X198909162Y-114754500D01*
X198909157Y-114754500D01*
X198680843Y-114754500D01*
X198680838Y-114754500D01*
X198455339Y-114790215D01*
X198238196Y-114860770D01*
X198034768Y-114964423D01*
X197880436Y-115076552D01*
X197814630Y-115100032D01*
X197746576Y-115084207D01*
X197697881Y-115034101D01*
X197691369Y-115019566D01*
X197688798Y-115012673D01*
X197688793Y-115012664D01*
X197602547Y-114897455D01*
X197602544Y-114897452D01*
X197487335Y-114811206D01*
X197487328Y-114811202D01*
X197352482Y-114760908D01*
X197352483Y-114760908D01*
X197292883Y-114754501D01*
X197292881Y-114754500D01*
X197292873Y-114754500D01*
X197292865Y-114754500D01*
X197003735Y-114754500D01*
X196936696Y-114734815D01*
X196890941Y-114682011D01*
X196889174Y-114677952D01*
X196849314Y-114581720D01*
X196849307Y-114581707D01*
X196780858Y-114479267D01*
X196780855Y-114479263D01*
X196690637Y-114389045D01*
X196690606Y-114389016D01*
X195606819Y-113305229D01*
X195573334Y-113243906D01*
X195570500Y-113217548D01*
X195570500Y-101910452D01*
X195590185Y-101843413D01*
X195606819Y-101822771D01*
X196315450Y-101114140D01*
X198424691Y-99004898D01*
X198486012Y-98971415D01*
X198531767Y-98970108D01*
X198548543Y-98972765D01*
X198660514Y-98990500D01*
X198660519Y-98990500D01*
X198849486Y-98990500D01*
X199036118Y-98960940D01*
X199040067Y-98959657D01*
X199215832Y-98902547D01*
X199244204Y-98888091D01*
X199312873Y-98875194D01*
X199377614Y-98901470D01*
X199417871Y-98958576D01*
X199424500Y-98998575D01*
X199424500Y-104068164D01*
X199404815Y-104135203D01*
X199356796Y-104178648D01*
X199290976Y-104212185D01*
X199112641Y-104341752D01*
X199112636Y-104341756D01*
X199062075Y-104392317D01*
X199000752Y-104425801D01*
X198931060Y-104420816D01*
X198875127Y-104378945D01*
X198858213Y-104347968D01*
X198828354Y-104267913D01*
X198828350Y-104267906D01*
X198742190Y-104152812D01*
X198742187Y-104152809D01*
X198627093Y-104066649D01*
X198627086Y-104066645D01*
X198492379Y-104016403D01*
X198492372Y-104016401D01*
X198432844Y-104010000D01*
X197735000Y-104010000D01*
X197735000Y-105034722D01*
X197658694Y-104990667D01*
X197544244Y-104960000D01*
X197425756Y-104960000D01*
X197311306Y-104990667D01*
X197235000Y-105034722D01*
X197235000Y-104010000D01*
X196537155Y-104010000D01*
X196477627Y-104016401D01*
X196477620Y-104016403D01*
X196342913Y-104066645D01*
X196342906Y-104066649D01*
X196227812Y-104152809D01*
X196227809Y-104152812D01*
X196141649Y-104267906D01*
X196141645Y-104267913D01*
X196091403Y-104402620D01*
X196091401Y-104402627D01*
X196085000Y-104462155D01*
X196085000Y-105160000D01*
X197109722Y-105160000D01*
X197065667Y-105236306D01*
X197035000Y-105350756D01*
X197035000Y-105469244D01*
X197065667Y-105583694D01*
X197109722Y-105660000D01*
X196085000Y-105660000D01*
X196085000Y-106357844D01*
X196091401Y-106417372D01*
X196091403Y-106417379D01*
X196141645Y-106552086D01*
X196141649Y-106552093D01*
X196227809Y-106667187D01*
X196227812Y-106667190D01*
X196342906Y-106753350D01*
X196342913Y-106753354D01*
X196477620Y-106803596D01*
X196477627Y-106803598D01*
X196537155Y-106809999D01*
X196537172Y-106810000D01*
X197235000Y-106810000D01*
X197235000Y-105785277D01*
X197311306Y-105829333D01*
X197425756Y-105860000D01*
X197544244Y-105860000D01*
X197658694Y-105829333D01*
X197735000Y-105785277D01*
X197735000Y-106810000D01*
X198432828Y-106810000D01*
X198432844Y-106809999D01*
X198492372Y-106803598D01*
X198492379Y-106803596D01*
X198627086Y-106753354D01*
X198627093Y-106753350D01*
X198742187Y-106667190D01*
X198742190Y-106667187D01*
X198828350Y-106552093D01*
X198828354Y-106552086D01*
X198858213Y-106472031D01*
X198900084Y-106416097D01*
X198965548Y-106391680D01*
X199033821Y-106406531D01*
X199062076Y-106427683D01*
X199112636Y-106478243D01*
X199112641Y-106478247D01*
X199268192Y-106591260D01*
X199290978Y-106607815D01*
X199409106Y-106668005D01*
X199487393Y-106707895D01*
X199487396Y-106707896D01*
X199592221Y-106741955D01*
X199697049Y-106776015D01*
X199914778Y-106810500D01*
X199914779Y-106810500D01*
X200135221Y-106810500D01*
X200135222Y-106810500D01*
X200352951Y-106776015D01*
X200562606Y-106707895D01*
X200759022Y-106607815D01*
X200937365Y-106478242D01*
X201093242Y-106322365D01*
X201222815Y-106144022D01*
X201322895Y-105947606D01*
X201391015Y-105737951D01*
X201425500Y-105520222D01*
X201425500Y-105299778D01*
X201391015Y-105082049D01*
X201356955Y-104977221D01*
X201322896Y-104872396D01*
X201322895Y-104872393D01*
X201288237Y-104804375D01*
X201222815Y-104675978D01*
X201157577Y-104586185D01*
X201093247Y-104497641D01*
X201093243Y-104497636D01*
X200937363Y-104341756D01*
X200937358Y-104341752D01*
X200759023Y-104212185D01*
X200693204Y-104178648D01*
X200642409Y-104130674D01*
X200625500Y-104068164D01*
X200625500Y-91360945D01*
X200625500Y-91360943D01*
X200584577Y-91208216D01*
X200584577Y-91208215D01*
X200584577Y-91208214D01*
X200555639Y-91158095D01*
X200555637Y-91158092D01*
X200513835Y-91085687D01*
X200505520Y-91071284D01*
X200393716Y-90959480D01*
X200393715Y-90959479D01*
X200389385Y-90955149D01*
X200389374Y-90955139D01*
X199965066Y-90530831D01*
X199931581Y-90469508D01*
X199930274Y-90423752D01*
X199955500Y-90264486D01*
X199955500Y-90075513D01*
X199925940Y-89888881D01*
X199867545Y-89709163D01*
X199781759Y-89540800D01*
X199670690Y-89387927D01*
X199537073Y-89254310D01*
X199384199Y-89143240D01*
X199215836Y-89057454D01*
X199036118Y-88999059D01*
X198849486Y-88969500D01*
X198849481Y-88969500D01*
X198660519Y-88969500D01*
X198660514Y-88969500D01*
X198473881Y-88999059D01*
X198294163Y-89057454D01*
X198125800Y-89143240D01*
X198038579Y-89206610D01*
X197972927Y-89254310D01*
X197972925Y-89254312D01*
X197972924Y-89254312D01*
X197839312Y-89387924D01*
X197839312Y-89387925D01*
X197839310Y-89387927D01*
X197791610Y-89453579D01*
X197728240Y-89540800D01*
X197642454Y-89709163D01*
X197584059Y-89888881D01*
X197554500Y-90075513D01*
X197554500Y-90264486D01*
X197584059Y-90451118D01*
X197642454Y-90630836D01*
X197728240Y-90799199D01*
X197839310Y-90952073D01*
X197972927Y-91085690D01*
X198125801Y-91196760D01*
X198148283Y-91208215D01*
X198294163Y-91282545D01*
X198294165Y-91282545D01*
X198294168Y-91282547D01*
X198390497Y-91313846D01*
X198473881Y-91340940D01*
X198660514Y-91370500D01*
X198660519Y-91370500D01*
X198849486Y-91370500D01*
X198966017Y-91352042D01*
X199008753Y-91345274D01*
X199078045Y-91354228D01*
X199115831Y-91380066D01*
X199388181Y-91652416D01*
X199421666Y-91713739D01*
X199424500Y-91740097D01*
X199424500Y-96581424D01*
X199404815Y-96648463D01*
X199352011Y-96694218D01*
X199282853Y-96704162D01*
X199244207Y-96691910D01*
X199215836Y-96677455D01*
X199215835Y-96677454D01*
X199215832Y-96677453D01*
X199126611Y-96648463D01*
X199036118Y-96619059D01*
X198849486Y-96589500D01*
X198849481Y-96589500D01*
X198660519Y-96589500D01*
X198660514Y-96589500D01*
X198473881Y-96619059D01*
X198294163Y-96677454D01*
X198125800Y-96763240D01*
X198055032Y-96814657D01*
X197972927Y-96874310D01*
X197972925Y-96874312D01*
X197972924Y-96874312D01*
X197839312Y-97007924D01*
X197839312Y-97007925D01*
X197839310Y-97007927D01*
X197822610Y-97030913D01*
X197728240Y-97160800D01*
X197642454Y-97329163D01*
X197584059Y-97508881D01*
X197554500Y-97695513D01*
X197554500Y-97884486D01*
X197574891Y-98013229D01*
X197565936Y-98082522D01*
X197540099Y-98120308D01*
X194546269Y-101114140D01*
X194459144Y-101201264D01*
X194459138Y-101201272D01*
X194390692Y-101303705D01*
X194390684Y-101303719D01*
X194361042Y-101375284D01*
X194361040Y-101375289D01*
X194357347Y-101384207D01*
X194343537Y-101417548D01*
X194319500Y-101538394D01*
X193345500Y-101538394D01*
X193345500Y-96876284D01*
X193345504Y-96876264D01*
X193345500Y-96814657D01*
X193345500Y-96753094D01*
X193345499Y-96753089D01*
X193345496Y-96753063D01*
X193345496Y-96753051D01*
X193332761Y-96689050D01*
X193332760Y-96689042D01*
X193321461Y-96632237D01*
X193321453Y-96632212D01*
X193311233Y-96607546D01*
X193295314Y-96569122D01*
X193295313Y-96569114D01*
X193295312Y-96569115D01*
X193274306Y-96518403D01*
X193274292Y-96518377D01*
X193240727Y-96468153D01*
X193240721Y-96468144D01*
X193228223Y-96449439D01*
X193205858Y-96415967D01*
X193205855Y-96415964D01*
X193205851Y-96415958D01*
X193205839Y-96415944D01*
X193205832Y-96415937D01*
X193205830Y-96415934D01*
X193168856Y-96378965D01*
X193147373Y-96357482D01*
X193114453Y-96324561D01*
X193114361Y-96324477D01*
X191902338Y-95112618D01*
X191802245Y-95012539D01*
X191768757Y-94951219D01*
X191769269Y-94904592D01*
X191767715Y-94904346D01*
X191794144Y-94737482D01*
X191800500Y-94697352D01*
X191800500Y-94492648D01*
X191779000Y-94356902D01*
X191767715Y-94285654D01*
X191769858Y-94285314D01*
X191772861Y-94224576D01*
X191802303Y-94177645D01*
X192096677Y-93883394D01*
X192096733Y-93883358D01*
X192140616Y-93839474D01*
X192183774Y-93796335D01*
X192183781Y-93796323D01*
X192183847Y-93796243D01*
X192183858Y-93796233D01*
X192218017Y-93745109D01*
X192252250Y-93693901D01*
X192252252Y-93693893D01*
X192252304Y-93693795D01*
X192252311Y-93693786D01*
X192275479Y-93637853D01*
X192299425Y-93580077D01*
X192299425Y-93580074D01*
X192299445Y-93580027D01*
X192299450Y-93580010D01*
X192299460Y-93579958D01*
X192299463Y-93579952D01*
X192307983Y-93537112D01*
X192311493Y-93519470D01*
X192311497Y-93519470D01*
X192311497Y-93519446D01*
X192323487Y-93459237D01*
X192323487Y-93459228D01*
X192323498Y-93459113D01*
X192323500Y-93459106D01*
X192323500Y-93397630D01*
X192323513Y-93336024D01*
X192323500Y-93335958D01*
X192323500Y-81269066D01*
X192323509Y-81269021D01*
X192323500Y-81203790D01*
X192323500Y-81145894D01*
X192323500Y-81145890D01*
X192323492Y-81145815D01*
X192323492Y-81145808D01*
X192311319Y-81084657D01*
X192311316Y-81084639D01*
X192302461Y-81040123D01*
X192299463Y-81025048D01*
X192299460Y-81025042D01*
X192299454Y-81025009D01*
X192299439Y-81024972D01*
X192299438Y-81024971D01*
X192299438Y-81024967D01*
X192276369Y-80969296D01*
X192252311Y-80911214D01*
X192252305Y-80911206D01*
X192252269Y-80911136D01*
X192219318Y-80861837D01*
X192219321Y-80861834D01*
X192219307Y-80861821D01*
X192183858Y-80808767D01*
X192183825Y-80808734D01*
X192183803Y-80808701D01*
X192143417Y-80768326D01*
X192130575Y-80755484D01*
X192092492Y-80717400D01*
X192092330Y-80717253D01*
X192057582Y-80682514D01*
X195240000Y-80682514D01*
X195240000Y-81632500D01*
X196539999Y-81632500D01*
X196514979Y-81692902D01*
X196490000Y-81818481D01*
X196490000Y-81946519D01*
X196514979Y-82072098D01*
X196539999Y-82132500D01*
X195240000Y-82132500D01*
X195240000Y-83082485D01*
X195250493Y-83185189D01*
X195250494Y-83185196D01*
X195305641Y-83351618D01*
X195305643Y-83351623D01*
X195397684Y-83500844D01*
X195521655Y-83624815D01*
X195670876Y-83716856D01*
X195670881Y-83716858D01*
X195837303Y-83772005D01*
X195837310Y-83772006D01*
X195940014Y-83782499D01*
X195940027Y-83782500D01*
X196890000Y-83782500D01*
X196890000Y-82482501D01*
X196950402Y-82507521D01*
X197075981Y-82532500D01*
X197204019Y-82532500D01*
X197329598Y-82507521D01*
X197390000Y-82482501D01*
X197390000Y-83782500D01*
X198339973Y-83782500D01*
X198339985Y-83782499D01*
X198442689Y-83772006D01*
X198442696Y-83772005D01*
X198609118Y-83716858D01*
X198609123Y-83716856D01*
X198758344Y-83624815D01*
X198882315Y-83500844D01*
X198974356Y-83351623D01*
X198974358Y-83351618D01*
X199029505Y-83185196D01*
X199029506Y-83185189D01*
X199039999Y-83082485D01*
X199040000Y-83082472D01*
X199040000Y-82132500D01*
X197740001Y-82132500D01*
X197765021Y-82072098D01*
X197790000Y-81946519D01*
X197790000Y-81818481D01*
X197777958Y-81757941D01*
X200239500Y-81757941D01*
X200239500Y-82007058D01*
X200239501Y-82007075D01*
X200272017Y-82254061D01*
X200336498Y-82494707D01*
X200431830Y-82724861D01*
X200431837Y-82724876D01*
X200556400Y-82940626D01*
X200708060Y-83138274D01*
X200708066Y-83138281D01*
X200884218Y-83314433D01*
X200884225Y-83314439D01*
X201081873Y-83466099D01*
X201297623Y-83590662D01*
X201297638Y-83590669D01*
X201380075Y-83624815D01*
X201527793Y-83686002D01*
X201768435Y-83750482D01*
X202015435Y-83783000D01*
X202015442Y-83783000D01*
X202264558Y-83783000D01*
X202264565Y-83783000D01*
X202511565Y-83750482D01*
X202752207Y-83686002D01*
X202982373Y-83590664D01*
X203198127Y-83466099D01*
X203395776Y-83314438D01*
X203571938Y-83138276D01*
X203723599Y-82940627D01*
X203848164Y-82724873D01*
X203943502Y-82494707D01*
X203957166Y-82443713D01*
X206294500Y-82443713D01*
X206294500Y-82656286D01*
X206305363Y-82724876D01*
X206327754Y-82866243D01*
X206383997Y-83039341D01*
X206393444Y-83068414D01*
X206489951Y-83257820D01*
X206614890Y-83429786D01*
X206765213Y-83580109D01*
X206937179Y-83705048D01*
X206937181Y-83705049D01*
X206937184Y-83705051D01*
X207126588Y-83801557D01*
X207328757Y-83867246D01*
X207538713Y-83900500D01*
X207538714Y-83900500D01*
X207751286Y-83900500D01*
X207751287Y-83900500D01*
X207961243Y-83867246D01*
X208163412Y-83801557D01*
X208352816Y-83705051D01*
X208379036Y-83686001D01*
X208524786Y-83580109D01*
X208524788Y-83580106D01*
X208524792Y-83580104D01*
X208675104Y-83429792D01*
X208675106Y-83429788D01*
X208675109Y-83429786D01*
X208800048Y-83257820D01*
X208800047Y-83257820D01*
X208800051Y-83257816D01*
X208896557Y-83068412D01*
X208962246Y-82866243D01*
X208995500Y-82656287D01*
X208995500Y-82443713D01*
X208962246Y-82233757D01*
X208896557Y-82031588D01*
X208800051Y-81842184D01*
X208800049Y-81842181D01*
X208800048Y-81842179D01*
X208675109Y-81670213D01*
X208561181Y-81556285D01*
X208527696Y-81494962D01*
X208532680Y-81425270D01*
X208574552Y-81369337D01*
X208605529Y-81352422D01*
X208737086Y-81303354D01*
X208737093Y-81303350D01*
X208852187Y-81217190D01*
X208852190Y-81217187D01*
X208938350Y-81102093D01*
X208938354Y-81102086D01*
X208988596Y-80967379D01*
X208988598Y-80967372D01*
X208994999Y-80907844D01*
X208995000Y-80907827D01*
X208995000Y-80260000D01*
X208078012Y-80260000D01*
X208110925Y-80202993D01*
X208145000Y-80075826D01*
X208145000Y-79944174D01*
X208110925Y-79817007D01*
X208078012Y-79760000D01*
X208995000Y-79760000D01*
X208995000Y-79112172D01*
X208994999Y-79112155D01*
X208988598Y-79052627D01*
X208988596Y-79052620D01*
X208938354Y-78917913D01*
X208938350Y-78917906D01*
X208852190Y-78802812D01*
X208852187Y-78802809D01*
X208737093Y-78716649D01*
X208737086Y-78716645D01*
X208602379Y-78666403D01*
X208602372Y-78666401D01*
X208542844Y-78660000D01*
X207895000Y-78660000D01*
X207895000Y-79576988D01*
X207837993Y-79544075D01*
X207710826Y-79510000D01*
X207579174Y-79510000D01*
X207452007Y-79544075D01*
X207395000Y-79576988D01*
X207395000Y-78660000D01*
X206747155Y-78660000D01*
X206687627Y-78666401D01*
X206687620Y-78666403D01*
X206552913Y-78716645D01*
X206552906Y-78716649D01*
X206437812Y-78802809D01*
X206437809Y-78802812D01*
X206351649Y-78917906D01*
X206351645Y-78917913D01*
X206301403Y-79052620D01*
X206301401Y-79052627D01*
X206295000Y-79112155D01*
X206295000Y-79760000D01*
X207211988Y-79760000D01*
X207179075Y-79817007D01*
X207145000Y-79944174D01*
X207145000Y-80075826D01*
X207179075Y-80202993D01*
X207211988Y-80260000D01*
X206295000Y-80260000D01*
X206295000Y-80907844D01*
X206301401Y-80967372D01*
X206301403Y-80967379D01*
X206351645Y-81102086D01*
X206351649Y-81102093D01*
X206437809Y-81217187D01*
X206437812Y-81217190D01*
X206552906Y-81303350D01*
X206552913Y-81303354D01*
X206684470Y-81352422D01*
X206740404Y-81394293D01*
X206764821Y-81459758D01*
X206749969Y-81528031D01*
X206728819Y-81556285D01*
X206614889Y-81670215D01*
X206489951Y-81842179D01*
X206393444Y-82031585D01*
X206327753Y-82233760D01*
X206294500Y-82443713D01*
X203957166Y-82443713D01*
X204007982Y-82254065D01*
X204040500Y-82007065D01*
X204040500Y-81757935D01*
X204007982Y-81510935D01*
X203943502Y-81270293D01*
X203866609Y-81084657D01*
X203848169Y-81040138D01*
X203848162Y-81040123D01*
X203723599Y-80824373D01*
X203571939Y-80626725D01*
X203571933Y-80626718D01*
X203395781Y-80450566D01*
X203395774Y-80450560D01*
X203198126Y-80298900D01*
X202982376Y-80174337D01*
X202982361Y-80174330D01*
X202752207Y-80078998D01*
X202511561Y-80014517D01*
X202264575Y-79982001D01*
X202264570Y-79982000D01*
X202264565Y-79982000D01*
X202015435Y-79982000D01*
X202015429Y-79982000D01*
X202015424Y-79982001D01*
X201768438Y-80014517D01*
X201527792Y-80078998D01*
X201297638Y-80174330D01*
X201297623Y-80174337D01*
X201081873Y-80298900D01*
X200884225Y-80450560D01*
X200884218Y-80450566D01*
X200708066Y-80626718D01*
X200708060Y-80626725D01*
X200556400Y-80824373D01*
X200431837Y-81040123D01*
X200431830Y-81040138D01*
X200336498Y-81270292D01*
X200272017Y-81510938D01*
X200239501Y-81757924D01*
X200239500Y-81757941D01*
X197777958Y-81757941D01*
X197765021Y-81692902D01*
X197740001Y-81632500D01*
X199040000Y-81632500D01*
X199040000Y-80682527D01*
X199039999Y-80682514D01*
X199029506Y-80579810D01*
X199029505Y-80579803D01*
X198974358Y-80413381D01*
X198974356Y-80413376D01*
X198882315Y-80264155D01*
X198758344Y-80140184D01*
X198609123Y-80048143D01*
X198609118Y-80048141D01*
X198442696Y-79992994D01*
X198442689Y-79992993D01*
X198339985Y-79982500D01*
X197390000Y-79982500D01*
X197390000Y-81282498D01*
X197329598Y-81257479D01*
X197204019Y-81232500D01*
X197075981Y-81232500D01*
X196950402Y-81257479D01*
X196890000Y-81282498D01*
X196890000Y-79982500D01*
X195940014Y-79982500D01*
X195837310Y-79992993D01*
X195837303Y-79992994D01*
X195670881Y-80048141D01*
X195670876Y-80048143D01*
X195521655Y-80140184D01*
X195397684Y-80264155D01*
X195305643Y-80413376D01*
X195305641Y-80413381D01*
X195250494Y-80579803D01*
X195250493Y-80579810D01*
X195240000Y-80682514D01*
X192057582Y-80682514D01*
X191207500Y-79832664D01*
X191174006Y-79771346D01*
X191177240Y-79706648D01*
X191178428Y-79702993D01*
X191182246Y-79691243D01*
X191215500Y-79481287D01*
X191215500Y-79268713D01*
X191206286Y-79210536D01*
X191193253Y-79128248D01*
X191182246Y-79058759D01*
X191182246Y-79058757D01*
X191116557Y-78856588D01*
X191020051Y-78667184D01*
X191020049Y-78667181D01*
X191020048Y-78667179D01*
X190895109Y-78495213D01*
X190744786Y-78344890D01*
X190572820Y-78219951D01*
X190383414Y-78123444D01*
X190383413Y-78123443D01*
X190383412Y-78123443D01*
X190181243Y-78057754D01*
X190181241Y-78057753D01*
X190181240Y-78057753D01*
X190019957Y-78032208D01*
X189971287Y-78024500D01*
X189758713Y-78024500D01*
X189710042Y-78032208D01*
X189548760Y-78057753D01*
X189346585Y-78123444D01*
X189157179Y-78219951D01*
X188985213Y-78344890D01*
X188834890Y-78495213D01*
X188709951Y-78667179D01*
X188613444Y-78856585D01*
X188547753Y-79058760D01*
X188514500Y-79268713D01*
X188514500Y-79481286D01*
X188534870Y-79609901D01*
X188547754Y-79691243D01*
X188588617Y-79817007D01*
X188613444Y-79893414D01*
X188709951Y-80082820D01*
X188834890Y-80254786D01*
X188985213Y-80405109D01*
X189157182Y-80530050D01*
X189165946Y-80534516D01*
X189216742Y-80582491D01*
X189233536Y-80650312D01*
X189210998Y-80716447D01*
X189165946Y-80755484D01*
X189157182Y-80759949D01*
X188985213Y-80884890D01*
X188834890Y-81035213D01*
X188709951Y-81207179D01*
X188613444Y-81396585D01*
X188547753Y-81598760D01*
X188514500Y-81808713D01*
X188514500Y-82021286D01*
X188532114Y-82132500D01*
X188547754Y-82231243D01*
X188604779Y-82406748D01*
X188613444Y-82433414D01*
X188709951Y-82622820D01*
X188834890Y-82794786D01*
X188948430Y-82908326D01*
X188981915Y-82969649D01*
X188976931Y-83039341D01*
X188935059Y-83095274D01*
X188904083Y-83112189D01*
X188772669Y-83161203D01*
X188772664Y-83161206D01*
X188657455Y-83247452D01*
X188657452Y-83247455D01*
X188571206Y-83362664D01*
X188571202Y-83362671D01*
X188520908Y-83497517D01*
X188514501Y-83557116D01*
X188514500Y-83557135D01*
X188514500Y-85352870D01*
X188514501Y-85352876D01*
X188520908Y-85412483D01*
X188571202Y-85547328D01*
X188571206Y-85547335D01*
X188657452Y-85662544D01*
X188657455Y-85662547D01*
X188772664Y-85748793D01*
X188772671Y-85748797D01*
X188907517Y-85799091D01*
X188907516Y-85799091D01*
X188914444Y-85799835D01*
X188967127Y-85805500D01*
X190762872Y-85805499D01*
X190822483Y-85799091D01*
X190905167Y-85768252D01*
X190974859Y-85763268D01*
X191036182Y-85796753D01*
X191069666Y-85858076D01*
X191072500Y-85884434D01*
X191072500Y-90743444D01*
X191052815Y-90810483D01*
X191000011Y-90856238D01*
X190930853Y-90866182D01*
X190910181Y-90861375D01*
X190804417Y-90827009D01*
X190602317Y-90795000D01*
X190397683Y-90795000D01*
X190195582Y-90827009D01*
X190000968Y-90890244D01*
X189818644Y-90983143D01*
X189774077Y-91015523D01*
X189774077Y-91015524D01*
X190453553Y-91695000D01*
X190447339Y-91695000D01*
X190345606Y-91722259D01*
X190254394Y-91774920D01*
X190179920Y-91849394D01*
X190127259Y-91940606D01*
X190100000Y-92042339D01*
X190100000Y-92048553D01*
X189420524Y-91369077D01*
X189420523Y-91369077D01*
X189388143Y-91413644D01*
X189295244Y-91595968D01*
X189232009Y-91790582D01*
X189200000Y-91992682D01*
X189200000Y-92197317D01*
X189232009Y-92399417D01*
X189295244Y-92594031D01*
X189388141Y-92776350D01*
X189388147Y-92776359D01*
X189420523Y-92820921D01*
X189420524Y-92820922D01*
X190100000Y-92141446D01*
X190100000Y-92147661D01*
X190127259Y-92249394D01*
X190179920Y-92340606D01*
X190254394Y-92415080D01*
X190345606Y-92467741D01*
X190447339Y-92495000D01*
X190453552Y-92495000D01*
X189774076Y-93174474D01*
X189818652Y-93206861D01*
X189872376Y-93234234D01*
X189923172Y-93282208D01*
X189939968Y-93350028D01*
X189917431Y-93416164D01*
X189872379Y-93455203D01*
X189818386Y-93482714D01*
X189652786Y-93603028D01*
X189508028Y-93747786D01*
X189387715Y-93913386D01*
X189294781Y-94095776D01*
X189231522Y-94290465D01*
X189207686Y-94440962D01*
X189199500Y-94492648D01*
X189199500Y-94697352D01*
X189203878Y-94724995D01*
X189231522Y-94899534D01*
X189294781Y-95094223D01*
X189387715Y-95276613D01*
X189508028Y-95442213D01*
X189652786Y-95586971D01*
X189794748Y-95690110D01*
X189818390Y-95707287D01*
X189926787Y-95762518D01*
X190000776Y-95800218D01*
X190000778Y-95800218D01*
X190000781Y-95800220D01*
X190105137Y-95834127D01*
X190195465Y-95863477D01*
X190296557Y-95879488D01*
X190397648Y-95895500D01*
X190397649Y-95895500D01*
X190602351Y-95895500D01*
X190602352Y-95895500D01*
X190671371Y-95884568D01*
X190809347Y-95862715D01*
X190809668Y-95864747D01*
X190870803Y-95867767D01*
X190917713Y-95897187D01*
X192058176Y-97037495D01*
X192091664Y-97098814D01*
X192094500Y-97125180D01*
X192094500Y-102031570D01*
X192074815Y-102098609D01*
X192022011Y-102144364D01*
X191952853Y-102154308D01*
X191893188Y-102128517D01*
X191691405Y-101967601D01*
X191691403Y-101967600D01*
X191438474Y-101808674D01*
X191169353Y-101679072D01*
X190887415Y-101580417D01*
X190887403Y-101580413D01*
X190662653Y-101529115D01*
X190596185Y-101513945D01*
X190596181Y-101513944D01*
X190596172Y-101513943D01*
X190299358Y-101480500D01*
X190299354Y-101480500D01*
X190000646Y-101480500D01*
X190000641Y-101480500D01*
X189703827Y-101513943D01*
X189703815Y-101513945D01*
X189412596Y-101580413D01*
X189412584Y-101580417D01*
X189130646Y-101679072D01*
X188861525Y-101808674D01*
X188608596Y-101967600D01*
X188608594Y-101967601D01*
X188375065Y-102153833D01*
X188163833Y-102365065D01*
X187977601Y-102598594D01*
X187977600Y-102598596D01*
X187818674Y-102851525D01*
X187689072Y-103120646D01*
X187590417Y-103402584D01*
X187590413Y-103402596D01*
X187523945Y-103693815D01*
X187523943Y-103693827D01*
X187490500Y-103990641D01*
X186808997Y-103990641D01*
X186775564Y-103693913D01*
X186775561Y-103693899D01*
X186709105Y-103402734D01*
X186709101Y-103402722D01*
X186610465Y-103120837D01*
X186480887Y-102851767D01*
X186321994Y-102598889D01*
X186198953Y-102444599D01*
X185371656Y-103271895D01*
X185293068Y-103163728D01*
X185126272Y-102996932D01*
X185018102Y-102918341D01*
X185845399Y-102091045D01*
X185691110Y-101968005D01*
X185438232Y-101809112D01*
X185169162Y-101679534D01*
X184887277Y-101580898D01*
X184887265Y-101580894D01*
X184596100Y-101514438D01*
X184596086Y-101514435D01*
X184299332Y-101481000D01*
X184096529Y-101481000D01*
X184029490Y-101461315D01*
X183983735Y-101408511D01*
X183973791Y-101339353D01*
X184002816Y-101275797D01*
X184008827Y-101269339D01*
X187869601Y-97408434D01*
X187957520Y-97320516D01*
X187966974Y-97304142D01*
X187969218Y-97300252D01*
X188031595Y-97192212D01*
X188035959Y-97185888D01*
X188036576Y-97183585D01*
X188036577Y-97183584D01*
X188036577Y-97183580D01*
X188036578Y-97183575D01*
X188036580Y-97183575D01*
X188076042Y-97036297D01*
X188077268Y-97031721D01*
X188077491Y-97030913D01*
X188077497Y-97030865D01*
X188077500Y-97030857D01*
X188077500Y-97030854D01*
X188077502Y-97030847D01*
X188077500Y-96925437D01*
X188077500Y-88430620D01*
X188077507Y-88338387D01*
X188077500Y-88338360D01*
X188077500Y-88338343D01*
X188059368Y-88270676D01*
X188059368Y-88270675D01*
X188059368Y-88270674D01*
X188059365Y-88270666D01*
X188036594Y-88185657D01*
X188036590Y-88185651D01*
X188036585Y-88185630D01*
X188036271Y-88185085D01*
X188036269Y-88185082D01*
X187995673Y-88114768D01*
X187995668Y-88114759D01*
X187957546Y-88048719D01*
X187957520Y-88048684D01*
X187897039Y-87988203D01*
X187897034Y-87988195D01*
X187897033Y-87988197D01*
X185995042Y-86085923D01*
X185961563Y-86024599D01*
X185960258Y-85978854D01*
X185975213Y-85884434D01*
X185985500Y-85819485D01*
X185985500Y-85630513D01*
X185955940Y-85443881D01*
X185897545Y-85264163D01*
X185811759Y-85095800D01*
X185793500Y-85070669D01*
X185700690Y-84942927D01*
X185567073Y-84809310D01*
X185414199Y-84698240D01*
X185245836Y-84612454D01*
X185066118Y-84554059D01*
X184879486Y-84524500D01*
X184879481Y-84524500D01*
X184690519Y-84524500D01*
X184690514Y-84524500D01*
X184503881Y-84554059D01*
X184324163Y-84612454D01*
X184155800Y-84698240D01*
X184068579Y-84761610D01*
X184002927Y-84809310D01*
X184002925Y-84809312D01*
X184002924Y-84809312D01*
X183869312Y-84942924D01*
X183869312Y-84942925D01*
X183869310Y-84942927D01*
X183821610Y-85008579D01*
X183758240Y-85095800D01*
X183672454Y-85264163D01*
X183614059Y-85443881D01*
X183584500Y-85630513D01*
X183584500Y-85819486D01*
X183614059Y-86006118D01*
X183672454Y-86185836D01*
X183758107Y-86353937D01*
X183758240Y-86354199D01*
X183869310Y-86507073D01*
X184002927Y-86640690D01*
X184155801Y-86751760D01*
X184235347Y-86792290D01*
X184324163Y-86837545D01*
X184324165Y-86837545D01*
X184324168Y-86837547D01*
X184420497Y-86868846D01*
X184503881Y-86895940D01*
X184690514Y-86925500D01*
X184690519Y-86925500D01*
X184879485Y-86925500D01*
X184960979Y-86912592D01*
X185038651Y-86900290D01*
X185107943Y-86909244D01*
X185145735Y-86935087D01*
X186840188Y-88629791D01*
X186873668Y-88691116D01*
X186876500Y-88717465D01*
X186876500Y-96651708D01*
X186856815Y-96718747D01*
X186840183Y-96739388D01*
X181194163Y-102385599D01*
X181194160Y-102385602D01*
X181188378Y-102391385D01*
X181129480Y-102450284D01*
X181129477Y-102450288D01*
X181129474Y-102450292D01*
X181087107Y-102523676D01*
X181083076Y-102530656D01*
X181083072Y-102530663D01*
X181052415Y-102583763D01*
X181050983Y-102586068D01*
X181050421Y-102587216D01*
X181050417Y-102587229D01*
X181021758Y-102694194D01*
X181021758Y-102694195D01*
X181009500Y-102739943D01*
X181009500Y-102739945D01*
X181009498Y-102739953D01*
X181009498Y-102740396D01*
X181009498Y-102740397D01*
X181009500Y-102819074D01*
X181009500Y-113486742D01*
X180989815Y-113553781D01*
X180941795Y-113597227D01*
X180848461Y-113644783D01*
X180665759Y-113777525D01*
X180599952Y-113801005D01*
X180531898Y-113785180D01*
X180483203Y-113735074D01*
X180476690Y-113720538D01*
X180472925Y-113710444D01*
X180466296Y-113692669D01*
X180466293Y-113692664D01*
X180380047Y-113577455D01*
X180380044Y-113577452D01*
X180264835Y-113491206D01*
X180264828Y-113491202D01*
X180129982Y-113440908D01*
X180129983Y-113440908D01*
X180070383Y-113434501D01*
X180070381Y-113434500D01*
X180070373Y-113434500D01*
X180070365Y-113434500D01*
X178141500Y-113434500D01*
X178074461Y-113414815D01*
X178028706Y-113362011D01*
X178017500Y-113310500D01*
X178017500Y-95506845D01*
X178037185Y-95439806D01*
X178089989Y-95394051D01*
X178159147Y-95384107D01*
X178222703Y-95413132D01*
X178260477Y-95471910D01*
X178263973Y-95487447D01*
X178287778Y-95637746D01*
X178287778Y-95637749D01*
X178358450Y-95855255D01*
X178378956Y-95895500D01*
X178462283Y-96059038D01*
X178596714Y-96244066D01*
X178758434Y-96405786D01*
X178943462Y-96540217D01*
X179124005Y-96632208D01*
X179147244Y-96644049D01*
X179364751Y-96714721D01*
X179364752Y-96714721D01*
X179364755Y-96714722D01*
X179590646Y-96750500D01*
X179590647Y-96750500D01*
X179819353Y-96750500D01*
X179819354Y-96750500D01*
X180045245Y-96714722D01*
X180045248Y-96714721D01*
X180045249Y-96714721D01*
X180262755Y-96644049D01*
X180262755Y-96644048D01*
X180262758Y-96644048D01*
X180466538Y-96540217D01*
X180651566Y-96405786D01*
X180813286Y-96244066D01*
X180874992Y-96159134D01*
X180930319Y-96116470D01*
X180999932Y-96110491D01*
X181061727Y-96143096D01*
X181075626Y-96159135D01*
X181137097Y-96243741D01*
X181137097Y-96243742D01*
X181298757Y-96405402D01*
X181483723Y-96539788D01*
X181687429Y-96643582D01*
X181904871Y-96714234D01*
X181995000Y-96728509D01*
X181995000Y-95740747D01*
X182032708Y-95762518D01*
X182172591Y-95800000D01*
X182317409Y-95800000D01*
X182457292Y-95762518D01*
X182495000Y-95740747D01*
X182495000Y-96728508D01*
X182585128Y-96714234D01*
X182802570Y-96643582D01*
X183006276Y-96539788D01*
X183189059Y-96406988D01*
X183254865Y-96383508D01*
X183322919Y-96399333D01*
X183371614Y-96449439D01*
X183378127Y-96463974D01*
X183388701Y-96492326D01*
X183388706Y-96492335D01*
X183474952Y-96607544D01*
X183474955Y-96607547D01*
X183590164Y-96693793D01*
X183590171Y-96693797D01*
X183725017Y-96744091D01*
X183725016Y-96744091D01*
X183731944Y-96744835D01*
X183784627Y-96750500D01*
X185785372Y-96750499D01*
X185844983Y-96744091D01*
X185979831Y-96693796D01*
X186095046Y-96607546D01*
X186181296Y-96492331D01*
X186231591Y-96357483D01*
X186238000Y-96297873D01*
X186237999Y-94202128D01*
X186231591Y-94142517D01*
X186221841Y-94116377D01*
X186181297Y-94007671D01*
X186181293Y-94007664D01*
X186095047Y-93892455D01*
X186095044Y-93892452D01*
X185979835Y-93806206D01*
X185979828Y-93806202D01*
X185844982Y-93755908D01*
X185844983Y-93755908D01*
X185785383Y-93749501D01*
X185785381Y-93749500D01*
X185785373Y-93749500D01*
X185785364Y-93749500D01*
X183784629Y-93749500D01*
X183784623Y-93749501D01*
X183725016Y-93755908D01*
X183590171Y-93806202D01*
X183590164Y-93806206D01*
X183474955Y-93892452D01*
X183474952Y-93892455D01*
X183388706Y-94007664D01*
X183388702Y-94007671D01*
X183378127Y-94036026D01*
X183336256Y-94091960D01*
X183270791Y-94116377D01*
X183202518Y-94101525D01*
X183189060Y-94093011D01*
X183006279Y-93960213D01*
X182802568Y-93856417D01*
X182585124Y-93785765D01*
X182495000Y-93771490D01*
X182495000Y-94759252D01*
X182457292Y-94737482D01*
X182317409Y-94700000D01*
X182172591Y-94700000D01*
X182032708Y-94737482D01*
X181995000Y-94759252D01*
X181995000Y-93771490D01*
X181994999Y-93771490D01*
X181904875Y-93785765D01*
X181687431Y-93856417D01*
X181483723Y-93960211D01*
X181298757Y-94094597D01*
X181137097Y-94256257D01*
X181075627Y-94340864D01*
X181020297Y-94383529D01*
X180950684Y-94389508D01*
X180888889Y-94356902D01*
X180874991Y-94340864D01*
X180813286Y-94255934D01*
X180651566Y-94094214D01*
X180466538Y-93959783D01*
X180375479Y-93913386D01*
X180262755Y-93855950D01*
X180045248Y-93785278D01*
X179859812Y-93755908D01*
X179819354Y-93749500D01*
X179590646Y-93749500D01*
X179550188Y-93755908D01*
X179364753Y-93785278D01*
X179364750Y-93785278D01*
X179147244Y-93855950D01*
X178943461Y-93959783D01*
X178877550Y-94007671D01*
X178758434Y-94094214D01*
X178758432Y-94094216D01*
X178758431Y-94094216D01*
X178596716Y-94255931D01*
X178596716Y-94255932D01*
X178596714Y-94255934D01*
X178575368Y-94285314D01*
X178462283Y-94440961D01*
X178358450Y-94644744D01*
X178287778Y-94862250D01*
X178287778Y-94862253D01*
X178263973Y-95012552D01*
X178234044Y-95075687D01*
X178174732Y-95112618D01*
X178104870Y-95111620D01*
X178046637Y-95073010D01*
X178018523Y-95009046D01*
X178017500Y-94993154D01*
X178017500Y-87019017D01*
X178037185Y-86951978D01*
X178089989Y-86906223D01*
X178159147Y-86896279D01*
X178160899Y-86896544D01*
X178340554Y-86925000D01*
X178529447Y-86925000D01*
X178716002Y-86895451D01*
X178895637Y-86837085D01*
X179063937Y-86751331D01*
X179089328Y-86732883D01*
X179089328Y-86732882D01*
X178431446Y-86075000D01*
X178481078Y-86075000D01*
X178570095Y-86051148D01*
X178649905Y-86005070D01*
X178715070Y-85939905D01*
X178761148Y-85860095D01*
X178785000Y-85771078D01*
X178785000Y-85724999D01*
X178788554Y-85724999D01*
X178788554Y-85725000D01*
X179442882Y-86379328D01*
X179442883Y-86379328D01*
X179461331Y-86353937D01*
X179547085Y-86185637D01*
X179605451Y-86006002D01*
X179635000Y-85819447D01*
X179635000Y-85630552D01*
X179605451Y-85443997D01*
X179547085Y-85264362D01*
X179461329Y-85096059D01*
X179442883Y-85070670D01*
X179442882Y-85070669D01*
X178788554Y-85724999D01*
X178785000Y-85724999D01*
X178785000Y-85678922D01*
X178761148Y-85589905D01*
X178715070Y-85510095D01*
X178649905Y-85444930D01*
X178570095Y-85398852D01*
X178481078Y-85375000D01*
X178431444Y-85375000D01*
X179089328Y-84717116D01*
X179063933Y-84698666D01*
X178895637Y-84612914D01*
X178716002Y-84554548D01*
X178529447Y-84525000D01*
X178340553Y-84525000D01*
X178160898Y-84553455D01*
X178091605Y-84544501D01*
X178038153Y-84499504D01*
X178017513Y-84432753D01*
X178017500Y-84430982D01*
X178017500Y-79423016D01*
X178026144Y-79393576D01*
X178032669Y-79363586D01*
X178036423Y-79358571D01*
X178037185Y-79355977D01*
X178053821Y-79335333D01*
X178074104Y-79315051D01*
X178135426Y-79281569D01*
X178181177Y-79280263D01*
X178253038Y-79291644D01*
X178340515Y-79305500D01*
X178340519Y-79305500D01*
X178529486Y-79305500D01*
X178716118Y-79275940D01*
X178746808Y-79265968D01*
X178895832Y-79217547D01*
X179064199Y-79131760D01*
X179217073Y-79020690D01*
X179350690Y-78887073D01*
X179461760Y-78734199D01*
X179547547Y-78565832D01*
X179605940Y-78386118D01*
X179612470Y-78344890D01*
X179635500Y-78199486D01*
X179635500Y-78010513D01*
X183584500Y-78010513D01*
X183584500Y-78199486D01*
X183614059Y-78386118D01*
X183672454Y-78565836D01*
X183724094Y-78667184D01*
X183758240Y-78734199D01*
X183869310Y-78887073D01*
X184002927Y-79020690D01*
X184155801Y-79131760D01*
X184235347Y-79172290D01*
X184324163Y-79217545D01*
X184324165Y-79217545D01*
X184324168Y-79217547D01*
X184420497Y-79248846D01*
X184503881Y-79275940D01*
X184690514Y-79305500D01*
X184690519Y-79305500D01*
X184879486Y-79305500D01*
X185066118Y-79275940D01*
X185096808Y-79265968D01*
X185245832Y-79217547D01*
X185414199Y-79131760D01*
X185567073Y-79020690D01*
X185700690Y-78887073D01*
X185811760Y-78734199D01*
X185897547Y-78565832D01*
X185955940Y-78386118D01*
X185962470Y-78344890D01*
X185985500Y-78199486D01*
X185985500Y-78010513D01*
X185955940Y-77823881D01*
X185897545Y-77644163D01*
X185811759Y-77475800D01*
X185700690Y-77322927D01*
X185567073Y-77189310D01*
X185414199Y-77078240D01*
X185245836Y-76992454D01*
X185066118Y-76934059D01*
X184879486Y-76904500D01*
X184879481Y-76904500D01*
X184690519Y-76904500D01*
X184690514Y-76904500D01*
X184503881Y-76934059D01*
X184324163Y-76992454D01*
X184155800Y-77078240D01*
X184068579Y-77141610D01*
X184002927Y-77189310D01*
X184002925Y-77189312D01*
X184002924Y-77189312D01*
X183869312Y-77322924D01*
X183869312Y-77322925D01*
X183869310Y-77322927D01*
X183821610Y-77388579D01*
X183758240Y-77475800D01*
X183672454Y-77644163D01*
X183614059Y-77823881D01*
X183584500Y-78010513D01*
X179635500Y-78010513D01*
X179605940Y-77823881D01*
X179547545Y-77644163D01*
X179461759Y-77475800D01*
X179350690Y-77322927D01*
X179217073Y-77189310D01*
X179064199Y-77078240D01*
X178895836Y-76992454D01*
X178716118Y-76934059D01*
X178529486Y-76904500D01*
X178529481Y-76904500D01*
X178340519Y-76904500D01*
X178340514Y-76904500D01*
X178153881Y-76934059D01*
X177974163Y-76992454D01*
X177805800Y-77078240D01*
X177718579Y-77141610D01*
X177652927Y-77189310D01*
X177652925Y-77189312D01*
X177652924Y-77189312D01*
X177519312Y-77322924D01*
X177519312Y-77322925D01*
X177519310Y-77322927D01*
X177471610Y-77388579D01*
X177408240Y-77475800D01*
X177322454Y-77644163D01*
X177264059Y-77823881D01*
X177234500Y-78010513D01*
X177234500Y-78199486D01*
X177259714Y-78358684D01*
X177259012Y-78364111D01*
X177260926Y-78369242D01*
X177254581Y-78398397D01*
X177250759Y-78427978D01*
X177246924Y-78433584D01*
X177246070Y-78437514D01*
X177224918Y-78465768D01*
X177053288Y-78637381D01*
X177053228Y-78637435D01*
X176977582Y-78713081D01*
X176977580Y-78713082D01*
X176936500Y-78754160D01*
X176936479Y-78754184D01*
X176898061Y-78820729D01*
X176898058Y-78820734D01*
X176857429Y-78891097D01*
X176857426Y-78891105D01*
X176838132Y-78963112D01*
X176838130Y-78963119D01*
X176816501Y-79043818D01*
X176816500Y-79043825D01*
X176816500Y-79111581D01*
X176816496Y-79210536D01*
X176816500Y-79210593D01*
X176816500Y-115719330D01*
X176816499Y-115719348D01*
X176816499Y-115885054D01*
X176816498Y-115885054D01*
X176857423Y-116037785D01*
X176886358Y-116087900D01*
X176886359Y-116087904D01*
X176886360Y-116087904D01*
X176936479Y-116174714D01*
X176936481Y-116174717D01*
X177055349Y-116293585D01*
X177055355Y-116293590D01*
X177331139Y-116569374D01*
X177331149Y-116569385D01*
X177335479Y-116573715D01*
X177335480Y-116573716D01*
X177447284Y-116685520D01*
X177534095Y-116735639D01*
X177534097Y-116735641D01*
X177579410Y-116761803D01*
X177584215Y-116764577D01*
X177736942Y-116805500D01*
X177736943Y-116805500D01*
X178363939Y-116805500D01*
X178363943Y-116805501D01*
X178522057Y-116805501D01*
X178522061Y-116805500D01*
X179149057Y-116805500D01*
X179301784Y-116764577D01*
X179438716Y-116685520D01*
X179550520Y-116573716D01*
X179594524Y-116497499D01*
X179645091Y-116449284D01*
X179701911Y-116435499D01*
X180070371Y-116435499D01*
X180070372Y-116435499D01*
X180129983Y-116429091D01*
X180264831Y-116378796D01*
X180380046Y-116292546D01*
X180466296Y-116177331D01*
X180476690Y-116149460D01*
X180518560Y-116093527D01*
X180584023Y-116069108D01*
X180652297Y-116083958D01*
X180665746Y-116092465D01*
X180778955Y-116174717D01*
X180848457Y-116225214D01*
X180848459Y-116225215D01*
X180848462Y-116225217D01*
X180941795Y-116272772D01*
X180992590Y-116320745D01*
X181009500Y-116383256D01*
X181009500Y-122419691D01*
X180989815Y-122486730D01*
X180937011Y-122532485D01*
X180867853Y-122542429D01*
X180804297Y-122513404D01*
X180785183Y-122492577D01*
X180764476Y-122464077D01*
X180764474Y-122464076D01*
X180085000Y-123143551D01*
X180085000Y-123137339D01*
X180057741Y-123035606D01*
X180005080Y-122944394D01*
X179930606Y-122869920D01*
X179839394Y-122817259D01*
X179737661Y-122790000D01*
X179731446Y-122790000D01*
X180410922Y-122110524D01*
X180410921Y-122110523D01*
X180366359Y-122078147D01*
X180366350Y-122078141D01*
X180184031Y-121985244D01*
X179989417Y-121922009D01*
X179787317Y-121890000D01*
X179582683Y-121890000D01*
X179380582Y-121922009D01*
X179185968Y-121985244D01*
X179003644Y-122078143D01*
X178959077Y-122110523D01*
X178959077Y-122110524D01*
X179638554Y-122790000D01*
X179632339Y-122790000D01*
X179530606Y-122817259D01*
X179439394Y-122869920D01*
X179364920Y-122944394D01*
X179312259Y-123035606D01*
X179285000Y-123137339D01*
X179285000Y-123143553D01*
X178605524Y-122464077D01*
X178605523Y-122464077D01*
X178573143Y-122508644D01*
X178545765Y-122562378D01*
X178497790Y-122613174D01*
X178429969Y-122629969D01*
X178363834Y-122607431D01*
X178324795Y-122562378D01*
X178297287Y-122508390D01*
X178297285Y-122508387D01*
X178297284Y-122508385D01*
X178176971Y-122342786D01*
X178032213Y-122198028D01*
X177866613Y-122077715D01*
X177866612Y-122077714D01*
X177866610Y-122077713D01*
X177809653Y-122048691D01*
X177684223Y-121984781D01*
X177489534Y-121921522D01*
X177314995Y-121893878D01*
X177287352Y-121889500D01*
X177082648Y-121889500D01*
X177058329Y-121893351D01*
X176880465Y-121921522D01*
X176685776Y-121984781D01*
X176503390Y-122077712D01*
X176338385Y-122197595D01*
X176272578Y-122221074D01*
X176204525Y-122205248D01*
X176155830Y-122155142D01*
X176141500Y-122097276D01*
X176141500Y-76531000D01*
X176161185Y-76463961D01*
X176213989Y-76418206D01*
X176265500Y-76407000D01*
X209179500Y-76407000D01*
X209246539Y-76426685D01*
G37*
%TD.AperFunction*%
%TA.AperFunction,Conductor*%
G36*
X179285000Y-123242661D02*
G01*
X179312259Y-123344394D01*
X179364920Y-123435606D01*
X179439394Y-123510080D01*
X179530606Y-123562741D01*
X179632339Y-123590000D01*
X179638553Y-123590000D01*
X178959076Y-124269474D01*
X179003650Y-124301859D01*
X179185968Y-124394755D01*
X179380582Y-124457990D01*
X179582683Y-124490000D01*
X179787317Y-124490000D01*
X179989417Y-124457990D01*
X180184031Y-124394755D01*
X180366349Y-124301859D01*
X180410921Y-124269474D01*
X179731447Y-123590000D01*
X179737661Y-123590000D01*
X179839394Y-123562741D01*
X179930606Y-123510080D01*
X180005080Y-123435606D01*
X180057741Y-123344394D01*
X180085000Y-123242661D01*
X180085000Y-123236447D01*
X180764474Y-123915921D01*
X180785183Y-123887420D01*
X180840513Y-123844755D01*
X180910127Y-123838777D01*
X180971921Y-123871384D01*
X181006278Y-123932223D01*
X181009500Y-123960307D01*
X181009500Y-124814902D01*
X180989815Y-124881941D01*
X180973181Y-124902583D01*
X177629842Y-128245921D01*
X177568519Y-128279406D01*
X177503848Y-128276173D01*
X177489534Y-128271522D01*
X177314995Y-128243878D01*
X177287352Y-128239500D01*
X177082648Y-128239500D01*
X177058329Y-128243351D01*
X176880465Y-128271522D01*
X176685776Y-128334781D01*
X176503390Y-128427712D01*
X176338385Y-128547595D01*
X176272578Y-128571074D01*
X176204525Y-128555248D01*
X176155830Y-128505142D01*
X176141500Y-128447276D01*
X176141500Y-124282723D01*
X176161185Y-124215684D01*
X176213989Y-124169929D01*
X176283147Y-124159985D01*
X176338385Y-124182405D01*
X176503390Y-124302287D01*
X176619607Y-124361503D01*
X176685776Y-124395218D01*
X176685778Y-124395218D01*
X176685781Y-124395220D01*
X176790137Y-124429127D01*
X176880465Y-124458477D01*
X176981557Y-124474488D01*
X177082648Y-124490500D01*
X177082649Y-124490500D01*
X177287351Y-124490500D01*
X177287352Y-124490500D01*
X177489534Y-124458477D01*
X177684219Y-124395220D01*
X177866610Y-124302287D01*
X177985810Y-124215684D01*
X178032213Y-124181971D01*
X178032215Y-124181968D01*
X178032219Y-124181966D01*
X178176966Y-124037219D01*
X178176968Y-124037215D01*
X178176971Y-124037213D01*
X178297286Y-123871611D01*
X178297415Y-123871359D01*
X178324795Y-123817621D01*
X178372769Y-123766826D01*
X178440589Y-123750030D01*
X178506725Y-123772567D01*
X178545765Y-123817621D01*
X178573141Y-123871350D01*
X178573147Y-123871359D01*
X178605523Y-123915921D01*
X178605524Y-123915922D01*
X179285000Y-123236446D01*
X179285000Y-123242661D01*
G37*
%TD.AperFunction*%
%TD*%
M02*
