M48
; DRILL file {KiCad 9.0.6-9.0.6~ubuntu24.04.1} date 2025-11-30T14:48:04-0600
; FORMAT={-:-/ absolute / metric / decimal}
; #@! TF.CreationDate,2025-11-30T14:48:04-06:00
; #@! TF.GenerationSoftware,Kicad,Pcbnew,9.0.6-9.0.6~ubuntu24.04.1
; #@! TF.FileFunction,Plated,1,2,PTH
FMAT,2
METRIC
; #@! TA.AperFunction,Plated,PTH,ComponentDrill
T1C0.700
; #@! TA.AperFunction,Plated,PTH,ComponentDrill
T2C0.800
; #@! TA.AperFunction,Plated,PTH,ComponentDrill
T3C0.900
; #@! TA.AperFunction,Plated,PTH,ComponentDrill
T4C1.000
; #@! TA.AperFunction,Plated,PTH,ComponentDrill
T5C1.100
; #@! TA.AperFunction,Plated,PTH,ComponentDrill
T6C1.300
; #@! TA.AperFunction,Plated,PTH,ComponentDrill
T7C2.997
%
G90
G05
T1
X178.435Y-78.105
X178.435Y-85.725
X184.785Y-78.105
X184.785Y-85.725
X198.755Y-90.17
X198.755Y-97.79
T2
X177.185Y-123.19
X177.185Y-129.54
X179.685Y-123.19
X179.685Y-129.54
X190.5Y-92.095
X190.5Y-94.595
T3
X196.295Y-116.205
X197.485Y-105.41
X198.795Y-116.205
X200.025Y-105.41
X201.295Y-116.205
T4
X189.23Y-125.73
X189.23Y-128.27
X189.23Y-130.81
X189.865Y-79.375
X189.865Y-81.915
X189.865Y-84.455
X207.645Y-80.01
X207.645Y-82.55
X207.645Y-126.365
X207.645Y-128.905
T5
X179.07Y-114.935
X179.705Y-95.25
X181.61Y-114.935
X182.245Y-95.25
X184.15Y-114.935
X184.785Y-95.25
T6
X196.93Y-128.27
X197.14Y-81.882
X201.93Y-128.27
X202.14Y-81.882
T7
X184.15Y-104.14
X187.15Y-108.84
X190.15Y-104.14
M30
