%TF.GenerationSoftware,KiCad,Pcbnew,9.0.6-9.0.6~ubuntu24.04.1*%
%TF.CreationDate,2025-12-02T23:56:07-06:00*%
%TF.ProjectId,mcu_datalogger,6d63755f-6461-4746-916c-6f676765722e,v1*%
%TF.SameCoordinates,Original*%
%TF.FileFunction,Plated,1,2,PTH,Drill*%
%TF.FilePolarity,Positive*%
%FSLAX46Y46*%
G04 Gerber Fmt 4.6, Leading zero omitted, Abs format (unit mm)*
G04 Created by KiCad (PCBNEW 9.0.6-9.0.6~ubuntu24.04.1) date 2025-12-02 23:56:07*
%MOMM*%
%LPD*%
G01*
G04 APERTURE LIST*
%TA.AperFunction,ViaDrill*%
%ADD10C,0.300000*%
%TD*%
%TA.AperFunction,ViaDrill*%
%ADD11C,0.400000*%
%TD*%
%TA.AperFunction,ComponentDrill*%
%ADD12C,1.000000*%
%TD*%
G04 APERTURE END LIST*
D10*
X67438700Y-64382200D03*
X78168900Y-56892200D03*
X78846400Y-69061200D03*
X79110700Y-57863600D03*
X79934300Y-66115400D03*
X79965700Y-60007000D03*
X81907700Y-51349600D03*
X83251500Y-53703300D03*
X84078400Y-54325200D03*
X85320100Y-53984400D03*
X86131900Y-56028300D03*
X89871600Y-57579700D03*
X91052000Y-56364300D03*
X91668800Y-61268500D03*
X95660300Y-60969600D03*
X96379400Y-64800100D03*
X98319200Y-58810800D03*
X100300100Y-60989200D03*
X100904400Y-64610900D03*
X101901400Y-63724000D03*
D11*
X72294300Y-48506300D03*
X72294300Y-50266700D03*
X73024800Y-62853900D03*
X78044600Y-59025100D03*
X78761500Y-48619400D03*
X80260400Y-62783200D03*
X86698500Y-50830300D03*
X87564500Y-57551800D03*
X91289300Y-57697300D03*
X96142900Y-48619400D03*
X99039800Y-65700800D03*
X99547100Y-57160100D03*
X101571600Y-45828000D03*
X101601100Y-60007000D03*
X107643500Y-55700800D03*
D12*
%TO.C,J1*%
X65405000Y-56515000D03*
X65405000Y-59055000D03*
X65405000Y-61595000D03*
X65405000Y-64135000D03*
%TO.C,J2*%
X71755000Y-73025000D03*
X74295000Y-73025000D03*
X76835000Y-73025000D03*
X79375000Y-73025000D03*
%TO.C,J3*%
X86360000Y-73025000D03*
X88900000Y-73025000D03*
X91440000Y-73025000D03*
X93980000Y-73025000D03*
X96520000Y-73025000D03*
X99060000Y-73025000D03*
X101600000Y-73025000D03*
%TO.C,BT1*%
X103505000Y-46990000D03*
%TO.C,J3*%
X104140000Y-73025000D03*
%TO.C,BT1*%
X106045000Y-46990000D03*
%TO.C,J3*%
X106680000Y-73025000D03*
%TO.C,J4*%
X109855000Y-56515000D03*
X109855000Y-59055000D03*
X109855000Y-61595000D03*
X112395000Y-56515000D03*
X112395000Y-59055000D03*
X112395000Y-61595000D03*
M02*
