%TF.GenerationSoftware,KiCad,Pcbnew,9.0.6-9.0.6~ubuntu24.04.1*%
%TF.CreationDate,2025-12-02T23:55:24-06:00*%
%TF.ProjectId,mcu_datalogger,6d63755f-6461-4746-916c-6f676765722e,v1*%
%TF.SameCoordinates,Original*%
%TF.FileFunction,Copper,L1,Top*%
%TF.FilePolarity,Positive*%
%FSLAX46Y46*%
G04 Gerber Fmt 4.6, Leading zero omitted, Abs format (unit mm)*
G04 Created by KiCad (PCBNEW 9.0.6-9.0.6~ubuntu24.04.1) date 2025-12-02 23:55:24*
%MOMM*%
%LPD*%
G01*
G04 APERTURE LIST*
G04 Aperture macros list*
%AMRoundRect*
0 Rectangle with rounded corners*
0 $1 Rounding radius*
0 $2 $3 $4 $5 $6 $7 $8 $9 X,Y pos of 4 corners*
0 Add a 4 corners polygon primitive as box body*
4,1,4,$2,$3,$4,$5,$6,$7,$8,$9,$2,$3,0*
0 Add four circle primitives for the rounded corners*
1,1,$1+$1,$2,$3*
1,1,$1+$1,$4,$5*
1,1,$1+$1,$6,$7*
1,1,$1+$1,$8,$9*
0 Add four rect primitives between the rounded corners*
20,1,$1+$1,$2,$3,$4,$5,0*
20,1,$1+$1,$4,$5,$6,$7,0*
20,1,$1+$1,$6,$7,$8,$9,0*
20,1,$1+$1,$8,$9,$2,$3,0*%
G04 Aperture macros list end*
%TA.AperFunction,SMDPad,CuDef*%
%ADD10RoundRect,0.250000X-0.750000X-0.950000X0.750000X-0.950000X0.750000X0.950000X-0.750000X0.950000X0*%
%TD*%
%TA.AperFunction,SMDPad,CuDef*%
%ADD11RoundRect,0.250000X-0.262500X-0.450000X0.262500X-0.450000X0.262500X0.450000X-0.262500X0.450000X0*%
%TD*%
%TA.AperFunction,ComponentPad*%
%ADD12R,1.700000X1.700000*%
%TD*%
%TA.AperFunction,ComponentPad*%
%ADD13C,1.700000*%
%TD*%
%TA.AperFunction,SMDPad,CuDef*%
%ADD14RoundRect,0.250000X-0.250000X-0.475000X0.250000X-0.475000X0.250000X0.475000X-0.250000X0.475000X0*%
%TD*%
%TA.AperFunction,SMDPad,CuDef*%
%ADD15RoundRect,0.250000X0.950000X-0.750000X0.950000X0.750000X-0.950000X0.750000X-0.950000X-0.750000X0*%
%TD*%
%TA.AperFunction,SMDPad,CuDef*%
%ADD16RoundRect,0.243750X-0.243750X-0.456250X0.243750X-0.456250X0.243750X0.456250X-0.243750X0.456250X0*%
%TD*%
%TA.AperFunction,SMDPad,CuDef*%
%ADD17RoundRect,0.162500X-0.650000X-0.162500X0.650000X-0.162500X0.650000X0.162500X-0.650000X0.162500X0*%
%TD*%
%TA.AperFunction,SMDPad,CuDef*%
%ADD18RoundRect,0.073750X-0.911250X-0.221250X0.911250X-0.221250X0.911250X0.221250X-0.911250X0.221250X0*%
%TD*%
%TA.AperFunction,SMDPad,CuDef*%
%ADD19RoundRect,0.068750X-0.666250X-0.206250X0.666250X-0.206250X0.666250X0.206250X-0.666250X0.206250X0*%
%TD*%
%TA.AperFunction,SMDPad,CuDef*%
%ADD20RoundRect,0.068750X-0.206250X-0.666250X0.206250X-0.666250X0.206250X0.666250X-0.206250X0.666250X0*%
%TD*%
%TA.AperFunction,ViaPad*%
%ADD21C,0.600000*%
%TD*%
%TA.AperFunction,ViaPad*%
%ADD22C,0.900000*%
%TD*%
%TA.AperFunction,Conductor*%
%ADD23C,0.350000*%
%TD*%
%TA.AperFunction,Conductor*%
%ADD24C,0.200000*%
%TD*%
G04 APERTURE END LIST*
D10*
%TO.P,Y1,1,1*%
%TO.N,Net-(U4-PB7)*%
X69270000Y-66040000D03*
%TO.P,Y1,2,2*%
%TO.N,Net-(U4-PB6)*%
X72970000Y-66040000D03*
%TD*%
D11*
%TO.P,R6,1*%
%TO.N,/Vcc*%
X84535000Y-66675000D03*
%TO.P,R6,2*%
%TO.N,Net-(U3-SQW{slash}~INT)*%
X86360000Y-66675000D03*
%TD*%
D12*
%TO.P,BT1,1,+*%
%TO.N,VCC*%
X103505000Y-46990000D03*
D13*
%TO.P,BT1,2,-*%
%TO.N,GND*%
X106045000Y-46990000D03*
%TD*%
D14*
%TO.P,C1,1*%
%TO.N,GND*%
X79375000Y-64135000D03*
%TO.P,C1,2*%
%TO.N,Net-(U4-PB7)*%
X81275000Y-64135000D03*
%TD*%
D12*
%TO.P,J4,1,Pin_1*%
%TO.N,/MISO*%
X109855000Y-56515000D03*
D13*
%TO.P,J4,2,Pin_2*%
%TO.N,/Vcc*%
X112395000Y-56515000D03*
%TO.P,J4,3,Pin_3*%
%TO.N,/SCK*%
X109855000Y-59055000D03*
%TO.P,J4,4,Pin_4*%
%TO.N,/MOSI*%
X112395000Y-59055000D03*
%TO.P,J4,5,Pin_5*%
%TO.N,/RESET*%
X109855000Y-61595000D03*
%TO.P,J4,6,Pin_6*%
%TO.N,GND*%
X112395000Y-61595000D03*
%TD*%
D12*
%TO.P,J3,1,Pin_1*%
%TO.N,/D2*%
X86360000Y-73025000D03*
D13*
%TO.P,J3,2,Pin_2*%
%TO.N,/D3*%
X88900000Y-73025000D03*
%TO.P,J3,3,Pin_3*%
%TO.N,/D4*%
X91440000Y-73025000D03*
%TO.P,J3,4,Pin_4*%
%TO.N,/D5*%
X93980000Y-73025000D03*
%TO.P,J3,5,Pin_5*%
%TO.N,/D6*%
X96520000Y-73025000D03*
%TO.P,J3,6,Pin_6*%
%TO.N,/D7*%
X99060000Y-73025000D03*
%TO.P,J3,7,Pin_7*%
%TO.N,/D8*%
X101600000Y-73025000D03*
%TO.P,J3,8,Pin_8*%
%TO.N,GND*%
X104140000Y-73025000D03*
%TO.P,J3,9,Pin_9*%
%TO.N,/Vcc*%
X106680000Y-73025000D03*
%TD*%
D14*
%TO.P,C3,1*%
%TO.N,/Vcc*%
X96205000Y-57150000D03*
%TO.P,C3,2*%
%TO.N,GND*%
X98105000Y-57150000D03*
%TD*%
D11*
%TO.P,R5,1*%
%TO.N,/Vcc*%
X69295000Y-60960000D03*
%TO.P,R5,2*%
%TO.N,/SCL*%
X71120000Y-60960000D03*
%TD*%
D15*
%TO.P,Y2,1,1*%
%TO.N,Net-(U3-X2)*%
X69850000Y-57095000D03*
%TO.P,Y2,2,2*%
%TO.N,Net-(U3-X1)*%
X69850000Y-53395000D03*
%TD*%
D11*
%TO.P,R2,1*%
%TO.N,GND*%
X103227500Y-59055000D03*
%TO.P,R2,2*%
%TO.N,Net-(D1-K)*%
X105052500Y-59055000D03*
%TD*%
D16*
%TO.P,D1,1,K*%
%TO.N,Net-(D1-K)*%
X102900000Y-64135000D03*
%TO.P,D1,2,A*%
%TO.N,/SCK*%
X104775000Y-64135000D03*
%TD*%
D17*
%TO.P,U2,1,A0*%
%TO.N,/Vcc*%
X73882500Y-46355000D03*
%TO.P,U2,2,A1*%
%TO.N,GND*%
X73882500Y-47625000D03*
%TO.P,U2,3,A2*%
%TO.N,/Vcc*%
X73882500Y-48895000D03*
%TO.P,U2,4,GND*%
%TO.N,GND*%
X73882500Y-50165000D03*
%TO.P,U2,5,SDA*%
%TO.N,/SDA*%
X81057500Y-50165000D03*
%TO.P,U2,6,SCL*%
%TO.N,/SCL*%
X81057500Y-48895000D03*
%TO.P,U2,7,WP*%
%TO.N,GND*%
X81057500Y-47625000D03*
%TO.P,U2,8,VCC*%
%TO.N,/Vcc*%
X81057500Y-46355000D03*
%TD*%
%TO.P,U1,1,A0*%
%TO.N,/Vcc*%
X85312500Y-46355000D03*
%TO.P,U1,2,A1*%
X85312500Y-47625000D03*
%TO.P,U1,3,A2*%
X85312500Y-48895000D03*
%TO.P,U1,4,GND*%
%TO.N,GND*%
X85312500Y-50165000D03*
%TO.P,U1,5,SDA*%
%TO.N,/SDA*%
X92487500Y-50165000D03*
%TO.P,U1,6,SCL*%
%TO.N,/SCL*%
X92487500Y-48895000D03*
%TO.P,U1,7,WP*%
%TO.N,GND*%
X92487500Y-47625000D03*
%TO.P,U1,8,VCC*%
%TO.N,/Vcc*%
X92487500Y-46355000D03*
%TD*%
D18*
%TO.P,U3,1,X1*%
%TO.N,Net-(U3-X1)*%
X76330000Y-55245000D03*
%TO.P,U3,2,X2*%
%TO.N,Net-(U3-X2)*%
X76330000Y-56515000D03*
%TO.P,U3,3,~{INTA}*%
%TO.N,Net-(U3-~{INTA})*%
X76330000Y-57785000D03*
%TO.P,U3,4,GND*%
%TO.N,GND*%
X76330000Y-59055000D03*
%TO.P,U3,5,SDA*%
%TO.N,/SDA*%
X81280000Y-59055000D03*
%TO.P,U3,6,SCL*%
%TO.N,/SCL*%
X81280000Y-57785000D03*
%TO.P,U3,7,SQW/~INT*%
%TO.N,Net-(U3-SQW{slash}~INT)*%
X81280000Y-56515000D03*
%TO.P,U3,8,VCC*%
%TO.N,/Vcc*%
X81280000Y-55245000D03*
%TD*%
D14*
%TO.P,C2,1*%
%TO.N,GND*%
X75565000Y-64135000D03*
%TO.P,C2,2*%
%TO.N,Net-(U4-PB6)*%
X77465000Y-64135000D03*
%TD*%
D16*
%TO.P,D2,1,K*%
%TO.N,Net-(D2-K)*%
X102900000Y-52070000D03*
%TO.P,D2,2,A*%
%TO.N,VCC*%
X104775000Y-52070000D03*
%TD*%
D11*
%TO.P,R4,1*%
%TO.N,/Vcc*%
X96600000Y-52070000D03*
%TO.P,R4,2*%
%TO.N,/SDA*%
X98425000Y-52070000D03*
%TD*%
%TO.P,R1,1*%
%TO.N,Net-(D2-K)*%
X97870000Y-46355000D03*
%TO.P,R1,2*%
%TO.N,GND*%
X99695000Y-46355000D03*
%TD*%
D12*
%TO.P,J2,1,Pin_1*%
%TO.N,GND*%
X71755000Y-73025000D03*
D13*
%TO.P,J2,2,Pin_2*%
%TO.N,/Vcc*%
X74295000Y-73025000D03*
%TO.P,J2,3,Pin_3*%
%TO.N,/RX*%
X76835000Y-73025000D03*
%TO.P,J2,4,Pin_4*%
%TO.N,/TX*%
X79375000Y-73025000D03*
%TD*%
D11*
%TO.P,R3,1*%
%TO.N,/Vcc*%
X96242500Y-62230000D03*
%TO.P,R3,2*%
%TO.N,/RESET*%
X98067500Y-62230000D03*
%TD*%
D19*
%TO.P,U4,1,PD3*%
%TO.N,/D3*%
X84730000Y-55620000D03*
%TO.P,U4,2,PD4*%
%TO.N,/D4*%
X84730000Y-56420000D03*
%TO.P,U4,3,GND*%
%TO.N,GND*%
X84730000Y-57220000D03*
%TO.P,U4,4,VCC*%
%TO.N,VCC*%
X84730000Y-58020000D03*
%TO.P,U4,5,GND*%
%TO.N,GND*%
X84730000Y-58820000D03*
%TO.P,U4,6,VCC*%
%TO.N,VCC*%
X84730000Y-59620000D03*
%TO.P,U4,7,PB6*%
%TO.N,Net-(U4-PB6)*%
X84730000Y-60420000D03*
%TO.P,U4,8,PB7*%
%TO.N,Net-(U4-PB7)*%
X84730000Y-61220000D03*
D20*
%TO.P,U4,9,PD5*%
%TO.N,/D5*%
X86100000Y-62590000D03*
%TO.P,U4,10,PD6*%
%TO.N,/D6*%
X86900000Y-62590000D03*
%TO.P,U4,11,PD7*%
%TO.N,/D7*%
X87700000Y-62590000D03*
%TO.P,U4,12,PB0*%
%TO.N,/D8*%
X88500000Y-62590000D03*
%TO.P,U4,13,PB1*%
%TO.N,unconnected-(U4-PB1-Pad13)*%
X89300000Y-62590000D03*
%TO.P,U4,14,PB2*%
%TO.N,unconnected-(U4-PB2-Pad14)*%
X90100000Y-62590000D03*
%TO.P,U4,15,PB3*%
%TO.N,/MOSI*%
X90900000Y-62590000D03*
%TO.P,U4,16,PB4*%
%TO.N,/MISO*%
X91700000Y-62590000D03*
D19*
%TO.P,U4,17,PB5*%
%TO.N,/SCK*%
X93070000Y-61220000D03*
%TO.P,U4,18,AVCC*%
%TO.N,VCC*%
X93070000Y-60420000D03*
%TO.P,U4,19,ADC6*%
%TO.N,unconnected-(U4-ADC6-Pad19)*%
X93070000Y-59620000D03*
%TO.P,U4,20,AREF*%
%TO.N,Net-(U4-AREF)*%
X93070000Y-58820000D03*
%TO.P,U4,21,GND*%
%TO.N,GND*%
X93070000Y-58020000D03*
%TO.P,U4,22,ADC7*%
%TO.N,unconnected-(U4-ADC7-Pad22)*%
X93070000Y-57220000D03*
%TO.P,U4,23,PC0*%
%TO.N,unconnected-(U4-PC0-Pad23)*%
X93070000Y-56420000D03*
%TO.P,U4,24,PC1*%
%TO.N,unconnected-(U4-PC1-Pad24)*%
X93070000Y-55620000D03*
D20*
%TO.P,U4,25,PC2*%
%TO.N,unconnected-(U4-PC2-Pad25)*%
X91700000Y-54250000D03*
%TO.P,U4,26,PC3*%
%TO.N,unconnected-(U4-PC3-Pad26)*%
X90900000Y-54250000D03*
%TO.P,U4,27,PC4*%
%TO.N,/SDA*%
X90100000Y-54250000D03*
%TO.P,U4,28,PC5*%
%TO.N,/SCL*%
X89300000Y-54250000D03*
%TO.P,U4,29,PC6/~{RESET}*%
%TO.N,/RESET*%
X88500000Y-54250000D03*
%TO.P,U4,30,PD0*%
%TO.N,/RX*%
X87700000Y-54250000D03*
%TO.P,U4,31,PD1*%
%TO.N,/TX*%
X86900000Y-54250000D03*
%TO.P,U4,32,PD2*%
%TO.N,/D2*%
X86100000Y-54250000D03*
%TD*%
D14*
%TO.P,C4,1*%
%TO.N,Net-(U4-AREF)*%
X94935000Y-66675000D03*
%TO.P,C4,2*%
%TO.N,GND*%
X96835000Y-66675000D03*
%TD*%
%TO.P,C5,1*%
%TO.N,VCC*%
X103190000Y-55245000D03*
%TO.P,C5,2*%
%TO.N,GND*%
X105090000Y-55245000D03*
%TD*%
D11*
%TO.P,R7,1*%
%TO.N,/Vcc*%
X89892500Y-66675000D03*
%TO.P,R7,2*%
%TO.N,Net-(U3-~{INTA})*%
X91717500Y-66675000D03*
%TD*%
D12*
%TO.P,J1,1,Pin_1*%
%TO.N,GND*%
X65405000Y-56515000D03*
D13*
%TO.P,J1,2,Pin_2*%
%TO.N,/Vcc*%
X65405000Y-59055000D03*
%TO.P,J1,3,Pin_3*%
%TO.N,/SDA*%
X65405000Y-61595000D03*
%TO.P,J1,4,Pin_4*%
%TO.N,/SCL*%
X65405000Y-64135000D03*
%TD*%
D21*
%TO.N,Net-(U3-~{INTA})*%
X78846400Y-69061200D03*
X78168900Y-56892200D03*
%TO.N,Net-(U3-SQW{slash}~INT)*%
X79934300Y-66115400D03*
X79110700Y-57863600D03*
%TO.N,/MISO*%
X101901400Y-63724000D03*
%TO.N,/RESET*%
X91052000Y-56364300D03*
X95660300Y-60969600D03*
%TO.N,/D4*%
X89871600Y-57579700D03*
%TO.N,/D3*%
X83251500Y-53703300D03*
%TO.N,/D2*%
X85320100Y-53984400D03*
%TO.N,/D7*%
X91668800Y-61268500D03*
%TO.N,/TX*%
X86131900Y-56028300D03*
%TO.N,/RX*%
X84078400Y-54325200D03*
%TO.N,/SDA*%
X81907700Y-51349600D03*
X79965700Y-60007000D03*
X67438700Y-64382200D03*
%TO.N,Net-(D1-K)*%
X100300100Y-60989200D03*
X100904400Y-64610900D03*
%TO.N,Net-(U4-AREF)*%
X96379400Y-64800100D03*
X98319200Y-58810800D03*
D22*
%TO.N,GND*%
X96142900Y-48619400D03*
X78761500Y-48619400D03*
X107643500Y-55700800D03*
X78044600Y-59025100D03*
X86698500Y-50830300D03*
X101571600Y-45828000D03*
X99039800Y-65700800D03*
X101601100Y-60007000D03*
X72294300Y-50266700D03*
X99547100Y-57160100D03*
X73024800Y-62853900D03*
X91289300Y-57697300D03*
X72294300Y-48506300D03*
X80260400Y-62783200D03*
X87564500Y-57551800D03*
%TD*%
D23*
%TO.N,GND*%
X90338000Y-58648600D02*
X87884000Y-58648600D01*
X91289300Y-57697300D02*
X90338000Y-58648600D01*
X87884000Y-58648600D02*
X87884000Y-57871300D01*
X87884000Y-57871300D02*
X87564500Y-57551800D01*
D24*
%TO.N,/SCL*%
X92121200Y-48895000D02*
X92487500Y-48895000D01*
X89383100Y-51633100D02*
X92121200Y-48895000D01*
X84582300Y-51633100D02*
X89383100Y-51633100D01*
X81844200Y-48895000D02*
X84582300Y-51633100D01*
X81057500Y-48895000D02*
X81844200Y-48895000D01*
X82163400Y-52807300D02*
X82567000Y-52807300D01*
X79896000Y-50539900D02*
X82163400Y-52807300D01*
X79896000Y-49843000D02*
X79896000Y-50539900D01*
X80844000Y-48895000D02*
X79896000Y-49843000D01*
X81057500Y-48895000D02*
X80844000Y-48895000D01*
X82567000Y-56891900D02*
X82567000Y-52807300D01*
X81673900Y-57785000D02*
X82567000Y-56891900D01*
X81280000Y-57785000D02*
X81673900Y-57785000D01*
X89300000Y-53601500D02*
X89300000Y-54250000D01*
X88505800Y-52807300D02*
X89300000Y-53601500D01*
X82567000Y-52807300D02*
X88505800Y-52807300D01*
X71120000Y-60960000D02*
X73157400Y-60960000D01*
X66832000Y-62708000D02*
X65405000Y-64135000D01*
X69635300Y-62708000D02*
X66832000Y-62708000D01*
X70503700Y-61839600D02*
X69635300Y-62708000D01*
X70503700Y-61762700D02*
X70503700Y-61839600D01*
X71306400Y-60960000D02*
X70503700Y-61762700D01*
X73157400Y-60960000D02*
X71306400Y-60960000D01*
X77711100Y-60960000D02*
X73157400Y-60960000D01*
X80886100Y-57785000D02*
X77711100Y-60960000D01*
X81280000Y-57785000D02*
X80886100Y-57785000D01*
%TO.N,Net-(U3-X2)*%
X75750000Y-57095000D02*
X76330000Y-56515000D01*
X69850000Y-57095000D02*
X75750000Y-57095000D01*
%TO.N,Net-(U3-X1)*%
X74480000Y-53395000D02*
X76330000Y-55245000D01*
X69850000Y-53395000D02*
X74480000Y-53395000D01*
%TO.N,Net-(U3-~{INTA})*%
X77276100Y-57785000D02*
X76330000Y-57785000D01*
X78168900Y-56892200D02*
X77276100Y-57785000D01*
X89331300Y-69061200D02*
X78846400Y-69061200D01*
X91717500Y-66675000D02*
X89331300Y-69061200D01*
%TO.N,Net-(U3-SQW{slash}~INT)*%
X80405900Y-65643800D02*
X79934300Y-66115400D01*
X85328800Y-65643800D02*
X80405900Y-65643800D01*
X86360000Y-66675000D02*
X85328800Y-65643800D01*
X80459300Y-56515000D02*
X81280000Y-56515000D01*
X79110700Y-57863600D02*
X80459300Y-56515000D01*
%TO.N,/MISO*%
X92834000Y-63724000D02*
X101901400Y-63724000D01*
X91700000Y-62590000D02*
X92834000Y-63724000D01*
%TO.N,/RESET*%
X98702500Y-61595000D02*
X98067500Y-62230000D01*
X109855000Y-61595000D02*
X98702500Y-61595000D01*
X89953500Y-56364300D02*
X91052000Y-56364300D01*
X88500000Y-54910800D02*
X89953500Y-56364300D01*
X88500000Y-54250000D02*
X88500000Y-54910800D01*
X96807100Y-60969600D02*
X95660300Y-60969600D01*
X98067500Y-62230000D02*
X96807100Y-60969600D01*
%TO.N,/MOSI*%
X113651100Y-60311100D02*
X112395000Y-59055000D01*
X113651100Y-62061100D02*
X113651100Y-60311100D01*
X110499600Y-65212600D02*
X113651100Y-62061100D01*
X100655300Y-65212600D02*
X110499600Y-65212600D01*
X99591300Y-64148600D02*
X100655300Y-65212600D01*
X91814200Y-64148600D02*
X99591300Y-64148600D01*
X90900000Y-63234400D02*
X91814200Y-64148600D01*
X90900000Y-62590000D02*
X90900000Y-63234400D01*
%TO.N,/D4*%
X88921900Y-56630000D02*
X89871600Y-57579700D01*
X85882800Y-56630000D02*
X88921900Y-56630000D01*
X85672800Y-56420000D02*
X85882800Y-56630000D01*
X84730000Y-56420000D02*
X85672800Y-56420000D01*
%TO.N,/D3*%
X83251500Y-54383100D02*
X83251500Y-53703300D01*
X84488400Y-55620000D02*
X83251500Y-54383100D01*
X84730000Y-55620000D02*
X84488400Y-55620000D01*
%TO.N,/D5*%
X86100000Y-63270100D02*
X86100000Y-62590000D01*
X88434000Y-65604100D02*
X86100000Y-63270100D01*
X92162400Y-65604100D02*
X88434000Y-65604100D01*
X92801700Y-66243400D02*
X92162400Y-65604100D01*
X92801700Y-71846700D02*
X92801700Y-66243400D01*
X93980000Y-73025000D02*
X92801700Y-71846700D01*
%TO.N,/D2*%
X85834400Y-53984400D02*
X85320100Y-53984400D01*
X86100000Y-54250000D02*
X85834400Y-53984400D01*
%TO.N,/D6*%
X86900000Y-63262300D02*
X86900000Y-62590000D01*
X88840100Y-65202400D02*
X86900000Y-63262300D01*
X92328700Y-65202400D02*
X88840100Y-65202400D01*
X93203400Y-66077100D02*
X92328700Y-65202400D01*
X93203400Y-69708400D02*
X93203400Y-66077100D01*
X96520000Y-73025000D02*
X93203400Y-69708400D01*
%TO.N,/D8*%
X88500000Y-63195700D02*
X88500000Y-62590000D01*
X90105000Y-64800700D02*
X88500000Y-63195700D01*
X92495000Y-64800700D02*
X90105000Y-64800700D01*
X93605100Y-65910800D02*
X92495000Y-64800700D01*
X93605100Y-66857100D02*
X93605100Y-65910800D01*
X94831900Y-68083900D02*
X93605100Y-66857100D01*
X96658900Y-68083900D02*
X94831900Y-68083900D01*
X101600000Y-73025000D02*
X96658900Y-68083900D01*
%TO.N,/D7*%
X87700000Y-61917300D02*
X87700000Y-62590000D01*
X88348800Y-61268500D02*
X87700000Y-61917300D01*
X91668800Y-61268500D02*
X88348800Y-61268500D01*
%TO.N,/TX*%
X86900000Y-55260200D02*
X86900000Y-54250000D01*
X86131900Y-56028300D02*
X86900000Y-55260200D01*
%TO.N,/RX*%
X85194600Y-53209000D02*
X84078400Y-54325200D01*
X87255700Y-53209000D02*
X85194600Y-53209000D01*
X87700000Y-53653300D02*
X87255700Y-53209000D01*
X87700000Y-54250000D02*
X87700000Y-53653300D01*
%TO.N,/SDA*%
X96520000Y-50165000D02*
X92487500Y-50165000D01*
X98425000Y-52070000D02*
X96520000Y-50165000D01*
X90100000Y-54250000D02*
X90100000Y-52552500D01*
X90100000Y-52552500D02*
X92487500Y-50165000D01*
X81972000Y-51285300D02*
X81907700Y-51349600D01*
X82177800Y-51285300D02*
X81972000Y-51285300D01*
X83298100Y-52405600D02*
X82177800Y-51285300D01*
X89953100Y-52405600D02*
X83298100Y-52405600D01*
X90100000Y-52552500D02*
X89953100Y-52405600D01*
X82177800Y-51285300D02*
X81057500Y-50165000D01*
X80328000Y-60007000D02*
X81280000Y-59055000D01*
X79965700Y-60007000D02*
X80328000Y-60007000D01*
X78407300Y-61565400D02*
X79965700Y-60007000D01*
X72415200Y-61565400D02*
X78407300Y-61565400D01*
X69598400Y-64382200D02*
X72415200Y-61565400D01*
X67438700Y-64382200D02*
X69598400Y-64382200D01*
%TO.N,Net-(D2-K)*%
X97870000Y-47040000D02*
X97870000Y-46355000D01*
X102900000Y-52070000D02*
X97870000Y-47040000D01*
%TO.N,/SCK*%
X111014600Y-60214600D02*
X109855000Y-59055000D01*
X111014600Y-62075300D02*
X111014600Y-60214600D01*
X108954900Y-64135000D02*
X111014600Y-62075300D01*
X104775000Y-64135000D02*
X108954900Y-64135000D01*
X95105500Y-63255500D02*
X93070000Y-61220000D01*
X100059300Y-63255500D02*
X95105500Y-63255500D01*
X100192500Y-63122300D02*
X100059300Y-63255500D01*
X103762300Y-63122300D02*
X100192500Y-63122300D01*
X104775000Y-64135000D02*
X103762300Y-63122300D01*
%TO.N,Net-(D1-K)*%
X102424100Y-64610900D02*
X102900000Y-64135000D01*
X100904400Y-64610900D02*
X102424100Y-64610900D01*
X103118300Y-60989200D02*
X100300100Y-60989200D01*
X105052500Y-59055000D02*
X103118300Y-60989200D01*
%TO.N,Net-(U4-AREF)*%
X96379400Y-65230600D02*
X96379400Y-64800100D01*
X94935000Y-66675000D02*
X96379400Y-65230600D01*
X93079200Y-58810800D02*
X93070000Y-58820000D01*
X98319200Y-58810800D02*
X93079200Y-58810800D01*
%TO.N,/Vcc*%
X85312500Y-48895000D02*
X85312500Y-47625000D01*
X85312500Y-47625000D02*
X85312500Y-46355000D01*
X85312500Y-46355000D02*
X92487500Y-46355000D01*
X69295000Y-59055000D02*
X69295000Y-60960000D01*
X69295000Y-59055000D02*
X65405000Y-59055000D01*
X74295000Y-72761800D02*
X74295000Y-73025000D01*
X80381800Y-66675000D02*
X74295000Y-72761800D01*
X84535000Y-66675000D02*
X80381800Y-66675000D01*
X85583200Y-67723200D02*
X84535000Y-66675000D01*
X88844300Y-67723200D02*
X85583200Y-67723200D01*
X89892500Y-66675000D02*
X88844300Y-67723200D01*
X73882500Y-48895000D02*
X74157500Y-48895000D01*
X71533200Y-59055000D02*
X69295000Y-59055000D01*
X72192100Y-58396100D02*
X71533200Y-59055000D01*
X77537900Y-58396100D02*
X72192100Y-58396100D01*
X80598300Y-55335700D02*
X77537900Y-58396100D01*
X85312500Y-46355000D02*
X81057500Y-46355000D01*
X75987300Y-46355000D02*
X75093800Y-47248500D01*
X81057500Y-46355000D02*
X75987300Y-46355000D01*
X75093800Y-47958700D02*
X75093800Y-47248500D01*
X74157500Y-48895000D02*
X75093800Y-47958700D01*
X74200300Y-46355000D02*
X73882500Y-46355000D01*
X75093800Y-47248500D02*
X74200300Y-46355000D01*
X96600000Y-53122400D02*
X96600000Y-52070000D01*
X96205000Y-53517400D02*
X96600000Y-53122400D01*
X96205000Y-57150000D02*
X96205000Y-53517400D01*
X95037200Y-46355000D02*
X92487500Y-46355000D01*
X99250600Y-50568400D02*
X95037200Y-46355000D01*
X99250600Y-52769700D02*
X99250600Y-50568400D01*
X98897900Y-53122400D02*
X99250600Y-52769700D01*
X96600000Y-53122400D02*
X98897900Y-53122400D01*
X80598300Y-55335700D02*
X74157500Y-48895000D01*
X80689000Y-55245000D02*
X80598300Y-55335700D01*
X81280000Y-55245000D02*
X80689000Y-55245000D01*
X75506100Y-74236100D02*
X74295000Y-73025000D01*
X105468900Y-74236100D02*
X75506100Y-74236100D01*
X106680000Y-73025000D02*
X105468900Y-74236100D01*
X95966600Y-62230000D02*
X96242500Y-62230000D01*
X95031300Y-61294700D02*
X95966600Y-62230000D01*
X95031300Y-60745200D02*
X95031300Y-61294700D01*
X95482700Y-60293800D02*
X95031300Y-60745200D01*
X99449300Y-60293800D02*
X95482700Y-60293800D01*
X102036000Y-57707100D02*
X99449300Y-60293800D01*
X111202900Y-57707100D02*
X102036000Y-57707100D01*
X112395000Y-56515000D02*
X111202900Y-57707100D01*
%TO.N,Net-(U4-PB6)*%
X75560000Y-66040000D02*
X77465000Y-64135000D01*
X72970000Y-66040000D02*
X75560000Y-66040000D01*
X81180000Y-60420000D02*
X77465000Y-64135000D01*
X84730000Y-60420000D02*
X81180000Y-60420000D01*
%TO.N,Net-(U4-PB7)*%
X81815000Y-64135000D02*
X81275000Y-64135000D01*
X84730000Y-61220000D02*
X81815000Y-64135000D01*
X70831700Y-67601700D02*
X69270000Y-66040000D01*
X77597200Y-67601700D02*
X70831700Y-67601700D01*
X81063900Y-64135000D02*
X77597200Y-67601700D01*
X81275000Y-64135000D02*
X81063900Y-64135000D01*
D23*
%TO.N,VCC*%
X103505000Y-50800000D02*
X104775000Y-52070000D01*
X103505000Y-46990000D02*
X103505000Y-50800000D01*
X104775000Y-53660000D02*
X103190000Y-55245000D01*
X104775000Y-52070000D02*
X104775000Y-53660000D01*
X98897500Y-59537500D02*
X103190000Y-55245000D01*
X94725900Y-59537500D02*
X98897500Y-59537500D01*
X93843400Y-60420000D02*
X94725900Y-59537500D01*
X93070000Y-60420000D02*
X93843400Y-60420000D01*
X83898600Y-59620000D02*
X84730000Y-59620000D01*
X83514900Y-59236300D02*
X83898600Y-59620000D01*
X83514900Y-58446500D02*
X83514900Y-59236300D01*
X83941400Y-58020000D02*
X83514900Y-58446500D01*
X84730000Y-58020000D02*
X83941400Y-58020000D01*
X90428100Y-60420000D02*
X93070000Y-60420000D01*
X89628100Y-59620000D02*
X90428100Y-60420000D01*
X84730000Y-59620000D02*
X89628100Y-59620000D01*
%TO.N,GND*%
X79755900Y-47625000D02*
X81057500Y-47625000D01*
X78761500Y-48619400D02*
X79755900Y-47625000D01*
X105545800Y-55700800D02*
X105090000Y-55245000D01*
X107643500Y-55700800D02*
X105545800Y-55700800D01*
X100222000Y-45828000D02*
X99695000Y-46355000D01*
X101571600Y-45828000D02*
X100222000Y-45828000D01*
X97809200Y-65700800D02*
X96835000Y-66675000D01*
X99039800Y-65700800D02*
X97809200Y-65700800D01*
X102275500Y-60007000D02*
X103227500Y-59055000D01*
X101601100Y-60007000D02*
X102275500Y-60007000D01*
X73780800Y-50266700D02*
X73882500Y-50165000D01*
X72294300Y-50266700D02*
X73780800Y-50266700D01*
X76359900Y-59025100D02*
X76330000Y-59055000D01*
X78044600Y-59025100D02*
X76359900Y-59025100D01*
X98115100Y-57160100D02*
X98105000Y-57150000D01*
X99547100Y-57160100D02*
X98115100Y-57160100D01*
X74305900Y-64135000D02*
X75565000Y-64135000D01*
X73024800Y-62853900D02*
X74305900Y-64135000D01*
X91612000Y-58020000D02*
X93070000Y-58020000D01*
X91289300Y-57697300D02*
X91612000Y-58020000D01*
X73175600Y-47625000D02*
X73882500Y-47625000D01*
X72294300Y-48506300D02*
X73175600Y-47625000D01*
X79375000Y-63668600D02*
X79375000Y-64135000D01*
X80260400Y-62783200D02*
X79375000Y-63668600D01*
X85977800Y-50830300D02*
X85312500Y-50165000D01*
X86698500Y-50830300D02*
X85977800Y-50830300D01*
X95148500Y-47625000D02*
X96142900Y-48619400D01*
X92487500Y-47625000D02*
X95148500Y-47625000D01*
X85953900Y-57551800D02*
X85907000Y-57598700D01*
X87564500Y-57551800D02*
X85953900Y-57551800D01*
X85907000Y-58452200D02*
X85907000Y-57598700D01*
X85539200Y-58820000D02*
X85907000Y-58452200D01*
X84730000Y-58820000D02*
X85539200Y-58820000D01*
X85528300Y-57220000D02*
X84730000Y-57220000D01*
X85907000Y-57598700D02*
X85528300Y-57220000D01*
%TD*%
M02*
