%TF.GenerationSoftware,KiCad,Pcbnew,9.0.6-9.0.6~ubuntu24.04.1*%
%TF.CreationDate,2025-12-02T23:55:24-06:00*%
%TF.ProjectId,mcu_datalogger,6d63755f-6461-4746-916c-6f676765722e,v1*%
%TF.SameCoordinates,Original*%
%TF.FileFunction,Soldermask,Top*%
%TF.FilePolarity,Negative*%
%FSLAX46Y46*%
G04 Gerber Fmt 4.6, Leading zero omitted, Abs format (unit mm)*
G04 Created by KiCad (PCBNEW 9.0.6-9.0.6~ubuntu24.04.1) date 2025-12-02 23:55:24*
%MOMM*%
%LPD*%
G01*
G04 APERTURE LIST*
G04 Aperture macros list*
%AMRoundRect*
0 Rectangle with rounded corners*
0 $1 Rounding radius*
0 $2 $3 $4 $5 $6 $7 $8 $9 X,Y pos of 4 corners*
0 Add a 4 corners polygon primitive as box body*
4,1,4,$2,$3,$4,$5,$6,$7,$8,$9,$2,$3,0*
0 Add four circle primitives for the rounded corners*
1,1,$1+$1,$2,$3*
1,1,$1+$1,$4,$5*
1,1,$1+$1,$6,$7*
1,1,$1+$1,$8,$9*
0 Add four rect primitives between the rounded corners*
20,1,$1+$1,$2,$3,$4,$5,0*
20,1,$1+$1,$4,$5,$6,$7,0*
20,1,$1+$1,$6,$7,$8,$9,0*
20,1,$1+$1,$8,$9,$2,$3,0*%
G04 Aperture macros list end*
%ADD10RoundRect,0.250000X-0.750000X-0.950000X0.750000X-0.950000X0.750000X0.950000X-0.750000X0.950000X0*%
%ADD11RoundRect,0.250000X-0.262500X-0.450000X0.262500X-0.450000X0.262500X0.450000X-0.262500X0.450000X0*%
%ADD12R,1.700000X1.700000*%
%ADD13C,1.700000*%
%ADD14RoundRect,0.250000X-0.250000X-0.475000X0.250000X-0.475000X0.250000X0.475000X-0.250000X0.475000X0*%
%ADD15C,2.100000*%
%ADD16RoundRect,0.250000X0.950000X-0.750000X0.950000X0.750000X-0.950000X0.750000X-0.950000X-0.750000X0*%
%ADD17RoundRect,0.243750X-0.243750X-0.456250X0.243750X-0.456250X0.243750X0.456250X-0.243750X0.456250X0*%
%ADD18RoundRect,0.162500X-0.650000X-0.162500X0.650000X-0.162500X0.650000X0.162500X-0.650000X0.162500X0*%
%ADD19RoundRect,0.099250X-0.987750X-0.297750X0.987750X-0.297750X0.987750X0.297750X-0.987750X0.297750X0*%
%ADD20RoundRect,0.094250X-0.742750X-0.282750X0.742750X-0.282750X0.742750X0.282750X-0.742750X0.282750X0*%
%ADD21RoundRect,0.094250X-0.282750X-0.742750X0.282750X-0.742750X0.282750X0.742750X-0.282750X0.742750X0*%
G04 APERTURE END LIST*
D10*
%TO.C,Y1*%
X69270000Y-66040000D03*
X72970000Y-66040000D03*
%TD*%
D11*
%TO.C,R6*%
X84535000Y-66675000D03*
X86360000Y-66675000D03*
%TD*%
D12*
%TO.C,BT1*%
X103505000Y-46990000D03*
D13*
X106045000Y-46990000D03*
%TD*%
D14*
%TO.C,C1*%
X79375000Y-64135000D03*
X81275000Y-64135000D03*
%TD*%
D12*
%TO.C,J4*%
X109855000Y-56515000D03*
D13*
X112395000Y-56515000D03*
X109855000Y-59055000D03*
X112395000Y-59055000D03*
X109855000Y-61595000D03*
X112395000Y-61595000D03*
%TD*%
D12*
%TO.C,J3*%
X86360000Y-73025000D03*
D13*
X88900000Y-73025000D03*
X91440000Y-73025000D03*
X93980000Y-73025000D03*
X96520000Y-73025000D03*
X99060000Y-73025000D03*
X101600000Y-73025000D03*
X104140000Y-73025000D03*
X106680000Y-73025000D03*
%TD*%
D14*
%TO.C,C3*%
X96205000Y-57150000D03*
X98105000Y-57150000D03*
%TD*%
D11*
%TO.C,R5*%
X69295000Y-60960000D03*
X71120000Y-60960000D03*
%TD*%
D15*
%TO.C,H2*%
X66040000Y-47625000D03*
%TD*%
%TO.C,H3*%
X111760000Y-47625000D03*
%TD*%
%TO.C,H1*%
X66040000Y-72390000D03*
%TD*%
D16*
%TO.C,Y2*%
X69850000Y-57095000D03*
X69850000Y-53395000D03*
%TD*%
D11*
%TO.C,R2*%
X103227500Y-59055000D03*
X105052500Y-59055000D03*
%TD*%
D17*
%TO.C,D1*%
X102900000Y-64135000D03*
X104775000Y-64135000D03*
%TD*%
D18*
%TO.C,U2*%
X73882500Y-46355000D03*
X73882500Y-47625000D03*
X73882500Y-48895000D03*
X73882500Y-50165000D03*
X81057500Y-50165000D03*
X81057500Y-48895000D03*
X81057500Y-47625000D03*
X81057500Y-46355000D03*
%TD*%
%TO.C,U1*%
X85312500Y-46355000D03*
X85312500Y-47625000D03*
X85312500Y-48895000D03*
X85312500Y-50165000D03*
X92487500Y-50165000D03*
X92487500Y-48895000D03*
X92487500Y-47625000D03*
X92487500Y-46355000D03*
%TD*%
D19*
%TO.C,U3*%
X76330000Y-55245000D03*
X76330000Y-56515000D03*
X76330000Y-57785000D03*
X76330000Y-59055000D03*
X81280000Y-59055000D03*
X81280000Y-57785000D03*
X81280000Y-56515000D03*
X81280000Y-55245000D03*
%TD*%
D14*
%TO.C,C2*%
X75565000Y-64135000D03*
X77465000Y-64135000D03*
%TD*%
D17*
%TO.C,D2*%
X102900000Y-52070000D03*
X104775000Y-52070000D03*
%TD*%
D11*
%TO.C,R4*%
X96600000Y-52070000D03*
X98425000Y-52070000D03*
%TD*%
%TO.C,R1*%
X97870000Y-46355000D03*
X99695000Y-46355000D03*
%TD*%
D12*
%TO.C,J2*%
X71755000Y-73025000D03*
D13*
X74295000Y-73025000D03*
X76835000Y-73025000D03*
X79375000Y-73025000D03*
%TD*%
D11*
%TO.C,R3*%
X96242500Y-62230000D03*
X98067500Y-62230000D03*
%TD*%
D20*
%TO.C,U4*%
X84730000Y-55620000D03*
X84730000Y-56420000D03*
X84730000Y-57220000D03*
X84730000Y-58020000D03*
X84730000Y-58820000D03*
X84730000Y-59620000D03*
X84730000Y-60420000D03*
X84730000Y-61220000D03*
D21*
X86100000Y-62590000D03*
X86900000Y-62590000D03*
X87700000Y-62590000D03*
X88500000Y-62590000D03*
X89300000Y-62590000D03*
X90100000Y-62590000D03*
X90900000Y-62590000D03*
X91700000Y-62590000D03*
D20*
X93070000Y-61220000D03*
X93070000Y-60420000D03*
X93070000Y-59620000D03*
X93070000Y-58820000D03*
X93070000Y-58020000D03*
X93070000Y-57220000D03*
X93070000Y-56420000D03*
X93070000Y-55620000D03*
D21*
X91700000Y-54250000D03*
X90900000Y-54250000D03*
X90100000Y-54250000D03*
X89300000Y-54250000D03*
X88500000Y-54250000D03*
X87700000Y-54250000D03*
X86900000Y-54250000D03*
X86100000Y-54250000D03*
%TD*%
D14*
%TO.C,C4*%
X94935000Y-66675000D03*
X96835000Y-66675000D03*
%TD*%
%TO.C,C5*%
X103190000Y-55245000D03*
X105090000Y-55245000D03*
%TD*%
D15*
%TO.C,H4*%
X111760000Y-72390000D03*
%TD*%
D11*
%TO.C,R7*%
X89892500Y-66675000D03*
X91717500Y-66675000D03*
%TD*%
D12*
%TO.C,J1*%
X65405000Y-56515000D03*
D13*
X65405000Y-59055000D03*
X65405000Y-61595000D03*
X65405000Y-64135000D03*
%TD*%
M02*
