%TF.GenerationSoftware,KiCad,Pcbnew,9.0.6-9.0.6~ubuntu24.04.1*%
%TF.CreationDate,2025-12-02T23:55:24-06:00*%
%TF.ProjectId,mcu_datalogger,6d63755f-6461-4746-916c-6f676765722e,v1*%
%TF.SameCoordinates,Original*%
%TF.FileFunction,Legend,Top*%
%TF.FilePolarity,Positive*%
%FSLAX46Y46*%
G04 Gerber Fmt 4.6, Leading zero omitted, Abs format (unit mm)*
G04 Created by KiCad (PCBNEW 9.0.6-9.0.6~ubuntu24.04.1) date 2025-12-02 23:55:24*
%MOMM*%
%LPD*%
G01*
G04 APERTURE LIST*
%ADD10C,0.150000*%
%ADD11C,0.120000*%
%ADD12C,0.127000*%
%ADD13C,0.200000*%
G04 APERTURE END LIST*
D10*
X68823809Y-68778628D02*
X68823809Y-69254819D01*
X68490476Y-68254819D02*
X68823809Y-68778628D01*
X68823809Y-68778628D02*
X69157142Y-68254819D01*
X70014285Y-69254819D02*
X69442857Y-69254819D01*
X69728571Y-69254819D02*
X69728571Y-68254819D01*
X69728571Y-68254819D02*
X69633333Y-68397676D01*
X69633333Y-68397676D02*
X69538095Y-68492914D01*
X69538095Y-68492914D02*
X69442857Y-68540533D01*
X70909523Y-69254819D02*
X70338095Y-69254819D01*
X70623809Y-69254819D02*
X70623809Y-68254819D01*
X70623809Y-68254819D02*
X70528571Y-68397676D01*
X70528571Y-68397676D02*
X70433333Y-68492914D01*
X70433333Y-68492914D02*
X70338095Y-68540533D01*
X71766666Y-68254819D02*
X71576190Y-68254819D01*
X71576190Y-68254819D02*
X71480952Y-68302438D01*
X71480952Y-68302438D02*
X71433333Y-68350057D01*
X71433333Y-68350057D02*
X71338095Y-68492914D01*
X71338095Y-68492914D02*
X71290476Y-68683390D01*
X71290476Y-68683390D02*
X71290476Y-69064342D01*
X71290476Y-69064342D02*
X71338095Y-69159580D01*
X71338095Y-69159580D02*
X71385714Y-69207200D01*
X71385714Y-69207200D02*
X71480952Y-69254819D01*
X71480952Y-69254819D02*
X71671428Y-69254819D01*
X71671428Y-69254819D02*
X71766666Y-69207200D01*
X71766666Y-69207200D02*
X71814285Y-69159580D01*
X71814285Y-69159580D02*
X71861904Y-69064342D01*
X71861904Y-69064342D02*
X71861904Y-68826247D01*
X71861904Y-68826247D02*
X71814285Y-68731009D01*
X71814285Y-68731009D02*
X71766666Y-68683390D01*
X71766666Y-68683390D02*
X71671428Y-68635771D01*
X71671428Y-68635771D02*
X71480952Y-68635771D01*
X71480952Y-68635771D02*
X71385714Y-68683390D01*
X71385714Y-68683390D02*
X71338095Y-68731009D01*
X71338095Y-68731009D02*
X71290476Y-68826247D01*
X72290476Y-69254819D02*
X72290476Y-68254819D01*
X72290476Y-68254819D02*
X72623809Y-68969104D01*
X72623809Y-68969104D02*
X72957142Y-68254819D01*
X72957142Y-68254819D02*
X72957142Y-69254819D01*
X73433333Y-69254819D02*
X73433333Y-68254819D01*
X73433333Y-68731009D02*
X74004761Y-68731009D01*
X74004761Y-69254819D02*
X74004761Y-68254819D01*
X74385714Y-68588152D02*
X74909523Y-68588152D01*
X74909523Y-68588152D02*
X74385714Y-69254819D01*
X74385714Y-69254819D02*
X74909523Y-69254819D01*
X83617319Y-66796666D02*
X83141128Y-67129999D01*
X83617319Y-67368094D02*
X82617319Y-67368094D01*
X82617319Y-67368094D02*
X82617319Y-66987142D01*
X82617319Y-66987142D02*
X82664938Y-66891904D01*
X82664938Y-66891904D02*
X82712557Y-66844285D01*
X82712557Y-66844285D02*
X82807795Y-66796666D01*
X82807795Y-66796666D02*
X82950652Y-66796666D01*
X82950652Y-66796666D02*
X83045890Y-66844285D01*
X83045890Y-66844285D02*
X83093509Y-66891904D01*
X83093509Y-66891904D02*
X83141128Y-66987142D01*
X83141128Y-66987142D02*
X83141128Y-67368094D01*
X82617319Y-65939523D02*
X82617319Y-66129999D01*
X82617319Y-66129999D02*
X82664938Y-66225237D01*
X82664938Y-66225237D02*
X82712557Y-66272856D01*
X82712557Y-66272856D02*
X82855414Y-66368094D01*
X82855414Y-66368094D02*
X83045890Y-66415713D01*
X83045890Y-66415713D02*
X83426842Y-66415713D01*
X83426842Y-66415713D02*
X83522080Y-66368094D01*
X83522080Y-66368094D02*
X83569700Y-66320475D01*
X83569700Y-66320475D02*
X83617319Y-66225237D01*
X83617319Y-66225237D02*
X83617319Y-66034761D01*
X83617319Y-66034761D02*
X83569700Y-65939523D01*
X83569700Y-65939523D02*
X83522080Y-65891904D01*
X83522080Y-65891904D02*
X83426842Y-65844285D01*
X83426842Y-65844285D02*
X83188747Y-65844285D01*
X83188747Y-65844285D02*
X83093509Y-65891904D01*
X83093509Y-65891904D02*
X83045890Y-65939523D01*
X83045890Y-65939523D02*
X82998271Y-66034761D01*
X82998271Y-66034761D02*
X82998271Y-66225237D01*
X82998271Y-66225237D02*
X83045890Y-66320475D01*
X83045890Y-66320475D02*
X83093509Y-66368094D01*
X83093509Y-66368094D02*
X83188747Y-66415713D01*
X84304642Y-68779819D02*
X83971309Y-68303628D01*
X83733214Y-68779819D02*
X83733214Y-67779819D01*
X83733214Y-67779819D02*
X84114166Y-67779819D01*
X84114166Y-67779819D02*
X84209404Y-67827438D01*
X84209404Y-67827438D02*
X84257023Y-67875057D01*
X84257023Y-67875057D02*
X84304642Y-67970295D01*
X84304642Y-67970295D02*
X84304642Y-68113152D01*
X84304642Y-68113152D02*
X84257023Y-68208390D01*
X84257023Y-68208390D02*
X84209404Y-68256009D01*
X84209404Y-68256009D02*
X84114166Y-68303628D01*
X84114166Y-68303628D02*
X83733214Y-68303628D01*
X85257023Y-68779819D02*
X84685595Y-68779819D01*
X84971309Y-68779819D02*
X84971309Y-67779819D01*
X84971309Y-67779819D02*
X84876071Y-67922676D01*
X84876071Y-67922676D02*
X84780833Y-68017914D01*
X84780833Y-68017914D02*
X84685595Y-68065533D01*
X85876071Y-67779819D02*
X85971309Y-67779819D01*
X85971309Y-67779819D02*
X86066547Y-67827438D01*
X86066547Y-67827438D02*
X86114166Y-67875057D01*
X86114166Y-67875057D02*
X86161785Y-67970295D01*
X86161785Y-67970295D02*
X86209404Y-68160771D01*
X86209404Y-68160771D02*
X86209404Y-68398866D01*
X86209404Y-68398866D02*
X86161785Y-68589342D01*
X86161785Y-68589342D02*
X86114166Y-68684580D01*
X86114166Y-68684580D02*
X86066547Y-68732200D01*
X86066547Y-68732200D02*
X85971309Y-68779819D01*
X85971309Y-68779819D02*
X85876071Y-68779819D01*
X85876071Y-68779819D02*
X85780833Y-68732200D01*
X85780833Y-68732200D02*
X85733214Y-68684580D01*
X85733214Y-68684580D02*
X85685595Y-68589342D01*
X85685595Y-68589342D02*
X85637976Y-68398866D01*
X85637976Y-68398866D02*
X85637976Y-68160771D01*
X85637976Y-68160771D02*
X85685595Y-67970295D01*
X85685595Y-67970295D02*
X85733214Y-67875057D01*
X85733214Y-67875057D02*
X85780833Y-67827438D01*
X85780833Y-67827438D02*
X85876071Y-67779819D01*
X86637976Y-68779819D02*
X86637976Y-67779819D01*
X87209404Y-68779819D02*
X86780833Y-68208390D01*
X87209404Y-67779819D02*
X86637976Y-68351247D01*
X101056009Y-47775714D02*
X101103628Y-47632857D01*
X101103628Y-47632857D02*
X101151247Y-47585238D01*
X101151247Y-47585238D02*
X101246485Y-47537619D01*
X101246485Y-47537619D02*
X101389342Y-47537619D01*
X101389342Y-47537619D02*
X101484580Y-47585238D01*
X101484580Y-47585238D02*
X101532200Y-47632857D01*
X101532200Y-47632857D02*
X101579819Y-47728095D01*
X101579819Y-47728095D02*
X101579819Y-48109047D01*
X101579819Y-48109047D02*
X100579819Y-48109047D01*
X100579819Y-48109047D02*
X100579819Y-47775714D01*
X100579819Y-47775714D02*
X100627438Y-47680476D01*
X100627438Y-47680476D02*
X100675057Y-47632857D01*
X100675057Y-47632857D02*
X100770295Y-47585238D01*
X100770295Y-47585238D02*
X100865533Y-47585238D01*
X100865533Y-47585238D02*
X100960771Y-47632857D01*
X100960771Y-47632857D02*
X101008390Y-47680476D01*
X101008390Y-47680476D02*
X101056009Y-47775714D01*
X101056009Y-47775714D02*
X101056009Y-48109047D01*
X100579819Y-47251904D02*
X100579819Y-46680476D01*
X101579819Y-46966190D02*
X100579819Y-46966190D01*
X101579819Y-45823333D02*
X101579819Y-46394761D01*
X101579819Y-46109047D02*
X100579819Y-46109047D01*
X100579819Y-46109047D02*
X100722676Y-46204285D01*
X100722676Y-46204285D02*
X100817914Y-46299523D01*
X100817914Y-46299523D02*
X100865533Y-46394761D01*
X102628570Y-49331009D02*
X102771427Y-49378628D01*
X102771427Y-49378628D02*
X102819046Y-49426247D01*
X102819046Y-49426247D02*
X102866665Y-49521485D01*
X102866665Y-49521485D02*
X102866665Y-49664342D01*
X102866665Y-49664342D02*
X102819046Y-49759580D01*
X102819046Y-49759580D02*
X102771427Y-49807200D01*
X102771427Y-49807200D02*
X102676189Y-49854819D01*
X102676189Y-49854819D02*
X102295237Y-49854819D01*
X102295237Y-49854819D02*
X102295237Y-48854819D01*
X102295237Y-48854819D02*
X102628570Y-48854819D01*
X102628570Y-48854819D02*
X102723808Y-48902438D01*
X102723808Y-48902438D02*
X102771427Y-48950057D01*
X102771427Y-48950057D02*
X102819046Y-49045295D01*
X102819046Y-49045295D02*
X102819046Y-49140533D01*
X102819046Y-49140533D02*
X102771427Y-49235771D01*
X102771427Y-49235771D02*
X102723808Y-49283390D01*
X102723808Y-49283390D02*
X102628570Y-49331009D01*
X102628570Y-49331009D02*
X102295237Y-49331009D01*
X103723808Y-49854819D02*
X103723808Y-49331009D01*
X103723808Y-49331009D02*
X103676189Y-49235771D01*
X103676189Y-49235771D02*
X103580951Y-49188152D01*
X103580951Y-49188152D02*
X103390475Y-49188152D01*
X103390475Y-49188152D02*
X103295237Y-49235771D01*
X103723808Y-49807200D02*
X103628570Y-49854819D01*
X103628570Y-49854819D02*
X103390475Y-49854819D01*
X103390475Y-49854819D02*
X103295237Y-49807200D01*
X103295237Y-49807200D02*
X103247618Y-49711961D01*
X103247618Y-49711961D02*
X103247618Y-49616723D01*
X103247618Y-49616723D02*
X103295237Y-49521485D01*
X103295237Y-49521485D02*
X103390475Y-49473866D01*
X103390475Y-49473866D02*
X103628570Y-49473866D01*
X103628570Y-49473866D02*
X103723808Y-49426247D01*
X104057142Y-49188152D02*
X104438094Y-49188152D01*
X104199999Y-48854819D02*
X104199999Y-49711961D01*
X104199999Y-49711961D02*
X104247618Y-49807200D01*
X104247618Y-49807200D02*
X104342856Y-49854819D01*
X104342856Y-49854819D02*
X104438094Y-49854819D01*
X104628571Y-49188152D02*
X105009523Y-49188152D01*
X104771428Y-48854819D02*
X104771428Y-49711961D01*
X104771428Y-49711961D02*
X104819047Y-49807200D01*
X104819047Y-49807200D02*
X104914285Y-49854819D01*
X104914285Y-49854819D02*
X105009523Y-49854819D01*
X105723809Y-49807200D02*
X105628571Y-49854819D01*
X105628571Y-49854819D02*
X105438095Y-49854819D01*
X105438095Y-49854819D02*
X105342857Y-49807200D01*
X105342857Y-49807200D02*
X105295238Y-49711961D01*
X105295238Y-49711961D02*
X105295238Y-49331009D01*
X105295238Y-49331009D02*
X105342857Y-49235771D01*
X105342857Y-49235771D02*
X105438095Y-49188152D01*
X105438095Y-49188152D02*
X105628571Y-49188152D01*
X105628571Y-49188152D02*
X105723809Y-49235771D01*
X105723809Y-49235771D02*
X105771428Y-49331009D01*
X105771428Y-49331009D02*
X105771428Y-49426247D01*
X105771428Y-49426247D02*
X105295238Y-49521485D01*
X106200000Y-49854819D02*
X106200000Y-49188152D01*
X106200000Y-49378628D02*
X106247619Y-49283390D01*
X106247619Y-49283390D02*
X106295238Y-49235771D01*
X106295238Y-49235771D02*
X106390476Y-49188152D01*
X106390476Y-49188152D02*
X106485714Y-49188152D01*
X106723810Y-49188152D02*
X106961905Y-49854819D01*
X107200000Y-49188152D02*
X106961905Y-49854819D01*
X106961905Y-49854819D02*
X106866667Y-50092914D01*
X106866667Y-50092914D02*
X106819048Y-50140533D01*
X106819048Y-50140533D02*
X106723810Y-50188152D01*
X80158333Y-62814580D02*
X80110714Y-62862200D01*
X80110714Y-62862200D02*
X79967857Y-62909819D01*
X79967857Y-62909819D02*
X79872619Y-62909819D01*
X79872619Y-62909819D02*
X79729762Y-62862200D01*
X79729762Y-62862200D02*
X79634524Y-62766961D01*
X79634524Y-62766961D02*
X79586905Y-62671723D01*
X79586905Y-62671723D02*
X79539286Y-62481247D01*
X79539286Y-62481247D02*
X79539286Y-62338390D01*
X79539286Y-62338390D02*
X79586905Y-62147914D01*
X79586905Y-62147914D02*
X79634524Y-62052676D01*
X79634524Y-62052676D02*
X79729762Y-61957438D01*
X79729762Y-61957438D02*
X79872619Y-61909819D01*
X79872619Y-61909819D02*
X79967857Y-61909819D01*
X79967857Y-61909819D02*
X80110714Y-61957438D01*
X80110714Y-61957438D02*
X80158333Y-62005057D01*
X81110714Y-62909819D02*
X80539286Y-62909819D01*
X80825000Y-62909819D02*
X80825000Y-61909819D01*
X80825000Y-61909819D02*
X80729762Y-62052676D01*
X80729762Y-62052676D02*
X80634524Y-62147914D01*
X80634524Y-62147914D02*
X80539286Y-62195533D01*
X78682143Y-65365057D02*
X78729762Y-65317438D01*
X78729762Y-65317438D02*
X78825000Y-65269819D01*
X78825000Y-65269819D02*
X79063095Y-65269819D01*
X79063095Y-65269819D02*
X79158333Y-65317438D01*
X79158333Y-65317438D02*
X79205952Y-65365057D01*
X79205952Y-65365057D02*
X79253571Y-65460295D01*
X79253571Y-65460295D02*
X79253571Y-65555533D01*
X79253571Y-65555533D02*
X79205952Y-65698390D01*
X79205952Y-65698390D02*
X78634524Y-66269819D01*
X78634524Y-66269819D02*
X79253571Y-66269819D01*
X79634524Y-65365057D02*
X79682143Y-65317438D01*
X79682143Y-65317438D02*
X79777381Y-65269819D01*
X79777381Y-65269819D02*
X80015476Y-65269819D01*
X80015476Y-65269819D02*
X80110714Y-65317438D01*
X80110714Y-65317438D02*
X80158333Y-65365057D01*
X80158333Y-65365057D02*
X80205952Y-65460295D01*
X80205952Y-65460295D02*
X80205952Y-65555533D01*
X80205952Y-65555533D02*
X80158333Y-65698390D01*
X80158333Y-65698390D02*
X79586905Y-66269819D01*
X79586905Y-66269819D02*
X80205952Y-66269819D01*
X80634524Y-65603152D02*
X80634524Y-66603152D01*
X80634524Y-65650771D02*
X80729762Y-65603152D01*
X80729762Y-65603152D02*
X80920238Y-65603152D01*
X80920238Y-65603152D02*
X81015476Y-65650771D01*
X81015476Y-65650771D02*
X81063095Y-65698390D01*
X81063095Y-65698390D02*
X81110714Y-65793628D01*
X81110714Y-65793628D02*
X81110714Y-66079342D01*
X81110714Y-66079342D02*
X81063095Y-66174580D01*
X81063095Y-66174580D02*
X81015476Y-66222200D01*
X81015476Y-66222200D02*
X80920238Y-66269819D01*
X80920238Y-66269819D02*
X80729762Y-66269819D01*
X80729762Y-66269819D02*
X80634524Y-66222200D01*
X81872619Y-65746009D02*
X81539286Y-65746009D01*
X81539286Y-66269819D02*
X81539286Y-65269819D01*
X81539286Y-65269819D02*
X82015476Y-65269819D01*
X109823810Y-64624819D02*
X109823810Y-63624819D01*
X110871428Y-64529580D02*
X110823809Y-64577200D01*
X110823809Y-64577200D02*
X110680952Y-64624819D01*
X110680952Y-64624819D02*
X110585714Y-64624819D01*
X110585714Y-64624819D02*
X110442857Y-64577200D01*
X110442857Y-64577200D02*
X110347619Y-64481961D01*
X110347619Y-64481961D02*
X110300000Y-64386723D01*
X110300000Y-64386723D02*
X110252381Y-64196247D01*
X110252381Y-64196247D02*
X110252381Y-64053390D01*
X110252381Y-64053390D02*
X110300000Y-63862914D01*
X110300000Y-63862914D02*
X110347619Y-63767676D01*
X110347619Y-63767676D02*
X110442857Y-63672438D01*
X110442857Y-63672438D02*
X110585714Y-63624819D01*
X110585714Y-63624819D02*
X110680952Y-63624819D01*
X110680952Y-63624819D02*
X110823809Y-63672438D01*
X110823809Y-63672438D02*
X110871428Y-63720057D01*
X111252381Y-64577200D02*
X111395238Y-64624819D01*
X111395238Y-64624819D02*
X111633333Y-64624819D01*
X111633333Y-64624819D02*
X111728571Y-64577200D01*
X111728571Y-64577200D02*
X111776190Y-64529580D01*
X111776190Y-64529580D02*
X111823809Y-64434342D01*
X111823809Y-64434342D02*
X111823809Y-64339104D01*
X111823809Y-64339104D02*
X111776190Y-64243866D01*
X111776190Y-64243866D02*
X111728571Y-64196247D01*
X111728571Y-64196247D02*
X111633333Y-64148628D01*
X111633333Y-64148628D02*
X111442857Y-64101009D01*
X111442857Y-64101009D02*
X111347619Y-64053390D01*
X111347619Y-64053390D02*
X111300000Y-64005771D01*
X111300000Y-64005771D02*
X111252381Y-63910533D01*
X111252381Y-63910533D02*
X111252381Y-63815295D01*
X111252381Y-63815295D02*
X111300000Y-63720057D01*
X111300000Y-63720057D02*
X111347619Y-63672438D01*
X111347619Y-63672438D02*
X111442857Y-63624819D01*
X111442857Y-63624819D02*
X111680952Y-63624819D01*
X111680952Y-63624819D02*
X111823809Y-63672438D01*
X112252381Y-64624819D02*
X112252381Y-63624819D01*
X112252381Y-63624819D02*
X112633333Y-63624819D01*
X112633333Y-63624819D02*
X112728571Y-63672438D01*
X112728571Y-63672438D02*
X112776190Y-63720057D01*
X112776190Y-63720057D02*
X112823809Y-63815295D01*
X112823809Y-63815295D02*
X112823809Y-63958152D01*
X112823809Y-63958152D02*
X112776190Y-64053390D01*
X112776190Y-64053390D02*
X112728571Y-64101009D01*
X112728571Y-64101009D02*
X112633333Y-64148628D01*
X112633333Y-64148628D02*
X112252381Y-64148628D01*
X85066666Y-70054819D02*
X85066666Y-70769104D01*
X85066666Y-70769104D02*
X85019047Y-70911961D01*
X85019047Y-70911961D02*
X84923809Y-71007200D01*
X84923809Y-71007200D02*
X84780952Y-71054819D01*
X84780952Y-71054819D02*
X84685714Y-71054819D01*
X85447619Y-70054819D02*
X86066666Y-70054819D01*
X86066666Y-70054819D02*
X85733333Y-70435771D01*
X85733333Y-70435771D02*
X85876190Y-70435771D01*
X85876190Y-70435771D02*
X85971428Y-70483390D01*
X85971428Y-70483390D02*
X86019047Y-70531009D01*
X86019047Y-70531009D02*
X86066666Y-70626247D01*
X86066666Y-70626247D02*
X86066666Y-70864342D01*
X86066666Y-70864342D02*
X86019047Y-70959580D01*
X86019047Y-70959580D02*
X85971428Y-71007200D01*
X85971428Y-71007200D02*
X85876190Y-71054819D01*
X85876190Y-71054819D02*
X85590476Y-71054819D01*
X85590476Y-71054819D02*
X85495238Y-71007200D01*
X85495238Y-71007200D02*
X85447619Y-70959580D01*
X87700000Y-70102438D02*
X87604762Y-70054819D01*
X87604762Y-70054819D02*
X87461905Y-70054819D01*
X87461905Y-70054819D02*
X87319048Y-70102438D01*
X87319048Y-70102438D02*
X87223810Y-70197676D01*
X87223810Y-70197676D02*
X87176191Y-70292914D01*
X87176191Y-70292914D02*
X87128572Y-70483390D01*
X87128572Y-70483390D02*
X87128572Y-70626247D01*
X87128572Y-70626247D02*
X87176191Y-70816723D01*
X87176191Y-70816723D02*
X87223810Y-70911961D01*
X87223810Y-70911961D02*
X87319048Y-71007200D01*
X87319048Y-71007200D02*
X87461905Y-71054819D01*
X87461905Y-71054819D02*
X87557143Y-71054819D01*
X87557143Y-71054819D02*
X87700000Y-71007200D01*
X87700000Y-71007200D02*
X87747619Y-70959580D01*
X87747619Y-70959580D02*
X87747619Y-70626247D01*
X87747619Y-70626247D02*
X87557143Y-70626247D01*
X88176191Y-71054819D02*
X88176191Y-70054819D01*
X88176191Y-70054819D02*
X88557143Y-70054819D01*
X88557143Y-70054819D02*
X88652381Y-70102438D01*
X88652381Y-70102438D02*
X88700000Y-70150057D01*
X88700000Y-70150057D02*
X88747619Y-70245295D01*
X88747619Y-70245295D02*
X88747619Y-70388152D01*
X88747619Y-70388152D02*
X88700000Y-70483390D01*
X88700000Y-70483390D02*
X88652381Y-70531009D01*
X88652381Y-70531009D02*
X88557143Y-70578628D01*
X88557143Y-70578628D02*
X88176191Y-70578628D01*
X89176191Y-71054819D02*
X89176191Y-70054819D01*
X89842857Y-70054819D02*
X90033333Y-70054819D01*
X90033333Y-70054819D02*
X90128571Y-70102438D01*
X90128571Y-70102438D02*
X90223809Y-70197676D01*
X90223809Y-70197676D02*
X90271428Y-70388152D01*
X90271428Y-70388152D02*
X90271428Y-70721485D01*
X90271428Y-70721485D02*
X90223809Y-70911961D01*
X90223809Y-70911961D02*
X90128571Y-71007200D01*
X90128571Y-71007200D02*
X90033333Y-71054819D01*
X90033333Y-71054819D02*
X89842857Y-71054819D01*
X89842857Y-71054819D02*
X89747619Y-71007200D01*
X89747619Y-71007200D02*
X89652381Y-70911961D01*
X89652381Y-70911961D02*
X89604762Y-70721485D01*
X89604762Y-70721485D02*
X89604762Y-70388152D01*
X89604762Y-70388152D02*
X89652381Y-70197676D01*
X89652381Y-70197676D02*
X89747619Y-70102438D01*
X89747619Y-70102438D02*
X89842857Y-70054819D01*
X97098333Y-55759580D02*
X97050714Y-55807200D01*
X97050714Y-55807200D02*
X96907857Y-55854819D01*
X96907857Y-55854819D02*
X96812619Y-55854819D01*
X96812619Y-55854819D02*
X96669762Y-55807200D01*
X96669762Y-55807200D02*
X96574524Y-55711961D01*
X96574524Y-55711961D02*
X96526905Y-55616723D01*
X96526905Y-55616723D02*
X96479286Y-55426247D01*
X96479286Y-55426247D02*
X96479286Y-55283390D01*
X96479286Y-55283390D02*
X96526905Y-55092914D01*
X96526905Y-55092914D02*
X96574524Y-54997676D01*
X96574524Y-54997676D02*
X96669762Y-54902438D01*
X96669762Y-54902438D02*
X96812619Y-54854819D01*
X96812619Y-54854819D02*
X96907857Y-54854819D01*
X96907857Y-54854819D02*
X97050714Y-54902438D01*
X97050714Y-54902438D02*
X97098333Y-54950057D01*
X97431667Y-54854819D02*
X98050714Y-54854819D01*
X98050714Y-54854819D02*
X97717381Y-55235771D01*
X97717381Y-55235771D02*
X97860238Y-55235771D01*
X97860238Y-55235771D02*
X97955476Y-55283390D01*
X97955476Y-55283390D02*
X98003095Y-55331009D01*
X98003095Y-55331009D02*
X98050714Y-55426247D01*
X98050714Y-55426247D02*
X98050714Y-55664342D01*
X98050714Y-55664342D02*
X98003095Y-55759580D01*
X98003095Y-55759580D02*
X97955476Y-55807200D01*
X97955476Y-55807200D02*
X97860238Y-55854819D01*
X97860238Y-55854819D02*
X97574524Y-55854819D01*
X97574524Y-55854819D02*
X97479286Y-55807200D01*
X97479286Y-55807200D02*
X97431667Y-55759580D01*
X95512143Y-58284819D02*
X95607381Y-58284819D01*
X95607381Y-58284819D02*
X95702619Y-58332438D01*
X95702619Y-58332438D02*
X95750238Y-58380057D01*
X95750238Y-58380057D02*
X95797857Y-58475295D01*
X95797857Y-58475295D02*
X95845476Y-58665771D01*
X95845476Y-58665771D02*
X95845476Y-58903866D01*
X95845476Y-58903866D02*
X95797857Y-59094342D01*
X95797857Y-59094342D02*
X95750238Y-59189580D01*
X95750238Y-59189580D02*
X95702619Y-59237200D01*
X95702619Y-59237200D02*
X95607381Y-59284819D01*
X95607381Y-59284819D02*
X95512143Y-59284819D01*
X95512143Y-59284819D02*
X95416905Y-59237200D01*
X95416905Y-59237200D02*
X95369286Y-59189580D01*
X95369286Y-59189580D02*
X95321667Y-59094342D01*
X95321667Y-59094342D02*
X95274048Y-58903866D01*
X95274048Y-58903866D02*
X95274048Y-58665771D01*
X95274048Y-58665771D02*
X95321667Y-58475295D01*
X95321667Y-58475295D02*
X95369286Y-58380057D01*
X95369286Y-58380057D02*
X95416905Y-58332438D01*
X95416905Y-58332438D02*
X95512143Y-58284819D01*
X96274048Y-59189580D02*
X96321667Y-59237200D01*
X96321667Y-59237200D02*
X96274048Y-59284819D01*
X96274048Y-59284819D02*
X96226429Y-59237200D01*
X96226429Y-59237200D02*
X96274048Y-59189580D01*
X96274048Y-59189580D02*
X96274048Y-59284819D01*
X97274047Y-59284819D02*
X96702619Y-59284819D01*
X96988333Y-59284819D02*
X96988333Y-58284819D01*
X96988333Y-58284819D02*
X96893095Y-58427676D01*
X96893095Y-58427676D02*
X96797857Y-58522914D01*
X96797857Y-58522914D02*
X96702619Y-58570533D01*
X98131190Y-58618152D02*
X98131190Y-59284819D01*
X97702619Y-58618152D02*
X97702619Y-59141961D01*
X97702619Y-59141961D02*
X97750238Y-59237200D01*
X97750238Y-59237200D02*
X97845476Y-59284819D01*
X97845476Y-59284819D02*
X97988333Y-59284819D01*
X97988333Y-59284819D02*
X98083571Y-59237200D01*
X98083571Y-59237200D02*
X98131190Y-59189580D01*
X98940714Y-58761009D02*
X98607381Y-58761009D01*
X98607381Y-59284819D02*
X98607381Y-58284819D01*
X98607381Y-58284819D02*
X99083571Y-58284819D01*
X68299819Y-61116666D02*
X67823628Y-61449999D01*
X68299819Y-61688094D02*
X67299819Y-61688094D01*
X67299819Y-61688094D02*
X67299819Y-61307142D01*
X67299819Y-61307142D02*
X67347438Y-61211904D01*
X67347438Y-61211904D02*
X67395057Y-61164285D01*
X67395057Y-61164285D02*
X67490295Y-61116666D01*
X67490295Y-61116666D02*
X67633152Y-61116666D01*
X67633152Y-61116666D02*
X67728390Y-61164285D01*
X67728390Y-61164285D02*
X67776009Y-61211904D01*
X67776009Y-61211904D02*
X67823628Y-61307142D01*
X67823628Y-61307142D02*
X67823628Y-61688094D01*
X67299819Y-60211904D02*
X67299819Y-60688094D01*
X67299819Y-60688094D02*
X67776009Y-60735713D01*
X67776009Y-60735713D02*
X67728390Y-60688094D01*
X67728390Y-60688094D02*
X67680771Y-60592856D01*
X67680771Y-60592856D02*
X67680771Y-60354761D01*
X67680771Y-60354761D02*
X67728390Y-60259523D01*
X67728390Y-60259523D02*
X67776009Y-60211904D01*
X67776009Y-60211904D02*
X67871247Y-60164285D01*
X67871247Y-60164285D02*
X68109342Y-60164285D01*
X68109342Y-60164285D02*
X68204580Y-60211904D01*
X68204580Y-60211904D02*
X68252200Y-60259523D01*
X68252200Y-60259523D02*
X68299819Y-60354761D01*
X68299819Y-60354761D02*
X68299819Y-60592856D01*
X68299819Y-60592856D02*
X68252200Y-60688094D01*
X68252200Y-60688094D02*
X68204580Y-60735713D01*
X69076190Y-62453152D02*
X69076190Y-63119819D01*
X68838095Y-62072200D02*
X68600000Y-62786485D01*
X68600000Y-62786485D02*
X69219047Y-62786485D01*
X69600000Y-63024580D02*
X69647619Y-63072200D01*
X69647619Y-63072200D02*
X69600000Y-63119819D01*
X69600000Y-63119819D02*
X69552381Y-63072200D01*
X69552381Y-63072200D02*
X69600000Y-63024580D01*
X69600000Y-63024580D02*
X69600000Y-63119819D01*
X69980952Y-62119819D02*
X70647618Y-62119819D01*
X70647618Y-62119819D02*
X70219047Y-63119819D01*
X71028571Y-63119819D02*
X71028571Y-62119819D01*
X71599999Y-63119819D02*
X71171428Y-62548390D01*
X71599999Y-62119819D02*
X71028571Y-62691247D01*
X65278095Y-51254819D02*
X65278095Y-50254819D01*
X65278095Y-50731009D02*
X65849523Y-50731009D01*
X65849523Y-51254819D02*
X65849523Y-50254819D01*
X66278095Y-50350057D02*
X66325714Y-50302438D01*
X66325714Y-50302438D02*
X66420952Y-50254819D01*
X66420952Y-50254819D02*
X66659047Y-50254819D01*
X66659047Y-50254819D02*
X66754285Y-50302438D01*
X66754285Y-50302438D02*
X66801904Y-50350057D01*
X66801904Y-50350057D02*
X66849523Y-50445295D01*
X66849523Y-50445295D02*
X66849523Y-50540533D01*
X66849523Y-50540533D02*
X66801904Y-50683390D01*
X66801904Y-50683390D02*
X66230476Y-51254819D01*
X66230476Y-51254819D02*
X66849523Y-51254819D01*
X110998095Y-51354819D02*
X110998095Y-50354819D01*
X110998095Y-50831009D02*
X111569523Y-50831009D01*
X111569523Y-51354819D02*
X111569523Y-50354819D01*
X111950476Y-50354819D02*
X112569523Y-50354819D01*
X112569523Y-50354819D02*
X112236190Y-50735771D01*
X112236190Y-50735771D02*
X112379047Y-50735771D01*
X112379047Y-50735771D02*
X112474285Y-50783390D01*
X112474285Y-50783390D02*
X112521904Y-50831009D01*
X112521904Y-50831009D02*
X112569523Y-50926247D01*
X112569523Y-50926247D02*
X112569523Y-51164342D01*
X112569523Y-51164342D02*
X112521904Y-51259580D01*
X112521904Y-51259580D02*
X112474285Y-51307200D01*
X112474285Y-51307200D02*
X112379047Y-51354819D01*
X112379047Y-51354819D02*
X112093333Y-51354819D01*
X112093333Y-51354819D02*
X111998095Y-51307200D01*
X111998095Y-51307200D02*
X111950476Y-51259580D01*
X65278095Y-69794819D02*
X65278095Y-68794819D01*
X65278095Y-69271009D02*
X65849523Y-69271009D01*
X65849523Y-69794819D02*
X65849523Y-68794819D01*
X66849523Y-69794819D02*
X66278095Y-69794819D01*
X66563809Y-69794819D02*
X66563809Y-68794819D01*
X66563809Y-68794819D02*
X66468571Y-68937676D01*
X66468571Y-68937676D02*
X66373333Y-69032914D01*
X66373333Y-69032914D02*
X66278095Y-69080533D01*
X69588809Y-51473628D02*
X69588809Y-51949819D01*
X69255476Y-50949819D02*
X69588809Y-51473628D01*
X69588809Y-51473628D02*
X69922142Y-50949819D01*
X70207857Y-51045057D02*
X70255476Y-50997438D01*
X70255476Y-50997438D02*
X70350714Y-50949819D01*
X70350714Y-50949819D02*
X70588809Y-50949819D01*
X70588809Y-50949819D02*
X70684047Y-50997438D01*
X70684047Y-50997438D02*
X70731666Y-51045057D01*
X70731666Y-51045057D02*
X70779285Y-51140295D01*
X70779285Y-51140295D02*
X70779285Y-51235533D01*
X70779285Y-51235533D02*
X70731666Y-51378390D01*
X70731666Y-51378390D02*
X70160238Y-51949819D01*
X70160238Y-51949819D02*
X70779285Y-51949819D01*
X72154819Y-59785713D02*
X72154819Y-59166666D01*
X72154819Y-59166666D02*
X72535771Y-59499999D01*
X72535771Y-59499999D02*
X72535771Y-59357142D01*
X72535771Y-59357142D02*
X72583390Y-59261904D01*
X72583390Y-59261904D02*
X72631009Y-59214285D01*
X72631009Y-59214285D02*
X72726247Y-59166666D01*
X72726247Y-59166666D02*
X72964342Y-59166666D01*
X72964342Y-59166666D02*
X73059580Y-59214285D01*
X73059580Y-59214285D02*
X73107200Y-59261904D01*
X73107200Y-59261904D02*
X73154819Y-59357142D01*
X73154819Y-59357142D02*
X73154819Y-59642856D01*
X73154819Y-59642856D02*
X73107200Y-59738094D01*
X73107200Y-59738094D02*
X73059580Y-59785713D01*
X72250057Y-58785713D02*
X72202438Y-58738094D01*
X72202438Y-58738094D02*
X72154819Y-58642856D01*
X72154819Y-58642856D02*
X72154819Y-58404761D01*
X72154819Y-58404761D02*
X72202438Y-58309523D01*
X72202438Y-58309523D02*
X72250057Y-58261904D01*
X72250057Y-58261904D02*
X72345295Y-58214285D01*
X72345295Y-58214285D02*
X72440533Y-58214285D01*
X72440533Y-58214285D02*
X72583390Y-58261904D01*
X72583390Y-58261904D02*
X73154819Y-58833332D01*
X73154819Y-58833332D02*
X73154819Y-58214285D01*
X73059580Y-57785713D02*
X73107200Y-57738094D01*
X73107200Y-57738094D02*
X73154819Y-57785713D01*
X73154819Y-57785713D02*
X73107200Y-57833332D01*
X73107200Y-57833332D02*
X73059580Y-57785713D01*
X73059580Y-57785713D02*
X73154819Y-57785713D01*
X72154819Y-57404761D02*
X72154819Y-56738095D01*
X72154819Y-56738095D02*
X73154819Y-57166666D01*
X72154819Y-55928571D02*
X72154819Y-56119047D01*
X72154819Y-56119047D02*
X72202438Y-56214285D01*
X72202438Y-56214285D02*
X72250057Y-56261904D01*
X72250057Y-56261904D02*
X72392914Y-56357142D01*
X72392914Y-56357142D02*
X72583390Y-56404761D01*
X72583390Y-56404761D02*
X72964342Y-56404761D01*
X72964342Y-56404761D02*
X73059580Y-56357142D01*
X73059580Y-56357142D02*
X73107200Y-56309523D01*
X73107200Y-56309523D02*
X73154819Y-56214285D01*
X73154819Y-56214285D02*
X73154819Y-56023809D01*
X73154819Y-56023809D02*
X73107200Y-55928571D01*
X73107200Y-55928571D02*
X73059580Y-55880952D01*
X73059580Y-55880952D02*
X72964342Y-55833333D01*
X72964342Y-55833333D02*
X72726247Y-55833333D01*
X72726247Y-55833333D02*
X72631009Y-55880952D01*
X72631009Y-55880952D02*
X72583390Y-55928571D01*
X72583390Y-55928571D02*
X72535771Y-56023809D01*
X72535771Y-56023809D02*
X72535771Y-56214285D01*
X72535771Y-56214285D02*
X72583390Y-56309523D01*
X72583390Y-56309523D02*
X72631009Y-56357142D01*
X72631009Y-56357142D02*
X72726247Y-56404761D01*
X72583390Y-55261904D02*
X72535771Y-55357142D01*
X72535771Y-55357142D02*
X72488152Y-55404761D01*
X72488152Y-55404761D02*
X72392914Y-55452380D01*
X72392914Y-55452380D02*
X72345295Y-55452380D01*
X72345295Y-55452380D02*
X72250057Y-55404761D01*
X72250057Y-55404761D02*
X72202438Y-55357142D01*
X72202438Y-55357142D02*
X72154819Y-55261904D01*
X72154819Y-55261904D02*
X72154819Y-55071428D01*
X72154819Y-55071428D02*
X72202438Y-54976190D01*
X72202438Y-54976190D02*
X72250057Y-54928571D01*
X72250057Y-54928571D02*
X72345295Y-54880952D01*
X72345295Y-54880952D02*
X72392914Y-54880952D01*
X72392914Y-54880952D02*
X72488152Y-54928571D01*
X72488152Y-54928571D02*
X72535771Y-54976190D01*
X72535771Y-54976190D02*
X72583390Y-55071428D01*
X72583390Y-55071428D02*
X72583390Y-55261904D01*
X72583390Y-55261904D02*
X72631009Y-55357142D01*
X72631009Y-55357142D02*
X72678628Y-55404761D01*
X72678628Y-55404761D02*
X72773866Y-55452380D01*
X72773866Y-55452380D02*
X72964342Y-55452380D01*
X72964342Y-55452380D02*
X73059580Y-55404761D01*
X73059580Y-55404761D02*
X73107200Y-55357142D01*
X73107200Y-55357142D02*
X73154819Y-55261904D01*
X73154819Y-55261904D02*
X73154819Y-55071428D01*
X73154819Y-55071428D02*
X73107200Y-54976190D01*
X73107200Y-54976190D02*
X73059580Y-54928571D01*
X73059580Y-54928571D02*
X72964342Y-54880952D01*
X72964342Y-54880952D02*
X72773866Y-54880952D01*
X72773866Y-54880952D02*
X72678628Y-54928571D01*
X72678628Y-54928571D02*
X72631009Y-54976190D01*
X72631009Y-54976190D02*
X72583390Y-55071428D01*
X73154819Y-53690475D02*
X72154819Y-53690475D01*
X73154819Y-53119047D02*
X72583390Y-53547618D01*
X72154819Y-53119047D02*
X72726247Y-53690475D01*
X73154819Y-52690475D02*
X72154819Y-52690475D01*
X72631009Y-52690475D02*
X72631009Y-52119047D01*
X73154819Y-52119047D02*
X72154819Y-52119047D01*
X72488152Y-51738094D02*
X72488152Y-51214285D01*
X72488152Y-51214285D02*
X73154819Y-51738094D01*
X73154819Y-51738094D02*
X73154819Y-51214285D01*
X102102319Y-59266666D02*
X101626128Y-59599999D01*
X102102319Y-59838094D02*
X101102319Y-59838094D01*
X101102319Y-59838094D02*
X101102319Y-59457142D01*
X101102319Y-59457142D02*
X101149938Y-59361904D01*
X101149938Y-59361904D02*
X101197557Y-59314285D01*
X101197557Y-59314285D02*
X101292795Y-59266666D01*
X101292795Y-59266666D02*
X101435652Y-59266666D01*
X101435652Y-59266666D02*
X101530890Y-59314285D01*
X101530890Y-59314285D02*
X101578509Y-59361904D01*
X101578509Y-59361904D02*
X101626128Y-59457142D01*
X101626128Y-59457142D02*
X101626128Y-59838094D01*
X101197557Y-58885713D02*
X101149938Y-58838094D01*
X101149938Y-58838094D02*
X101102319Y-58742856D01*
X101102319Y-58742856D02*
X101102319Y-58504761D01*
X101102319Y-58504761D02*
X101149938Y-58409523D01*
X101149938Y-58409523D02*
X101197557Y-58361904D01*
X101197557Y-58361904D02*
X101292795Y-58314285D01*
X101292795Y-58314285D02*
X101388033Y-58314285D01*
X101388033Y-58314285D02*
X101530890Y-58361904D01*
X101530890Y-58361904D02*
X102102319Y-58933332D01*
X102102319Y-58933332D02*
X102102319Y-58314285D01*
X102854286Y-60159819D02*
X103473333Y-60159819D01*
X103473333Y-60159819D02*
X103140000Y-60540771D01*
X103140000Y-60540771D02*
X103282857Y-60540771D01*
X103282857Y-60540771D02*
X103378095Y-60588390D01*
X103378095Y-60588390D02*
X103425714Y-60636009D01*
X103425714Y-60636009D02*
X103473333Y-60731247D01*
X103473333Y-60731247D02*
X103473333Y-60969342D01*
X103473333Y-60969342D02*
X103425714Y-61064580D01*
X103425714Y-61064580D02*
X103378095Y-61112200D01*
X103378095Y-61112200D02*
X103282857Y-61159819D01*
X103282857Y-61159819D02*
X102997143Y-61159819D01*
X102997143Y-61159819D02*
X102901905Y-61112200D01*
X102901905Y-61112200D02*
X102854286Y-61064580D01*
X103806667Y-60159819D02*
X104425714Y-60159819D01*
X104425714Y-60159819D02*
X104092381Y-60540771D01*
X104092381Y-60540771D02*
X104235238Y-60540771D01*
X104235238Y-60540771D02*
X104330476Y-60588390D01*
X104330476Y-60588390D02*
X104378095Y-60636009D01*
X104378095Y-60636009D02*
X104425714Y-60731247D01*
X104425714Y-60731247D02*
X104425714Y-60969342D01*
X104425714Y-60969342D02*
X104378095Y-61064580D01*
X104378095Y-61064580D02*
X104330476Y-61112200D01*
X104330476Y-61112200D02*
X104235238Y-61159819D01*
X104235238Y-61159819D02*
X103949524Y-61159819D01*
X103949524Y-61159819D02*
X103854286Y-61112200D01*
X103854286Y-61112200D02*
X103806667Y-61064580D01*
X105044762Y-60159819D02*
X105140000Y-60159819D01*
X105140000Y-60159819D02*
X105235238Y-60207438D01*
X105235238Y-60207438D02*
X105282857Y-60255057D01*
X105282857Y-60255057D02*
X105330476Y-60350295D01*
X105330476Y-60350295D02*
X105378095Y-60540771D01*
X105378095Y-60540771D02*
X105378095Y-60778866D01*
X105378095Y-60778866D02*
X105330476Y-60969342D01*
X105330476Y-60969342D02*
X105282857Y-61064580D01*
X105282857Y-61064580D02*
X105235238Y-61112200D01*
X105235238Y-61112200D02*
X105140000Y-61159819D01*
X105140000Y-61159819D02*
X105044762Y-61159819D01*
X105044762Y-61159819D02*
X104949524Y-61112200D01*
X104949524Y-61112200D02*
X104901905Y-61064580D01*
X104901905Y-61064580D02*
X104854286Y-60969342D01*
X104854286Y-60969342D02*
X104806667Y-60778866D01*
X104806667Y-60778866D02*
X104806667Y-60540771D01*
X104806667Y-60540771D02*
X104854286Y-60350295D01*
X104854286Y-60350295D02*
X104901905Y-60255057D01*
X104901905Y-60255057D02*
X104949524Y-60207438D01*
X104949524Y-60207438D02*
X105044762Y-60159819D01*
X103099405Y-62939819D02*
X103099405Y-61939819D01*
X103099405Y-61939819D02*
X103337500Y-61939819D01*
X103337500Y-61939819D02*
X103480357Y-61987438D01*
X103480357Y-61987438D02*
X103575595Y-62082676D01*
X103575595Y-62082676D02*
X103623214Y-62177914D01*
X103623214Y-62177914D02*
X103670833Y-62368390D01*
X103670833Y-62368390D02*
X103670833Y-62511247D01*
X103670833Y-62511247D02*
X103623214Y-62701723D01*
X103623214Y-62701723D02*
X103575595Y-62796961D01*
X103575595Y-62796961D02*
X103480357Y-62892200D01*
X103480357Y-62892200D02*
X103337500Y-62939819D01*
X103337500Y-62939819D02*
X103099405Y-62939819D01*
X104623214Y-62939819D02*
X104051786Y-62939819D01*
X104337500Y-62939819D02*
X104337500Y-61939819D01*
X104337500Y-61939819D02*
X104242262Y-62082676D01*
X104242262Y-62082676D02*
X104147024Y-62177914D01*
X104147024Y-62177914D02*
X104051786Y-62225533D01*
X103194642Y-66209819D02*
X102718452Y-66209819D01*
X102718452Y-66209819D02*
X102718452Y-65209819D01*
X103527976Y-65686009D02*
X103861309Y-65686009D01*
X104004166Y-66209819D02*
X103527976Y-66209819D01*
X103527976Y-66209819D02*
X103527976Y-65209819D01*
X103527976Y-65209819D02*
X104004166Y-65209819D01*
X104432738Y-66209819D02*
X104432738Y-65209819D01*
X104432738Y-65209819D02*
X104670833Y-65209819D01*
X104670833Y-65209819D02*
X104813690Y-65257438D01*
X104813690Y-65257438D02*
X104908928Y-65352676D01*
X104908928Y-65352676D02*
X104956547Y-65447914D01*
X104956547Y-65447914D02*
X105004166Y-65638390D01*
X105004166Y-65638390D02*
X105004166Y-65781247D01*
X105004166Y-65781247D02*
X104956547Y-65971723D01*
X104956547Y-65971723D02*
X104908928Y-66066961D01*
X104908928Y-66066961D02*
X104813690Y-66162200D01*
X104813690Y-66162200D02*
X104670833Y-66209819D01*
X104670833Y-66209819D02*
X104432738Y-66209819D01*
X71594819Y-49001904D02*
X72404342Y-49001904D01*
X72404342Y-49001904D02*
X72499580Y-48954285D01*
X72499580Y-48954285D02*
X72547200Y-48906666D01*
X72547200Y-48906666D02*
X72594819Y-48811428D01*
X72594819Y-48811428D02*
X72594819Y-48620952D01*
X72594819Y-48620952D02*
X72547200Y-48525714D01*
X72547200Y-48525714D02*
X72499580Y-48478095D01*
X72499580Y-48478095D02*
X72404342Y-48430476D01*
X72404342Y-48430476D02*
X71594819Y-48430476D01*
X71690057Y-48001904D02*
X71642438Y-47954285D01*
X71642438Y-47954285D02*
X71594819Y-47859047D01*
X71594819Y-47859047D02*
X71594819Y-47620952D01*
X71594819Y-47620952D02*
X71642438Y-47525714D01*
X71642438Y-47525714D02*
X71690057Y-47478095D01*
X71690057Y-47478095D02*
X71785295Y-47430476D01*
X71785295Y-47430476D02*
X71880533Y-47430476D01*
X71880533Y-47430476D02*
X72023390Y-47478095D01*
X72023390Y-47478095D02*
X72594819Y-48049523D01*
X72594819Y-48049523D02*
X72594819Y-47430476D01*
X73738571Y-51560057D02*
X73786190Y-51512438D01*
X73786190Y-51512438D02*
X73881428Y-51464819D01*
X73881428Y-51464819D02*
X74119523Y-51464819D01*
X74119523Y-51464819D02*
X74214761Y-51512438D01*
X74214761Y-51512438D02*
X74262380Y-51560057D01*
X74262380Y-51560057D02*
X74309999Y-51655295D01*
X74309999Y-51655295D02*
X74309999Y-51750533D01*
X74309999Y-51750533D02*
X74262380Y-51893390D01*
X74262380Y-51893390D02*
X73690952Y-52464819D01*
X73690952Y-52464819D02*
X74309999Y-52464819D01*
X75167142Y-51798152D02*
X75167142Y-52464819D01*
X74929047Y-51417200D02*
X74690952Y-52131485D01*
X74690952Y-52131485D02*
X75309999Y-52131485D01*
X76167142Y-52464819D02*
X75690952Y-52464819D01*
X75690952Y-52464819D02*
X75690952Y-51464819D01*
X77071904Y-52369580D02*
X77024285Y-52417200D01*
X77024285Y-52417200D02*
X76881428Y-52464819D01*
X76881428Y-52464819D02*
X76786190Y-52464819D01*
X76786190Y-52464819D02*
X76643333Y-52417200D01*
X76643333Y-52417200D02*
X76548095Y-52321961D01*
X76548095Y-52321961D02*
X76500476Y-52226723D01*
X76500476Y-52226723D02*
X76452857Y-52036247D01*
X76452857Y-52036247D02*
X76452857Y-51893390D01*
X76452857Y-51893390D02*
X76500476Y-51702914D01*
X76500476Y-51702914D02*
X76548095Y-51607676D01*
X76548095Y-51607676D02*
X76643333Y-51512438D01*
X76643333Y-51512438D02*
X76786190Y-51464819D01*
X76786190Y-51464819D02*
X76881428Y-51464819D01*
X76881428Y-51464819D02*
X77024285Y-51512438D01*
X77024285Y-51512438D02*
X77071904Y-51560057D01*
X78024285Y-52464819D02*
X77452857Y-52464819D01*
X77738571Y-52464819D02*
X77738571Y-51464819D01*
X77738571Y-51464819D02*
X77643333Y-51607676D01*
X77643333Y-51607676D02*
X77548095Y-51702914D01*
X77548095Y-51702914D02*
X77452857Y-51750533D01*
X78643333Y-51464819D02*
X78738571Y-51464819D01*
X78738571Y-51464819D02*
X78833809Y-51512438D01*
X78833809Y-51512438D02*
X78881428Y-51560057D01*
X78881428Y-51560057D02*
X78929047Y-51655295D01*
X78929047Y-51655295D02*
X78976666Y-51845771D01*
X78976666Y-51845771D02*
X78976666Y-52083866D01*
X78976666Y-52083866D02*
X78929047Y-52274342D01*
X78929047Y-52274342D02*
X78881428Y-52369580D01*
X78881428Y-52369580D02*
X78833809Y-52417200D01*
X78833809Y-52417200D02*
X78738571Y-52464819D01*
X78738571Y-52464819D02*
X78643333Y-52464819D01*
X78643333Y-52464819D02*
X78548095Y-52417200D01*
X78548095Y-52417200D02*
X78500476Y-52369580D01*
X78500476Y-52369580D02*
X78452857Y-52274342D01*
X78452857Y-52274342D02*
X78405238Y-52083866D01*
X78405238Y-52083866D02*
X78405238Y-51845771D01*
X78405238Y-51845771D02*
X78452857Y-51655295D01*
X78452857Y-51655295D02*
X78500476Y-51560057D01*
X78500476Y-51560057D02*
X78548095Y-51512438D01*
X78548095Y-51512438D02*
X78643333Y-51464819D01*
X79357619Y-51560057D02*
X79405238Y-51512438D01*
X79405238Y-51512438D02*
X79500476Y-51464819D01*
X79500476Y-51464819D02*
X79738571Y-51464819D01*
X79738571Y-51464819D02*
X79833809Y-51512438D01*
X79833809Y-51512438D02*
X79881428Y-51560057D01*
X79881428Y-51560057D02*
X79929047Y-51655295D01*
X79929047Y-51655295D02*
X79929047Y-51750533D01*
X79929047Y-51750533D02*
X79881428Y-51893390D01*
X79881428Y-51893390D02*
X79310000Y-52464819D01*
X79310000Y-52464819D02*
X79929047Y-52464819D01*
X80833809Y-51464819D02*
X80357619Y-51464819D01*
X80357619Y-51464819D02*
X80310000Y-51941009D01*
X80310000Y-51941009D02*
X80357619Y-51893390D01*
X80357619Y-51893390D02*
X80452857Y-51845771D01*
X80452857Y-51845771D02*
X80690952Y-51845771D01*
X80690952Y-51845771D02*
X80786190Y-51893390D01*
X80786190Y-51893390D02*
X80833809Y-51941009D01*
X80833809Y-51941009D02*
X80881428Y-52036247D01*
X80881428Y-52036247D02*
X80881428Y-52274342D01*
X80881428Y-52274342D02*
X80833809Y-52369580D01*
X80833809Y-52369580D02*
X80786190Y-52417200D01*
X80786190Y-52417200D02*
X80690952Y-52464819D01*
X80690952Y-52464819D02*
X80452857Y-52464819D01*
X80452857Y-52464819D02*
X80357619Y-52417200D01*
X80357619Y-52417200D02*
X80310000Y-52369580D01*
X83084819Y-48961904D02*
X83894342Y-48961904D01*
X83894342Y-48961904D02*
X83989580Y-48914285D01*
X83989580Y-48914285D02*
X84037200Y-48866666D01*
X84037200Y-48866666D02*
X84084819Y-48771428D01*
X84084819Y-48771428D02*
X84084819Y-48580952D01*
X84084819Y-48580952D02*
X84037200Y-48485714D01*
X84037200Y-48485714D02*
X83989580Y-48438095D01*
X83989580Y-48438095D02*
X83894342Y-48390476D01*
X83894342Y-48390476D02*
X83084819Y-48390476D01*
X84084819Y-47390476D02*
X84084819Y-47961904D01*
X84084819Y-47676190D02*
X83084819Y-47676190D01*
X83084819Y-47676190D02*
X83227676Y-47771428D01*
X83227676Y-47771428D02*
X83322914Y-47866666D01*
X83322914Y-47866666D02*
X83370533Y-47961904D01*
X85328571Y-51410057D02*
X85376190Y-51362438D01*
X85376190Y-51362438D02*
X85471428Y-51314819D01*
X85471428Y-51314819D02*
X85709523Y-51314819D01*
X85709523Y-51314819D02*
X85804761Y-51362438D01*
X85804761Y-51362438D02*
X85852380Y-51410057D01*
X85852380Y-51410057D02*
X85899999Y-51505295D01*
X85899999Y-51505295D02*
X85899999Y-51600533D01*
X85899999Y-51600533D02*
X85852380Y-51743390D01*
X85852380Y-51743390D02*
X85280952Y-52314819D01*
X85280952Y-52314819D02*
X85899999Y-52314819D01*
X86757142Y-51648152D02*
X86757142Y-52314819D01*
X86519047Y-51267200D02*
X86280952Y-51981485D01*
X86280952Y-51981485D02*
X86899999Y-51981485D01*
X87757142Y-52314819D02*
X87280952Y-52314819D01*
X87280952Y-52314819D02*
X87280952Y-51314819D01*
X88661904Y-52219580D02*
X88614285Y-52267200D01*
X88614285Y-52267200D02*
X88471428Y-52314819D01*
X88471428Y-52314819D02*
X88376190Y-52314819D01*
X88376190Y-52314819D02*
X88233333Y-52267200D01*
X88233333Y-52267200D02*
X88138095Y-52171961D01*
X88138095Y-52171961D02*
X88090476Y-52076723D01*
X88090476Y-52076723D02*
X88042857Y-51886247D01*
X88042857Y-51886247D02*
X88042857Y-51743390D01*
X88042857Y-51743390D02*
X88090476Y-51552914D01*
X88090476Y-51552914D02*
X88138095Y-51457676D01*
X88138095Y-51457676D02*
X88233333Y-51362438D01*
X88233333Y-51362438D02*
X88376190Y-51314819D01*
X88376190Y-51314819D02*
X88471428Y-51314819D01*
X88471428Y-51314819D02*
X88614285Y-51362438D01*
X88614285Y-51362438D02*
X88661904Y-51410057D01*
X89614285Y-52314819D02*
X89042857Y-52314819D01*
X89328571Y-52314819D02*
X89328571Y-51314819D01*
X89328571Y-51314819D02*
X89233333Y-51457676D01*
X89233333Y-51457676D02*
X89138095Y-51552914D01*
X89138095Y-51552914D02*
X89042857Y-51600533D01*
X90233333Y-51314819D02*
X90328571Y-51314819D01*
X90328571Y-51314819D02*
X90423809Y-51362438D01*
X90423809Y-51362438D02*
X90471428Y-51410057D01*
X90471428Y-51410057D02*
X90519047Y-51505295D01*
X90519047Y-51505295D02*
X90566666Y-51695771D01*
X90566666Y-51695771D02*
X90566666Y-51933866D01*
X90566666Y-51933866D02*
X90519047Y-52124342D01*
X90519047Y-52124342D02*
X90471428Y-52219580D01*
X90471428Y-52219580D02*
X90423809Y-52267200D01*
X90423809Y-52267200D02*
X90328571Y-52314819D01*
X90328571Y-52314819D02*
X90233333Y-52314819D01*
X90233333Y-52314819D02*
X90138095Y-52267200D01*
X90138095Y-52267200D02*
X90090476Y-52219580D01*
X90090476Y-52219580D02*
X90042857Y-52124342D01*
X90042857Y-52124342D02*
X89995238Y-51933866D01*
X89995238Y-51933866D02*
X89995238Y-51695771D01*
X89995238Y-51695771D02*
X90042857Y-51505295D01*
X90042857Y-51505295D02*
X90090476Y-51410057D01*
X90090476Y-51410057D02*
X90138095Y-51362438D01*
X90138095Y-51362438D02*
X90233333Y-51314819D01*
X90947619Y-51410057D02*
X90995238Y-51362438D01*
X90995238Y-51362438D02*
X91090476Y-51314819D01*
X91090476Y-51314819D02*
X91328571Y-51314819D01*
X91328571Y-51314819D02*
X91423809Y-51362438D01*
X91423809Y-51362438D02*
X91471428Y-51410057D01*
X91471428Y-51410057D02*
X91519047Y-51505295D01*
X91519047Y-51505295D02*
X91519047Y-51600533D01*
X91519047Y-51600533D02*
X91471428Y-51743390D01*
X91471428Y-51743390D02*
X90900000Y-52314819D01*
X90900000Y-52314819D02*
X91519047Y-52314819D01*
X92423809Y-51314819D02*
X91947619Y-51314819D01*
X91947619Y-51314819D02*
X91900000Y-51791009D01*
X91900000Y-51791009D02*
X91947619Y-51743390D01*
X91947619Y-51743390D02*
X92042857Y-51695771D01*
X92042857Y-51695771D02*
X92280952Y-51695771D01*
X92280952Y-51695771D02*
X92376190Y-51743390D01*
X92376190Y-51743390D02*
X92423809Y-51791009D01*
X92423809Y-51791009D02*
X92471428Y-51886247D01*
X92471428Y-51886247D02*
X92471428Y-52124342D01*
X92471428Y-52124342D02*
X92423809Y-52219580D01*
X92423809Y-52219580D02*
X92376190Y-52267200D01*
X92376190Y-52267200D02*
X92280952Y-52314819D01*
X92280952Y-52314819D02*
X92042857Y-52314819D01*
X92042857Y-52314819D02*
X91947619Y-52267200D01*
X91947619Y-52267200D02*
X91900000Y-52219580D01*
X78038095Y-53134819D02*
X78038095Y-53944342D01*
X78038095Y-53944342D02*
X78085714Y-54039580D01*
X78085714Y-54039580D02*
X78133333Y-54087200D01*
X78133333Y-54087200D02*
X78228571Y-54134819D01*
X78228571Y-54134819D02*
X78419047Y-54134819D01*
X78419047Y-54134819D02*
X78514285Y-54087200D01*
X78514285Y-54087200D02*
X78561904Y-54039580D01*
X78561904Y-54039580D02*
X78609523Y-53944342D01*
X78609523Y-53944342D02*
X78609523Y-53134819D01*
X78990476Y-53134819D02*
X79609523Y-53134819D01*
X79609523Y-53134819D02*
X79276190Y-53515771D01*
X79276190Y-53515771D02*
X79419047Y-53515771D01*
X79419047Y-53515771D02*
X79514285Y-53563390D01*
X79514285Y-53563390D02*
X79561904Y-53611009D01*
X79561904Y-53611009D02*
X79609523Y-53706247D01*
X79609523Y-53706247D02*
X79609523Y-53944342D01*
X79609523Y-53944342D02*
X79561904Y-54039580D01*
X79561904Y-54039580D02*
X79514285Y-54087200D01*
X79514285Y-54087200D02*
X79419047Y-54134819D01*
X79419047Y-54134819D02*
X79133333Y-54134819D01*
X79133333Y-54134819D02*
X79038095Y-54087200D01*
X79038095Y-54087200D02*
X78990476Y-54039580D01*
X75345000Y-61234819D02*
X75345000Y-60234819D01*
X75345000Y-60234819D02*
X75583095Y-60234819D01*
X75583095Y-60234819D02*
X75725952Y-60282438D01*
X75725952Y-60282438D02*
X75821190Y-60377676D01*
X75821190Y-60377676D02*
X75868809Y-60472914D01*
X75868809Y-60472914D02*
X75916428Y-60663390D01*
X75916428Y-60663390D02*
X75916428Y-60806247D01*
X75916428Y-60806247D02*
X75868809Y-60996723D01*
X75868809Y-60996723D02*
X75821190Y-61091961D01*
X75821190Y-61091961D02*
X75725952Y-61187200D01*
X75725952Y-61187200D02*
X75583095Y-61234819D01*
X75583095Y-61234819D02*
X75345000Y-61234819D01*
X76297381Y-61187200D02*
X76440238Y-61234819D01*
X76440238Y-61234819D02*
X76678333Y-61234819D01*
X76678333Y-61234819D02*
X76773571Y-61187200D01*
X76773571Y-61187200D02*
X76821190Y-61139580D01*
X76821190Y-61139580D02*
X76868809Y-61044342D01*
X76868809Y-61044342D02*
X76868809Y-60949104D01*
X76868809Y-60949104D02*
X76821190Y-60853866D01*
X76821190Y-60853866D02*
X76773571Y-60806247D01*
X76773571Y-60806247D02*
X76678333Y-60758628D01*
X76678333Y-60758628D02*
X76487857Y-60711009D01*
X76487857Y-60711009D02*
X76392619Y-60663390D01*
X76392619Y-60663390D02*
X76345000Y-60615771D01*
X76345000Y-60615771D02*
X76297381Y-60520533D01*
X76297381Y-60520533D02*
X76297381Y-60425295D01*
X76297381Y-60425295D02*
X76345000Y-60330057D01*
X76345000Y-60330057D02*
X76392619Y-60282438D01*
X76392619Y-60282438D02*
X76487857Y-60234819D01*
X76487857Y-60234819D02*
X76725952Y-60234819D01*
X76725952Y-60234819D02*
X76868809Y-60282438D01*
X77821190Y-61234819D02*
X77249762Y-61234819D01*
X77535476Y-61234819D02*
X77535476Y-60234819D01*
X77535476Y-60234819D02*
X77440238Y-60377676D01*
X77440238Y-60377676D02*
X77345000Y-60472914D01*
X77345000Y-60472914D02*
X77249762Y-60520533D01*
X78154524Y-60234819D02*
X78773571Y-60234819D01*
X78773571Y-60234819D02*
X78440238Y-60615771D01*
X78440238Y-60615771D02*
X78583095Y-60615771D01*
X78583095Y-60615771D02*
X78678333Y-60663390D01*
X78678333Y-60663390D02*
X78725952Y-60711009D01*
X78725952Y-60711009D02*
X78773571Y-60806247D01*
X78773571Y-60806247D02*
X78773571Y-61044342D01*
X78773571Y-61044342D02*
X78725952Y-61139580D01*
X78725952Y-61139580D02*
X78678333Y-61187200D01*
X78678333Y-61187200D02*
X78583095Y-61234819D01*
X78583095Y-61234819D02*
X78297381Y-61234819D01*
X78297381Y-61234819D02*
X78202143Y-61187200D01*
X78202143Y-61187200D02*
X78154524Y-61139580D01*
X79106905Y-60234819D02*
X79725952Y-60234819D01*
X79725952Y-60234819D02*
X79392619Y-60615771D01*
X79392619Y-60615771D02*
X79535476Y-60615771D01*
X79535476Y-60615771D02*
X79630714Y-60663390D01*
X79630714Y-60663390D02*
X79678333Y-60711009D01*
X79678333Y-60711009D02*
X79725952Y-60806247D01*
X79725952Y-60806247D02*
X79725952Y-61044342D01*
X79725952Y-61044342D02*
X79678333Y-61139580D01*
X79678333Y-61139580D02*
X79630714Y-61187200D01*
X79630714Y-61187200D02*
X79535476Y-61234819D01*
X79535476Y-61234819D02*
X79249762Y-61234819D01*
X79249762Y-61234819D02*
X79154524Y-61187200D01*
X79154524Y-61187200D02*
X79106905Y-61139580D01*
X80059286Y-60234819D02*
X80725952Y-60234819D01*
X80725952Y-60234819D02*
X80297381Y-61234819D01*
X81059286Y-61187200D02*
X81202143Y-61234819D01*
X81202143Y-61234819D02*
X81440238Y-61234819D01*
X81440238Y-61234819D02*
X81535476Y-61187200D01*
X81535476Y-61187200D02*
X81583095Y-61139580D01*
X81583095Y-61139580D02*
X81630714Y-61044342D01*
X81630714Y-61044342D02*
X81630714Y-60949104D01*
X81630714Y-60949104D02*
X81583095Y-60853866D01*
X81583095Y-60853866D02*
X81535476Y-60806247D01*
X81535476Y-60806247D02*
X81440238Y-60758628D01*
X81440238Y-60758628D02*
X81249762Y-60711009D01*
X81249762Y-60711009D02*
X81154524Y-60663390D01*
X81154524Y-60663390D02*
X81106905Y-60615771D01*
X81106905Y-60615771D02*
X81059286Y-60520533D01*
X81059286Y-60520533D02*
X81059286Y-60425295D01*
X81059286Y-60425295D02*
X81106905Y-60330057D01*
X81106905Y-60330057D02*
X81154524Y-60282438D01*
X81154524Y-60282438D02*
X81249762Y-60234819D01*
X81249762Y-60234819D02*
X81487857Y-60234819D01*
X81487857Y-60234819D02*
X81630714Y-60282438D01*
X81821191Y-61330057D02*
X82583095Y-61330057D01*
X76348333Y-62814580D02*
X76300714Y-62862200D01*
X76300714Y-62862200D02*
X76157857Y-62909819D01*
X76157857Y-62909819D02*
X76062619Y-62909819D01*
X76062619Y-62909819D02*
X75919762Y-62862200D01*
X75919762Y-62862200D02*
X75824524Y-62766961D01*
X75824524Y-62766961D02*
X75776905Y-62671723D01*
X75776905Y-62671723D02*
X75729286Y-62481247D01*
X75729286Y-62481247D02*
X75729286Y-62338390D01*
X75729286Y-62338390D02*
X75776905Y-62147914D01*
X75776905Y-62147914D02*
X75824524Y-62052676D01*
X75824524Y-62052676D02*
X75919762Y-61957438D01*
X75919762Y-61957438D02*
X76062619Y-61909819D01*
X76062619Y-61909819D02*
X76157857Y-61909819D01*
X76157857Y-61909819D02*
X76300714Y-61957438D01*
X76300714Y-61957438D02*
X76348333Y-62005057D01*
X76729286Y-62005057D02*
X76776905Y-61957438D01*
X76776905Y-61957438D02*
X76872143Y-61909819D01*
X76872143Y-61909819D02*
X77110238Y-61909819D01*
X77110238Y-61909819D02*
X77205476Y-61957438D01*
X77205476Y-61957438D02*
X77253095Y-62005057D01*
X77253095Y-62005057D02*
X77300714Y-62100295D01*
X77300714Y-62100295D02*
X77300714Y-62195533D01*
X77300714Y-62195533D02*
X77253095Y-62338390D01*
X77253095Y-62338390D02*
X76681667Y-62909819D01*
X76681667Y-62909819D02*
X77300714Y-62909819D01*
X74872143Y-65365057D02*
X74919762Y-65317438D01*
X74919762Y-65317438D02*
X75015000Y-65269819D01*
X75015000Y-65269819D02*
X75253095Y-65269819D01*
X75253095Y-65269819D02*
X75348333Y-65317438D01*
X75348333Y-65317438D02*
X75395952Y-65365057D01*
X75395952Y-65365057D02*
X75443571Y-65460295D01*
X75443571Y-65460295D02*
X75443571Y-65555533D01*
X75443571Y-65555533D02*
X75395952Y-65698390D01*
X75395952Y-65698390D02*
X74824524Y-66269819D01*
X74824524Y-66269819D02*
X75443571Y-66269819D01*
X75824524Y-65365057D02*
X75872143Y-65317438D01*
X75872143Y-65317438D02*
X75967381Y-65269819D01*
X75967381Y-65269819D02*
X76205476Y-65269819D01*
X76205476Y-65269819D02*
X76300714Y-65317438D01*
X76300714Y-65317438D02*
X76348333Y-65365057D01*
X76348333Y-65365057D02*
X76395952Y-65460295D01*
X76395952Y-65460295D02*
X76395952Y-65555533D01*
X76395952Y-65555533D02*
X76348333Y-65698390D01*
X76348333Y-65698390D02*
X75776905Y-66269819D01*
X75776905Y-66269819D02*
X76395952Y-66269819D01*
X76824524Y-65603152D02*
X76824524Y-66603152D01*
X76824524Y-65650771D02*
X76919762Y-65603152D01*
X76919762Y-65603152D02*
X77110238Y-65603152D01*
X77110238Y-65603152D02*
X77205476Y-65650771D01*
X77205476Y-65650771D02*
X77253095Y-65698390D01*
X77253095Y-65698390D02*
X77300714Y-65793628D01*
X77300714Y-65793628D02*
X77300714Y-66079342D01*
X77300714Y-66079342D02*
X77253095Y-66174580D01*
X77253095Y-66174580D02*
X77205476Y-66222200D01*
X77205476Y-66222200D02*
X77110238Y-66269819D01*
X77110238Y-66269819D02*
X76919762Y-66269819D01*
X76919762Y-66269819D02*
X76824524Y-66222200D01*
X78062619Y-65746009D02*
X77729286Y-65746009D01*
X77729286Y-66269819D02*
X77729286Y-65269819D01*
X77729286Y-65269819D02*
X78205476Y-65269819D01*
X101867319Y-52783094D02*
X100867319Y-52783094D01*
X100867319Y-52783094D02*
X100867319Y-52544999D01*
X100867319Y-52544999D02*
X100914938Y-52402142D01*
X100914938Y-52402142D02*
X101010176Y-52306904D01*
X101010176Y-52306904D02*
X101105414Y-52259285D01*
X101105414Y-52259285D02*
X101295890Y-52211666D01*
X101295890Y-52211666D02*
X101438747Y-52211666D01*
X101438747Y-52211666D02*
X101629223Y-52259285D01*
X101629223Y-52259285D02*
X101724461Y-52306904D01*
X101724461Y-52306904D02*
X101819700Y-52402142D01*
X101819700Y-52402142D02*
X101867319Y-52544999D01*
X101867319Y-52544999D02*
X101867319Y-52783094D01*
X100962557Y-51830713D02*
X100914938Y-51783094D01*
X100914938Y-51783094D02*
X100867319Y-51687856D01*
X100867319Y-51687856D02*
X100867319Y-51449761D01*
X100867319Y-51449761D02*
X100914938Y-51354523D01*
X100914938Y-51354523D02*
X100962557Y-51306904D01*
X100962557Y-51306904D02*
X101057795Y-51259285D01*
X101057795Y-51259285D02*
X101153033Y-51259285D01*
X101153033Y-51259285D02*
X101295890Y-51306904D01*
X101295890Y-51306904D02*
X101867319Y-51878332D01*
X101867319Y-51878332D02*
X101867319Y-51259285D01*
X106667319Y-52647857D02*
X106667319Y-53124047D01*
X106667319Y-53124047D02*
X105667319Y-53124047D01*
X106143509Y-52314523D02*
X106143509Y-51981190D01*
X106667319Y-51838333D02*
X106667319Y-52314523D01*
X106667319Y-52314523D02*
X105667319Y-52314523D01*
X105667319Y-52314523D02*
X105667319Y-51838333D01*
X106667319Y-51409761D02*
X105667319Y-51409761D01*
X105667319Y-51409761D02*
X105667319Y-51171666D01*
X105667319Y-51171666D02*
X105714938Y-51028809D01*
X105714938Y-51028809D02*
X105810176Y-50933571D01*
X105810176Y-50933571D02*
X105905414Y-50885952D01*
X105905414Y-50885952D02*
X106095890Y-50838333D01*
X106095890Y-50838333D02*
X106238747Y-50838333D01*
X106238747Y-50838333D02*
X106429223Y-50885952D01*
X106429223Y-50885952D02*
X106524461Y-50933571D01*
X106524461Y-50933571D02*
X106619700Y-51028809D01*
X106619700Y-51028809D02*
X106667319Y-51171666D01*
X106667319Y-51171666D02*
X106667319Y-51409761D01*
X95619819Y-52281666D02*
X95143628Y-52614999D01*
X95619819Y-52853094D02*
X94619819Y-52853094D01*
X94619819Y-52853094D02*
X94619819Y-52472142D01*
X94619819Y-52472142D02*
X94667438Y-52376904D01*
X94667438Y-52376904D02*
X94715057Y-52329285D01*
X94715057Y-52329285D02*
X94810295Y-52281666D01*
X94810295Y-52281666D02*
X94953152Y-52281666D01*
X94953152Y-52281666D02*
X95048390Y-52329285D01*
X95048390Y-52329285D02*
X95096009Y-52376904D01*
X95096009Y-52376904D02*
X95143628Y-52472142D01*
X95143628Y-52472142D02*
X95143628Y-52853094D01*
X94953152Y-51424523D02*
X95619819Y-51424523D01*
X94572200Y-51662618D02*
X95286485Y-51900713D01*
X95286485Y-51900713D02*
X95286485Y-51281666D01*
X96641190Y-53508152D02*
X96641190Y-54174819D01*
X96403095Y-53127200D02*
X96165000Y-53841485D01*
X96165000Y-53841485D02*
X96784047Y-53841485D01*
X97165000Y-54079580D02*
X97212619Y-54127200D01*
X97212619Y-54127200D02*
X97165000Y-54174819D01*
X97165000Y-54174819D02*
X97117381Y-54127200D01*
X97117381Y-54127200D02*
X97165000Y-54079580D01*
X97165000Y-54079580D02*
X97165000Y-54174819D01*
X97545952Y-53174819D02*
X98212618Y-53174819D01*
X98212618Y-53174819D02*
X97784047Y-54174819D01*
X98593571Y-54174819D02*
X98593571Y-53174819D01*
X99164999Y-54174819D02*
X98736428Y-53603390D01*
X99164999Y-53174819D02*
X98593571Y-53746247D01*
X96899819Y-46556666D02*
X96423628Y-46889999D01*
X96899819Y-47128094D02*
X95899819Y-47128094D01*
X95899819Y-47128094D02*
X95899819Y-46747142D01*
X95899819Y-46747142D02*
X95947438Y-46651904D01*
X95947438Y-46651904D02*
X95995057Y-46604285D01*
X95995057Y-46604285D02*
X96090295Y-46556666D01*
X96090295Y-46556666D02*
X96233152Y-46556666D01*
X96233152Y-46556666D02*
X96328390Y-46604285D01*
X96328390Y-46604285D02*
X96376009Y-46651904D01*
X96376009Y-46651904D02*
X96423628Y-46747142D01*
X96423628Y-46747142D02*
X96423628Y-47128094D01*
X96899819Y-45604285D02*
X96899819Y-46175713D01*
X96899819Y-45889999D02*
X95899819Y-45889999D01*
X95899819Y-45889999D02*
X96042676Y-45985237D01*
X96042676Y-45985237D02*
X96137914Y-46080475D01*
X96137914Y-46080475D02*
X96185533Y-46175713D01*
X97496786Y-47459819D02*
X98115833Y-47459819D01*
X98115833Y-47459819D02*
X97782500Y-47840771D01*
X97782500Y-47840771D02*
X97925357Y-47840771D01*
X97925357Y-47840771D02*
X98020595Y-47888390D01*
X98020595Y-47888390D02*
X98068214Y-47936009D01*
X98068214Y-47936009D02*
X98115833Y-48031247D01*
X98115833Y-48031247D02*
X98115833Y-48269342D01*
X98115833Y-48269342D02*
X98068214Y-48364580D01*
X98068214Y-48364580D02*
X98020595Y-48412200D01*
X98020595Y-48412200D02*
X97925357Y-48459819D01*
X97925357Y-48459819D02*
X97639643Y-48459819D01*
X97639643Y-48459819D02*
X97544405Y-48412200D01*
X97544405Y-48412200D02*
X97496786Y-48364580D01*
X98449167Y-47459819D02*
X99068214Y-47459819D01*
X99068214Y-47459819D02*
X98734881Y-47840771D01*
X98734881Y-47840771D02*
X98877738Y-47840771D01*
X98877738Y-47840771D02*
X98972976Y-47888390D01*
X98972976Y-47888390D02*
X99020595Y-47936009D01*
X99020595Y-47936009D02*
X99068214Y-48031247D01*
X99068214Y-48031247D02*
X99068214Y-48269342D01*
X99068214Y-48269342D02*
X99020595Y-48364580D01*
X99020595Y-48364580D02*
X98972976Y-48412200D01*
X98972976Y-48412200D02*
X98877738Y-48459819D01*
X98877738Y-48459819D02*
X98592024Y-48459819D01*
X98592024Y-48459819D02*
X98496786Y-48412200D01*
X98496786Y-48412200D02*
X98449167Y-48364580D01*
X99687262Y-47459819D02*
X99782500Y-47459819D01*
X99782500Y-47459819D02*
X99877738Y-47507438D01*
X99877738Y-47507438D02*
X99925357Y-47555057D01*
X99925357Y-47555057D02*
X99972976Y-47650295D01*
X99972976Y-47650295D02*
X100020595Y-47840771D01*
X100020595Y-47840771D02*
X100020595Y-48078866D01*
X100020595Y-48078866D02*
X99972976Y-48269342D01*
X99972976Y-48269342D02*
X99925357Y-48364580D01*
X99925357Y-48364580D02*
X99877738Y-48412200D01*
X99877738Y-48412200D02*
X99782500Y-48459819D01*
X99782500Y-48459819D02*
X99687262Y-48459819D01*
X99687262Y-48459819D02*
X99592024Y-48412200D01*
X99592024Y-48412200D02*
X99544405Y-48364580D01*
X99544405Y-48364580D02*
X99496786Y-48269342D01*
X99496786Y-48269342D02*
X99449167Y-48078866D01*
X99449167Y-48078866D02*
X99449167Y-47840771D01*
X99449167Y-47840771D02*
X99496786Y-47650295D01*
X99496786Y-47650295D02*
X99544405Y-47555057D01*
X99544405Y-47555057D02*
X99592024Y-47507438D01*
X99592024Y-47507438D02*
X99687262Y-47459819D01*
X70466666Y-69954819D02*
X70466666Y-70669104D01*
X70466666Y-70669104D02*
X70419047Y-70811961D01*
X70419047Y-70811961D02*
X70323809Y-70907200D01*
X70323809Y-70907200D02*
X70180952Y-70954819D01*
X70180952Y-70954819D02*
X70085714Y-70954819D01*
X70895238Y-70050057D02*
X70942857Y-70002438D01*
X70942857Y-70002438D02*
X71038095Y-69954819D01*
X71038095Y-69954819D02*
X71276190Y-69954819D01*
X71276190Y-69954819D02*
X71371428Y-70002438D01*
X71371428Y-70002438D02*
X71419047Y-70050057D01*
X71419047Y-70050057D02*
X71466666Y-70145295D01*
X71466666Y-70145295D02*
X71466666Y-70240533D01*
X71466666Y-70240533D02*
X71419047Y-70383390D01*
X71419047Y-70383390D02*
X70847619Y-70954819D01*
X70847619Y-70954819D02*
X71466666Y-70954819D01*
X72609523Y-70907200D02*
X72752380Y-70954819D01*
X72752380Y-70954819D02*
X72990475Y-70954819D01*
X72990475Y-70954819D02*
X73085713Y-70907200D01*
X73085713Y-70907200D02*
X73133332Y-70859580D01*
X73133332Y-70859580D02*
X73180951Y-70764342D01*
X73180951Y-70764342D02*
X73180951Y-70669104D01*
X73180951Y-70669104D02*
X73133332Y-70573866D01*
X73133332Y-70573866D02*
X73085713Y-70526247D01*
X73085713Y-70526247D02*
X72990475Y-70478628D01*
X72990475Y-70478628D02*
X72799999Y-70431009D01*
X72799999Y-70431009D02*
X72704761Y-70383390D01*
X72704761Y-70383390D02*
X72657142Y-70335771D01*
X72657142Y-70335771D02*
X72609523Y-70240533D01*
X72609523Y-70240533D02*
X72609523Y-70145295D01*
X72609523Y-70145295D02*
X72657142Y-70050057D01*
X72657142Y-70050057D02*
X72704761Y-70002438D01*
X72704761Y-70002438D02*
X72799999Y-69954819D01*
X72799999Y-69954819D02*
X73038094Y-69954819D01*
X73038094Y-69954819D02*
X73180951Y-70002438D01*
X73990475Y-70907200D02*
X73895237Y-70954819D01*
X73895237Y-70954819D02*
X73704761Y-70954819D01*
X73704761Y-70954819D02*
X73609523Y-70907200D01*
X73609523Y-70907200D02*
X73561904Y-70811961D01*
X73561904Y-70811961D02*
X73561904Y-70431009D01*
X73561904Y-70431009D02*
X73609523Y-70335771D01*
X73609523Y-70335771D02*
X73704761Y-70288152D01*
X73704761Y-70288152D02*
X73895237Y-70288152D01*
X73895237Y-70288152D02*
X73990475Y-70335771D01*
X73990475Y-70335771D02*
X74038094Y-70431009D01*
X74038094Y-70431009D02*
X74038094Y-70526247D01*
X74038094Y-70526247D02*
X73561904Y-70621485D01*
X74466666Y-70954819D02*
X74466666Y-70288152D01*
X74466666Y-70478628D02*
X74514285Y-70383390D01*
X74514285Y-70383390D02*
X74561904Y-70335771D01*
X74561904Y-70335771D02*
X74657142Y-70288152D01*
X74657142Y-70288152D02*
X74752380Y-70288152D01*
X75085714Y-70954819D02*
X75085714Y-70288152D01*
X75085714Y-69954819D02*
X75038095Y-70002438D01*
X75038095Y-70002438D02*
X75085714Y-70050057D01*
X75085714Y-70050057D02*
X75133333Y-70002438D01*
X75133333Y-70002438D02*
X75085714Y-69954819D01*
X75085714Y-69954819D02*
X75085714Y-70050057D01*
X75990475Y-70954819D02*
X75990475Y-70431009D01*
X75990475Y-70431009D02*
X75942856Y-70335771D01*
X75942856Y-70335771D02*
X75847618Y-70288152D01*
X75847618Y-70288152D02*
X75657142Y-70288152D01*
X75657142Y-70288152D02*
X75561904Y-70335771D01*
X75990475Y-70907200D02*
X75895237Y-70954819D01*
X75895237Y-70954819D02*
X75657142Y-70954819D01*
X75657142Y-70954819D02*
X75561904Y-70907200D01*
X75561904Y-70907200D02*
X75514285Y-70811961D01*
X75514285Y-70811961D02*
X75514285Y-70716723D01*
X75514285Y-70716723D02*
X75561904Y-70621485D01*
X75561904Y-70621485D02*
X75657142Y-70573866D01*
X75657142Y-70573866D02*
X75895237Y-70573866D01*
X75895237Y-70573866D02*
X75990475Y-70526247D01*
X76609523Y-70954819D02*
X76514285Y-70907200D01*
X76514285Y-70907200D02*
X76466666Y-70811961D01*
X76466666Y-70811961D02*
X76466666Y-69954819D01*
X77752381Y-69954819D02*
X77752381Y-70764342D01*
X77752381Y-70764342D02*
X77800000Y-70859580D01*
X77800000Y-70859580D02*
X77847619Y-70907200D01*
X77847619Y-70907200D02*
X77942857Y-70954819D01*
X77942857Y-70954819D02*
X78133333Y-70954819D01*
X78133333Y-70954819D02*
X78228571Y-70907200D01*
X78228571Y-70907200D02*
X78276190Y-70859580D01*
X78276190Y-70859580D02*
X78323809Y-70764342D01*
X78323809Y-70764342D02*
X78323809Y-69954819D01*
X78752381Y-70669104D02*
X79228571Y-70669104D01*
X78657143Y-70954819D02*
X78990476Y-69954819D01*
X78990476Y-69954819D02*
X79323809Y-70954819D01*
X80228571Y-70954819D02*
X79895238Y-70478628D01*
X79657143Y-70954819D02*
X79657143Y-69954819D01*
X79657143Y-69954819D02*
X80038095Y-69954819D01*
X80038095Y-69954819D02*
X80133333Y-70002438D01*
X80133333Y-70002438D02*
X80180952Y-70050057D01*
X80180952Y-70050057D02*
X80228571Y-70145295D01*
X80228571Y-70145295D02*
X80228571Y-70288152D01*
X80228571Y-70288152D02*
X80180952Y-70383390D01*
X80180952Y-70383390D02*
X80133333Y-70431009D01*
X80133333Y-70431009D02*
X80038095Y-70478628D01*
X80038095Y-70478628D02*
X79657143Y-70478628D01*
X80514286Y-69954819D02*
X81085714Y-69954819D01*
X80800000Y-70954819D02*
X80800000Y-69954819D01*
X97033333Y-60954819D02*
X96700000Y-60478628D01*
X96461905Y-60954819D02*
X96461905Y-59954819D01*
X96461905Y-59954819D02*
X96842857Y-59954819D01*
X96842857Y-59954819D02*
X96938095Y-60002438D01*
X96938095Y-60002438D02*
X96985714Y-60050057D01*
X96985714Y-60050057D02*
X97033333Y-60145295D01*
X97033333Y-60145295D02*
X97033333Y-60288152D01*
X97033333Y-60288152D02*
X96985714Y-60383390D01*
X96985714Y-60383390D02*
X96938095Y-60431009D01*
X96938095Y-60431009D02*
X96842857Y-60478628D01*
X96842857Y-60478628D02*
X96461905Y-60478628D01*
X97366667Y-59954819D02*
X97985714Y-59954819D01*
X97985714Y-59954819D02*
X97652381Y-60335771D01*
X97652381Y-60335771D02*
X97795238Y-60335771D01*
X97795238Y-60335771D02*
X97890476Y-60383390D01*
X97890476Y-60383390D02*
X97938095Y-60431009D01*
X97938095Y-60431009D02*
X97985714Y-60526247D01*
X97985714Y-60526247D02*
X97985714Y-60764342D01*
X97985714Y-60764342D02*
X97938095Y-60859580D01*
X97938095Y-60859580D02*
X97890476Y-60907200D01*
X97890476Y-60907200D02*
X97795238Y-60954819D01*
X97795238Y-60954819D02*
X97509524Y-60954819D01*
X97509524Y-60954819D02*
X97414286Y-60907200D01*
X97414286Y-60907200D02*
X97366667Y-60859580D01*
X100097319Y-62910476D02*
X100097319Y-63481904D01*
X100097319Y-63196190D02*
X99097319Y-63196190D01*
X99097319Y-63196190D02*
X99240176Y-63291428D01*
X99240176Y-63291428D02*
X99335414Y-63386666D01*
X99335414Y-63386666D02*
X99383033Y-63481904D01*
X99097319Y-62291428D02*
X99097319Y-62196190D01*
X99097319Y-62196190D02*
X99144938Y-62100952D01*
X99144938Y-62100952D02*
X99192557Y-62053333D01*
X99192557Y-62053333D02*
X99287795Y-62005714D01*
X99287795Y-62005714D02*
X99478271Y-61958095D01*
X99478271Y-61958095D02*
X99716366Y-61958095D01*
X99716366Y-61958095D02*
X99906842Y-62005714D01*
X99906842Y-62005714D02*
X100002080Y-62053333D01*
X100002080Y-62053333D02*
X100049700Y-62100952D01*
X100049700Y-62100952D02*
X100097319Y-62196190D01*
X100097319Y-62196190D02*
X100097319Y-62291428D01*
X100097319Y-62291428D02*
X100049700Y-62386666D01*
X100049700Y-62386666D02*
X100002080Y-62434285D01*
X100002080Y-62434285D02*
X99906842Y-62481904D01*
X99906842Y-62481904D02*
X99716366Y-62529523D01*
X99716366Y-62529523D02*
X99478271Y-62529523D01*
X99478271Y-62529523D02*
X99287795Y-62481904D01*
X99287795Y-62481904D02*
X99192557Y-62434285D01*
X99192557Y-62434285D02*
X99144938Y-62386666D01*
X99144938Y-62386666D02*
X99097319Y-62291428D01*
X100097319Y-61529523D02*
X99097319Y-61529523D01*
X100097319Y-60958095D02*
X99525890Y-61386666D01*
X99097319Y-60958095D02*
X99668747Y-61529523D01*
X83138095Y-52154819D02*
X83138095Y-52964342D01*
X83138095Y-52964342D02*
X83185714Y-53059580D01*
X83185714Y-53059580D02*
X83233333Y-53107200D01*
X83233333Y-53107200D02*
X83328571Y-53154819D01*
X83328571Y-53154819D02*
X83519047Y-53154819D01*
X83519047Y-53154819D02*
X83614285Y-53107200D01*
X83614285Y-53107200D02*
X83661904Y-53059580D01*
X83661904Y-53059580D02*
X83709523Y-52964342D01*
X83709523Y-52964342D02*
X83709523Y-52154819D01*
X84614285Y-52488152D02*
X84614285Y-53154819D01*
X84376190Y-52107200D02*
X84138095Y-52821485D01*
X84138095Y-52821485D02*
X84757142Y-52821485D01*
X82928571Y-64569104D02*
X83404761Y-64569104D01*
X82833333Y-64854819D02*
X83166666Y-63854819D01*
X83166666Y-63854819D02*
X83499999Y-64854819D01*
X83690476Y-63854819D02*
X84261904Y-63854819D01*
X83976190Y-64854819D02*
X83976190Y-63854819D01*
X84595238Y-64854819D02*
X84595238Y-63854819D01*
X84595238Y-63854819D02*
X84928571Y-64569104D01*
X84928571Y-64569104D02*
X85261904Y-63854819D01*
X85261904Y-63854819D02*
X85261904Y-64854819D01*
X85738095Y-64331009D02*
X86071428Y-64331009D01*
X86214285Y-64854819D02*
X85738095Y-64854819D01*
X85738095Y-64854819D02*
X85738095Y-63854819D01*
X85738095Y-63854819D02*
X86214285Y-63854819D01*
X87166666Y-63902438D02*
X87071428Y-63854819D01*
X87071428Y-63854819D02*
X86928571Y-63854819D01*
X86928571Y-63854819D02*
X86785714Y-63902438D01*
X86785714Y-63902438D02*
X86690476Y-63997676D01*
X86690476Y-63997676D02*
X86642857Y-64092914D01*
X86642857Y-64092914D02*
X86595238Y-64283390D01*
X86595238Y-64283390D02*
X86595238Y-64426247D01*
X86595238Y-64426247D02*
X86642857Y-64616723D01*
X86642857Y-64616723D02*
X86690476Y-64711961D01*
X86690476Y-64711961D02*
X86785714Y-64807200D01*
X86785714Y-64807200D02*
X86928571Y-64854819D01*
X86928571Y-64854819D02*
X87023809Y-64854819D01*
X87023809Y-64854819D02*
X87166666Y-64807200D01*
X87166666Y-64807200D02*
X87214285Y-64759580D01*
X87214285Y-64759580D02*
X87214285Y-64426247D01*
X87214285Y-64426247D02*
X87023809Y-64426247D01*
X87595238Y-64569104D02*
X88071428Y-64569104D01*
X87500000Y-64854819D02*
X87833333Y-63854819D01*
X87833333Y-63854819D02*
X88166666Y-64854819D01*
X88404762Y-63854819D02*
X89023809Y-63854819D01*
X89023809Y-63854819D02*
X88690476Y-64235771D01*
X88690476Y-64235771D02*
X88833333Y-64235771D01*
X88833333Y-64235771D02*
X88928571Y-64283390D01*
X88928571Y-64283390D02*
X88976190Y-64331009D01*
X88976190Y-64331009D02*
X89023809Y-64426247D01*
X89023809Y-64426247D02*
X89023809Y-64664342D01*
X89023809Y-64664342D02*
X88976190Y-64759580D01*
X88976190Y-64759580D02*
X88928571Y-64807200D01*
X88928571Y-64807200D02*
X88833333Y-64854819D01*
X88833333Y-64854819D02*
X88547619Y-64854819D01*
X88547619Y-64854819D02*
X88452381Y-64807200D01*
X88452381Y-64807200D02*
X88404762Y-64759580D01*
X89404762Y-63950057D02*
X89452381Y-63902438D01*
X89452381Y-63902438D02*
X89547619Y-63854819D01*
X89547619Y-63854819D02*
X89785714Y-63854819D01*
X89785714Y-63854819D02*
X89880952Y-63902438D01*
X89880952Y-63902438D02*
X89928571Y-63950057D01*
X89928571Y-63950057D02*
X89976190Y-64045295D01*
X89976190Y-64045295D02*
X89976190Y-64140533D01*
X89976190Y-64140533D02*
X89928571Y-64283390D01*
X89928571Y-64283390D02*
X89357143Y-64854819D01*
X89357143Y-64854819D02*
X89976190Y-64854819D01*
X90547619Y-64283390D02*
X90452381Y-64235771D01*
X90452381Y-64235771D02*
X90404762Y-64188152D01*
X90404762Y-64188152D02*
X90357143Y-64092914D01*
X90357143Y-64092914D02*
X90357143Y-64045295D01*
X90357143Y-64045295D02*
X90404762Y-63950057D01*
X90404762Y-63950057D02*
X90452381Y-63902438D01*
X90452381Y-63902438D02*
X90547619Y-63854819D01*
X90547619Y-63854819D02*
X90738095Y-63854819D01*
X90738095Y-63854819D02*
X90833333Y-63902438D01*
X90833333Y-63902438D02*
X90880952Y-63950057D01*
X90880952Y-63950057D02*
X90928571Y-64045295D01*
X90928571Y-64045295D02*
X90928571Y-64092914D01*
X90928571Y-64092914D02*
X90880952Y-64188152D01*
X90880952Y-64188152D02*
X90833333Y-64235771D01*
X90833333Y-64235771D02*
X90738095Y-64283390D01*
X90738095Y-64283390D02*
X90547619Y-64283390D01*
X90547619Y-64283390D02*
X90452381Y-64331009D01*
X90452381Y-64331009D02*
X90404762Y-64378628D01*
X90404762Y-64378628D02*
X90357143Y-64473866D01*
X90357143Y-64473866D02*
X90357143Y-64664342D01*
X90357143Y-64664342D02*
X90404762Y-64759580D01*
X90404762Y-64759580D02*
X90452381Y-64807200D01*
X90452381Y-64807200D02*
X90547619Y-64854819D01*
X90547619Y-64854819D02*
X90738095Y-64854819D01*
X90738095Y-64854819D02*
X90833333Y-64807200D01*
X90833333Y-64807200D02*
X90880952Y-64759580D01*
X90880952Y-64759580D02*
X90928571Y-64664342D01*
X90928571Y-64664342D02*
X90928571Y-64473866D01*
X90928571Y-64473866D02*
X90880952Y-64378628D01*
X90880952Y-64378628D02*
X90833333Y-64331009D01*
X90833333Y-64331009D02*
X90738095Y-64283390D01*
X91357143Y-64854819D02*
X91357143Y-63854819D01*
X91357143Y-63854819D02*
X91738095Y-63854819D01*
X91738095Y-63854819D02*
X91833333Y-63902438D01*
X91833333Y-63902438D02*
X91880952Y-63950057D01*
X91880952Y-63950057D02*
X91928571Y-64045295D01*
X91928571Y-64045295D02*
X91928571Y-64188152D01*
X91928571Y-64188152D02*
X91880952Y-64283390D01*
X91880952Y-64283390D02*
X91833333Y-64331009D01*
X91833333Y-64331009D02*
X91738095Y-64378628D01*
X91738095Y-64378628D02*
X91357143Y-64378628D01*
X92357143Y-64473866D02*
X93119048Y-64473866D01*
X93547619Y-64569104D02*
X94023809Y-64569104D01*
X93452381Y-64854819D02*
X93785714Y-63854819D01*
X93785714Y-63854819D02*
X94119047Y-64854819D01*
X94452381Y-63854819D02*
X94452381Y-64664342D01*
X94452381Y-64664342D02*
X94500000Y-64759580D01*
X94500000Y-64759580D02*
X94547619Y-64807200D01*
X94547619Y-64807200D02*
X94642857Y-64854819D01*
X94642857Y-64854819D02*
X94833333Y-64854819D01*
X94833333Y-64854819D02*
X94928571Y-64807200D01*
X94928571Y-64807200D02*
X94976190Y-64759580D01*
X94976190Y-64759580D02*
X95023809Y-64664342D01*
X95023809Y-64664342D02*
X95023809Y-63854819D01*
X93804580Y-66766666D02*
X93852200Y-66814285D01*
X93852200Y-66814285D02*
X93899819Y-66957142D01*
X93899819Y-66957142D02*
X93899819Y-67052380D01*
X93899819Y-67052380D02*
X93852200Y-67195237D01*
X93852200Y-67195237D02*
X93756961Y-67290475D01*
X93756961Y-67290475D02*
X93661723Y-67338094D01*
X93661723Y-67338094D02*
X93471247Y-67385713D01*
X93471247Y-67385713D02*
X93328390Y-67385713D01*
X93328390Y-67385713D02*
X93137914Y-67338094D01*
X93137914Y-67338094D02*
X93042676Y-67290475D01*
X93042676Y-67290475D02*
X92947438Y-67195237D01*
X92947438Y-67195237D02*
X92899819Y-67052380D01*
X92899819Y-67052380D02*
X92899819Y-66957142D01*
X92899819Y-66957142D02*
X92947438Y-66814285D01*
X92947438Y-66814285D02*
X92995057Y-66766666D01*
X93233152Y-65909523D02*
X93899819Y-65909523D01*
X92852200Y-66147618D02*
X93566485Y-66385713D01*
X93566485Y-66385713D02*
X93566485Y-65766666D01*
X94242143Y-67809819D02*
X94337381Y-67809819D01*
X94337381Y-67809819D02*
X94432619Y-67857438D01*
X94432619Y-67857438D02*
X94480238Y-67905057D01*
X94480238Y-67905057D02*
X94527857Y-68000295D01*
X94527857Y-68000295D02*
X94575476Y-68190771D01*
X94575476Y-68190771D02*
X94575476Y-68428866D01*
X94575476Y-68428866D02*
X94527857Y-68619342D01*
X94527857Y-68619342D02*
X94480238Y-68714580D01*
X94480238Y-68714580D02*
X94432619Y-68762200D01*
X94432619Y-68762200D02*
X94337381Y-68809819D01*
X94337381Y-68809819D02*
X94242143Y-68809819D01*
X94242143Y-68809819D02*
X94146905Y-68762200D01*
X94146905Y-68762200D02*
X94099286Y-68714580D01*
X94099286Y-68714580D02*
X94051667Y-68619342D01*
X94051667Y-68619342D02*
X94004048Y-68428866D01*
X94004048Y-68428866D02*
X94004048Y-68190771D01*
X94004048Y-68190771D02*
X94051667Y-68000295D01*
X94051667Y-68000295D02*
X94099286Y-67905057D01*
X94099286Y-67905057D02*
X94146905Y-67857438D01*
X94146905Y-67857438D02*
X94242143Y-67809819D01*
X95004048Y-68714580D02*
X95051667Y-68762200D01*
X95051667Y-68762200D02*
X95004048Y-68809819D01*
X95004048Y-68809819D02*
X94956429Y-68762200D01*
X94956429Y-68762200D02*
X95004048Y-68714580D01*
X95004048Y-68714580D02*
X95004048Y-68809819D01*
X96004047Y-68809819D02*
X95432619Y-68809819D01*
X95718333Y-68809819D02*
X95718333Y-67809819D01*
X95718333Y-67809819D02*
X95623095Y-67952676D01*
X95623095Y-67952676D02*
X95527857Y-68047914D01*
X95527857Y-68047914D02*
X95432619Y-68095533D01*
X96861190Y-68143152D02*
X96861190Y-68809819D01*
X96432619Y-68143152D02*
X96432619Y-68666961D01*
X96432619Y-68666961D02*
X96480238Y-68762200D01*
X96480238Y-68762200D02*
X96575476Y-68809819D01*
X96575476Y-68809819D02*
X96718333Y-68809819D01*
X96718333Y-68809819D02*
X96813571Y-68762200D01*
X96813571Y-68762200D02*
X96861190Y-68714580D01*
X97670714Y-68286009D02*
X97337381Y-68286009D01*
X97337381Y-68809819D02*
X97337381Y-67809819D01*
X97337381Y-67809819D02*
X97813571Y-67809819D01*
X102139580Y-55331666D02*
X102187200Y-55379285D01*
X102187200Y-55379285D02*
X102234819Y-55522142D01*
X102234819Y-55522142D02*
X102234819Y-55617380D01*
X102234819Y-55617380D02*
X102187200Y-55760237D01*
X102187200Y-55760237D02*
X102091961Y-55855475D01*
X102091961Y-55855475D02*
X101996723Y-55903094D01*
X101996723Y-55903094D02*
X101806247Y-55950713D01*
X101806247Y-55950713D02*
X101663390Y-55950713D01*
X101663390Y-55950713D02*
X101472914Y-55903094D01*
X101472914Y-55903094D02*
X101377676Y-55855475D01*
X101377676Y-55855475D02*
X101282438Y-55760237D01*
X101282438Y-55760237D02*
X101234819Y-55617380D01*
X101234819Y-55617380D02*
X101234819Y-55522142D01*
X101234819Y-55522142D02*
X101282438Y-55379285D01*
X101282438Y-55379285D02*
X101330057Y-55331666D01*
X101234819Y-54426904D02*
X101234819Y-54903094D01*
X101234819Y-54903094D02*
X101711009Y-54950713D01*
X101711009Y-54950713D02*
X101663390Y-54903094D01*
X101663390Y-54903094D02*
X101615771Y-54807856D01*
X101615771Y-54807856D02*
X101615771Y-54569761D01*
X101615771Y-54569761D02*
X101663390Y-54474523D01*
X101663390Y-54474523D02*
X101711009Y-54426904D01*
X101711009Y-54426904D02*
X101806247Y-54379285D01*
X101806247Y-54379285D02*
X102044342Y-54379285D01*
X102044342Y-54379285D02*
X102139580Y-54426904D01*
X102139580Y-54426904D02*
X102187200Y-54474523D01*
X102187200Y-54474523D02*
X102234819Y-54569761D01*
X102234819Y-54569761D02*
X102234819Y-54807856D01*
X102234819Y-54807856D02*
X102187200Y-54903094D01*
X102187200Y-54903094D02*
X102139580Y-54950713D01*
X102592380Y-57379819D02*
X102020952Y-57379819D01*
X102306666Y-57379819D02*
X102306666Y-56379819D01*
X102306666Y-56379819D02*
X102211428Y-56522676D01*
X102211428Y-56522676D02*
X102116190Y-56617914D01*
X102116190Y-56617914D02*
X102020952Y-56665533D01*
X103211428Y-56379819D02*
X103306666Y-56379819D01*
X103306666Y-56379819D02*
X103401904Y-56427438D01*
X103401904Y-56427438D02*
X103449523Y-56475057D01*
X103449523Y-56475057D02*
X103497142Y-56570295D01*
X103497142Y-56570295D02*
X103544761Y-56760771D01*
X103544761Y-56760771D02*
X103544761Y-56998866D01*
X103544761Y-56998866D02*
X103497142Y-57189342D01*
X103497142Y-57189342D02*
X103449523Y-57284580D01*
X103449523Y-57284580D02*
X103401904Y-57332200D01*
X103401904Y-57332200D02*
X103306666Y-57379819D01*
X103306666Y-57379819D02*
X103211428Y-57379819D01*
X103211428Y-57379819D02*
X103116190Y-57332200D01*
X103116190Y-57332200D02*
X103068571Y-57284580D01*
X103068571Y-57284580D02*
X103020952Y-57189342D01*
X103020952Y-57189342D02*
X102973333Y-56998866D01*
X102973333Y-56998866D02*
X102973333Y-56760771D01*
X102973333Y-56760771D02*
X103020952Y-56570295D01*
X103020952Y-56570295D02*
X103068571Y-56475057D01*
X103068571Y-56475057D02*
X103116190Y-56427438D01*
X103116190Y-56427438D02*
X103211428Y-56379819D01*
X104163809Y-56379819D02*
X104259047Y-56379819D01*
X104259047Y-56379819D02*
X104354285Y-56427438D01*
X104354285Y-56427438D02*
X104401904Y-56475057D01*
X104401904Y-56475057D02*
X104449523Y-56570295D01*
X104449523Y-56570295D02*
X104497142Y-56760771D01*
X104497142Y-56760771D02*
X104497142Y-56998866D01*
X104497142Y-56998866D02*
X104449523Y-57189342D01*
X104449523Y-57189342D02*
X104401904Y-57284580D01*
X104401904Y-57284580D02*
X104354285Y-57332200D01*
X104354285Y-57332200D02*
X104259047Y-57379819D01*
X104259047Y-57379819D02*
X104163809Y-57379819D01*
X104163809Y-57379819D02*
X104068571Y-57332200D01*
X104068571Y-57332200D02*
X104020952Y-57284580D01*
X104020952Y-57284580D02*
X103973333Y-57189342D01*
X103973333Y-57189342D02*
X103925714Y-56998866D01*
X103925714Y-56998866D02*
X103925714Y-56760771D01*
X103925714Y-56760771D02*
X103973333Y-56570295D01*
X103973333Y-56570295D02*
X104020952Y-56475057D01*
X104020952Y-56475057D02*
X104068571Y-56427438D01*
X104068571Y-56427438D02*
X104163809Y-56379819D01*
X104925714Y-56713152D02*
X104925714Y-57379819D01*
X104925714Y-56808390D02*
X104973333Y-56760771D01*
X104973333Y-56760771D02*
X105068571Y-56713152D01*
X105068571Y-56713152D02*
X105211428Y-56713152D01*
X105211428Y-56713152D02*
X105306666Y-56760771D01*
X105306666Y-56760771D02*
X105354285Y-56856009D01*
X105354285Y-56856009D02*
X105354285Y-57379819D01*
X106163809Y-56856009D02*
X105830476Y-56856009D01*
X105830476Y-57379819D02*
X105830476Y-56379819D01*
X105830476Y-56379819D02*
X106306666Y-56379819D01*
X110998095Y-69794819D02*
X110998095Y-68794819D01*
X110998095Y-69271009D02*
X111569523Y-69271009D01*
X111569523Y-69794819D02*
X111569523Y-68794819D01*
X112474285Y-69128152D02*
X112474285Y-69794819D01*
X112236190Y-68747200D02*
X111998095Y-69461485D01*
X111998095Y-69461485D02*
X112617142Y-69461485D01*
X88854819Y-66866666D02*
X88378628Y-67199999D01*
X88854819Y-67438094D02*
X87854819Y-67438094D01*
X87854819Y-67438094D02*
X87854819Y-67057142D01*
X87854819Y-67057142D02*
X87902438Y-66961904D01*
X87902438Y-66961904D02*
X87950057Y-66914285D01*
X87950057Y-66914285D02*
X88045295Y-66866666D01*
X88045295Y-66866666D02*
X88188152Y-66866666D01*
X88188152Y-66866666D02*
X88283390Y-66914285D01*
X88283390Y-66914285D02*
X88331009Y-66961904D01*
X88331009Y-66961904D02*
X88378628Y-67057142D01*
X88378628Y-67057142D02*
X88378628Y-67438094D01*
X87854819Y-66533332D02*
X87854819Y-65866666D01*
X87854819Y-65866666D02*
X88854819Y-66295237D01*
X90114523Y-68779819D02*
X89543095Y-68779819D01*
X89828809Y-68779819D02*
X89828809Y-67779819D01*
X89828809Y-67779819D02*
X89733571Y-67922676D01*
X89733571Y-67922676D02*
X89638333Y-68017914D01*
X89638333Y-68017914D02*
X89543095Y-68065533D01*
X90733571Y-67779819D02*
X90828809Y-67779819D01*
X90828809Y-67779819D02*
X90924047Y-67827438D01*
X90924047Y-67827438D02*
X90971666Y-67875057D01*
X90971666Y-67875057D02*
X91019285Y-67970295D01*
X91019285Y-67970295D02*
X91066904Y-68160771D01*
X91066904Y-68160771D02*
X91066904Y-68398866D01*
X91066904Y-68398866D02*
X91019285Y-68589342D01*
X91019285Y-68589342D02*
X90971666Y-68684580D01*
X90971666Y-68684580D02*
X90924047Y-68732200D01*
X90924047Y-68732200D02*
X90828809Y-68779819D01*
X90828809Y-68779819D02*
X90733571Y-68779819D01*
X90733571Y-68779819D02*
X90638333Y-68732200D01*
X90638333Y-68732200D02*
X90590714Y-68684580D01*
X90590714Y-68684580D02*
X90543095Y-68589342D01*
X90543095Y-68589342D02*
X90495476Y-68398866D01*
X90495476Y-68398866D02*
X90495476Y-68160771D01*
X90495476Y-68160771D02*
X90543095Y-67970295D01*
X90543095Y-67970295D02*
X90590714Y-67875057D01*
X90590714Y-67875057D02*
X90638333Y-67827438D01*
X90638333Y-67827438D02*
X90733571Y-67779819D01*
X91495476Y-68779819D02*
X91495476Y-67779819D01*
X92066904Y-68779819D02*
X91638333Y-68208390D01*
X92066904Y-67779819D02*
X91495476Y-68351247D01*
X64966666Y-53589819D02*
X64966666Y-54304104D01*
X64966666Y-54304104D02*
X64919047Y-54446961D01*
X64919047Y-54446961D02*
X64823809Y-54542200D01*
X64823809Y-54542200D02*
X64680952Y-54589819D01*
X64680952Y-54589819D02*
X64585714Y-54589819D01*
X65966666Y-54589819D02*
X65395238Y-54589819D01*
X65680952Y-54589819D02*
X65680952Y-53589819D01*
X65680952Y-53589819D02*
X65585714Y-53732676D01*
X65585714Y-53732676D02*
X65490476Y-53827914D01*
X65490476Y-53827914D02*
X65395238Y-53875533D01*
X64709523Y-67254819D02*
X64138095Y-67254819D01*
X64423809Y-67254819D02*
X64423809Y-66254819D01*
X64423809Y-66254819D02*
X64328571Y-66397676D01*
X64328571Y-66397676D02*
X64233333Y-66492914D01*
X64233333Y-66492914D02*
X64138095Y-66540533D01*
X65090476Y-66350057D02*
X65138095Y-66302438D01*
X65138095Y-66302438D02*
X65233333Y-66254819D01*
X65233333Y-66254819D02*
X65471428Y-66254819D01*
X65471428Y-66254819D02*
X65566666Y-66302438D01*
X65566666Y-66302438D02*
X65614285Y-66350057D01*
X65614285Y-66350057D02*
X65661904Y-66445295D01*
X65661904Y-66445295D02*
X65661904Y-66540533D01*
X65661904Y-66540533D02*
X65614285Y-66683390D01*
X65614285Y-66683390D02*
X65042857Y-67254819D01*
X65042857Y-67254819D02*
X65661904Y-67254819D01*
X66661904Y-67159580D02*
X66614285Y-67207200D01*
X66614285Y-67207200D02*
X66471428Y-67254819D01*
X66471428Y-67254819D02*
X66376190Y-67254819D01*
X66376190Y-67254819D02*
X66233333Y-67207200D01*
X66233333Y-67207200D02*
X66138095Y-67111961D01*
X66138095Y-67111961D02*
X66090476Y-67016723D01*
X66090476Y-67016723D02*
X66042857Y-66826247D01*
X66042857Y-66826247D02*
X66042857Y-66683390D01*
X66042857Y-66683390D02*
X66090476Y-66492914D01*
X66090476Y-66492914D02*
X66138095Y-66397676D01*
X66138095Y-66397676D02*
X66233333Y-66302438D01*
X66233333Y-66302438D02*
X66376190Y-66254819D01*
X66376190Y-66254819D02*
X66471428Y-66254819D01*
X66471428Y-66254819D02*
X66614285Y-66302438D01*
X66614285Y-66302438D02*
X66661904Y-66350057D01*
D11*
%TO.C,Y1*%
X68010000Y-64180000D02*
X68010000Y-67900000D01*
X68010000Y-67900000D02*
X73880000Y-67900000D01*
X73880000Y-64180000D02*
X68010000Y-64180000D01*
%TO.C,R6*%
X85220436Y-65940000D02*
X85674564Y-65940000D01*
X85220436Y-67410000D02*
X85674564Y-67410000D01*
%TO.C,BT1*%
X102125000Y-48370000D02*
X102125000Y-46990000D01*
X103505000Y-48370000D02*
X102125000Y-48370000D01*
X104775000Y-45610000D02*
X107425000Y-45610000D01*
X104775000Y-48370000D02*
X104775000Y-45610000D01*
X104775000Y-48370000D02*
X107425000Y-48370000D01*
X107425000Y-48370000D02*
X107425000Y-45610000D01*
%TO.C,C1*%
X80063748Y-63400000D02*
X80586252Y-63400000D01*
X80063748Y-64870000D02*
X80586252Y-64870000D01*
%TO.C,J4*%
X108475000Y-55135000D02*
X109855000Y-55135000D01*
X108475000Y-56515000D02*
X108475000Y-55135000D01*
X108475000Y-57785000D02*
X108475000Y-62975000D01*
X108475000Y-57785000D02*
X111125000Y-57785000D01*
X108475000Y-62975000D02*
X113775000Y-62975000D01*
X111125000Y-55135000D02*
X113775000Y-55135000D01*
X111125000Y-57785000D02*
X111125000Y-55135000D01*
X113775000Y-55135000D02*
X113775000Y-62975000D01*
%TO.C,J3*%
X84980000Y-74405000D02*
X84980000Y-73025000D01*
X86360000Y-74405000D02*
X84980000Y-74405000D01*
X87630000Y-71645000D02*
X108060000Y-71645000D01*
X87630000Y-74405000D02*
X87630000Y-71645000D01*
X87630000Y-74405000D02*
X108060000Y-74405000D01*
X108060000Y-74405000D02*
X108060000Y-71645000D01*
%TO.C,C3*%
X96893748Y-56415000D02*
X97416252Y-56415000D01*
X96893748Y-57885000D02*
X97416252Y-57885000D01*
%TO.C,R5*%
X69980436Y-60225000D02*
X70434564Y-60225000D01*
X69980436Y-61695000D02*
X70434564Y-61695000D01*
%TO.C,Y2*%
X67990000Y-52485000D02*
X67990000Y-58355000D01*
X67990000Y-58355000D02*
X71710000Y-58355000D01*
X71710000Y-58355000D02*
X71710000Y-52485000D01*
%TO.C,R2*%
X103912936Y-58320000D02*
X104367064Y-58320000D01*
X103912936Y-59790000D02*
X104367064Y-59790000D01*
%TO.C,D1*%
X102152500Y-63175000D02*
X102152500Y-65095000D01*
X102152500Y-65095000D02*
X104837500Y-65095000D01*
X104837500Y-63175000D02*
X102152500Y-63175000D01*
%TO.C,U2*%
X74710000Y-45500000D02*
X80230000Y-45500000D01*
X74710000Y-45770000D02*
X74710000Y-45500000D01*
X74710000Y-51020000D02*
X74710000Y-50750000D01*
X80230000Y-45500000D02*
X80230000Y-45770000D01*
X80230000Y-50750000D02*
X80230000Y-51020000D01*
X80230000Y-51020000D02*
X74710000Y-51020000D01*
X73880000Y-45760000D02*
X73540000Y-45290000D01*
X74220000Y-45290000D01*
X73880000Y-45760000D01*
G36*
X73880000Y-45760000D02*
G01*
X73540000Y-45290000D01*
X74220000Y-45290000D01*
X73880000Y-45760000D01*
G37*
%TO.C,U1*%
X86140000Y-45500000D02*
X91660000Y-45500000D01*
X86140000Y-45770000D02*
X86140000Y-45500000D01*
X86140000Y-51020000D02*
X86140000Y-50750000D01*
X91660000Y-45500000D02*
X91660000Y-45770000D01*
X91660000Y-50750000D02*
X91660000Y-51020000D01*
X91660000Y-51020000D02*
X86140000Y-51020000D01*
X85310000Y-45760000D02*
X84970000Y-45290000D01*
X85650000Y-45290000D01*
X85310000Y-45760000D01*
G36*
X85310000Y-45760000D02*
G01*
X84970000Y-45290000D01*
X85650000Y-45290000D01*
X85310000Y-45760000D01*
G37*
D12*
%TO.C,U3*%
X76805000Y-54630000D02*
X80805000Y-54630000D01*
X76805000Y-59670000D02*
X80805000Y-59670000D01*
D13*
X74460000Y-54655000D02*
G75*
G02*
X74260000Y-54655000I-100000J0D01*
G01*
X74260000Y-54655000D02*
G75*
G02*
X74460000Y-54655000I100000J0D01*
G01*
D11*
%TO.C,C2*%
X76253748Y-63400000D02*
X76776252Y-63400000D01*
X76253748Y-64870000D02*
X76776252Y-64870000D01*
%TO.C,D2*%
X102152500Y-51110000D02*
X102152500Y-53030000D01*
X102152500Y-53030000D02*
X104837500Y-53030000D01*
X104837500Y-51110000D02*
X102152500Y-51110000D01*
%TO.C,R4*%
X97285436Y-51335000D02*
X97739564Y-51335000D01*
X97285436Y-52805000D02*
X97739564Y-52805000D01*
%TO.C,R1*%
X98555436Y-45620000D02*
X99009564Y-45620000D01*
X98555436Y-47090000D02*
X99009564Y-47090000D01*
%TO.C,J2*%
X70375000Y-74405000D02*
X70375000Y-73025000D01*
X71755000Y-74405000D02*
X70375000Y-74405000D01*
X73025000Y-71645000D02*
X80755000Y-71645000D01*
X73025000Y-74405000D02*
X73025000Y-71645000D01*
X73025000Y-74405000D02*
X80755000Y-74405000D01*
X80755000Y-74405000D02*
X80755000Y-71645000D01*
%TO.C,R3*%
X96927936Y-61495000D02*
X97382064Y-61495000D01*
X96927936Y-62965000D02*
X97382064Y-62965000D01*
D12*
%TO.C,U4*%
X85400000Y-54920000D02*
X85400000Y-55025000D01*
X85400000Y-54920000D02*
X85505000Y-54920000D01*
X85400000Y-61920000D02*
X85400000Y-61815000D01*
X85400000Y-61920000D02*
X85505000Y-61920000D01*
X92400000Y-54920000D02*
X92295000Y-54920000D01*
X92400000Y-54920000D02*
X92400000Y-55025000D01*
X92400000Y-61920000D02*
X92295000Y-61920000D01*
X92400000Y-61920000D02*
X92400000Y-61815000D01*
D13*
X83160000Y-55620000D02*
G75*
G02*
X82960000Y-55620000I-100000J0D01*
G01*
X82960000Y-55620000D02*
G75*
G02*
X83160000Y-55620000I100000J0D01*
G01*
D11*
%TO.C,C4*%
X95623748Y-65940000D02*
X96146252Y-65940000D01*
X95623748Y-67410000D02*
X96146252Y-67410000D01*
%TO.C,C5*%
X103878748Y-54510000D02*
X104401252Y-54510000D01*
X103878748Y-55980000D02*
X104401252Y-55980000D01*
%TO.C,R7*%
X90577936Y-65940000D02*
X91032064Y-65940000D01*
X90577936Y-67410000D02*
X91032064Y-67410000D01*
%TO.C,J1*%
X64025000Y-55135000D02*
X65405000Y-55135000D01*
X64025000Y-56515000D02*
X64025000Y-55135000D01*
X64025000Y-57785000D02*
X64025000Y-65515000D01*
X64025000Y-57785000D02*
X66785000Y-57785000D01*
X64025000Y-65515000D02*
X66785000Y-65515000D01*
X66785000Y-57785000D02*
X66785000Y-65515000D01*
%TD*%
M02*
